<svg xmlns="http://www.w3.org/2000/svg" xmlns:xlink="http://www.w3.org/1999/xlink" viewBox="0 0 596.6369 518.1604"><defs><style>.a,.b,.d{fill:#fffdfa;}.b{stroke:#b9d9f6;stroke-width:45px;}.b,.c,.d,.f{stroke-miterlimit:10;}.c,.d,.e,.f{stroke:#1d1f21;}.c{fill:url(#a);}.e{fill:#ffc5bf;stroke-linecap:round;stroke-linejoin:round;}.f{fill:#1d1f21;}.g{fill:#95d9cc;}</style><radialGradient id="a" cx="249.8291" cy="110.6547" r="462.362" gradientUnits="userSpaceOnUse"><stop offset="0" stop-color="#fffdfa" stop-opacity="0.5"/><stop offset="0.4637" stop-color="#fafcfe" stop-opacity="0.5338"/><stop offset="0.5022" stop-color="#f3f8fd" stop-opacity="0.5833"/><stop offset="0.6576" stop-color="#daebfa" stop-opacity="0.7626"/><stop offset="0.7978" stop-color="#c8e1f8" stop-opacity="0.8925"/><stop offset="0.9166" stop-color="#bddbf6" stop-opacity="0.9716"/><stop offset="1" stop-color="#b9d9f6"/></radialGradient></defs><title>ghost-blue</title><path class="a" d="M205.9894,459.2086c-7.2293,4.9566-14.9163,7.6212-22.8831,7.6212-37.31,0-68.3793-58.3395-75.01-135.419-63.3255-43.958-98.804-98.6682-81.0139-129.4659,12.0919-20.9277,45.9762-26.0834,88.3233-16.9422C139.606,90.8455,212.0217,22.5,297.5806,22.5c85.2707,0,157.4657,67.8706,181.9039,161.502,43.1611-9.65,77.8256-4.6468,90.07,16.5691,17.9258,31.0523-18.2311,86.3389-82.4385,130.4667-6.4954,77.266-37.2423,135.792-74.2132,135.792-7.8521,0-15.4328-2.6457-22.5727-7.5637"/><path class="a" d="M390.0189,456.3273c-11.2809,16.3246-24.6661,25.7658-39.017,25.7658a35.1826,35.1826,0,0,1-16.5691-4.3077c-.6953-.3731-1.3907-.7631-2.069-1.1871-.5766.6952-1.1532,1.3738-1.7468,2.035-9.7006,10.9049-20.6223,17.0271-32.1884,17.0271-11.4135,0-22.2-5.97-31.7985-16.6031-.7292-.797-1.4414-1.611-2.1368-2.459-.865.5259-1.7129,1.0175-2.5947,1.4585a34.8853,34.8853,0,0,1-16.0434,4.0363c-14.568,0-28.1353-9.7346-39.5318-26.5072"/><path class="b" d="M205.9894,459.2086c-7.2293,4.9566-14.9163,7.6212-22.8831,7.6212-37.31,0-68.3793-58.3395-75.01-135.419-63.3255-43.958-98.804-98.6682-81.0139-129.4659,12.0919-20.9277,45.9762-26.0834,88.3233-16.9422C139.606,90.8455,212.0217,22.5,297.5806,22.5c85.2707,0,157.4657,67.8706,181.9039,161.502,43.1611-9.65,77.8256-4.6468,90.07,16.5691,17.9258,31.0523-18.2311,86.3389-82.4385,130.4667-6.4954,77.266-37.2423,135.792-74.2132,135.792-7.8521,0-15.4328-2.6457-22.5727-7.5637"/><path class="b" d="M390.0189,456.3273c-11.2809,16.3246-24.6661,25.7658-39.017,25.7658a35.1826,35.1826,0,0,1-16.5691-4.3077c-.6953-.3731-1.3907-.7631-2.069-1.1871-.5766.6952-1.1532,1.3738-1.7468,2.035-9.7006,10.9049-20.6223,17.0271-32.1884,17.0271-11.4135,0-22.2-5.97-31.7985-16.6031-.7292-.797-1.4414-1.611-2.1368-2.459-.865.5259-1.7129,1.0175-2.5947,1.4585a34.8853,34.8853,0,0,1-16.0434,4.0363c-14.568,0-28.1353-9.7346-39.5318-26.5072"/><path class="a" d="M205.9894,459.2086c-7.2293,4.9566-14.9163,7.6212-22.8831,7.6212-37.31,0-68.3793-58.3395-75.01-135.419-63.3255-43.958-98.804-98.6682-81.0139-129.4659,12.0919-20.9277,45.9762-26.0834,88.3233-16.9422C139.606,90.8455,212.0217,22.5,297.5806,22.5c85.2707,0,157.4657,67.8706,181.9039,161.502,43.1611-9.65,77.8256-4.6468,90.07,16.5691,17.9258,31.0523-18.2311,86.3389-82.4385,130.4667-6.4954,77.266-37.2423,135.792-74.2132,135.792-7.8521,0-15.4328-2.6457-22.5727-7.5637"/><path class="a" d="M390.0189,456.3273c-11.2809,16.3246-24.6661,25.7658-39.017,25.7658a35.1826,35.1826,0,0,1-16.5691-4.3077c-.6953-.3731-1.3907-.7631-2.069-1.1871-.5766.6952-1.1532,1.3738-1.7468,2.035-9.7006,10.9049-20.6223,17.0271-32.1884,17.0271-11.4135,0-22.2-5.97-31.7985-16.6031-.7292-.797-1.4414-1.611-2.1368-2.459-.865.5259-1.7129,1.0175-2.5947,1.4585a34.8853,34.8853,0,0,1-16.0434,4.0363c-14.568,0-28.1353-9.7346-39.5318-26.5072"/><path class="a" d="M205.9894,459.2086c-7.2293,4.9566-14.9163,7.6212-22.8831,7.6212-37.31,0-68.3793-58.3395-75.01-135.419-63.3255-43.958-98.804-98.6682-81.0139-129.4659,12.0919-20.9277,45.9762-26.0834,88.3233-16.9422C139.606,90.8455,212.0217,22.5,297.5806,22.5c85.2707,0,157.4657,67.8706,181.9039,161.502,43.1611-9.65,77.8256-4.6468,90.07,16.5691,17.9258,31.0523-18.2311,86.3389-82.4385,130.4667-6.4954,77.266-37.2423,135.792-74.2132,135.792-7.8521,0-15.4328-2.6457-22.5727-7.5637"/><path class="a" d="M390.0189,456.3273c-11.2809,16.3246-24.6661,25.7658-39.017,25.7658a35.1826,35.1826,0,0,1-16.5691-4.3077c-.6953-.3731-1.3907-.7631-2.069-1.1871-.5766.6952-1.1532,1.3738-1.7468,2.035-9.7006,10.9049-20.6223,17.0271-32.1884,17.0271-11.4135,0-22.2-5.97-31.7985-16.6031-.7292-.797-1.4414-1.611-2.1368-2.459-.865.5259-1.7129,1.0175-2.5947,1.4585a34.8853,34.8853,0,0,1-16.0434,4.0363c-14.568,0-28.1353-9.7346-39.5318-26.5072"/><path class="c" d="M487.1185,331.04c-6.5,77.26-37.24,135.79-74.22,135.79-7.85,0-15.43-2.65-22.57-7.56h-2.42c-10.82,14.51-23.44,22.82-36.91,22.82a35.2785,35.2785,0,0,1-16.57-4.3c-.69-.38-1.39-.77-2.06-1.19-.58.69-1.16,1.37-1.75,2.03-9.7,10.91-20.62,17.03-32.19,17.03-11.41,0-22.2-5.97-31.8-16.6-.73-.8-1.44-1.61-2.14-2.46-.86.52-1.71,1.02-2.59,1.46a34.95,34.95,0,0,1-16.04,4.03c-13.49,0-26.12-8.34-36.96-22.88h-2.91c-7.23,4.96-14.92,7.62-22.88,7.62-37.31,0-68.38-58.34-75.01-135.42-63.33-43.96-98.81-98.67-81.02-129.47,12.1-20.92,45.98-26.08,88.33-16.94,24.2-94.15,96.61-162.5,182.17-162.5,85.27,0,157.47,67.87,181.91,161.5,43.16-9.65,77.82-4.65,90.07,16.57C587.4784,231.62,551.3185,286.91,487.1185,331.04Z"/><path class="d" d="M303.7284,265.5057c-1.1024,1.8317-2.2386,3.5955-3.3918,5.2914-.7123-.4749-1.4076-1.0007-2.12-1.5433C300.0822,268.0665,301.9138,266.8116,303.7284,265.5057Z"/><path class="d" d="M303.7284,265.5057c-1.1024,1.8317-2.2386,3.5955-3.3918,5.2914-.7123-.4749-1.4076-1.0007-2.12-1.5433C300.0822,268.0665,301.9138,266.8116,303.7284,265.5057Z"/><path class="e" d="M337.857,233.8431c0,22.245-16.1835,40.2779-36.1467,40.2779s-36.1467-18.0329-36.1467-40.2779l24.5117,3.2385a84.2887,84.2887,0,0,0,21.5824.0643Z"/><ellipse class="f" cx="239.0647" cy="169.3983" rx="27.0314" ry="40.278"/><ellipse class="g" cx="235.8628" cy="146.9274" rx="11.4147" ry="12.7194"/><ellipse class="f" cx="354.3869" cy="169.3983" rx="27.0314" ry="40.278"/><ellipse class="g" cx="351.1851" cy="146.9274" rx="11.4147" ry="12.7194"/></svg>