<svg xmlns="http://www.w3.org/2000/svg" xmlns:xlink="http://www.w3.org/1999/xlink" viewBox="0 0 693.3821 688.3038"><defs><style>.a,.f{fill:#ffc5bf;}.a,.d,.e,.f,.g{stroke:#1d1f21;}.a,.c,.d,.e,.g{stroke-miterlimit:10;}.a{stroke-width:0.9544px;}.b,.c,.e{fill:#fffdfa;}.c{stroke:#95d9cc;stroke-width:45px;}.d{fill:url(#a);}.f{stroke-linecap:round;stroke-linejoin:round;}.g{fill:#1d1f21;}.h{fill:#95d9cc;}</style><radialGradient id="a" cx="298.4475" cy="192.9575" r="462.362" gradientUnits="userSpaceOnUse"><stop offset="0" stop-color="#fffdfa" stop-opacity="0.5"/><stop offset="0.4637" stop-color="#fafcfe" stop-opacity="0.5338"/><stop offset="0.5022" stop-color="#f3f8fd" stop-opacity="0.5833"/><stop offset="0.6576" stop-color="#daebfa" stop-opacity="0.7626"/><stop offset="0.7978" stop-color="#c8e1f8" stop-opacity="0.8925"/><stop offset="0.9166" stop-color="#bddbf6" stop-opacity="0.9716"/><stop offset="1" stop-color="#b9d9f6"/></radialGradient></defs><title>ghost-title_1</title><path class="a" d="M84.848,559.4963l39.7539-38.2334c2.0362-1.959,3.584-1.9541,5.2344-.2314l5.8565,6.1094c1.7041,1.7773,1.5947,3.2714-.4434,5.23l-14.2588,13.7139,11.2354,11.7187L146.4848,544.09c2.0361-1.959,3.5839-1.9532,5.2343-.2315l5.8565,6.1094c1.6513,1.7217,1.5947,3.2705-.4434,5.23L117.38,593.4319c-2.0371,1.959-3.585,1.9531-5.2344.2324l-5.8574-6.11c-1.65-1.7216-1.5938-3.27.4423-5.23l14.4454-13.8935-11.2344-11.7188L95.4975,570.6047c-2.0372,1.959-3.5313,2.0088-5.2344.2315l-5.8574-6.1094C82.7553,563.0051,82.8119,561.4553,84.848,559.4963Z"/><path class="a" d="M147.4174,583.2561c13.1543-18.9307,24.6259-22.502,39.166-12.2988,14.4775,10.1591,15.0918,22.2119,1.9375,41.1425s-24.626,22.502-39.1035,12.3428C134.8773,614.24,134.2631,602.1877,147.4174,583.2561Zm28.0107,19.6562c7.3838-10.6269,7.8926-15.4,2.3526-19.2871s-9.8243-1.7636-17.2081,8.8623-7.955,15.3565-2.3525,19.2881S168.0443,613.5393,175.4281,602.9123Z"/><path class="a" d="M189.2435,643.7571l22.3028-50.5459c1.1445-2.59,2.5742-3.169,4.7461-2.1924l16.6015,7.4678c14.57,6.5537,19.0537,16.9423,13.1319,30.3632-5.958,13.501-16.501,17.0352-31.1407,10.4512l-5.7441-2.584L203.2533,650.06c-1.1094,2.5107-2.5049,3.2-4.7451,2.1924l-7.7061-3.4668C188.63,647.8088,188.1,646.3479,189.2435,643.7571Zm31.8448-17.752c4.833,2.1738,8.2529.8906,10.2968-3.74s.7012-8.0567-4.1328-10.2305l-6.0234-2.71-6.165,13.9708Z"/><path class="a" d="M267.8783,673.7151l9.0449-54.6133c.4639-2.7979,1.7041-3.7158,4.045-3.3076l8.3066,1.4482c2.417.4219,3.2168,1.6953,2.7529,4.4942l-3.2441,19.5888,15.9355,2.7793,3.2432-19.59c.4639-2.7979,1.7041-3.7158,4.0449-3.3076l8.3067,1.4482c2.3427.4092,3.2168,1.6953,2.7529,4.4941l-9.0449,54.6133c-.4639,2.7989-1.7032,3.7158-4.043,3.3076l-8.3086-1.4482c-2.3408-.4082-3.2168-1.6953-2.7529-4.4941l3.2871-19.8428-15.9346-2.78L282.9828,676.35c-.4639,2.7979-1.6279,3.73-4.0449,3.3086l-8.3076-1.4492C268.29,677.801,267.4144,676.5139,267.8783,673.7151Z"/><path class="a" d="M331.932,655.6448c-.6855-23.1534,6.377-32.8643,24.0518-33.2422,17.5976-.376,25.2265,9.02,25.9131,32.1738s-6.376,32.8633-23.9746,33.2393C340.2475,688.1936,332.62,678.7971,331.932,655.6448Zm34.05-.7286c-.3847-12.997-2.8056-17.165-9.539-17.0214s-8.9034,4.41-8.5186,17.4072,2.73,17.167,9.5391,17.02C364.2728,672.178,366.3666,667.9123,365.9818,654.9162Z"/><path class="a" d="M401.1879,679.7883l-12.0733-54.2031c-.6181-2.7774.1836-4.0967,2.4991-4.5957l17.705-3.82c15.5391-3.3516,25.2764,2.3994,28.4815,16.791,3.2246,14.4766-3.1192,23.6074-18.7334,26.9756l-6.126,1.3213,3.1875,14.3086c.6,2.6923-.1094,4.081-2.5,4.5966l-8.2168,1.7725C403.0961,683.4338,401.806,682.5657,401.1879,679.7883Zm14.9726-33.31c5.1553-1.1113,7.1319-4.1845,6.0254-9.15s-4.209-6.9434-9.3623-5.8311l-6.4248,1.3857,3.3369,14.9815Z"/><path class="a" d="M481.8617,657.3176l-25.1289-49.6c-1.2871-2.542-.8408-4.0225,1.2744-5.085l7.501-3.7695c2.1816-1.0967,3.5752-.541,4.8633,2.001l9.0146,17.791,14.3867-7.2314-9.0136-17.7911c-1.2871-2.542-.8409-4.0224,1.2734-5.0849l7.502-3.77c2.1132-1.0634,3.5742-.541,4.8632,2.001l25.1289,49.6c1.2872,2.5411.8389,4.0225-1.2744,5.084l-7.5009,3.77c-2.1143,1.0616-3.5762.54-4.8633-2.0009L500.7572,625.21l-14.3867,7.2314,9.13,18.0215c1.2871,2.542.9092,3.9893-1.2735,5.086l-7.5009,3.7695C484.6117,660.3811,483.1488,659.86,481.8617,657.3176Z"/><path class="a" d="M522.4076,604.5217c-14.3047-18.31-14.4346-30.375-.5459-41.2256,13.8281-10.8047,25.502-7.7588,39.8066,10.55,14.3028,18.3086,14.4336,30.3741.6065,41.1787C548.3851,625.8762,536.7113,622.83,522.4076,604.5217Zm26.7539-20.9043c-8.0293-10.2783-12.4385-12.2041-17.7285-8.07-5.292,4.1348-4.4893,8.8789,3.54,19.1563s12.378,12.25,17.73,8.0693S557.1918,593.8948,549.1615,583.6174Z"/><path class="a" d="M592.0492,582.7414,550.226,546.094c-2.1436-1.877-2.2862-3.4229-.7334-5.2071l11.88-13.6406c10.4248-11.9707,21.6181-13.123,32.7226-3.3916,11.17,9.7871,11.5225,20.9531,1.0469,32.9824l-4.1094,4.72,11.04,9.6738c2.0782,1.82,2.336,3.3652.7315,5.207l-5.5127,6.3311C595.7387,584.553,594.1928,584.6194,592.0492,582.7414Zm-7.8115-35.8652c3.459-3.9717,3.2139-7.6357-.6182-10.9932s-7.4844-3.1074-10.9424.8643l-4.3095,4.95,11.5595,10.1279Z"/><path class="a" d="M622.8558,509.4319l-6.7832-3.7754c-2.4121-1.3428-2.8769-2.8262-1.7011-4.97l9.7011-17.6836c1.1739-2.1436,2.6319-2.4688,5.044-1.127l6.7832,3.7754c2.3369,1.3018,2.9141,2.7588,1.7373,4.9023l-9.6992,17.6836C626.7621,510.3811,625.1928,510.7327,622.8558,509.4319Z"/><path class="a" d="M669.2777,460.9827,616.0912,445.25c-2.7256-.8056-3.5039-2.1523-2.85-4.4326l2.3193-8.09c.6758-2.3535,2.0235-2.9922,4.7491-2.1856l19.0781,5.6426,4.4521-15.5176-19.0781-5.6435c-2.7266-.8067-3.5039-2.1543-2.85-4.4336l2.32-8.09c.6533-2.2793,2.0225-2.9922,4.749-2.1855l53.1865,15.7324c2.7247.8057,3.504,2.1533,2.85,4.4326l-2.32,8.0908c-.6543,2.2793-2.0234,2.9922-4.748,2.1856L658.6234,425.04l-4.4521,15.5175,19.3271,5.7168c2.7246.8057,3.5235,2.08,2.8487,4.4327l-2.32,8.09C673.3715,461.0774,672.0033,461.7893,669.2777,460.9827Z"/><path class="a" d="M658.1381,394.9914c-23.0293-2.1142-31.9219-10.3193-30.4541-27.9638C629.1459,349.46,639.26,343,662.2894,345.1155c23.0313,2.1142,31.9239,10.3193,30.462,27.8867C691.2826,390.6467,681.1683,397.1067,658.1381,394.9914Zm2.8291-33.9892c-12.9268-1.1875-17.3135.7187-17.8721,7.44s3.4443,9.3984,16.3731,10.585c12.9267,1.1875,17.3056-.6426,17.872-7.44S673.8949,362.1887,660.9672,361.0022Z"/><path class="a" d="M689.3041,328.8674l-55.0049,5.5186c-2.8184.2832-4.0449-.6748-4.3-3.04l-1.9531-18.0888c-1.7149-15.875,4.997-24.8809,19.6035-26.3457,14.69-1.4737,23.0869,5.9384,24.8115,21.89l.6748,6.2578,14.52-1.456c2.7325-.2744,4.0352.5976,4.3,3.04l.9073,8.3955C693.1185,327.4045,692.1234,328.5842,689.3041,328.8674Zm-31.4815-18.9062c-.5693-5.2666-3.4121-7.6035-8.4511-7.0987s-7.3213,3.3575-6.753,8.6241l.7081,6.5634,15.2041-1.5244Z"/><path class="a" d="M675.2787,245.6828l-51.7344,19.2159c-2.6513.9843-4.0752.3652-4.916-1.8653l-2.9853-7.914c-.8672-2.3018-.1778-3.625,2.4746-4.6094l18.5566-6.8916-5.7256-15.1807L612.391,235.33c-2.6494.9854-4.0752.3652-4.915-1.8643l-2.9864-7.913c-.84-2.2315-.1757-3.626,2.4746-4.61l51.7364-19.2148c2.6494-.9854,4.0742-.3653,4.915,1.8642l2.9844,7.9141c.8418,2.2305.1767,3.625-2.4736,4.6094l-18.7979,6.9824,5.7256,15.1787,18.7978-6.9814c2.65-.9844,4.0489-.4375,4.917,1.8652l2.9844,7.9131C678.5951,243.3039,677.93,244.6985,675.2787,245.6828Z"/><path class="a" d="M626.9662,199.0979c-19.585,12.1289-31.5674,10.86-40.9541-4.2354-9.3457-15.03-5.1641-26.3086,14.42-38.4375,19.586-12.1289,31.5684-10.86,40.9141,4.17C650.7318,175.6907,646.5512,186.969,626.9662,199.0979Zm-18.0811-29.08c-10.9941,6.8086-13.3427,10.9785-9.7675,16.7285s8.3623,5.502,19.3564-1.3066,13.3828-10.9131,9.7666-16.7285S619.8783,163.2092,608.8851,170.0178Z"/><path class="a" d="M612.3031,127.24,571.768,164.6321c-2.0762,1.916-3.625,1.8789-5.24.123l-12.3486-13.4209c-10.8359-11.7793-10.8623-23.0625-.0986-32.9912,10.8271-9.9873,21.94-9.0381,32.83,2.7979l4.2715,4.6435,10.7012-9.8711c2.0137-1.8584,3.5732-1.9346,5.2393-.123l5.7314,6.23C614.47,123.7756,614.38,125.3235,612.3031,127.24Zm-36.3642,3.6035c-3.5957-3.9082-7.2549-4.0908-10.9688-.665s-3.83,7.0927-.2363,11l4.4814,4.8711,11.2031-10.336Z"/><path class="a" d="M551.7006,68.5871,521.7875,114.968c-1.5332,2.376-3.0391,2.7246-5.0342,1.4219l-7.084-4.6211c-2.0605-1.3447-2.2939-2.8272-.7607-5.2041l10.73-16.6367-13.586-8.8643L495.3217,97.7c-1.5342,2.376-3.0381,2.7246-5.0352,1.4219L483.2035,94.5c-1.9971-1.3017-2.2939-2.8261-.7617-5.2031l29.914-46.38c1.5323-2.3769,3.0391-2.7256,5.0342-1.4228l7.084,4.622c1.9961,1.3018,2.293,2.8262.7608,5.2032L514.3666,68.1721l13.5859,8.8652,10.8682-16.8525c1.5351-2.377,2.9746-2.7666,5.0351-1.4219l7.084,4.6211C552.9359,64.6858,553.2338,66.2112,551.7006,68.5871Z"/><path class="a" d="M485.434,59.6965c-8.4424,21.4863-18.7666,27.6055-35.2285,20.9951-16.39-6.581-19.7461-18.1943-11.3047-39.6816,8.4433-21.4863,18.7675-27.6055,35.1572-21.0234C490.5189,26.5959,493.8764,38.2092,485.434,59.6965ZM453.723,46.9621c-4.7382,12.0616-4.14,16.834,2.1319,19.3526s9.9472-.5371,14.6855-12.5987,4.2119-16.8056-2.1318-19.3525C462.0668,31.8166,458.4613,34.9006,453.723,46.9621Z"/><path class="a" d="M431.0238,10.3342,420.8744,64.75c-.52,2.7881-1.7783,3.6807-4.1113,3.2246l-17.834-3.4843c-15.6524-3.06-22.3779-12.168-19.6816-26.6172,2.71-14.5332,12.1494-20.3946,27.8769-17.3213l6.1709,1.2051L415.974,7.3928c.5049-2.7041,1.7031-3.6953,4.1113-3.2256l8.2774,1.6182C430.6967,6.2405,431.5453,7.5452,431.0238,10.3342ZM404.1283,34.9416c-5.1924-1.0146-8.2236,1.02-9.1533,6.0059s1.1553,8.02,6.3476,9.0342l6.4707,1.2646,2.8057-15.04Z"/><path class="a" d="M352.2191,20.0823l.1875,7.7461c.0655,2.7539-.9785,3.89-3.4277,3.9287l-20.2031.3173c-2.4483.0391-3.4707-1.0644-3.5371-3.8183l-.1856-7.7471c-.0644-2.668.9014-3.8887,3.35-3.9267l20.2031-.3184C351.0541,16.2258,352.1547,17.4133,352.2191,20.0823Z"/><path class="a" d="M286.9183,3.6868l13.3125,53.9209c.6817,2.7636-.09,4.1015-2.3935,4.6542l-8.1748,1.9629c-2.377.5713-3.6113-.2851-4.294-3.0478l-4.7744-19.3418L264.9164,45.6l4.7744,19.3409c.6817,2.7627-.09,4.1015-2.3926,4.6543l-8.1738,1.9628c-2.3047.5528-3.6123-.2861-4.2939-3.05l-13.3135-53.92c-.6817-2.7637.09-4.1015,2.3935-4.6543l8.1739-1.9629c2.3027-.5527,3.6123.2852,4.2949,3.0489l4.8359,19.5918,15.6787-3.7637L272.057,7.2551c-.6816-2.7627.0147-4.084,2.3926-4.6543L282.6225.6379C284.9262.0852,286.2367.9241,286.9183,3.6868Z"/><path class="a" d="M235.3949,45.8254c9.8438,21.0342,7.2559,32.794-8.7422,40.2071-15.9287,7.3818-26.64,1.7832-36.4844-19.251s-7.2578-32.794,8.6729-40.1748C214.84,19.1936,225.55,24.7912,235.3949,45.8254Zm-30.82,14.28C210.1,71.9133,213.97,74.7825,220.0658,71.9582s6.38-7.6181.8535-19.4257-9.3281-14.7071-15.49-11.8516C199.2641,43.5373,199.0492,48.2991,204.5746,60.1057Z"/><path class="a" d="M162.5473,51.258l32.5664,45.0889c1.6679,2.3115,1.4589,3.8457-.459,5.23l-14.669,10.5742c-12.874,9.2813-24.0586,7.8682-32.706-4.1045-8.6973-12.0429-6.5254-22.9785,6.41-32.3037l5.0752-3.6582-8.5957-11.9023c-1.6191-2.2412-1.5215-3.8008.458-5.2285l6.8086-4.9082C159.3549,48.6623,160.8783,48.9475,162.5473,51.258Zm-.4581,36.6358c-4.27,3.0791-4.8574,6.6963-1.874,10.8271s6.6045,4.7139,10.876,1.6358l5.3223-3.8369-9.001-12.4629Z"/><path class="a" d="M97.725,104.0608,140.3617,139.74c2.1856,1.8291,2.3633,3.37.8516,5.19l-5.3662,6.457c-1.56,1.879-3.0557,1.9219-5.24.0938l-15.2939-12.7979-10.292,12.3877,15.2939,12.7979c2.1846,1.8271,2.3614,3.37.8506,5.1894l-5.3672,6.4581c-1.5107,1.8193-3.0547,1.9218-5.24.0927L67.9223,139.93c-2.1856-1.8281-2.3643-3.3711-.8516-5.19l5.3662-6.458c1.5117-1.8194,3.0557-1.9209,5.2393-.0928l15.4931,12.9639,10.293-12.3867L87.9691,115.802c-2.1845-1.8281-2.4111-3.3125-.8506-5.19l5.3663-6.4571C93.9955,102.3342,95.5394,102.2327,97.725,104.0608Z"/><path class="a" d="M81.557,168.8635c20.3643,11.1211,25.29,22.17,16.9258,37.7119-8.3281,15.4756-20.2061,17.3457-40.5693,6.2227s-25.29-22.1709-16.9619-37.6455C49.3158,159.6106,61.1947,157.7405,81.557,168.8635Zm-16.1123,29.94c11.4307,6.2432,16.2256,6.251,19.4121.3291s.5635-9.9648-10.8662-16.208c-11.4316-6.2431-16.19-6.3183-19.4131-.33S54.0141,192.5608,65.4447,198.8039Z"/><path class="a" d="M26.598,216.9182l52.8526,16.8291c2.708.8633,3.458,2.2256,2.7568,4.4912l-5.3662,17.3193c-4.708,15.2-14.458,20.7666-28.4922,16.2969-14.1162-4.4941-18.915-14.6133-14.1826-29.8857l1.8555-5.9932L22.07,231.5334c-2.625-.8359-3.4814-2.1523-2.7558-4.49l2.49-8.0391C22.5053,216.74,23.89,216.0549,26.598,216.9182ZM48.1088,246.73c-1.5625,5.042.13,8.3106,4.9726,9.8526s8.0733-.1592,9.6358-5.2012l1.9472-6.2852L50.056,240.4446Z"/><path class="a" d="M6.558,298.3967l55.2646,3.1777c2.8311.1631,3.8956,1.3,3.7793,3.6739l-.414,8.4228c-.1192,2.4512-1.2842,3.3828-4.1162,3.22l-19.8233-1.14-.792,16.1592L60.28,333.05c2.832.1621,3.8945,1.3,3.7783,3.6729l-.4121,8.4238c-.1162,2.375-1.2842,3.3828-4.1162,3.22L4.2641,345.1887C1.433,345.0256.37,343.89.4857,341.5149l.4131-8.4239c.1162-2.374,1.2852-3.3818,4.1162-3.2187l20.08,1.1543.792-16.1582L5.808,313.7131c-2.833-.1631-3.8994-1.2226-3.7793-3.6738l.4131-8.4229C2.558,299.2424,3.726,298.2336,6.558,298.3967Z"/><path class="a" d="M32.3949,360.3293c22.8545-3.2509,33.3789,2.6983,36.0088,20.2412,2.6191,17.4678-5.7178,26.1-28.5723,29.3516s-33.3779-2.6992-35.997-20.166C1.2045,372.2121,9.5414,363.58,32.3949,360.3293Zm5.0684,33.7959C50.2914,392.3,54.1127,389.43,53.1107,382.7463s-5.5068-8.3691-18.3349-6.5449-16.6621,4.62-15.6494,11.3789C20.141,394.34,24.6342,395.95,37.4633,394.1252Z"/><path class="a" d="M17.3568,431.9914l52.1319-18.1259c2.6718-.9287,4.0839-.2793,4.8779,1.9677L80.44,433.0139c5.3311,15.0781.8946,25.4121-12.9482,30.2246-13.9248,4.8408-23.79-.4385-29.1465-15.5889l-2.1016-5.9443-13.7617,4.7852c-2.5908.9-4.0576.3515-4.876-1.9678l-2.8193-7.9746C13.9916,434.301,14.685,432.92,17.3568,431.9914Zm34.9346,11.1358c1.7686,5.001,5.0674,6.6221,9.8437,4.9609s6.3331-4.97,4.5645-9.9717l-2.2031-6.2334-14.41,5.0088Z"/><path class="a" d="M66.0658,495.5432l6.5762-4.0205c2.3379-1.43,3.8525-1.0928,5.1406,1.0058l10.6309,17.3086c1.2881,2.0987.8613,3.5313-1.4766,4.961l-6.5742,4.02c-2.2656,1.3848-3.8125,1.1582-5.1016-.94L64.63,500.5686C63.3422,498.4709,63.8021,496.928,66.0658,495.5432Z"/><path class="b" d="M254.6078,541.5114c-7.2293,4.9567-14.9163,7.6213-22.883,7.6213-37.31,0-68.3794-58.34-75.01-135.419-63.3256-43.958-98.8041-98.6683-81.014-129.466,12.0919-20.9277,45.9763-26.0833,88.3233-16.9421C188.2245,173.1483,260.64,104.8028,346.199,104.8028c85.2707,0,157.4658,67.8706,181.904,161.502,43.161-9.65,77.8255-4.6468,90.07,16.5692,17.9258,31.0523-18.2311,86.3389-82.4384,130.4666-6.4954,77.266-37.2424,135.7921-74.2133,135.7921-7.8521,0-15.4328-2.6457-22.5726-7.5637"/><path class="b" d="M438.6374,538.63c-11.281,16.3247-24.6662,25.7658-39.017,25.7658a35.1823,35.1823,0,0,1-16.5691-4.3077c-.6953-.373-1.3907-.7631-2.069-1.187-.5767.6951-1.1532,1.3738-1.7469,2.035-9.7005,10.9048-20.6222,17.027-32.1884,17.027-11.4135,0-22.2-5.97-31.7984-16.603-.7292-.7971-1.4415-1.6111-2.1369-2.459-.8649.5258-1.7129,1.0175-2.5947,1.4584a34.8835,34.8835,0,0,1-16.0434,4.0363c-14.5679,0-28.1353-9.7345-39.5318-26.5071"/><path class="c" d="M254.6078,541.5114c-7.2293,4.9567-14.9163,7.6213-22.883,7.6213-37.31,0-68.3794-58.34-75.01-135.419-63.3256-43.958-98.8041-98.6683-81.014-129.466,12.0919-20.9277,45.9763-26.0833,88.3233-16.9421C188.2245,173.1483,260.64,104.8028,346.199,104.8028c85.2707,0,157.4658,67.8706,181.904,161.502,43.161-9.65,77.8255-4.6468,90.07,16.5692,17.9258,31.0523-18.2311,86.3389-82.4384,130.4666-6.4954,77.266-37.2424,135.7921-74.2133,135.7921-7.8521,0-15.4328-2.6457-22.5726-7.5637"/><path class="c" d="M438.6374,538.63c-11.281,16.3247-24.6662,25.7658-39.017,25.7658a35.1823,35.1823,0,0,1-16.5691-4.3077c-.6953-.373-1.3907-.7631-2.069-1.187-.5767.6951-1.1532,1.3738-1.7469,2.035-9.7005,10.9048-20.6222,17.027-32.1884,17.027-11.4135,0-22.2-5.97-31.7984-16.603-.7292-.7971-1.4415-1.6111-2.1369-2.459-.8649.5258-1.7129,1.0175-2.5947,1.4584a34.8835,34.8835,0,0,1-16.0434,4.0363c-14.5679,0-28.1353-9.7345-39.5318-26.5071"/><path class="b" d="M254.6078,541.5114c-7.2293,4.9567-14.9163,7.6213-22.883,7.6213-37.31,0-68.3794-58.34-75.01-135.419-63.3256-43.958-98.8041-98.6683-81.014-129.466,12.0919-20.9277,45.9763-26.0833,88.3233-16.9421C188.2245,173.1483,260.64,104.8028,346.199,104.8028c85.2707,0,157.4658,67.8706,181.904,161.502,43.161-9.65,77.8255-4.6468,90.07,16.5692,17.9258,31.0523-18.2311,86.3389-82.4384,130.4666-6.4954,77.266-37.2424,135.7921-74.2133,135.7921-7.8521,0-15.4328-2.6457-22.5726-7.5637"/><path class="b" d="M438.6374,538.63c-11.281,16.3247-24.6662,25.7658-39.017,25.7658a35.1823,35.1823,0,0,1-16.5691-4.3077c-.6953-.373-1.3907-.7631-2.069-1.187-.5767.6951-1.1532,1.3738-1.7469,2.035-9.7005,10.9048-20.6222,17.027-32.1884,17.027-11.4135,0-22.2-5.97-31.7984-16.603-.7292-.7971-1.4415-1.6111-2.1369-2.459-.8649.5258-1.7129,1.0175-2.5947,1.4584a34.8835,34.8835,0,0,1-16.0434,4.0363c-14.5679,0-28.1353-9.7345-39.5318-26.5071"/><path class="b" d="M254.6078,541.5114c-7.2293,4.9567-14.9163,7.6213-22.883,7.6213-37.31,0-68.3794-58.34-75.01-135.419-63.3256-43.958-98.8041-98.6683-81.014-129.466,12.0919-20.9277,45.9763-26.0833,88.3233-16.9421C188.2245,173.1483,260.64,104.8028,346.199,104.8028c85.2707,0,157.4658,67.8706,181.904,161.502,43.161-9.65,77.8255-4.6468,90.07,16.5692,17.9258,31.0523-18.2311,86.3389-82.4384,130.4666-6.4954,77.266-37.2424,135.7921-74.2133,135.7921-7.8521,0-15.4328-2.6457-22.5726-7.5637"/><path class="b" d="M438.6374,538.63c-11.281,16.3247-24.6662,25.7658-39.017,25.7658a35.1823,35.1823,0,0,1-16.5691-4.3077c-.6953-.373-1.3907-.7631-2.069-1.187-.5767.6951-1.1532,1.3738-1.7469,2.035-9.7005,10.9048-20.6222,17.027-32.1884,17.027-11.4135,0-22.2-5.97-31.7984-16.603-.7292-.7971-1.4415-1.6111-2.1369-2.459-.8649.5258-1.7129,1.0175-2.5947,1.4584a34.8835,34.8835,0,0,1-16.0434,4.0363c-14.5679,0-28.1353-9.7345-39.5318-26.5071"/><path class="d" d="M535.737,413.343c-6.5,77.26-37.24,135.79-74.22,135.79-7.85,0-15.43-2.65-22.57-7.56h-2.42c-10.82,14.51-23.44,22.82-36.91,22.82a35.2768,35.2768,0,0,1-16.57-4.3c-.69-.38-1.39-.77-2.06-1.19-.58.69-1.16,1.37-1.75,2.03-9.7,10.91-20.62,17.03-32.19,17.03-11.41,0-22.2-5.97-31.8-16.6-.73-.8-1.44-1.61-2.14-2.46-.86.52-1.71,1.02-2.59,1.46a34.9485,34.9485,0,0,1-16.04,4.03c-13.49,0-26.12-8.34-36.96-22.88h-2.91c-7.23,4.96-14.92,7.62-22.88,7.62-37.31,0-68.38-58.34-75.01-135.42-63.33-43.96-98.81-98.67-81.02-129.47,12.1-20.92,45.98-26.08,88.33-16.94,24.2-94.15,96.61-162.5,182.17-162.5,85.27,0,157.47,67.87,181.91,161.5,43.16-9.65,77.82-4.65,90.07,16.57C636.0968,313.9231,599.9369,369.213,535.737,413.343Z"/><path class="e" d="M352.3469,347.8085c-1.1024,1.8317-2.2386,3.5955-3.3919,5.2915-.7122-.4749-1.4076-1.0008-2.12-1.5434C348.7006,350.3694,350.5322,349.1144,352.3469,347.8085Z"/><path class="e" d="M352.3469,347.8085c-1.1024,1.8317-2.2386,3.5955-3.3919,5.2915-.7122-.4749-1.4076-1.0008-2.12-1.5434C348.7006,350.3694,350.5322,349.1144,352.3469,347.8085Z"/><path class="f" d="M386.4754,316.1459c0,22.245-16.1834,40.278-36.1467,40.278s-36.1466-18.033-36.1466-40.278l24.5116,3.2385a84.28,84.28,0,0,0,21.5824.0643Z"/><ellipse class="g" cx="287.6831" cy="251.7011" rx="27.0314" ry="40.278"/><ellipse class="h" cx="284.4813" cy="229.2302" rx="11.4147" ry="12.7194"/><ellipse class="g" cx="403.0053" cy="251.7011" rx="27.0314" ry="40.278"/><ellipse class="h" cx="399.8035" cy="229.2302" rx="11.4147" ry="12.7194"/></svg>