<svg xmlns="http://www.w3.org/2000/svg" viewBox="0 0 222.2843 195.7843"><defs><style>.a{fill:#95d9cc;}.a,.b,.c,.d,.e,.f,.g,.h,.i,.j,.k{stroke:#1d1f21;}.a,.b,.c,.d,.e,.i,.j,.k{stroke-miterlimit:10;}.b{fill:#fffdfa;}.c,.h{fill:#0eb495;}.d{fill:#ffd1a8;}.e{fill:#ffc5bf;}.e,.f,.g,.h{stroke-linecap:round;}.f{fill:#b9d9f6;}.f,.g,.h{stroke-linejoin:round;}.g,.j{fill:#f86151;}.i{fill:#f8a75d;}.k{fill:#054b8c;}</style></defs><title>budget-landing</title><rect class="a" x="24.3943" y="30.1443" width="195" height="153.5" rx="26.6543"/><rect class="b" x="14.3943" y="23.1443" width="195" height="153.5" rx="26.6543"/><circle class="c" cx="27.3943" cy="27.3943" r="26.8943"/><path class="b" d="M36.3943,42.9065a17.6127,17.6127,0,0,1-7.78,1.7549A17.3965,17.3965,0,0,1,11.8689,33.0871H8.0264L8.7379,28.77h2.23a13.3137,13.3137,0,0,1-.0475-1.3754c0-.522,0-1.0441.0475-1.5655H8.0739l.7115-4.317h3.1785a17.5784,17.5784,0,0,1,16.84-11.3849,18.7212,18.7212,0,0,1,7.1624,1.4235L34.9713,17.67a12.7559,12.7559,0,0,0-6.1194-1.5649,11.24,11.24,0,0,0-9.82,5.4074H34.26l-.6639,4.317H17.5144c-.0475.5214-.095,1.0435-.095,1.5655a12.5192,12.5192,0,0,0,.095,1.3754H33.0257l-.6639,4.3171H18.89a11.3631,11.3631,0,0,0,10.01,5.55,13.5393,13.5393,0,0,0,6.5459-1.755Z"/><rect class="d" x="145.3943" y="17.3938" width="12" height="93" rx="6" transform="translate(87.5005 215.2881) rotate(-90)"/><rect class="d" x="145.3942" y="-4.6061" width="12" height="92.9998" rx="6" transform="translate(109.5004 193.288) rotate(-90)"/><rect class="d" x="156.3943" y="50.3938" width="12" height="71" rx="6" transform="translate(76.5005 248.2881) rotate(-90)"/><path class="e" d="M210.8077,125.7407h-.01A41.32,41.32,0,0,0,180.68,112.3943h-.01l-.5182,41.2579,30.3293-27.5085.21-.2593"/><path class="f" d="M221.7172,151.5413l-41.565,2.1109,30.3293-27.5085.3262-.403A41.2282,41.2282,0,0,1,221.7172,151.5413Z"/><path class="g" d="M215.97,175.02a41.4474,41.4474,0,1,1-35.6259-62.6256h.3264l-.5182,41.2579Z"/><path class="h" d="M221.7843,153.8441A41.236,41.236,0,0,1,215.97,175.02l-35.8177-21.3677,41.565-2.1109.01.01-.01.0288C221.7651,152.3281,221.7843,153.0861,221.7843,153.8441Z"/><circle class="c" cx="47.4053" cy="98.4951" r="18.7565"/><circle class="i" cx="47.405" cy="144.6124" r="18.7565"/><circle class="j" cx="94.5037" cy="98.4008" r="18.7565"/><circle class="k" cx="94.5037" cy="144.6378" r="18.7565"/><path class="b" d="M56.61,100.7961H49.7847v7.2544h-4.836v-7.2544h-6.748v-4.602h6.748V88.94h4.836v7.2544H56.61Z"/><path class="b" d="M85.7175,138.8562H103.113v4.1729H85.7175Zm0,8.0342H103.113v4.1728H85.7175Z"/><path class="b" d="M43.8757,138.7034a3.532,3.532,0,1,1,3.5489,3.3931A3.4321,3.4321,0,0,1,43.8757,138.7034Zm0,11.8179a3.532,3.532,0,1,1,3.5489,3.3931A3.4322,3.4322,0,0,1,43.8757,150.5213Z"/><path class="b" d="M86.15,94.798h16.2441v6.798H86.15Z"/></svg>