<svg xmlns="http://www.w3.org/2000/svg" viewBox="0 0 205 179.5"><defs><style>.a{fill:#95d9cc;}.a,.b,.c,.d,.e,.f{stroke:#1d1f21;stroke-miterlimit:10;}.b{fill:#fffdfa;}.c{fill:#f86151;}.d{fill:#054b8c;}.e{fill:#f8a75d;}.f{fill:#0eb495;}</style></defs><title>calendar</title><rect class="a" x="9.5" y="25.5" width="195" height="153.5" rx="26.6543"/><rect class="b" x="0.5" y="16.5" width="195" height="153.5" rx="26.6543"/><path class="c" d="M27.1543,16.5H168.8457A26.6543,26.6543,0,0,1,195.5,43.1543V53.5a0,0,0,0,1,0,0H.5a0,0,0,0,1,0,0V43.1543A26.6543,26.6543,0,0,1,27.1543,16.5Z"/><rect class="b" x="47" y="0.5" width="12" height="32" rx="6"/><rect class="b" x="77" y="0.5" width="12" height="32" rx="6"/><rect class="b" x="107" y="0.5" width="12" height="32" rx="6"/><rect class="b" x="137" y="0.5" width="12" height="32" rx="6"/><circle class="d" cx="50.8906" cy="83.2565" r="18.7565"/><circle class="e" cx="98" cy="83.2565" r="18.7565"/><circle class="c" cx="50.8906" cy="129.4935" r="18.7565"/><circle class="d" cx="98" cy="129.4935" r="18.7565"/><circle class="f" cx="145.1094" cy="83.2565" r="18.7565"/><circle class="e" cx="145.1094" cy="129.4935" r="18.7565"/></svg>