<svg xmlns="http://www.w3.org/2000/svg" viewBox="0 0 240.424 180.2062"><defs><style>.a{fill:#95d9cc;}.a,.b,.c,.d{stroke:#1d1f21;stroke-miterlimit:10;stroke-width:1.0916px;}.b{fill:#ffd1a8;}.c{fill:#054b8c;}.d{fill:#fffdfa;}</style></defs><title>chat</title><path class="a" d="M239.3114,179.2958l-39.5052-12.0622a28.7316,28.7316,0,0,1-9.7808,1.692H102.2605a29.0983,29.0983,0,0,1-29.1021-29.0913V121.9866H59.1314a28.7335,28.7335,0,0,1-9.7808-1.6919L9.8454,132.3569,30.1165,94.86c-.0545-.644-.0764-1.299-.0764-1.9649V36.1866A29.089,29.089,0,0,1,59.1314,7.0954h87.7648a29.0983,29.0983,0,0,1,29.1022,29.0912V54.0344h14.027a29.0889,29.0889,0,0,1,29.0913,29.0911v56.7088c0,.6659-.0219,1.3209-.0764,1.9649Z"/><path class="b" d="M167.2655,29.637V86.3458a29.0982,29.0982,0,0,1-29.1021,29.0912H50.3985a28.7344,28.7344,0,0,1-9.7808-1.6919L1.1126,125.8073,21.3837,88.3106c-.0546-.644-.0764-1.299-.0764-1.9648V29.637A29.0889,29.0889,0,0,1,50.3985.5458h87.7649A29.0982,29.0982,0,0,1,167.2655,29.637Z"/><path class="c" d="M64.4256,76.5759v56.7088A29.0983,29.0983,0,0,0,93.5278,162.376h87.7648a28.734,28.734,0,0,0,9.7808-1.692l39.5051,12.0622L210.3075,135.25c.0545-.644.0764-1.299.0764-1.9649V76.5759a29.089,29.089,0,0,0-29.0913-29.0912H93.5278A29.0983,29.0983,0,0,0,64.4256,76.5759Z"/><circle class="d" cx="103.8172" cy="106.8974" r="9.9184"/><circle class="d" cx="177.2487" cy="106.8974" r="9.9184"/><circle class="d" cx="140.1342" cy="106.8974" r="9.9184"/></svg>