<svg xmlns="http://www.w3.org/2000/svg" viewBox="0 0 240.2372 180.084"><defs><style>.a{fill:#95d9cc;}.a,.b,.c,.d{stroke:#1d1f21;stroke-miterlimit:10;}.b{fill:#ffd1a8;}.c{fill:#b9d9f6;}.d{fill:#fffdfa;}</style></defs><title>chat-landing</title><path class="a" d="M239.218,179.25l-39.5051-12.0622a28.732,28.732,0,0,1-9.7808,1.692H102.1672a29.0983,29.0983,0,0,1-29.1021-29.0913V121.9408H59.038a28.734,28.734,0,0,1-9.7808-1.6919L9.7521,132.3111,30.0232,94.8145c-.0546-.644-.0765-1.299-.0765-1.9649V36.1408A29.089,29.089,0,0,1,59.038,7.05h87.7648A29.0983,29.0983,0,0,1,175.905,36.1408V53.9885h14.0271A29.089,29.089,0,0,1,219.0233,83.08v56.7088c0,.6659-.0218,1.3209-.0764,1.9649Z"/><path class="b" d="M167.1722,29.5912V86.3A29.0983,29.0983,0,0,1,138.07,115.3912H50.3052a28.7316,28.7316,0,0,1-9.7808-1.692L1.0193,125.7615,21.29,88.2648c-.0545-.644-.0764-1.299-.0764-1.9648V29.5912A29.089,29.089,0,0,1,50.3052.5H138.07A29.0983,29.0983,0,0,1,167.1722,29.5912Z"/><path class="c" d="M64.3322,76.53v56.7088A29.0984,29.0984,0,0,0,93.4344,162.33h87.7649a28.7334,28.7334,0,0,0,9.7807-1.692L230.4852,172.7l-20.2711-37.4966c.0545-.644.0764-1.299.0764-1.9649V76.53a29.0889,29.0889,0,0,0-29.0912-29.0912H93.4344A29.0983,29.0983,0,0,0,64.3322,76.53Z"/><circle class="d" cx="103.7239" cy="106.8516" r="9.9184"/><circle class="d" cx="177.1553" cy="106.8516" r="9.9184"/><circle class="d" cx="140.0408" cy="106.8516" r="9.9184"/></svg>