<svg xmlns="http://www.w3.org/2000/svg" viewBox="0 0 179.5 203"><defs><style>.a{fill:#95d9cc;}.a,.b,.c,.d{stroke:#1d1f21;stroke-miterlimit:10;}.b{fill:#fffdfa;}.c{fill:#f86151;}.d{fill:#0eb495;}</style></defs><title>contact</title><rect class="a" x="4.75" y="28.25" width="195" height="153.5" rx="26.6543" transform="translate(-2.75 207.25) rotate(-90)"/><rect class="b" x="-4.25" y="21.25" width="195" height="153.5" rx="26.6543" transform="translate(-4.75 191.25) rotate(-90)"/><path class="c" d="M-35.8457,79.5H105.8457A26.6543,26.6543,0,0,1,132.5,106.1543V116.5a0,0,0,0,1,0,0h-195a0,0,0,0,1,0,0V106.1543A26.6543,26.6543,0,0,1-35.8457,79.5Z" transform="translate(-63 133) rotate(-90)"/><rect class="b" x="10.5" y="127" width="12" height="32" rx="6" transform="translate(-126.5 159.5) rotate(-90)"/><rect class="b" x="10.5" y="97" width="12" height="32" rx="6" transform="translate(-96.5 129.5) rotate(-90)"/><rect class="b" x="10.5" y="67" width="12" height="32" rx="6" transform="translate(-66.5 99.5) rotate(-90)"/><rect class="b" x="10.5" y="37" width="12" height="32" rx="6" transform="translate(-36.5 69.5) rotate(-90)"/><path class="d" d="M136.3345,137.41c-.0778-23.47-12.3411-42.4551-27.3908-42.4052S81.7569,114.1206,81.8347,137.59Z"/><circle class="d" cx="109.25" cy="78" r="21.5"/></svg>