<svg xmlns="http://www.w3.org/2000/svg" viewBox="0 0 206 161.5"><defs><style>.a{fill:#95d9cc;}.a,.b,.c,.d,.e,.f{stroke:#1d1f21;stroke-miterlimit:10;}.b{fill:#ffd1a8;}.c{fill:#f86151;}.d{fill:#0eb495;}.e{fill:#f8a75d;}.f{fill:#054b8c;}</style></defs><title>document</title><rect class="a" x="10.5" y="7.5" width="195" height="153.5" rx="26.6543"/><path class="b" d="M195.5,27.15v100.2A26.6479,26.6479,0,0,1,168.85,154H27.15A26.6479,26.6479,0,0,1,.5,127.35V27.15A26.6479,26.6479,0,0,1,27.15.5H29.3a31.7333,31.7333,0,0,0-2.8,13.08,5.1768,5.1768,0,0,0,5.17,5.17H194.14A26.22,26.22,0,0,1,195.5,27.15Z"/><path class="a" d="M29.3.5h28a31.7333,31.7333,0,0,0-2.8,13.08,5.1768,5.1768,0,0,0,5.17,5.17h-28a5.1768,5.1768,0,0,1-5.17-5.17A31.7333,31.7333,0,0,1,29.3.5"/><path class="c" d="M89.67,18.75h-30a5.1768,5.1768,0,0,1-5.17-5.17A31.7333,31.7333,0,0,1,57.3.5h30a31.7333,31.7333,0,0,0-2.8,13.08A5.1768,5.1768,0,0,0,89.67,18.75Z"/><path class="d" d="M119.67,18.75h-30a5.1768,5.1768,0,0,1-5.17-5.17A31.7333,31.7333,0,0,1,87.3.5h30a31.7333,31.7333,0,0,0-2.8,13.08A5.1768,5.1768,0,0,0,119.67,18.75Z"/><path class="e" d="M151.67,18.75h-32a5.1768,5.1768,0,0,1-5.17-5.17A31.7333,31.7333,0,0,1,117.3.5h32a31.7333,31.7333,0,0,0-2.8,13.08A5.1768,5.1768,0,0,0,151.67,18.75Z"/><path class="f" d="M194.14,18.75H151.67a5.1768,5.1768,0,0,1-5.17-5.17A31.7333,31.7333,0,0,1,149.3.5h19.55A26.6483,26.6483,0,0,1,194.14,18.75Z"/></svg>