<svg xmlns="http://www.w3.org/2000/svg" xmlns:xlink="http://www.w3.org/1999/xlink" viewBox="0 0 338.5295 510.3197"><defs><style>.a,.ai,.o{fill:#95d9cc;}.a,.aa,.ab,.ae,.af,.ag,.ah,.b,.c,.d,.e,.f,.g,.h,.i,.j,.k,.l,.m,.o,.p,.q,.r,.s,.t,.u,.v,.w,.x,.y,.z{stroke:#1d1f21;}.a,.aa,.ab,.ac,.ae,.af,.ah,.b,.c,.d,.e,.f,.g,.h,.l,.m,.o,.p,.q,.r,.s,.t,.u,.v,.z{stroke-miterlimit:10;}.a,.b,.c,.d,.e,.f,.g,.h,.i,.j,.k,.l,.m{stroke-width:0.1585px;}.ac,.af,.b,.n,.p{fill:#fffdfa;}.c,.j,.q,.x{fill:#f86151;}.d,.k,.r,.y{fill:#0eb495;}.e,.s{fill:#054b8c;}.f,.t{fill:#f8a75d;}.g,.u{fill:#ffd1a8;}.ab,.ag,.h,.v{fill:#ffc5bf;}.ag,.h,.i,.j,.k,.v,.w,.x,.y{stroke-linecap:round;}.i,.l,.w,.z{fill:#b9d9f6;}.ag,.i,.j,.k,.w,.x,.y{stroke-linejoin:round;}.aa,.ae,.m{fill:none;}.aa,.o,.p,.q,.r,.s,.t,.u,.v,.w,.x,.y,.z{stroke-width:0.3507px;}.ab{stroke-width:0.3241px;}.ac{stroke:#95d9cc;stroke-width:15.2799px;}.ad{fill:url(#a);}.ae,.af,.ag,.ah{stroke-width:0.3396px;}.ah{fill:#1d1f21;}</style><radialGradient id="a" cx="154.3051" cy="193.5616" r="156.9971" gradientUnits="userSpaceOnUse"><stop offset="0" stop-color="#fffdfa" stop-opacity="0.5"/><stop offset="0.4637" stop-color="#fafcfe" stop-opacity="0.5338"/><stop offset="0.5022" stop-color="#f3f8fd" stop-opacity="0.5833"/><stop offset="0.6576" stop-color="#daebfa" stop-opacity="0.7626"/><stop offset="0.7978" stop-color="#c8e1f8" stop-opacity="0.8925"/><stop offset="0.9166" stop-color="#bddbf6" stop-opacity="0.9716"/><stop offset="1" stop-color="#b9d9f6"/></radialGradient></defs><title>landing-mobile_2</title><rect class="a" x="297.6428" y="457.8432" width="30.9162" height="24.3366" rx="4.2259" transform="translate(-59.0115 894.8355) rotate(-105.1144)"/><rect class="b" x="295.9759" y="457.1439" width="30.9162" height="24.3366" rx="4.2259" transform="translate(-60.4379 892.3445) rotate(-105.1144)"/><path class="c" d="M291.286,468.7872H313.75a4.2259,4.2259,0,0,1,4.2259,4.2259v1.64a0,0,0,0,1,0,0H287.06a0,0,0,0,1,0,0v-1.64A4.2259,4.2259,0,0,1,291.286,468.7872Z" transform="translate(-74.0032 886.7732) rotate(-105.1144)"/><rect class="b" x="300.5956" y="476.836" width="1.9025" height="5.0734" rx="0.9513" transform="translate(-82.6152 895.4836) rotate(-105.1144)"/><rect class="b" x="299.3554" y="472.2442" width="1.9025" height="5.0734" rx="0.9513" transform="translate(-79.7462 888.4969) rotate(-105.1144)"/><rect class="b" x="298.1152" y="467.6524" width="1.9025" height="5.0734" rx="0.9513" transform="translate(-76.8763 881.5109) rotate(-105.1145)"/><rect class="b" x="296.875" y="463.0606" width="1.9025" height="5.0734" rx="0.9513" transform="translate(-74.0072 874.5242) rotate(-105.1144)"/><path class="d" d="M319.6577,473.5631c-.9822-3.589-3.644-5.988-5.9455-5.3582s-3.3709,4.05-2.3888,7.6389Z"/><circle class="d" cx="313.0561" cy="465.5895" r="3.4087"/><rect class="a" x="111.0688" y="393.6989" width="30.9162" height="24.3366" rx="4.2259" transform="translate(-101.4518 47.0316) rotate(-15.1144)"/><rect class="b" x="109.3191" y="392.6934" width="30.9162" height="24.3366" rx="4.2259" transform="matrix(0.9654, -0.2607, 0.2607, 0.9654, -101.2501, 46.5406)"/><path class="c" d="M111.137,393.0129h22.4644a4.2259,4.2259,0,0,1,4.2259,4.2259v1.64a0,0,0,0,1,0,0H106.9111a0,0,0,0,1,0,0v-1.64A4.2259,4.2259,0,0,1,111.137,393.0129Z" transform="translate(-99.0086 45.6043) rotate(-15.1144)"/><rect class="b" x="113.7654" y="392.438" width="1.9025" height="5.0734" rx="0.9513" transform="translate(-99.0194 43.5749) rotate(-15.1143)"/><rect class="b" x="118.3572" y="391.1978" width="1.9025" height="5.0734" rx="0.9513" transform="translate(-98.5379 44.7297) rotate(-15.1144)"/><rect class="b" x="122.949" y="389.9576" width="1.9025" height="5.0734" rx="0.9513" transform="translate(-98.0548 45.8836) rotate(-15.1142)"/><rect class="b" x="127.5409" y="388.7174" width="1.9025" height="5.0734" rx="0.9513" transform="translate(-97.573 47.0382) rotate(-15.1143)"/><circle class="e" cx="117.1536" cy="405.2797" r="2.9737"/><circle class="f" cx="124.3641" cy="403.3321" r="2.9737"/><circle class="c" cx="119.065" cy="412.3567" r="2.9737"/><circle class="e" cx="126.2756" cy="410.4092" r="2.9737"/><circle class="d" cx="131.5747" cy="401.3846" r="2.9737"/><circle class="f" cx="133.4861" cy="408.4617" r="2.9737"/><rect class="a" x="1.1528" y="473.6593" width="30.9162" height="24.3366" rx="4.2259" transform="translate(-448.0793 628.542) rotate(-105.1144)"/><rect class="b" x="-0.5555" y="472.8069" width="30.9162" height="24.3366" rx="4.2259" transform="matrix(-0.2607, -0.9654, 0.9654, -0.2607, -449.41, 625.8182)"/><path class="c" d="M3.734,469.95H19.54a4.2259,4.2259,0,0,1,4.2259,4.2259v1.64a0,0,0,0,1,0,0H-.4919a0,0,0,0,1,0,0v-1.64A4.2259,4.2259,0,0,1,3.734,469.95Z" transform="translate(-122.9004 19.3926) rotate(-15.1144)"/><rect class="e" x="19.0896" y="485.9864" width="1.9025" height="14.7446" rx="0.9513" transform="translate(-451.0257 641.3479) rotate(-105.1144)"/><rect class="e" x="17.8494" y="481.3946" width="1.9025" height="14.7446" rx="0.9513" transform="translate(-448.1568 634.3598) rotate(-105.1141)"/><rect class="e" x="16.6092" y="476.8028" width="1.9025" height="14.7446" rx="0.9513" transform="matrix(-0.2607, -0.9654, 0.9654, -0.2607, -445.2871, 627.3745)"/><rect class="e" x="15.369" y="472.211" width="1.9025" height="14.7446" rx="0.9513" transform="matrix(-0.2607, -0.9654, 0.9654, -0.2607, -442.4176, 620.3884)"/><rect class="d" x="8.8553" y="495.1745" width="1.9025" height="2.0611" rx="0.872" transform="translate(-466.6763 635.0564) rotate(-105.1144)"/><rect class="d" x="7.6151" y="490.5827" width="1.9025" height="2.0611" rx="0.872" transform="translate(-463.807 628.07) rotate(-105.1144)"/><rect class="d" x="6.3749" y="485.9909" width="1.9025" height="2.0611" rx="0.872" transform="translate(-460.9376 621.0836) rotate(-105.1144)"/><rect class="d" x="5.1347" y="481.3991" width="1.9025" height="2.0611" rx="0.872" transform="translate(-458.0682 614.0972) rotate(-105.1144)"/><circle class="d" cx="22.0283" cy="469.273" r="4.2639"/><polygon class="b" points="24.911 467.307 23.028 470.583 22.452 471.583 21.452 471.009 18.785 469.475 19.359 468.474 22.027 470.008 23.91 466.731 24.911 467.307"/><rect class="a" x="23.7624" y="24.1527" width="30.9162" height="24.3366" rx="4.2259" transform="translate(-8.1138 11.4831) rotate(-15.1144)"/><rect class="b" x="21.9424" y="23.4947" width="30.9162" height="24.3366" rx="4.2259" transform="translate(-8.0052 10.9858) rotate(-15.1144)"/><circle class="d" cx="21.4698" cy="28.0594" r="4.2639"/><path class="b" d="M23.4886,30.0616a2.7928,2.7928,0,0,1-1.1183.59,2.758,2.758,0,0,1-3.0415-1.0793l-.5881.1589-.07-.69.3412-.0922a2.106,2.106,0,0,1-.0641-.2085c-.0216-.08-.0432-.16-.0574-.2416l-.4429.12-.07-.69.4865-.1314a2.787,2.787,0,0,1,2.107-2.4387,2.9659,2.9659,0,0,1,1.1551-.0782l.1006.9777a2.0224,2.0224,0,0,0-1.0013.0134,1.7822,1.7822,0,0,0-1.2795,1.2336l2.3307-.63.0769.6882-2.4614.6648c.0142.0818.0285.1637.05.2436a1.9958,1.9958,0,0,0,.0714.2066l2.3742-.6413.0768.6882-2.062.557a1.8015,1.8015,0,0,0,1.7615.4356,2.146,2.146,0,0,0,.9294-.5392Z"/><rect class="g" x="41.0069" y="21.1475" width="1.9025" height="14.7447" rx="0.9513" transform="translate(25.3653 76.4629) rotate(-105.1144)"/><rect class="g" x="40.0974" y="17.7802" width="1.9025" height="14.7446" rx="0.9513" transform="translate(27.4696 71.3396) rotate(-105.1144)"/><rect class="g" x="43.6" y="25.8041" width="1.9025" height="11.2567" rx="0.9513" transform="translate(25.8226 82.6383) rotate(-105.1141)"/><path class="h" d="M53.6087,35.53l-.0015,0a6.5509,6.5509,0,0,0-5.1616-.7978l-.0015,0L50.07,41.0694l3.505-5.4643.0215-.0483"/><path class="i" d="M56.3451,39.028,50.07,41.0694l3.505-5.4643.0333-.0751A6.5363,6.5363,0,0,1,56.3451,39.028Z"/><path class="j" d="M56.436,42.8592a6.5713,6.5713,0,1,1-8.0418-8.1127l.05-.0135L50.07,41.0694Z"/><path class="k" d="M56.4506,39.3777a6.5372,6.5372,0,0,1-.0146,3.4815l-6.3656-1.79,6.2747-2.0414.0019.0011,0,.0048C56.385,39.1465,56.4193,39.2617,56.4506,39.3777Z"/><circle class="d" cx="27.472" cy="38.1148" r="2.9737"/><circle class="f" cx="29.3784" cy="45.1735" r="2.9737"/><circle class="c" cx="34.677" cy="36.1533" r="2.9737"/><circle class="e" cx="36.5884" cy="43.2304" r="2.9737"/><path class="b" d="M28.9759,38.0865l-1.0446.2821.3,1.11-.74.2-.3-1.11-1.0329.2789-.19-.7044,1.0328-.2789-.3-1.11.74-.2.3,1.11,1.0447-.2821Z"/><path class="b" d="M35.0046,42.7087l2.6625-.7192.1725.6387-2.6625.7192Zm.3321,1.23,2.6626-.7192.1725.6387-2.6626.7192Z"/><path class="b" d="M28.594,44.415a.56.56,0,1,1,.6834.3726A.544.544,0,0,1,28.594,44.415Zm.4885,1.8089a.56.56,0,1,1,.6835.3726A.5442.5442,0,0,1,29.0825,46.2239Z"/><path class="b" d="M33.2494,35.9472l2.4864-.6715.281,1.0405-2.4863.6715Z"/><rect class="a" x="7.1409" y="202.879" width="30.9162" height="24.3366" rx="4.2259" transform="translate(-55.2912 13.3317) rotate(-15.1144)"/><path class="g" d="M33.6313,202.69l4.1422,15.3367a4.2248,4.2248,0,0,1-2.9773,5.1807l-21.6886,5.8579a4.2249,4.2249,0,0,1-5.1808-2.9773L3.7845,210.7516a4.2248,4.2248,0,0,1,2.9774-5.1807l.329-.0889A5.0314,5.0314,0,0,0,7.2031,207.6a.8207.8207,0,0,0,1.005.5776l24.8677-6.7166A4.158,4.158,0,0,1,33.6313,202.69Z"/><path class="a" d="M7.0909,205.482l4.2857-1.1575a5.0309,5.0309,0,0,0,.1122,2.1177.8206.8206,0,0,0,1.005.5776l-4.2857,1.1576a.8207.8207,0,0,1-1.005-.5776,5.0314,5.0314,0,0,1-.1122-2.1178"/><path class="c" d="M17.0856,205.78l-4.5918,1.24a.8206.8206,0,0,1-1.005-.5776,5.0309,5.0309,0,0,1-.1122-2.1177l4.5918-1.24a5.0309,5.0309,0,0,0,.1122,2.1177A.8206.8206,0,0,0,17.0856,205.78Z"/><path class="d" d="M21.6774,204.5394l-4.5918,1.24a.8206.8206,0,0,1-1.005-.5776,5.0309,5.0309,0,0,1-.1122-2.1177l4.5918-1.24a5.0309,5.0309,0,0,0,.1122,2.1177A.8206.8206,0,0,0,21.6774,204.5394Z"/><path class="f" d="M26.5754,203.2166l-4.898,1.3228a.8206.8206,0,0,1-1.005-.5776,5.0309,5.0309,0,0,1-.1122-2.1177l4.898-1.3229a5.0314,5.0314,0,0,0,.1121,2.1178A.8208.8208,0,0,0,26.5754,203.2166Z"/><path class="e" d="M33.0758,201.4608l-6.5,1.7558a.8208.8208,0,0,1-1.0051-.5776,5.0314,5.0314,0,0,1-.1121-2.1178l2.9923-.8082A4.2249,4.2249,0,0,1,33.0758,201.4608Z"/><path class="a" d="M338.339,192.23l-6.5453-.2131a4.5548,4.5548,0,0,1-1.4271.6633l-13.4334,3.6282a4.6134,4.6134,0,0,1-5.657-3.25l-.7378-2.7318-2.147.58a4.5539,4.5539,0,0,1-1.567.1454l-5.548,3.4794,1.5526-6.5773c-.035-.0963-.0654-.1957-.0929-.2976l-2.3444-8.68a4.612,4.612,0,0,1,3.25-5.6554l13.4333-3.6282a4.6134,4.6134,0,0,1,5.657,3.25l.7379,2.7318,2.1469-.58a4.612,4.612,0,0,1,5.6554,3.25l2.3443,8.68c.0276.1019.0513.203.07.3039Z"/><path class="g" d="M321.1247,172.3012l2.3444,8.68a4.6134,4.6134,0,0,1-3.2518,5.6558L306.784,190.265a4.5539,4.5539,0,0,1-1.567.1454l-5.548,3.4794,1.5526-6.5773c-.035-.0963-.0654-.1956-.0929-.2975l-2.3444-8.68a4.6119,4.6119,0,0,1,3.25-5.6553l13.4333-3.6282A4.6133,4.6133,0,0,1,321.1247,172.3012Z"/><path class="l" d="M307.3245,183.7371l2.3443,8.68a4.6134,4.6134,0,0,0,5.657,3.25l13.4333-3.6283a4.5527,4.5527,0,0,0,1.4271-.6633l6.5454.2131-4.6528-4.9012c-.0183-.1008-.042-.202-.07-.3039l-2.3443-8.68a4.6119,4.6119,0,0,0-5.6554-3.25l-13.4333,3.6282A4.6133,4.6133,0,0,0,307.3245,183.7371Z"/><circle class="b" cx="314.6073" cy="186.7496" r="1.5725"/><circle class="b" cx="325.8467" cy="183.714" r="1.5725"/><circle class="b" cx="320.1659" cy="185.2483" r="1.5725"/><path class="a" d="M259.3553,15.6947a6.55,6.55,0,0,1-7.0726,3.8019l-5.8342,13.1475-.6855,1.5451a4.8131,4.8131,0,0,1-6.3521,2.4467l-.85-.3763-7.9489,2.2843a4.2254,4.2254,0,0,1-5.23-2.8923L220.97,20.3024a4.2246,4.2246,0,0,1,2.8939-5.23l10.3525-2.9762a4.1981,4.1981,0,0,1,2.2281-.0306,6.5494,6.5494,0,0,1,7.5291-10.3616,6.4783,6.4783,0,0,1,2.1006,1.4848,5.7421,5.7421,0,0,1,7.4417,3.3018,6.5491,6.5491,0,0,1,5.84,9.2039Z"/><line class="m" x1="240.8128" y1="15.6182" x2="236.783" y2="24.6995"/><line class="m" x1="247.8301" y1="18.7321" x2="243.8004" y2="27.8134"/><line class="m" x1="244.404" y1="17.2118" x2="240.3742" y2="26.293"/><rect class="b" x="218.7445" y="14.9957" width="24.4227" height="19.2251" rx="4.2259" transform="translate(271.1209 253.3722) rotate(-106.0401)"/><path class="c" d="M215.8,24.307h16.2883a4.0672,4.0672,0,0,1,4.0672,4.0672v.5668a0,0,0,0,1,0,0H211.733a0,0,0,0,1,0,0v-.5668A4.0672,4.0672,0,0,1,215.8,24.307Z" transform="translate(260.2348 249.2065) rotate(-106.0401)"/><rect class="b" x="222.5234" y="30.677" width="1.5029" height="4.0078" rx="0.6596" transform="translate(253.5592 256.2934) rotate(-106.0401)"/><rect class="b" x="221.4852" y="27.0659" width="1.5029" height="4.0078" rx="0.6596" transform="translate(255.7046 250.6868) rotate(-106.0401)"/><rect class="b" x="220.447" y="23.4548" width="1.5029" height="4.0078" rx="0.6596" transform="translate(257.8501 245.0802) rotate(-106.0401)"/><rect class="b" x="219.4088" y="19.8438" width="1.5029" height="4.0078" rx="0.6596" transform="translate(259.9955 239.4735) rotate(-106.0401)"/><path class="b" d="M253.5861,14.06,245.81,31.5839l-15.0254-6.6674L238.5607,7.393c.8649-1.9489,3.5356-2.6544,5.9661-1.5759l6.2248,2.7622C253.182,9.6578,254.4509,12.1114,253.5861,14.06Z"/><path class="e" d="M245.81,31.5839l-.6851,1.5438a4.8136,4.8136,0,0,1-6.3528,2.4477l-6.2248-2.7622A4.8137,4.8137,0,0,1,230.1,26.46l.685-1.5438Z"/><path class="b" d="M238.6979,12.8712a6.6234,6.6234,0,0,1-.6755-.2567,6.5482,6.5482,0,1,1,9.1668-5.27"/><path class="b" d="M247.8052,7.6612a6.549,6.549,0,1,1,2.27,10.3018,6.6179,6.6179,0,0,1-.75-.392"/><path class="b" d="M242.2564,5.1555a5.7486,5.7486,0,0,1,10.5091,4.6633"/><rect class="n" x="246.772" y="6.4611" width="2.8902" height="1.987" transform="translate(24.358 -100.0368) rotate(23.9289)"/><line class="b" x1="240.174" y1="14.5574" x2="236.1443" y2="23.6386"/><line class="b" x1="247.1914" y1="17.6713" x2="243.1616" y2="26.7525"/><line class="b" x1="243.7653" y1="16.151" x2="239.7355" y2="25.2322"/><rect class="o" x="7.4126" y="349.2048" width="68.3907" height="53.8358" rx="9.3482" transform="translate(-310.6544 514.3642) rotate(-105.1144)"/><rect class="p" x="3.7252" y="347.6577" width="68.3907" height="53.8358" rx="9.3482" transform="translate(-313.8098 508.8538) rotate(-105.1144)"/><path class="q" d="M-6.6494,373.4142H43.0448a9.3482,9.3482,0,0,1,9.3482,9.3482v3.6285a0,0,0,0,1,0,0H-15.9977a0,0,0,0,1,0,0v-3.6285A9.3482,9.3482,0,0,1-6.6494,373.4142Z" transform="translate(-343.8179 496.5292) rotate(-105.1144)"/><rect class="p" x="13.9447" y="391.2193" width="4.2087" height="11.2231" rx="2.1043" transform="translate(-362.8698 515.7967) rotate(-105.1143)"/><rect class="p" x="11.2012" y="381.0617" width="4.2087" height="11.2231" rx="2.1043" transform="translate(-356.5223 500.3418) rotate(-105.1143)"/><rect class="p" x="8.4577" y="370.904" width="4.2087" height="11.2231" rx="2.1043" transform="translate(-350.1749 484.8869) rotate(-105.1143)"/><rect class="p" x="5.7142" y="360.7463" width="4.2087" height="11.2231" rx="2.1043" transform="translate(-343.8272 469.433) rotate(-105.1144)"/><path class="r" d="M56.1125,383.9792c-2.1727-7.94-8.0611-13.2463-13.1522-11.8531s-7.457,8.9588-5.2844,16.8982Z"/><circle class="r" cx="41.509" cy="366.3406" r="7.5405"/><rect class="o" x="13.8398" y="89.339" width="68.3907" height="53.8358" rx="9.3482" transform="translate(-28.652 16.5467) rotate(-15.1144)"/><rect class="p" x="9.9695" y="87.1148" width="68.3907" height="53.8358" rx="9.3482" transform="translate(-28.2059 15.4606) rotate(-15.1144)"/><path class="q" d="M13.9908,87.8215H63.685A9.3482,9.3482,0,0,1,73.0333,97.17v3.6285a0,0,0,0,1,0,0H4.6425a0,0,0,0,1,0,0V97.17A9.3482,9.3482,0,0,1,13.9908,87.8215Z" transform="translate(-23.2475 13.3893) rotate(-15.1144)"/><rect class="p" x="19.8052" y="86.5496" width="4.2087" height="11.2231" rx="2.1043" transform="translate(-23.2729 8.901) rotate(-15.1145)"/><rect class="p" x="29.9629" y="83.8061" width="4.2087" height="11.2231" rx="2.1043" transform="translate(-22.206 11.4546) rotate(-15.1143)"/><rect class="p" x="40.1206" y="81.0626" width="4.2087" height="11.2231" rx="2.1043" transform="translate(-21.1393 14.0083) rotate(-15.1143)"/><rect class="p" x="50.2783" y="78.3192" width="4.2087" height="11.2231" rx="2.1043" transform="translate(-20.0725 16.5619) rotate(-15.1143)"/><circle class="s" cx="27.3002" cy="114.9571" r="6.5783"/><circle class="t" cx="43.2509" cy="110.649" r="6.5783"/><circle class="q" cx="31.5286" cy="130.6124" r="6.5783"/><circle class="s" cx="47.4793" cy="126.3043" r="6.5783"/><circle class="r" cx="59.2017" cy="106.3408" r="6.5783"/><circle class="t" cx="63.43" cy="121.9962" r="6.5783"/><rect class="o" x="116.3595" y="21.1298" width="68.3907" height="53.8358" rx="9.3482" transform="translate(143.4261 205.9227) rotate(-105.1144)"/><rect class="p" x="112.5806" y="19.2441" width="68.3907" height="53.8358" rx="9.3482" transform="translate(140.4823 199.8971) rotate(-105.1144)"/><path class="q" d="M122.0695,12.9251h34.964a9.3482,9.3482,0,0,1,9.3482,9.3482v3.6285a0,0,0,0,1,0,0h-53.66a0,0,0,0,1,0,0V22.2733A9.3482,9.3482,0,0,1,122.0695,12.9251Z" transform="translate(-0.2345 37.0592) rotate(-15.1144)"/><rect class="s" x="156.0381" y="48.399" width="4.2087" height="32.6171" rx="2.1043" transform="translate(136.9084 234.2516) rotate(-105.1143)"/><rect class="s" x="153.2946" y="38.2413" width="4.2087" height="32.6171" rx="2.1043" transform="translate(143.2558 218.7968) rotate(-105.1143)"/><rect class="s" x="150.5512" y="28.0836" width="4.2087" height="32.6171" rx="2.1043" transform="translate(149.6035 203.342) rotate(-105.1144)"/><rect class="s" x="147.8077" y="17.9259" width="4.2087" height="32.6171" rx="2.1043" transform="translate(155.9509 187.8871) rotate(-105.1144)"/><rect class="r" x="133.3984" y="68.7243" width="4.2087" height="4.5594" rx="1.929" transform="translate(102.287 220.3334) rotate(-105.1144)"/><rect class="r" x="130.6549" y="58.5666" width="4.2087" height="4.5594" rx="1.929" transform="translate(108.6344 204.8785) rotate(-105.1144)"/><rect class="r" x="127.9114" y="48.4089" width="4.2087" height="4.5594" rx="1.929" transform="translate(114.9819 189.4237) rotate(-105.1144)"/><rect class="r" x="125.168" y="38.2512" width="4.2087" height="4.5594" rx="1.929" transform="translate(121.3293 173.9688) rotate(-105.1144)"/><circle class="r" cx="162.5388" cy="11.4267" r="9.4324"/><polygon class="p" points="168.916 7.077 164.751 14.325 163.477 16.537 161.265 15.266 155.364 11.874 156.634 9.66 162.535 13.052 166.7 5.804 168.916 7.077"/><rect class="o" x="69.9503" y="450.4352" width="68.3907" height="53.8358" rx="9.3482" transform="translate(-120.8657 43.6687) rotate(-15.1144)"/><rect class="p" x="65.9242" y="448.9796" width="68.3907" height="53.8358" rx="9.3482" transform="translate(-120.6254 42.5685) rotate(-15.1144)"/><circle class="r" cx="64.8787" cy="459.0773" r="9.4324"/><path class="p" d="M69.3446,463.5065a6.1788,6.1788,0,0,1-2.4737,1.3057,6.1014,6.1014,0,0,1-6.7283-2.3876l-1.301.3514-.1539-1.5268.7549-.2039a4.6554,4.6554,0,0,1-.1419-.4613c-.0478-.1768-.0955-.3535-.1271-.5344l-.98.2646-.1539-1.5268,1.0762-.2907a6.1651,6.1651,0,0,1,4.6609-5.3948,6.5655,6.5655,0,0,1,2.5552-.173l.2226,2.1628a4.4737,4.4737,0,0,0-2.2151.03,3.942,3.942,0,0,0-2.83,2.7288l5.1558-1.3925.17,1.5224-5.445,1.4706c.0316.1809.0632.362.111.5388a4.3831,4.3831,0,0,0,.1579.457l5.252-1.4185.17,1.5224-4.5614,1.232a3.9852,3.9852,0,0,0,3.8967.9638,4.7485,4.7485,0,0,0,2.0558-1.1928Z"/><rect class="u" x="108.0973" y="443.7873" width="4.2087" height="32.6171" rx="2.1043" transform="translate(-305.2437 686.4535) rotate(-105.1143)"/><rect class="u" x="106.0854" y="436.3384" width="4.2087" height="32.6171" rx="2.1043" transform="translate(-300.5887 675.1203) rotate(-105.1144)"/><rect class="u" x="113.8337" y="454.0883" width="4.2087" height="24.9012" rx="2.1043" transform="translate(-304.2315 700.1149) rotate(-105.1144)"/><path class="v" d="M135.9743,475.6032l-.0033.0009a14.4918,14.4918,0,0,0-11.4182-1.7647l-.0032.0009,3.5975,14.0169,7.7536-12.0877.0473-.107"/><path class="w" d="M142.0276,483.3414l-13.8805,4.5158,7.7536-12.0877.0736-.1663A14.46,14.46,0,0,1,142.0276,483.3414Z"/><path class="x" d="M142.2287,491.8166a14.5365,14.5365,0,1,1-17.79-17.9464l.1105-.03,3.5975,14.0169Z"/><path class="y" d="M142.2609,484.1149a14.4628,14.4628,0,0,1-.0322,7.7017l-14.0816-3.9594,13.8805-4.5158.0041.0023-.0006.0107C142.1157,483.6034,142.1915,483.8583,142.2609,484.1149Z"/><circle class="r" cx="78.1564" cy="481.3212" r="6.5783"/><circle class="t" cx="82.3737" cy="496.9361" r="6.5783"/><circle class="q" cx="94.0947" cy="476.9822" r="6.5783"/><circle class="s" cx="98.3231" cy="492.6375" r="6.5783"/><path class="p" d="M81.4834,481.2586l-2.311.6242.6634,2.4562-1.6374.4423-.6634-2.4563-2.2848.6171-.4208-1.5582,2.2848-.6171-.6634-2.4563,1.6374-.4422.6634,2.4563,2.3109-.6242Z"/><path class="p" d="M94.82,491.4834l5.89-1.5908.3816,1.4129-5.89,1.5908Zm.7347,2.72,5.89-1.5908.3816,1.4129-5.89,1.5908Z"/><path class="p" d="M80.6383,495.2581a1.2388,1.2388,0,1,1,1.5119.8243A1.2038,1.2038,0,0,1,80.6383,495.2581Zm1.0808,4.0014a1.2387,1.2387,0,1,1,1.5119.8244A1.2036,1.2036,0,0,1,81.7191,499.26Z"/><path class="p" d="M90.9369,476.5263l5.5-1.4856.6216,2.3018-5.5,1.4855Z"/><rect class="o" x="251.4853" y="73.7676" width="68.3907" height="53.8358" rx="9.3482" transform="matrix(0.9654, -0.2607, 0.2607, 0.9654, -16.3709, 77.9734)"/><path class="u" d="M310.0854,73.35l9.1633,33.9266a9.3461,9.3461,0,0,1-6.5863,11.4606l-47.9781,12.9584a9.346,9.346,0,0,1-11.46-6.5863l-9.1633-33.9267a9.3461,9.3461,0,0,1,6.5863-11.46l.7279-.1966a11.13,11.13,0,0,0,.2482,4.6848,1.8155,1.8155,0,0,0,2.2233,1.2777L308.8568,70.63A9.1984,9.1984,0,0,1,310.0854,73.35Z"/><path class="o" d="M251.3747,79.5257l9.4805-2.5606a11.13,11.13,0,0,0,.2482,4.6848,1.8155,1.8155,0,0,0,2.2233,1.2777l-9.4805,2.5606a1.8155,1.8155,0,0,1-2.2233-1.2777,11.13,11.13,0,0,1-.2482-4.6848"/><path class="q" d="M273.4843,80.1841l-10.1576,2.7435a1.8155,1.8155,0,0,1-2.2233-1.2777,11.13,11.13,0,0,1-.2482-4.6848l10.1577-2.7435a11.13,11.13,0,0,0,.2481,4.6848A1.8156,1.8156,0,0,0,273.4843,80.1841Z"/><path class="r" d="M283.642,77.4407l-10.1577,2.7434a1.8156,1.8156,0,0,1-2.2233-1.2777,11.13,11.13,0,0,1-.2481-4.6848l10.1577-2.7435a11.13,11.13,0,0,0,.2481,4.6848A1.8157,1.8157,0,0,0,283.642,77.4407Z"/><path class="t" d="M294.4769,74.5143,283.642,77.4407a1.8157,1.8157,0,0,1-2.2233-1.2778,11.13,11.13,0,0,1-.2481-4.6848l10.8349-2.9263a11.128,11.128,0,0,0,.2481,4.6847A1.8157,1.8157,0,0,0,294.4769,74.5143Z"/><path class="s" d="M308.8568,70.63l-14.38,3.8839a1.8157,1.8157,0,0,1-2.2233-1.2778,11.128,11.128,0,0,1-.2481-4.6847l6.6194-1.7879A9.3461,9.3461,0,0,1,308.8568,70.63Z"/><path class="o" d="M257.8933,483.5145l-14.4791-.4714a10.0784,10.0784,0,0,1-3.157,1.4674l-29.7162,8.026a10.2053,10.2053,0,0,1-12.514-7.1886l-1.6322-6.043-4.7494,1.2828a10.0777,10.0777,0,0,1-3.4664.3215l-12.2729,7.6969,3.4345-14.55c-.0774-.2131-.1447-.4329-.2056-.6583l-5.186-19.201a10.2022,10.2022,0,0,1,7.19-12.51l29.7162-8.026a10.2054,10.2054,0,0,1,12.5141,7.1886l1.6322,6.043,4.7494-1.2828a10.2022,10.2022,0,0,1,12.51,7.19L247.4468,472c.0609.2255.1134.4492.1539.6723Z"/><path class="u" d="M219.8131,439.43l5.186,19.201a10.2054,10.2054,0,0,1-7.1933,12.5114L188.09,479.1687a10.0777,10.0777,0,0,1-3.4664.3215L172.35,487.1871l3.4345-14.55c-.0774-.2131-.1447-.4329-.2056-.6583l-5.186-19.201a10.2022,10.2022,0,0,1,7.19-12.51l29.7162-8.026A10.2054,10.2054,0,0,1,219.8131,439.43Z"/><path class="z" d="M189.2852,464.7279l5.186,19.201a10.2053,10.2053,0,0,0,12.514,7.1886l29.7162-8.026a10.0784,10.0784,0,0,0,3.157-1.4674l14.4791.4714-10.2926-10.8421c-.0405-.2231-.093-.4469-.1539-.6723l-5.186-19.201a10.2021,10.2021,0,0,0-12.51-7.19l-29.7162,8.0261A10.2053,10.2053,0,0,0,189.2852,464.7279Z"/><circle class="p" cx="205.3956" cy="471.3921" r="3.4786"/><circle class="p" cx="230.2587" cy="464.6768" r="3.4786"/><circle class="p" cx="217.6922" cy="468.0709" r="3.4786"/><path class="o" d="M332.6873,378.7246a14.4882,14.4882,0,0,1-15.6453,8.4105l-12.9061,29.0838-1.5164,3.418a10.6469,10.6469,0,0,1-14.0517,5.4125l-1.88-.8324-17.584,5.0531a9.3469,9.3469,0,0,1-11.57-6.3982l-9.7608-33.9544a9.3454,9.3454,0,0,1,6.4016-11.5691l22.9011-6.5835a9.2875,9.2875,0,0,1,4.9288-.0679A14.488,14.488,0,0,1,298.66,347.7759a14.3307,14.3307,0,0,1,4.6467,3.2846,12.7019,12.7019,0,0,1,16.462,7.3041,14.4869,14.4869,0,0,1,12.9186,20.36Z"/><line class="aa" x1="291.6689" y1="378.5555" x2="282.7546" y2="398.6444"/><line class="aa" x1="307.1922" y1="385.4438" x2="298.2778" y2="405.5328"/><line class="aa" x1="299.6131" y1="382.0807" x2="290.6988" y2="402.1697"/><rect class="p" x="242.851" y="377.1785" width="54.0263" height="42.5284" rx="9.3482" transform="translate(-38.5006 767.8941) rotate(-106.0401)"/><path class="q" d="M236.3379,397.7763H272.37a8.9973,8.9973,0,0,1,8.9973,8.9973v1.2539a0,0,0,0,1,0,0H227.3407a0,0,0,0,1,0,0v-1.2539A8.9973,8.9973,0,0,1,236.3379,397.7763Z" transform="translate(-62.5822 758.679) rotate(-106.0401)"/><rect class="p" x="251.2104" y="411.8674" width="3.3247" height="8.8658" rx="1.459" transform="translate(-77.3494 774.3562) rotate(-106.0401)"/><rect class="p" x="248.9138" y="403.8793" width="3.3247" height="8.8658" rx="1.459" transform="translate(-72.6035 761.9536) rotate(-106.0401)"/><rect class="p" x="246.6171" y="395.8911" width="3.3247" height="8.8658" rx="1.459" transform="translate(-67.8575 749.551) rotate(-106.0401)"/><rect class="p" x="244.3205" y="387.903" width="3.3247" height="8.8658" rx="1.459" transform="translate(-63.1115 737.1485) rotate(-106.0401)"/><path class="p" d="M319.9252,375.1094l-17.2014,38.7643-33.238-14.7492L286.6871,360.36c1.9132-4.3114,7.8212-5.872,13.1977-3.4862l13.77,6.11C319.0314,365.37,321.8383,370.7981,319.9252,375.1094Z"/><path class="s" d="M302.7238,413.8737l-1.5154,3.4151a10.6485,10.6485,0,0,1-14.0534,5.4146l-13.77-6.11A10.6484,10.6484,0,0,1,267.97,402.54l1.5154-3.4151Z"/><path class="p" d="M286.9905,372.4788a14.6527,14.6527,0,0,1-1.4943-.5679,14.4855,14.4855,0,1,1,20.2781-11.6586"/><path class="p" d="M307.137,360.9537A14.4792,14.4792,0,1,1,310.5,382.8753"/><path class="p" d="M294.8625,355.4106A12.7166,12.7166,0,0,1,318.11,365.7264"/><rect class="n" x="304.8514" y="358.2988" width="6.3936" height="4.3956" transform="translate(172.6952 -93.9603) rotate(23.9289)"/><line class="p" x1="290.256" y1="376.2088" x2="281.3416" y2="396.2978"/><line class="p" x1="305.7792" y1="383.0972" x2="296.8649" y2="403.1861"/><line class="p" x1="298.2002" y1="379.734" x2="289.2859" y2="399.823"/><path class="ab" d="M81.8061,318.0422l13.4922-12.9844c.69-.666,1.2168-.6631,1.7773-.0791l1.9883,2.0742c.5781.6035.541,1.1114-.15,1.7754l-4.84,4.6582,3.8144,3.9785,4.84-4.6572c.6914-.665,1.2168-.6631,1.7773-.0791l1.9873,2.0752c.5606.584.542,1.1094-.1494,1.7754L92.85,329.5637c-.6914.666-1.2168.664-1.7773.0791l-1.9893-2.0742c-.5595-.584-.54-1.11.1514-1.7764l4.9023-4.7178-3.8134-3.9785L85.42,321.8146c-.69.6641-1.1982.6817-1.7763.0782l-1.9893-2.0742C81.0951,319.2336,81.1137,318.7082,81.8061,318.0422Z"/><path class="ab" d="M103.059,326.1145c4.4639-6.4307,8.3574-7.6446,13.2959-4.1807,4.919,3.4482,5.1279,7.541.665,13.9707s-8.3583,7.6445-13.2744,4.1973C98.8051,336.6369,98.5951,332.5451,103.059,326.1145Zm9.5137,6.6718c2.5058-3.6093,2.6777-5.23.7959-6.55s-3.336-.5976-5.8408,3.0117c-2.5069,3.6094-2.6993,5.2159-.7969,6.55S110.0678,336.3957,112.5727,332.7863Z"/><path class="ab" d="M117.2748,346.6623l7.5674-17.1689c.3877-.88.874-1.0772,1.6113-.7452l5.6368,2.5352c4.9463,2.2246,6.4687,5.7519,4.4609,10.3105-2.0225,4.586-5.6006,5.7872-10.5713,3.5528l-1.95-.878-1.998,4.5323c-.375.8535-.85,1.0879-1.6114.7451l-2.6152-1.1768C117.0678,348.0383,116.8871,347.5422,117.2748,346.6623Zm10.81-6.0322c1.6406.7383,2.8027.3017,3.4961-1.2715s.2363-2.7354-1.4053-3.4736l-2.0449-.92-2.0918,4.7452Z"/><path class="ab" d="M143.98,356.8273l3.0684-18.5507c.1582-.95.5781-1.2627,1.373-1.1241l2.82.4922c.8213.1426,1.0928.5752.9356,1.5254l-1.1006,6.6543,5.41.9434,1.1006-6.6543c.1563-.9512.5782-1.2627,1.3731-1.124l2.82.4912c.7949.1386,1.0918.5761.9346,1.5263l-3.0674,18.5518c-.1572.95-.5791,1.2617-1.374,1.123l-2.82-.4912c-.7949-.1386-1.0918-.5752-.9345-1.5263l1.1152-6.74-5.41-.9433-1.1163,6.7412c-.1562.95-.5517,1.2666-1.372,1.124l-2.82-.4922C144.1205,358.215,143.8237,357.7785,143.98,356.8273Z"/><path class="ab" d="M165.7377,350.6838c-.2383-7.8643,2.1572-11.1631,8.1592-11.293,5.9736-.1289,8.5664,3.0615,8.8037,10.9248s-2.1562,11.1621-8.1308,11.292C168.5678,361.7375,165.975,358.5471,165.7377,350.6838Zm11.5606-.251c-.1338-4.4141-.9571-5.8291-3.2422-5.78s-3.0225,1.4991-2.8887,5.9131.9307,5.83,3.2422,5.78S177.4321,354.8469,177.2983,350.4328Z"/><path class="ab" d="M189.3022,358.8684l-4.1094-18.4043c-.2119-.9434.06-1.3916.8477-1.5616l6.0107-1.3c5.2764-1.1406,8.583.8116,9.6748,5.6983,1.0977,4.916-1.0547,8.0176-6.3555,9.1631l-2.08.4492,1.0849,4.8584c.2041.915-.0351,1.3867-.8476,1.5625l-2.79.6025C189.9516,360.1066,189.5131,359.8127,189.3022,358.8684Zm5.0791-11.3135c1.75-.3779,2.42-1.4219,2.0439-3.1074a2.3518,2.3518,0,0,0-3.1806-1.9795l-2.1817.4716,1.1358,5.087Z"/><path class="ab" d="M216.6869,351.218,208.142,334.38c-.4375-.8633-.2861-1.3662.4307-1.7276l2.5459-1.28c.7412-.3731,1.2138-.1846,1.6523.6777l3.0645,6.04,4.8838-2.458-3.0655-6.04c-.4375-.8623-.2861-1.3652.4317-1.7266l2.5449-1.2812c.7188-.3614,1.2158-.1846,1.6533.6787l8.5449,16.8379c.4385.8623.2872,1.3662-.4306,1.7265L227.851,347.11c-.7168.36-1.2129.1836-1.6514-.6787l-3.1054-6.1182L218.21,342.77l3.1054,6.1192c.4385.8623.31,1.3535-.4306,1.7265l-2.5469,1.2813C217.6215,352.258,217.1254,352.08,216.6869,351.218Z"/><path class="ab" d="M230.45,333.2727c-4.8632-6.2149-4.9111-10.3116-.1972-14.001,4.6943-3.6739,8.6592-2.6436,13.5215,3.5713s4.9111,10.3115.2168,13.9843C239.2768,340.5178,235.3119,339.4865,230.45,333.2727Zm9.0791-7.1075c-2.7275-3.4892-4.2265-4.1406-6.0214-2.7353-1.7969,1.4053-1.5225,3.0166,1.207,6.5039s4.207,4.1572,6.0234,2.7363S242.2592,329.6535,239.5287,326.1652Z"/><path class="ab" d="M254.1127,325.8361l-14.21-12.4248c-.7286-.6367-.7774-1.1611-.25-1.7676l4.0283-4.6367c3.5342-4.0693,7.334-4.4648,11.1074-1.166,3.7949,3.3174,3.918,7.1084.3662,11.1973l-1.3935,1.6045,3.7509,3.2793c.7061.6172.794,1.1425.251,1.7685l-1.8711,2.1524C255.3666,326.4494,254.8412,326.4719,254.1127,325.8361ZM251.45,313.6623a2.3417,2.3417,0,0,0-.2129-3.7324c-1.3027-1.1387-2.5419-1.0528-3.7158.2978L246.06,311.91l3.9287,3.4336Z"/><path class="ab" d="M264.5532,300.92l-2.3047-1.2793c-.8194-.4541-.9766-.958-.5791-1.6865l3.2871-6.0078c.3994-.7285.8935-.84,1.7129-.3848l2.3047,1.2793c.7929.44.9892.9356.5917,1.6641l-3.2871,6.0078C265.88,301.24,265.3471,301.3605,264.5532,300.92Z"/><path class="ab" d="M280.2963,284.4328l-18.07-5.3193c-.9258-.2725-1.19-.7305-.9687-1.5039l.7841-2.75c.2285-.7989.6866-1.0166,1.6114-.7442l6.4824,1.9082,1.5049-5.2724-6.4815-1.9092c-.9258-.2715-1.19-.7295-.9707-1.5039l.7862-2.749c.2207-.7745.6845-1.0176,1.6113-.7452l18.0693,5.32c.9258.2724,1.1914.7294.97,1.5048l-.7841,2.7491c-.2207.7744-.6866,1.0166-1.6114.7441l-6.5664-1.9336-1.5049,5.2734,6.5665,1.9327c.9248.2724,1.1972.705.97,1.5048l-.7862,2.7481C281.6869,284.4631,281.2231,284.7053,280.2963,284.4328Z"/><path class="ab" d="M276.4838,262.0207c-7.8222-.7051-10.8476-3.4863-10.3594-9.4775.4864-5.9659,3.9161-8.1651,11.7393-7.46s10.8467,3.4863,10.3623,9.4521C287.7367,260.5275,284.3061,262.7258,276.4838,262.0207Zm.94-11.542c-4.3907-.3965-5.878.2539-6.0655,2.5361-.1845,2.2823,1.1768,3.1885,5.5674,3.585s5.877-.2285,6.0664-2.5371C283.1791,251.7541,281.8158,250.8742,277.4233,250.4787Z"/><path class="ab" d="M287.0336,239.5334l-18.6787,1.9023c-.956.0977-1.373-.2275-1.4609-1.03l-.6729-6.14c-.5888-5.3887,1.6865-8.45,6.6455-8.956,4.9883-.5078,7.8448,2.0048,8.4366,7.4189l.2324,2.125,4.9316-.5019c.9287-.0948,1.3711.2,1.4619,1.0293l.3116,2.85C288.33,239.0344,287.9916,239.4357,287.0336,239.5334Zm-10.7-6.4033c-.1963-1.7871-1.1631-2.5791-2.874-2.4053s-2.4853,1.1445-2.2891,2.9316l.2432,2.2286,5.1631-.5264Z"/><path class="ab" d="M282.2172,211.2668l-17.5556,6.5586c-.9.3349-1.3829.126-1.6709-.6309l-1.0186-2.6865c-.2969-.7812-.0625-1.2305.8379-1.5664l6.2969-2.3525-1.9541-5.1514-6.2979,2.3516c-.8984.3359-1.3828.1269-1.67-.63l-1.0186-2.6866c-.2871-.7568-.0625-1.23.8369-1.5664l17.5557-6.5586c.9-.3349,1.3838-.1259,1.6709.6309l1.0186,2.6865c.2881.7559.0625,1.2305-.8379,1.5664l-6.378,2.3829,1.9541,5.1523,6.379-2.3828c.9-.336,1.374-.1514,1.6709.63l1.0175,2.6865C283.3422,210.4572,283.1176,210.9318,282.2172,211.2668Z"/><path class="ab" d="M265.7885,195.4875c-6.6426,4.1279-10.7129,3.7041-13.91-1.4141-3.1816-5.0966-1.7695-8.9267,4.8731-13.0547s10.7129-3.705,13.8965,1.3916C273.8442,187.5285,272.4311,191.36,265.7885,195.4875Zm-6.1582-9.86c-3.7285,2.3174-4.5244,3.7344-3.3057,5.6836s2.8418,1.8633,6.5713-.4541,4.5371-3.7119,3.3067-5.6845C264.9711,183.2014,263.3588,183.3107,259.63,185.6271Z"/><path class="ab" d="M260.7465,171.0744l-13.74,12.7266c-.7041.6523-1.23.64-1.78.0449l-4.2012-4.5508c-3.6875-3.9922-3.7031-7.8242-.0547-11.2041,3.668-3.3994,7.4434-3.083,11.1485.9287l1.4541,1.5742,3.6269-3.3593c.6827-.6328,1.212-.6592,1.7793-.045l1.95,2.1114C261.4789,169.8967,261.45,170.4221,260.7465,171.0744ZM248.4,172.3225c-1.2236-1.3252-2.4658-1.3848-3.7246-.2188s-1.2959,2.4111-.0732,3.7363l1.5254,1.65,3.7968-3.5176Z"/><path class="ab" d="M240.1254,151.1984l-10.126,15.77c-.5185.8086-1.03.9278-1.7089.4873l-2.4092-1.5654c-.7012-.456-.7813-.959-.2617-1.7676l3.6318-5.6562-4.6211-3.002-3.6309,5.6563c-.52.8086-1.03.9277-1.7089.4863l-2.4092-1.5644c-.6787-.4414-.78-.959-.2627-1.7676l10.1269-15.77c.5176-.8076,1.0293-.9268,1.708-.4864l2.4092,1.5655c.6787.44.7813.958.2617,1.7666l-3.6787,5.73,4.6211,3.0029,3.6787-5.7305c.5186-.8086,1.0078-.9424,1.708-.4863l2.4092,1.5654C240.5424,149.8732,240.644,150.39,240.1254,151.1984Z"/><path class="ab" d="M217.5971,148.2131c-2.8506,7.3017-6.3506,9.3877-11.9434,7.1572-5.5683-2.2217-6.7168-6.1611-3.8662-13.4619,2.8487-7.3018,6.35-9.3877,11.917-7.166C219.2983,136.9728,220.4457,140.9133,217.5971,148.2131Zm-10.7734-4.2969c-1.6006,4.0986-1.3936,5.7188.7382,6.5684,2.13.85,3.375-.1914,4.9737-4.2891,1.6006-4.0986,1.417-5.708-.7364-6.5684C209.644,138.7678,208.4223,139.8186,206.8237,143.9162Z"/><path class="ab" d="M199.0991,131.5012l-3.4063,18.48c-.1748.9463-.6016,1.2509-1.3936,1.0976l-6.0566-1.17c-5.3174-1.0264-7.6055-4.1133-6.7012-9.0195.91-4.9356,4.11-6.9327,9.4512-5.9014l2.0947.4043.9-4.8779c.168-.918.5752-1.2559,1.3926-1.0977l2.8125.543C198.9838,130.1115,199.2739,130.5539,199.0991,131.5012Zm-9.1133,8.374c-1.7637-.3418-2.791.3516-3.1026,2.0449s.3975,2.7217,2.16,3.0625l2.1992.4238.9414-5.1074Z"/><path class="ab" d="M172.32,134.87l.0693,2.6318c.0244.9356-.3291,1.3223-1.16,1.337l-6.8593.124c-.8321.0146-1.18-.3584-1.2041-1.2949l-.07-2.63c-.0244-.9072.3028-1.3223,1.1348-1.3369l6.8584-.1241C171.92,133.5617,172.2953,133.9641,172.32,134.87Z"/><path class="ab" d="M150.1069,129.3586l4.5683,18.2939c.2344.9375-.0263,1.3926-.8076,1.5821l-2.7734.6728c-.8057.1963-1.2266-.0937-1.461-1.0312l-1.6377-6.5616-5.3193,1.2911,1.6387,6.5615c.2334.9375-.0264,1.3926-.8086,1.582l-2.7725.6729c-.7812.1894-1.2265-.0938-1.4609-1.0313l-4.5684-18.2939c-.2344-.9375.0264-1.3926.8086-1.5821l2.7735-.6728c.7812-.19,1.2255.0937,1.4589,1.0312l1.66,6.6475,5.3193-1.291-1.6592-6.6475c-.2343-.9365.001-1.3857.8067-1.582l2.7734-.6719C149.4272,128.1379,149.8725,128.4221,150.1069,129.3586Z"/><path class="ab" d="M132.6528,143.7111c3.3593,7.1309,2.4921,11.126-2.9317,13.6582-5.4013,2.52-9.042.63-12.4-6.5009-3.36-7.1309-2.4922-11.126,2.9073-13.6475C125.6528,134.69,129.2924,136.58,132.6528,143.7111Zm-10.4483,4.877c1.8858,4.0039,3.2012,4.9736,5.2686,4.01s2.1582-2.5937.2724-6.5957c-1.8867-4.0039-3.18-4.9843-5.2685-4.0087S120.3178,144.5861,122.2045,148.5881Z"/><path class="ab" d="M107.8979,145.6408l11.1,15.2842c.5693.7832.5,1.3047-.1514,1.7764l-4.9717,3.6045c-4.3632,3.163-8.1621,2.6943-11.1093-1.3643-2.9649-4.082-2.2373-7.7988,2.1474-10.9775l1.72-1.2471-2.9288-4.0342c-.5527-.76-.52-1.29.1495-1.7764l2.3086-1.6728C106.811,144.7619,107.33,144.8576,107.8979,145.6408Zm-.1221,12.4434a2.6113,2.6113,0,1,0,3.0684,4.2246L112.6479,161l-3.0684-4.2246Z"/><path class="ab" d="M85.9321,163.6428,100.45,175.718c.7432.6191.8067,1.1425.294,1.7617l-1.8154,2.1973c-.5284.64-1.0362.6562-1.78.0371L91.94,175.383l-3.4815,4.2148,5.2061,4.3321c.7441.6181.8066,1.1416.2939,1.7607l-1.8144,2.1983c-.5117.6191-1.0362.6552-1.78.0371L75.8451,175.8488c-.7421-.6181-.8046-1.1416-.2929-1.7617l1.8154-2.1973c.5117-.62,1.0361-.6552,1.7793-.0361l5.2754,4.3877,3.4834-4.2158L82.63,167.6379c-.7441-.6182-.8232-1.1231-.2939-1.7617l1.8164-2.1983C84.6635,163.06,85.1879,163.0236,85.9321,163.6428Z"/><path class="ab" d="M80.4916,185.6838c6.9239,3.7529,8.6094,7.499,5.7862,12.7842-2.8106,5.2617-6.8409,5.91-13.7657,2.1562s-8.6074-7.499-5.7968-12.7607C69.5375,182.5773,73.5678,181.93,80.4916,185.6838Zm-5.4365,10.1816c3.8857,2.1074,5.5137,2.1035,6.5889.0908s.1806-3.3837-3.7061-5.49-5.5029-2.1269-6.59-.0908S71.1674,193.759,75.0551,195.8654Z"/><path class="ab" d="M61.8852,202.0705l17.9619,5.6533c.92.2891,1.1768.751.94,1.5215l-1.8017,5.8858c-1.583,5.1669-4.8877,7.0683-9.6573,5.5673-4.7978-1.51-6.4375-4.9394-4.8476-10.1308l.624-2.0371-4.7412-1.4922c-.8926-.28-1.1846-.7266-.94-1.5215l.8359-2.7315C60.4946,202.0139,60.9643,201.7814,61.8852,202.0705ZM69.22,212.1672c-.5244,1.7139.0528,2.8213,1.6983,3.3408,1.6465.5176,2.7422-.0644,3.2666-1.7783l.6543-2.1358-4.9658-1.5625Z"/><path class="ab" d="M55.1723,229.7443l18.7666,1.02c.9609.0528,1.3232.4366,1.2861,1.2432l-.1318,2.86c-.0381.832-.4336,1.1494-1.3945,1.0976L66.9672,235.6l-.2529,5.4873,6.7314.3662c.961.0518,1.3223.4365,1.2862,1.2422l-.1328,2.8613c-.0362.8067-.4317,1.1494-1.3946,1.0967L54.4389,245.635c-.96-.0528-1.3232-.4375-1.2861-1.2442l.1318-2.86c.0371-.8057.4336-1.1494,1.3945-1.0967l6.8194.37.2529-5.4873-6.8193-.37c-.961-.0518-1.3243-.4112-1.2862-1.2432l.1319-2.86C53.8149,230.0363,54.21,229.6926,55.1723,229.7443Z"/><path class="ab" d="M64.0131,250.7658c7.7549-1.1308,11.334.876,12.2481,6.8291.91,5.9268-1.91,8.8682-9.6631,9.999-7.7549,1.1319-11.334-.875-12.2461-6.8027C53.4389,254.8381,56.2582,251.8967,64.0131,250.7658Zm1.7617,11.4688c4.3535-.6358,5.6455-1.6153,5.2979-3.8828s-1.88-2.835-6.2324-2.1993-5.6514,1.5879-5.2979,3.8819C59.894,262.3273,61.4213,262.8693,65.7748,262.2346Z"/><path class="ab" d="M59,275.1545l17.6758-6.2266c.9062-.3193,1.3857-.1006,1.6582.6612l2.085,5.8242c1.831,5.1113.3379,8.626-4.3555,10.2793-4.7217,1.6631-8.0781-.1162-9.916-5.253l-.7217-2.0146-4.666,1.6436c-.8779.31-1.377.125-1.6592-.6612l-.9678-2.7031C57.8608,275.9426,58.0961,275.4728,59,275.1545Zm11.876,3.7314c.6064,1.6953,1.73,2.2412,3.3486,1.6709s2.1436-1.6963,1.5371-3.3916l-.7568-2.1142L70.12,276.7727Z"/><path class="ab" d="M75.6147,296.6594l2.23-1.3731c.791-.4892,1.3066-.376,1.7461.335l3.6318,5.8623c.44.7109.2969,1.1982-.4951,1.6865l-2.2285,1.3731c-.7666.4736-1.293.3984-1.7334-.3116l-3.6319-5.8642C74.6938,297.6574,74.8471,297.132,75.6147,296.6594Z"/><path class="n" d="M139.4192,311.9146a13.6454,13.6454,0,0,1-7.77,2.5878c-12.6688,0-23.2185-19.8094-25.47-45.9821C84.6766,253.5942,72.63,235.0171,78.67,224.56c4.1059-7.1061,15.6115-8.8568,29.9906-5.7528,8.2174-31.9715,32.8065-55.1785,61.8584-55.1785,28.954,0,53.4681,23.0457,61.7662,54.8387,14.6556-3.2766,26.4261-1.5779,30.5837,5.6261,6.0868,10.5439-6.19,29.3167-27.9923,44.3005-2.2055,26.236-12.6458,46.1088-25.1995,46.1088a13.4209,13.4209,0,0,1-7.6646-2.5683"/><path class="n" d="M201.9072,310.9362c-3.8305,5.5431-8.3755,8.7489-13.2484,8.7489a11.9459,11.9459,0,0,1-5.6261-1.4627c-.2361-.1267-.4722-.2591-.7025-.4031-.1958.2361-.3916.4665-.5932.691-3.2938,3.7028-7.0024,5.7817-10.93,5.7817-3.8755,0-7.538-2.0271-10.7973-5.6377-.2476-.2706-.4895-.547-.7256-.835-.2937.1786-.5816.3455-.881.4953a11.8452,11.8452,0,0,1-5.4476,1.37c-4.9466,0-9.5535-3.3054-13.4232-9.0006"/><path class="ac" d="M139.4192,311.9146a13.6454,13.6454,0,0,1-7.77,2.5878c-12.6688,0-23.2185-19.8094-25.47-45.9821C84.6766,253.5942,72.63,235.0171,78.67,224.56c4.1059-7.1061,15.6115-8.8568,29.9906-5.7528,8.2174-31.9715,32.8065-55.1785,61.8584-55.1785,28.954,0,53.4681,23.0457,61.7662,54.8387,14.6556-3.2766,26.4261-1.5779,30.5837,5.6261,6.0868,10.5439-6.19,29.3167-27.9923,44.3005-2.2055,26.236-12.6458,46.1088-25.1995,46.1088a13.4209,13.4209,0,0,1-7.6646-2.5683"/><path class="ac" d="M201.9072,310.9362c-3.8305,5.5431-8.3755,8.7489-13.2484,8.7489a11.9459,11.9459,0,0,1-5.6261-1.4627c-.2361-.1267-.4722-.2591-.7025-.4031-.1958.2361-.3916.4665-.5932.691-3.2938,3.7028-7.0024,5.7817-10.93,5.7817-3.8755,0-7.538-2.0271-10.7973-5.6377-.2476-.2706-.4895-.547-.7256-.835-.2937.1786-.5816.3455-.881.4953a11.8452,11.8452,0,0,1-5.4476,1.37c-4.9466,0-9.5535-3.3054-13.4232-9.0006"/><path class="n" d="M139.4192,311.9146a13.6454,13.6454,0,0,1-7.77,2.5878c-12.6688,0-23.2185-19.8094-25.47-45.9821C84.6766,253.5942,72.63,235.0171,78.67,224.56c4.1059-7.1061,15.6115-8.8568,29.9906-5.7528,8.2174-31.9715,32.8065-55.1785,61.8584-55.1785,28.954,0,53.4681,23.0457,61.7662,54.8387,14.6556-3.2766,26.4261-1.5779,30.5837,5.6261,6.0868,10.5439-6.19,29.3167-27.9923,44.3005-2.2055,26.236-12.6458,46.1088-25.1995,46.1088a13.4209,13.4209,0,0,1-7.6646-2.5683"/><path class="n" d="M201.9072,310.9362c-3.8305,5.5431-8.3755,8.7489-13.2484,8.7489a11.9459,11.9459,0,0,1-5.6261-1.4627c-.2361-.1267-.4722-.2591-.7025-.4031-.1958.2361-.3916.4665-.5932.691-3.2938,3.7028-7.0024,5.7817-10.93,5.7817-3.8755,0-7.538-2.0271-10.7973-5.6377-.2476-.2706-.4895-.547-.7256-.835-.2937.1786-.5816.3455-.881.4953a11.8452,11.8452,0,0,1-5.4476,1.37c-4.9466,0-9.5535-3.3054-13.4232-9.0006"/><path class="ad" d="M234.8778,268.3944c-2.2071,26.234-12.645,46.1081-25.2017,46.1081a13.4383,13.4383,0,0,1-7.6638-2.567h-.8217c-3.674,4.9269-7.9592,7.7486-12.533,7.7486a11.9785,11.9785,0,0,1-5.6264-1.46c-.2343-.129-.472-.2614-.7-.404-.1969.2343-.3938.4652-.5942.6893-3.2937,3.7045-7.0016,5.7826-10.93,5.7826-3.8743,0-7.5381-2.0272-10.7979-5.6366-.2478-.2717-.4889-.5467-.7266-.8353-.292.1766-.5806.3463-.8794.4957a11.8674,11.8674,0,0,1-5.4465,1.3684c-4.5806,0-8.8692-2.8319-12.55-7.769h-.9881a13.639,13.639,0,0,1-7.7691,2.5874c-12.6687,0-23.2187-19.81-25.47-45.9824-21.504-14.9268-33.5514-33.5039-27.5107-43.9621,4.1086-7.1035,15.6127-8.8556,29.9928-5.7521,8.2172-31.969,32.8044-55.1776,61.8566-55.1776,28.9539,0,53.47,23.0456,61.7684,54.838,14.6552-3.2766,26.4241-1.5789,30.5836,5.6265C268.9554,234.636,256.6772,253.41,234.8778,268.3944Z"/><path class="ae" d="M139.4192,311.9146a13.6454,13.6454,0,0,1-7.77,2.5878c-12.6688,0-23.2185-19.8094-25.47-45.9821C84.6766,253.5942,72.63,235.0171,78.67,224.56c4.1059-7.1061,15.6115-8.8568,29.9906-5.7528,8.2174-31.9715,32.8065-55.1785,61.8584-55.1785,28.954,0,53.4681,23.0457,61.7662,54.8387,14.6556-3.2766,26.4261-1.5779,30.5837,5.6261,6.0868,10.5439-6.19,29.3167-27.9923,44.3005-2.2055,26.236-12.6458,46.1088-25.1995,46.1088a13.4209,13.4209,0,0,1-7.6646-2.5683"/><path class="ae" d="M201.9072,310.9362c-3.8305,5.5431-8.3755,8.7489-13.2484,8.7489a11.9459,11.9459,0,0,1-5.6261-1.4627c-.2361-.1267-.4722-.2591-.7025-.4031-.1958.2361-.3916.4665-.5932.691-3.2938,3.7028-7.0024,5.7817-10.93,5.7817-3.8755,0-7.538-2.0271-10.7973-5.6377-.2476-.2706-.4895-.547-.7256-.835-.2937.1786-.5816.3455-.881.4953a11.8452,11.8452,0,0,1-5.4476,1.37c-4.9466,0-9.5535-3.3054-13.4232-9.0006"/><path class="af" d="M172.6069,246.1419c-.3743.622-.76,1.2209-1.1517,1.7967-.2419-.1612-.478-.34-.72-.524C171.3688,247.0115,171.9907,246.5853,172.6069,246.1419Z"/><path class="af" d="M172.6069,246.1419c-.3743.622-.76,1.2209-1.1517,1.7967-.2419-.1612-.478-.34-.72-.524C171.3688,247.0115,171.9907,246.5853,172.6069,246.1419Z"/><path class="ag" d="M184.1954,235.3907c0,7.5534-5.4952,13.6766-12.2738,13.6766s-12.2737-6.1232-12.2737-13.6766l8.323,1.1a28.6194,28.6194,0,0,0,7.3284.0218Z"/><ellipse class="ah" cx="150.65" cy="213.5082" rx="9.1786" ry="13.6766"/><ellipse class="ai" cx="149.5628" cy="205.8781" rx="3.8759" ry="4.3189"/><ellipse class="ah" cx="189.8082" cy="213.5082" rx="9.1786" ry="13.6766"/><ellipse class="ai" cx="188.721" cy="205.8781" rx="3.8759" ry="4.3189"/></svg>