<svg xmlns="http://www.w3.org/2000/svg" xmlns:xlink="http://www.w3.org/1999/xlink" viewBox="0 0 1818.2246 925.4039"><defs><style>.a,.ar,.l,.r,.x{fill:#95d9cc;}.a,.aa,.ab,.ac,.ad,.ae,.af,.ag,.ah,.ai,.aj,.ak,.an,.ao,.ap,.aq,.b,.c,.d,.e,.f,.g,.h,.i,.j,.k,.l,.m,.n,.o,.p,.q,.r,.s,.t,.u,.v,.x,.y,.z{stroke:#1d1f21;}.a,.aa,.ab,.ac,.ad,.ah,.ai,.aj,.ak,.al,.an,.ao,.aq,.b,.c,.d,.e,.i,.j,.k,.l,.m,.n,.o,.p,.q,.r,.s,.t,.u,.v,.x,.y,.z{stroke-miterlimit:10;}.a,.b,.c,.d,.e,.f,.g,.h,.i,.j,.k,.v{stroke-width:0.4606px;}.al,.ao,.b,.m,.u,.w,.y{fill:#fffdfa;}.aa,.ag,.c,.h,.q{fill:#0eb495;}.ac,.d,.s{fill:#ffd1a8;}.ad,.ak,.ap,.e{fill:#ffc5bf;}.ad,.ae,.af,.ag,.ap,.e,.f,.g,.h{stroke-linecap:round;}.ae,.ai,.f,.t{fill:#b9d9f6;}.ae,.af,.ag,.ap,.f,.g,.h{stroke-linejoin:round;}.af,.g,.j,.n,.z{fill:#f86151;}.ah,.i,.p{fill:#f8a75d;}.ab,.k,.o{fill:#054b8c;}.l,.m,.n,.o,.p,.q{stroke-width:0.4399px;}.r,.s,.t,.u{stroke-width:0.5028px;}.aj,.an,.v{fill:none;}.aa,.ab,.ac,.ad,.ae,.af,.ag,.ah,.ai,.aj,.x,.y,.z{stroke-width:1.2315px;}.ak{stroke-width:0.8395px;}.al{stroke:#95d9cc;stroke-width:39.5834px;}.am{fill:url(#a);}.an,.ao,.ap,.aq{stroke-width:0.8796px;}.aq{fill:#1d1f21;}</style><radialGradient id="a" cx="850.9334" cy="350.5451" r="406.7084" gradientUnits="userSpaceOnUse"><stop offset="0" stop-color="#fffdfa" stop-opacity="0.5"/><stop offset="0.4637" stop-color="#fafcfe" stop-opacity="0.5338"/><stop offset="0.5022" stop-color="#f3f8fd" stop-opacity="0.5833"/><stop offset="0.6576" stop-color="#daebfa" stop-opacity="0.7626"/><stop offset="0.7978" stop-color="#c8e1f8" stop-opacity="0.8925"/><stop offset="0.9166" stop-color="#bddbf6" stop-opacity="0.9716"/><stop offset="1" stop-color="#b9d9f6"/></radialGradient></defs><title>landing-pc_3</title><rect class="a" x="779.756" y="56.2613" width="89.8242" height="70.7078" rx="8.5432" transform="matrix(0.9556, -0.2946, 0.2946, 0.9556, 9.6157, 247.0515)"/><rect class="b" x="774.4041" y="54.5372" width="89.8242" height="70.7078" rx="8.5432" transform="translate(9.8861 245.398) rotate(-17.1363)"/><circle class="c" cx="772.2803" cy="69.4462" r="12.3885"/><path class="b" d="M778.3473,75.0529a8.1123,8.1123,0,0,1-3.1864,1.8285,8.0136,8.0136,0,0,1-8.9421-2.8222l-1.6914.5216-.2727-1.9969.9814-.3026a6.1027,6.1027,0,0,1-.2076-.599c-.0709-.23-.1417-.46-.1916-.6956l-1.2737.3927-.2727-1.9968,1.3991-.4314a8.0974,8.0974,0,0,1,5.8678-7.2972,8.6239,8.6239,0,0,1,3.346-.3455l.3923,2.8286a5.8765,5.8765,0,0,0-2.9061.1417,5.178,5.178,0,0,0-3.5885,3.713l6.7029-2.0667.2937,1.99-7.0789,2.1826c.05.236.1.4723.1707.702a5.7454,5.7454,0,0,0,.2285.5926l6.8279-2.1053.2936,1.99-5.93,1.8284a5.2339,5.2339,0,0,0,5.1593,1.0845,6.2359,6.2359,0,0,0,2.6432-1.6609Z"/><rect class="d" x="829.0536" y="47.2634" width="5.5276" height="42.8393" rx="1.9231" transform="translate(1011.2745 883.8105) rotate(-107.1363)"/><rect class="d" x="826.0676" y="37.5793" width="5.5276" height="42.8392" rx="1.9231" transform="translate(1016.6629 868.4195) rotate(-107.1363)"/><rect class="d" x="836.8816" y="60.5215" width="5.5276" height="32.7052" rx="1.9231" transform="translate(1013.5814 901.8956) rotate(-107.1363)"/><path class="e" d="M866.3647,87.8434l-.0043.0013a19.0337,19.0337,0,0,0-15.0691-1.7872l-.0042.0013,5.3716,18.2316,9.6171-16.2253.0572-.1427"/><path class="f" d="M874.6687,97.72l-18.01,6.5706,9.6171-16.2253.0889-.2217A18.9911,18.9911,0,0,1,874.6687,97.72Z"/><path class="g" d="M875.3254,108.8349a19.0922,19.0922,0,1,1-24.1819-22.7318l.1436-.0443,5.3716,18.2316Z"/><path class="h" d="M875.0107,98.7244a18.9947,18.9947,0,0,1,.3147,10.1105L856.6587,104.29l18.01-6.5706.0055.003,0,.0139C874.7965,98.06,874.9079,98.3907,875.0107,98.7244Z"/><circle class="c" cx="790.739" cy="98.0279" r="8.6399"/><circle class="i" cx="796.9981" cy="118.3282" r="8.6399"/><circle class="j" cx="811.4583" cy="91.594" r="8.6399"/><circle class="k" cx="817.7338" cy="111.947" r="8.6399"/><path class="b" d="M795.103,97.7915l-3.0043.9264.9846,3.1932-2.1288.6564-.9846-3.1933L787,100.29l-.6246-2.0258,2.97-.9159-.9846-3.1933,2.1288-.6563.9846,3.1933,3.0043-.9264Z"/><path class="b" d="M813.0816,110.5945l7.6573-2.361.5663,1.8368-7.6573,2.361Zm1.09,3.5365,7.6573-2.361.5664,1.8369-7.6573,2.361Z"/><path class="b" d="M794.6426,116.2062a1.627,1.627,0,1,1,2.0226,1.0119A1.581,1.581,0,0,1,794.6426,116.2062Zm1.6039,5.2021a1.627,1.627,0,1,1,2.0227,1.0119A1.5811,1.5811,0,0,1,796.2465,121.4083Z"/><path class="b" d="M807.2922,91.1419l7.15-2.2047.9227,2.9924-7.1505,2.2047Z"/><rect class="l" x="92.3359" y="164.3508" width="85.7808" height="67.5249" rx="8.5432" transform="translate(-42.199 36.6968) rotate(-13.3887)"/><rect class="m" x="87.5677" y="161.416" width="85.7808" height="67.5249" rx="8.5432" transform="translate(-41.649 35.5129) rotate(-13.3887)"/><path class="n" d="M90.1774,162.1125h68.6944a8.5432,8.5432,0,0,1,8.5432,8.5432v7.7332a0,0,0,0,1,0,0H81.6342a0,0,0,0,1,0,0v-7.7332A8.5432,8.5432,0,0,1,90.1774,162.1125Z" transform="translate(-36.0381 33.4615) rotate(-13.3887)"/><rect class="m" x="100.7432" y="159.879" width="5.2788" height="14.0768" rx="1.9162" transform="translate(-35.8409 28.4753) rotate(-13.3887)"/><rect class="m" x="113.5816" y="156.8231" width="5.2788" height="14.0768" rx="1.9162" transform="translate(-34.7844 31.3651) rotate(-13.3887)"/><rect class="m" x="126.42" y="153.7673" width="5.2788" height="14.0768" rx="1.9162" transform="translate(-33.7279 34.2549) rotate(-13.3887)"/><rect class="m" x="139.2583" y="150.7114" width="5.2788" height="14.0768" rx="1.9162" transform="translate(-32.6713 37.1446) rotate(-13.3887)"/><circle class="o" cx="109.2799" cy="195.7004" r="8.251"/><circle class="p" cx="129.4401" cy="190.9018" r="8.251"/><circle class="n" cx="113.9896" cy="215.4874" r="8.251"/><circle class="o" cx="134.1499" cy="210.6887" r="8.251"/><circle class="q" cx="149.6004" cy="186.1032" r="8.251"/><circle class="p" cx="154.3101" cy="205.8901" r="8.251"/><path class="r" d="M233.7255,805.1109l-19.0031.9511a13.2365,13.2365,0,0,1-3.9733,2.2625L172.722,822.0484a13.4038,13.4038,0,0,1-17.1585-8.0541l-2.7909-7.7331-6.0777,2.1935a13.2354,13.2354,0,0,1-4.5024.7963l-15.2307,11.4038,2.92-19.4165c-.1243-.27-.2362-.5509-.34-.8394l-8.8676-24.571a13.3993,13.3993,0,0,1,8.0557-17.1537L166.7564,744.95a13.4037,13.4037,0,0,1,17.1585,8.054l2.7909,7.7331,6.0777-2.1934A13.4,13.4,0,0,1,209.9372,766.6l8.8676,24.571c.1042.2885.1971.5757.2742.8633Z"/><path class="s" d="M179.1069,751.532l8.8676,24.571a13.4037,13.4037,0,0,1-8.06,17.1555L141.887,806.9824a13.2358,13.2358,0,0,1-4.5024.7963l-15.2308,11.4038,2.92-19.4165c-.1244-.27-.2363-.5509-.34-.8394l-8.8676-24.5709a13.4,13.4,0,0,1,8.0557-17.1538l38.0271-13.7239A13.4038,13.4038,0,0,1,179.1069,751.532Z"/><path class="t" d="M141.8879,787.9511l8.8676,24.571a13.4039,13.4039,0,0,0,17.1586,8.054l38.027-13.7239a13.2353,13.2353,0,0,0,3.9733-2.2625l19.0031-.9511L214.271,790.5617c-.077-.2875-.17-.5748-.2741-.8633l-8.8676-24.571a13.4,13.4,0,0,0-17.1538-8.0557l-38.0271,13.7239A13.4038,13.4038,0,0,0,141.8879,787.9511Z"/><circle class="u" cx="163.6971" cy="794.9292" r="4.5688"/><circle class="u" cx="195.5137" cy="783.4466" r="4.5688"/><circle class="u" cx="179.4326" cy="789.2502" r="4.5688"/><path class="a" d="M471.2087,458.65A19.0293,19.0293,0,0,1,451.39,470.9585l-14.5321,39.1827-1.7073,4.6047a13.9838,13.9838,0,0,1-17.9756,8.2475l-2.533-.937-22.6353,8.0661a12.2762,12.2762,0,0,1-15.6906-7.4379l-15.58-43.708a12.2742,12.2742,0,0,1,7.4425-15.69l29.48-10.5084a12.1969,12.1969,0,0,1,6.4552-.4932,19.0286,19.0286,0,0,1,19.9524-31.412,18.8209,18.8209,0,0,1,6.3606,3.9245,16.6827,16.6827,0,0,1,22.178,8.2241,19.0274,19.0274,0,0,1,18.6042,25.629Z"/><line class="v" x1="417.4264" y1="461.7933" x2="407.389" y2="488.8577"/><line class="v" x1="438.3399" y1="469.5494" x2="428.3025" y2="496.6139"/><line class="v" x1="428.1292" y1="465.7626" x2="418.0918" y2="492.827"/><rect class="b" x="355.4135" y="462.2225" width="70.958" height="55.8567" rx="8.5432" transform="translate(60.4595 1022.9348) rotate(-109.6206)"/><path class="j" d="M343.67,490.5365h54.5131a8.2224,8.2224,0,0,1,8.2224,8.2224V504a0,0,0,0,1,0,0h-70.958a0,0,0,0,1,0,0v-5.2414A8.2224,8.2224,0,0,1,343.67,490.5365Z" transform="translate(27.0853 1013.636) rotate(-109.6206)"/><rect class="b" x="367.901" y="509.1308" width="4.3666" height="11.6444" rx="1.3334" transform="translate(9.3021 1036.4654) rotate(-109.6206)"/><rect class="b" x="364.2353" y="498.8481" width="4.3666" height="11.6444" rx="1.3334" transform="translate(14.0911 1019.2769) rotate(-109.6206)"/><rect class="b" x="360.5696" y="488.5653" width="4.3666" height="11.6444" rx="1.3334" transform="translate(18.8802 1002.0884) rotate(-109.6206)"/><rect class="b" x="356.9039" y="478.2825" width="4.3666" height="11.6444" rx="1.3334" transform="translate(23.6694 984.9) rotate(-109.6206)"/><path class="b" d="M454.6,455.4586,435.2318,507.683l-44.7793-16.6073,19.3685-52.2244c2.1541-5.8084,9.77-8.3387,17.014-5.6523l18.5514,6.88C452.63,442.7655,456.7545,449.65,454.6,455.4586Z"/><path class="k" d="M435.2318,507.683l-1.7063,4.601a13.9857,13.9857,0,0,1-17.9776,8.25l-18.5514-6.88a13.9858,13.9858,0,0,1-8.25-17.9776l1.7064-4.6009Z"/><path class="b" d="M411.2126,454.7117a19.2205,19.2205,0,0,1-2.0053-.6219,19.0251,19.0251,0,1,1,25.6249-16.9457"/><path class="b" d="M436.6761,437.9517a19.0167,19.0167,0,1,1,6.2061,28.46"/><path class="b" d="M420.1315,431.6924a16.7021,16.7021,0,0,1,31.32,11.6155"/><rect class="w" x="433.6343" y="434.3912" width="8.3973" height="5.7732" transform="translate(179.3757 -124.9583) rotate(20.3483)"/><line class="b" x1="415.799" y1="459.3333" x2="405.7616" y2="486.3978"/><line class="b" x1="436.7125" y1="467.0895" x2="426.6751" y2="494.1539"/><line class="b" x1="426.5018" y1="463.3027" x2="416.4644" y2="490.3671"/><rect class="a" x="1550.7378" y="116.8995" width="89.8242" height="70.7078" rx="8.5432" transform="translate(1881.0257 1729.5423) rotate(-105.706)"/><rect class="b" x="1545.874" y="114.9176" width="89.8242" height="70.7078" rx="8.5432" transform="translate(1876.753 1722.3418) rotate(-105.706)"/><path class="j" d="M1528.5869,149.0132h72.7379a8.5432,8.5432,0,0,1,8.5432,8.5432v8.5a0,0,0,0,1,0,0h-89.8242a0,0,0,0,1,0,0v-8.5a8.5432,8.5432,0,0,1,8.5432-8.5432Z" transform="translate(1836.9382 1706.7057) rotate(-105.706)"/><rect class="b" x="1559.5997" y="172.4264" width="5.5276" height="14.7404" rx="1.9231" transform="translate(1812.2137 1732.498) rotate(-105.706)"/><rect class="b" x="1555.8588" y="159.1233" width="5.5276" height="14.7404" rx="1.9231" transform="translate(1820.2666 1711.9924) rotate(-105.706)"/><rect class="b" x="1552.118" y="145.8201" width="5.5276" height="14.7404" rx="1.9231" transform="translate(1828.3196 1691.4869) rotate(-105.706)"/><rect class="b" x="1548.3771" y="132.517" width="5.5276" height="14.7404" rx="1.9231" transform="matrix(-0.2707, -0.9627, 0.9627, -0.2707, 1836.3725, 1670.9814)"/><path class="c" d="M1614.8056,162.3748c-2.961-10.3976-10.7664-17.2873-17.4338-15.3886s-9.672,11.867-6.711,22.2646Z"/><circle class="c" cx="1595.3872" cy="139.4077" r="9.9037"/><rect class="a" x="1665.8971" y="709.9685" width="89.8242" height="70.7078" rx="8.5432" transform="translate(1583.4171 2607.0809) rotate(-109.6262)"/><rect class="b" x="1661.343" y="708.1691" width="89.8242" height="70.7078" rx="8.5432" transform="translate(1579.0282 2600.3877) rotate(-109.6262)"/><path class="j" d="M1667.3367,700.725h53.3911a8.5432,8.5432,0,0,1,8.5432,8.5432v8.5a0,0,0,0,1,0,0h-70.4775a0,0,0,0,1,0,0v-8.5A8.5432,8.5432,0,0,1,1667.3367,700.725Z" transform="translate(-139.8069 610.1993) rotate(-19.6262)"/><rect class="k" x="1720.2899" y="745.2112" width="5.5276" height="42.8392" rx="1.9231" transform="translate(1579.7038 2647.0796) rotate(-109.6262)"/><rect class="k" x="1715.6483" y="732.1949" width="5.5276" height="42.8392" rx="1.9231" transform="translate(1585.7632 2625.3194) rotate(-109.6262)"/><rect class="k" x="1711.0067" y="719.1787" width="5.5276" height="42.8392" rx="1.9231" transform="translate(1591.8227 2603.5593) rotate(-109.6262)"/><rect class="k" x="1706.3651" y="706.1624" width="5.5276" height="42.8392" rx="1.9231" transform="translate(1597.8822 2581.7991) rotate(-109.6262)"/><rect class="c" x="1691.2976" y="774.2199" width="5.5276" height="5.9883" rx="1.7629" transform="translate(1531.0052 2633.9096) rotate(-109.6262)"/><rect class="c" x="1686.656" y="761.2036" width="5.5276" height="5.9883" rx="1.7629" transform="translate(1537.0646 2612.1494) rotate(-109.6262)"/><rect class="c" x="1682.0144" y="748.1873" width="5.5276" height="5.9883" rx="1.7629" transform="translate(1543.1241 2590.3893) rotate(-109.6262)"/><rect class="c" x="1677.3728" y="735.171" width="5.5276" height="5.9883" rx="1.7629" transform="translate(1549.1835 2568.6291) rotate(-109.6262)"/><circle class="c" cx="1723.3052" cy="696.4146" r="12.3885"/><polygon class="b" points="1731.205 690.061 1726.501 699.98 1725.061 703.009 1722.034 701.573 1713.957 697.742 1715.391 694.711 1723.469 698.542 1728.173 688.623 1731.205 690.061"/><rect class="a" x="1287.6535" y="450.1523" width="89.8242" height="70.7078" rx="8.5432" transform="translate(-77.3107 331.5703) rotate(-13.7876)"/><path class="d" d="M1365.4415,450.3559l11,44.8259a12.275,12.275,0,0,1-8.9966,14.8479l-63.3915,15.5559a12.275,12.275,0,0,1-14.8479-8.9966l-11-44.8259a12.275,12.275,0,0,1,8.9966-14.8479l.9618-.236a14.6176,14.6176,0,0,0,.1833,6.1589,2.3847,2.3847,0,0,0,2.88,1.7453l72.6833-17.836A12.0781,12.0781,0,0,1,1365.4415,450.3559Z"/><path class="a" d="M1288.1639,456.6792l12.5262-3.0739a14.6176,14.6176,0,0,0,.1833,6.1589,2.3847,2.3847,0,0,0,2.88,1.7453l-12.5262,3.0739a2.3847,2.3847,0,0,1-2.88-1.7453,14.6176,14.6176,0,0,1-.1833-6.1589"/><path class="j" d="M1317.1748,458.2161l-13.4209,3.2934a2.3847,2.3847,0,0,1-2.88-1.7453,14.6176,14.6176,0,0,1-.1833-6.1589l13.4209-3.2934a14.6177,14.6177,0,0,0,.1834,6.1589A2.3845,2.3845,0,0,0,1317.1748,458.2161Z"/><path class="c" d="M1330.5957,454.9227l-13.4209,3.2934a2.3845,2.3845,0,0,1-2.88-1.7453,14.6177,14.6177,0,0,1-.1834-6.1589l13.421-3.2934a14.616,14.616,0,0,0,.1833,6.1589A2.3846,2.3846,0,0,0,1330.5957,454.9227Z"/><path class="i" d="M1344.9114,451.41l-14.3157,3.513a2.3846,2.3846,0,0,1-2.88-1.7453,14.616,14.616,0,0,1-.1833-6.1589l14.3156-3.513a14.6193,14.6193,0,0,0,.1833,6.1589A2.3847,2.3847,0,0,0,1344.9114,451.41Z"/><path class="k" d="M1363.911,446.7474l-19,4.6623a2.3847,2.3847,0,0,1-2.88-1.7453,14.6193,14.6193,0,0,1-.1833-6.1589l8.746-2.1462A12.2753,12.2753,0,0,1,1363.911,446.7474Z"/><rect class="x" x="315.9031" y="688.3088" width="246.5136" height="194.0504" rx="23.4459" transform="translate(-197.9713 1420.6881) rotate(-105.706)"/><rect class="y" x="302.5549" y="682.8699" width="246.5136" height="194.0504" rx="23.4459" transform="translate(-209.6971 1400.927) rotate(-105.706)"/><path class="z" d="M255.1122,776.4419H454.7339A23.4459,23.4459,0,0,1,478.18,799.8878v23.3284a0,0,0,0,1,0,0H231.6662a0,0,0,0,1,0,0V799.8878A23.4459,23.4459,0,0,1,255.1122,776.4419Z" transform="translate(-318.965 1358.0152) rotate(-105.706)"/><rect class="y" x="340.2236" y="840.697" width="15.1701" height="40.4535" rx="5.2778" transform="matrix(-0.2707, -0.9627, 0.9627, -0.2707, -386.8189, 1428.7995)"/><rect class="y" x="329.9572" y="804.1878" width="15.1701" height="40.4535" rx="5.2778" transform="matrix(-0.2707, -0.9627, 0.9627, -0.2707, -364.7184, 1372.5242)"/><rect class="y" x="319.6908" y="767.6786" width="15.1701" height="40.4535" rx="5.2778" transform="translate(-342.6179 1316.2489) rotate(-105.706)"/><rect class="y" x="309.4244" y="731.1695" width="15.1701" height="40.4535" rx="5.2778" transform="translate(-320.5173 1259.9735) rotate(-105.706)"/><path class="aa" d="M491.7307,813.1114c-8.1263-28.5353-29.5474-47.4434-47.8454-42.2325s-26.5438,32.5676-18.4175,61.1029Z"/><circle class="aa" cx="438.439" cy="750.0803" r="27.1797"/><rect class="x" x="339.5365" y="71.8214" width="246.5136" height="194.0504" rx="23.4459" transform="translate(459.2 661.466) rotate(-109.6262)"/><rect class="y" x="327.0384" y="66.8832" width="246.5136" height="194.0504" rx="23.4459" transform="matrix(-0.3359, -0.9419, 0.9419, -0.3359, 447.1553, 643.0971)"/><path class="z" d="M343.4876,46.4536H490.014A23.4459,23.4459,0,0,1,513.46,69.9V93.228a0,0,0,0,1,0,0H320.0416a0,0,0,0,1,0,0V69.9A23.4459,23.4459,0,0,1,343.4876,46.4536Z" transform="translate(0.7533 144.0366) rotate(-19.6262)"/><rect class="ab" x="488.8121" y="168.5416" width="15.1701" height="117.5678" rx="5.2778" transform="translate(449.0092 771.2384) rotate(-109.6262)"/><rect class="ab" x="476.0737" y="132.8197" width="15.1701" height="117.5678" rx="5.2778" transform="translate(465.6388 711.5199) rotate(-109.6262)"/><rect class="ab" x="463.3353" y="97.0978" width="15.1701" height="117.5678" rx="5.2778" transform="translate(482.2684 651.8014) rotate(-109.6262)"/><rect class="ab" x="450.5969" y="61.376" width="15.1701" height="117.5678" rx="5.2778" transform="translate(498.898 592.0828) rotate(-109.6262)"/><rect class="aa" x="409.2457" y="248.1529" width="15.1701" height="16.4343" rx="4.838" transform="translate(315.3608 735.0947) rotate(-109.6262)"/><rect class="aa" x="396.5073" y="212.431" width="15.1701" height="16.4343" rx="4.838" transform="translate(331.9904 675.3761) rotate(-109.6262)"/><rect class="aa" x="383.769" y="176.7091" width="15.1701" height="16.4343" rx="4.838" transform="translate(348.62 615.6576) rotate(-109.6262)"/><rect class="aa" x="371.0306" y="140.9873" width="15.1701" height="16.4343" rx="4.838" transform="translate(365.2495 555.9391) rotate(-109.6262)"/><circle class="aa" cx="497.0873" cy="34.624" r="33.999"/><polygon class="y" points="518.768 17.187 505.857 44.41 501.907 52.721 493.599 48.781 471.431 38.268 475.368 29.95 497.536 40.463 510.447 13.241 518.768 17.187"/><rect class="x" x="1220.8507" y="54.1827" width="246.5136" height="194.0504" rx="23.4459" transform="translate(15.1166 402.7473) rotate(-17.1363)"/><rect class="y" x="1206.1628" y="49.4511" width="246.5136" height="194.0504" rx="23.4459" transform="translate(15.8587 398.2095) rotate(-17.1363)"/><circle class="aa" cx="1200.3343" cy="90.3673" r="33.999"/><path class="y" d="M1216.9848,105.7545a22.2657,22.2657,0,0,1-8.745,5.018,21.992,21.992,0,0,1-24.5405-7.7451l-4.6419,1.4313-.7485-5.48,2.6933-.83a16.8056,16.8056,0,0,1-.57-1.644c-.1945-.6306-.3889-1.2612-.5258-1.9089l-3.4954,1.0778-.7485-5.48,3.84-1.1839c.4316-8.9812,6.5326-17.0754,16.1034-20.0264a23.6674,23.6674,0,0,1,9.1828-.9481l1.0767,7.7627a16.1269,16.1269,0,0,0-7.9756.3889,14.21,14.21,0,0,0-9.8482,10.19l18.3955-5.672.8059,5.4625-19.4272,5.99c.1369.6476.2739,1.2959.4684,1.9266a15.8116,15.8116,0,0,0,.6271,1.6262l18.7384-5.7777.8059,5.4625-16.2747,5.018a14.3648,14.3648,0,0,0,14.1592,2.9763,17.1169,17.1169,0,0,0,7.2541-4.5583Z"/><rect class="ac" x="1356.1431" y="29.4888" width="15.1701" height="117.568" rx="5.2778" transform="translate(1681.1898 1417.4698) rotate(-107.1363)"/><rect class="ac" x="1347.9484" y="2.9118" width="15.1701" height="117.5678" rx="5.2778" transform="translate(1695.9778 1375.2309) rotate(-107.1363)"/><rect class="ac" x="1377.6262" y="65.8745" width="15.1701" height="89.7562" rx="5.2778" transform="translate(1687.521 1467.1026) rotate(-107.1363)"/><path class="ad" d="M1458.54,140.8567l-.0116.0035a52.2354,52.2354,0,0,0-41.3556-4.9046l-.0116.0035,14.7418,50.0347,26.393-44.5288.157-.3915"/><path class="ae" d="M1481.3289,167.9615l-49.4264,18.0323,26.393-44.5288.244-.6083A52.1183,52.1183,0,0,1,1481.3289,167.9615Z"/><path class="af" d="M1483.1312,198.4657a52.3966,52.3966,0,1,1-66.3647-62.385l.3942-.1216,14.7418,50.0347Z"/><path class="ag" d="M1482.2678,170.7184a52.1305,52.1305,0,0,1,.8634,27.7473l-51.2287-12.4719,49.4264-18.0323.0152.0081-.0009.0383C1481.68,168.8942,1481.9854,169.8027,1482.2678,170.7184Z"/><circle class="aa" cx="1250.9924" cy="168.807" r="23.7115"/><circle class="ah" cx="1268.1699" cy="224.5192" r="23.7115"/><circle class="z" cx="1307.8545" cy="151.1498" r="23.7115"/><circle class="ab" cx="1325.077" cy="207.0065" r="23.7115"/><path class="y" d="M1262.9691,168.1582l-8.2452,2.5423,2.7021,8.7637-5.842,1.8013-2.7022-8.7637-8.1519,2.5135-1.7142-5.5595,8.152-2.5135-2.7022-8.7637,5.8421-1.8013,2.7021,8.7637,8.2452-2.5423Z"/><path class="y" d="M1312.3094,203.2947l21.0146-6.48,1.5543,5.041-21.0146,6.48ZM1315.3019,213l21.0147-6.48,1.5543,5.041-21.0146,6.48Z"/><path class="y" d="M1261.7054,218.6955a4.4651,4.4651,0,1,1,5.551,2.7771A4.3387,4.3387,0,0,1,1261.7054,218.6955Zm4.4019,14.2766a4.4651,4.4651,0,1,1,5.5511,2.7771A4.339,4.339,0,0,1,1266.1073,232.9721Z"/><path class="y" d="M1296.4211,149.909l19.6238-6.0506,2.5321,8.2123-19.6238,6.0507Z"/><rect class="x" x="27.5237" y="398.3641" width="246.5136" height="194.0504" rx="23.4459" transform="translate(-113.718 50.2086) rotate(-13.7876)"/><path class="ac" d="M241.0052,398.9228l30.1883,123.02a33.6875,33.6875,0,0,1-24.69,40.7486L72.5316,605.3832a33.6877,33.6877,0,0,1-40.7486-24.69L1.5946,457.6726a33.6876,33.6876,0,0,1,24.69-40.7485l2.64-.6477a40.1159,40.1159,0,0,0,.503,16.9024,6.5445,6.5445,0,0,0,7.9051,4.79L236.8047,389.02A33.1464,33.1464,0,0,1,241.0052,398.9228Z"/><path class="x" d="M28.9246,416.2764l34.3769-8.4359a40.1158,40.1158,0,0,0,.503,16.9024,6.5443,6.5443,0,0,0,7.9051,4.79l-34.3769,8.4359a6.5445,6.5445,0,0,1-7.9051-4.79,40.1159,40.1159,0,0,1-.503-16.9024"/><path class="z" d="M108.542,420.4944,71.71,429.5328a6.5443,6.5443,0,0,1-7.9051-4.79,40.1158,40.1158,0,0,1-.503-16.9024l36.8323-9.0385a40.118,40.118,0,0,0,.5031,16.9025A6.5445,6.5445,0,0,0,108.542,420.4944Z"/><path class="aa" d="M145.3744,411.4559l-36.8324,9.0385a6.5445,6.5445,0,0,1-7.9051-4.79,40.118,40.118,0,0,1-.5031-16.9025l36.8324-9.0384a40.1164,40.1164,0,0,0,.5031,16.9025A6.5444,6.5444,0,0,0,145.3744,411.4559Z"/><path class="ah" d="M184.6623,401.8149l-39.2879,9.641a6.5444,6.5444,0,0,1-7.9051-4.79,40.1164,40.1164,0,0,1-.5031-16.9025l39.2879-9.641a40.1164,40.1164,0,0,0,.5031,16.9025A6.5444,6.5444,0,0,0,184.6623,401.8149Z"/><path class="ab" d="M236.8047,389.02l-52.1424,12.7954a6.5444,6.5444,0,0,1-7.9051-4.79,40.1164,40.1164,0,0,1-.5031-16.9025l24.0024-5.89A33.6882,33.6882,0,0,1,236.8047,389.02Z"/><path class="x" d="M1590.4116,806.882l-52.1521,2.61a36.324,36.324,0,0,1-10.9043,6.2093l-104.3615,37.6638a36.7853,36.7853,0,0,1-47.09-22.1035l-7.6592-21.2228-16.68,6.02a36.3235,36.3235,0,0,1-12.3565,2.1854l-41.7992,31.2966,8.0129-53.2866c-.3412-.7423-.6483-1.5118-.9341-2.3036l-24.3362-67.4326a36.7734,36.7734,0,0,1,22.1082-47.0768l104.3614-37.6637a36.7851,36.7851,0,0,1,47.09,22.1034l7.6593,21.2228,16.68-6.02a36.7735,36.7735,0,0,1,47.0768,22.1081l24.3363,67.4326c.2857.7918.5409,1.58.7523,2.3693Z"/><path class="ac" d="M1440.5165,659.84l24.3362,67.4326a36.7853,36.7853,0,0,1-22.1211,47.0816L1338.37,812.0181a36.3233,36.3233,0,0,1-12.3565,2.1855L1284.2144,845.5l8.013-53.2866c-.3413-.7424-.6484-1.5118-.9341-2.3036l-24.3363-67.4326a36.7735,36.7735,0,0,1,22.1082-47.0768l104.3615-37.6638A36.7854,36.7854,0,0,1,1440.5165,659.84Z"/><path class="ai" d="M1338.3727,759.7886l24.3363,67.4326a36.7851,36.7851,0,0,0,47.09,22.1035L1514.16,811.6609a36.3192,36.3192,0,0,0,10.9042-6.2093l52.1521-2.61-40.1958-35.8882c-.2115-.7892-.4666-1.5774-.7524-2.3692l-24.3362-67.4326a36.7734,36.7734,0,0,0-47.0768-22.1081l-104.3615,37.6638A36.7852,36.7852,0,0,0,1338.3727,759.7886Z"/><circle class="y" cx="1398.2257" cy="778.9393" r="12.5385"/><circle class="y" cx="1485.5433" cy="747.4266" r="12.5385"/><circle class="y" cx="1441.4104" cy="763.3541" r="12.5385"/><path class="x" d="M1814.3361,385.0055a52.2232,52.2232,0,0,1-54.39,33.7781l-39.8821,107.5331-4.6855,12.6373a38.3771,38.3771,0,0,1-49.3321,22.6343l-6.9517-2.5714-62.12,22.1366a33.6908,33.6908,0,0,1-43.0613-20.4126l-42.7575-119.9522a33.6854,33.6854,0,0,1,20.4252-43.06l80.9039-28.8392a33.4725,33.4725,0,0,1,17.7156-1.3537,52.2219,52.2219,0,0,1,54.7574-86.2069,51.6539,51.6539,0,0,1,17.4558,10.77,45.7837,45.7837,0,0,1,60.8653,22.57,52.2184,52.2184,0,0,1,51.0574,70.3362Z"/><line class="aj" x1="1666.7361" y1="393.6307" x2="1639.1895" y2="467.9063"/><line class="aj" x1="1724.1309" y1="414.9167" x2="1696.5843" y2="489.1924"/><line class="aj" x1="1696.1088" y1="404.5241" x2="1668.5621" y2="478.7998"/><rect class="y" x="1496.5478" y="394.8086" width="194.7371" height="153.293" rx="23.4459" transform="translate(1685.0578 2131.1336) rotate(-109.6206)"/><path class="z" d="M1464.32,472.5135h149.6057a22.5657,22.5657,0,0,1,22.5657,22.5657v14.3844a0,0,0,0,1,0,0H1441.754a0,0,0,0,1,0,0V495.0792A22.5657,22.5657,0,0,1,1464.32,472.5135Z" transform="translate(1593.4655 2105.6138) rotate(-109.6206)"/><rect class="y" x="1530.8185" y="523.5439" width="11.9838" height="31.9569" rx="3.6593" transform="translate(1544.6613 2168.2669) rotate(-109.6206)"/><rect class="y" x="1520.7584" y="495.3239" width="11.9838" height="31.9569" rx="3.6593" transform="translate(1557.8042 2121.0949) rotate(-109.6206)"/><rect class="y" x="1510.6982" y="467.1039" width="11.9838" height="31.9569" rx="3.6593" transform="translate(1570.9474 2073.9228) rotate(-109.6206)"/><rect class="y" x="1500.6381" y="438.8839" width="11.9838" height="31.9569" rx="3.6593" transform="translate(1584.091 2026.7508) rotate(-109.6206)"/><path class="y" d="M1768.7561,376.2459l-53.1549,143.3246-122.8924-45.5772,53.1549-143.3246c5.9119-15.9406,26.8143-22.8847,46.6932-15.5122l50.9125,18.882C1763.3483,341.411,1774.668,360.3053,1768.7561,376.2459Z"/><path class="ab" d="M1715.6012,519.5705l-4.6829,12.6268a38.3824,38.3824,0,0,1-49.3376,22.6424l-50.9125-18.882a38.3823,38.3823,0,0,1-22.6423-49.3375l4.6829-12.6269Z"/><path class="y" d="M1649.6828,374.1961a52.798,52.798,0,0,1-5.5032-1.7067,52.2127,52.2127,0,1,1,70.325-46.506"/><path class="y" d="M1719.5648,328.2a52.19,52.19,0,1,1,17.0321,78.105"/><path class="y" d="M1674.16,311.022A45.8371,45.8371,0,1,1,1760.1133,342.9"/><rect class="w" x="1711.217" y="318.4285" width="23.0456" height="15.8438" transform="translate(220.9867 -578.677) rotate(20.3483)"/><line class="y" x1="1662.2699" y1="386.8796" x2="1634.7233" y2="461.1553"/><line class="y" x1="1719.6648" y1="408.1657" x2="1692.1181" y2="482.4413"/><line class="y" x1="1691.6426" y1="397.7731" x2="1664.0959" y2="472.0487"/><path class="ak" d="M663.0444,672.9644l34.9688-33.6313c1.7911-1.7232,3.1526-1.7189,4.6044-.2036l5.1515,5.374c1.499,1.5634,1.4028,2.8777-.39,4.6009l-12.5425,12.0631,9.883,10.3082,12.5425-12.0631c1.791-1.7232,3.1526-1.7181,4.6043-.2036l5.1515,5.374c1.4526,1.5144,1.4028,2.8768-.39,4.6l-34.9671,33.6322c-1.7919,1.7232-3.1534,1.718-4.6043.2044l-5.1524-5.3748c-1.4517-1.5145-1.4019-2.8769.3892-4.6L695,680.8235l-9.8821-10.3082-12.7057,12.22c-1.7919,1.7232-3.1062,1.767-4.6043.2036l-5.1524-5.374C661.2036,676.0508,661.2534,674.6876,663.0444,672.9644Z"/><path class="ak" d="M718.0824,693.8642c11.571-16.652,21.6618-19.7934,34.4517-10.8184,12.7349,8.9363,13.2752,19.5383,1.7043,36.19s-21.6618,19.7935-34.3967,10.8571C707.0518,721.1182,706.5115,710.5171,718.0824,693.8642Zm24.6392,17.29c6.495-9.3478,6.9425-13.5467,2.0693-16.9655s-8.6417-1.5514-15.1367,7.7955-6.9975,13.508-2.0693,16.9664S736.2266,720.5023,742.7216,711.1545Z"/><path class="ak" d="M754.8741,747.0828l19.6182-44.4617c1.0067-2.2782,2.2643-2.7876,4.1748-1.9285l14.6032,6.5689c12.8166,5.7648,16.76,14.903,11.5512,26.7085-5.2408,11.8759-14.5148,14.9846-27.3923,9.1931l-5.0527-2.2729-5.179,11.7367c-.9758,2.2086-2.2034,2.815-4.174,1.9285l-6.7784-3.0495C754.3346,750.6469,753.8682,749.3618,754.8741,747.0828Zm28.0116-15.6151c4.2513,1.9121,7.26.7834,9.0575-3.29s.6167-7.0869-3.6354-8.999l-5.2984-2.3838-5.423,12.2891Z"/><path class="ak" d="M824.0437,773.4349,832,725.3953c.4081-2.4611,1.499-3.2686,3.5581-2.9095l7.3068,1.2739c2.126.3711,2.83,1.4913,2.4215,3.9532l-2.8536,17.231,14.0174,2.4447,2.8528-17.2318c.408-2.4611,1.499-3.2686,3.558-2.9095l7.3068,1.2739c2.0608.36,2.83,1.4913,2.4216,3.9532l-7.9562,48.04c-.4081,2.4619-1.4982,3.2686-3.5564,2.9095l-7.3085-1.2739c-2.059-.3591-2.83-1.4913-2.4215-3.9532l2.8914-17.4544-14.0165-2.4456L837.33,775.7525c-.408,2.4611-1.432,3.2806-3.558,2.91l-7.3077-1.2748C824.4062,777.029,823.6357,775.8968,824.0437,773.4349Z"/><path class="ak" d="M880.3874,757.54c-.603-20.3664,5.6094-28.9084,21.1567-29.2409,15.48-.3307,22.19,7.9348,22.794,28.3012s-5.6085,28.9076-21.0888,29.2383C887.7019,786.1706,880.9922,777.9052,880.3874,757.54Zm29.9513-.6408c-.3384-11.4326-2.4679-15.0989-8.3909-14.9726s-7.8316,3.8793-7.4932,15.3119,2.401,15.1007,8.3909,14.9718C908.8354,772.0828,910.6772,768.3306,910.3387,756.8988Z"/><path class="ak" d="M941.3071,778.7771l-10.62-47.6788c-.5438-2.4431.1615-3.6036,2.1982-4.0426l15.5739-3.36c13.6687-2.9482,22.2339,2.1106,25.0532,14.77,2.8365,12.734-2.7437,20.7658-16.4785,23.7286l-5.3886,1.1622,2.8039,12.5863c.5274,2.3683-.0963,3.59-2.1991,4.0434l-7.2278,1.5591C942.9856,781.9838,941.8508,781.22,941.3071,778.7771Zm13.17-29.3c4.5347-.9775,6.2734-3.6809,5.3-8.049s-3.7023-6.1076-8.2354-5.1291l-5.6514,1.2189,2.9352,13.1782Z"/><path class="ak" d="M1012.27,759.0111l-22.1042-43.6294c-1.1322-2.236-.74-3.5383,1.121-4.4729l6.5981-3.3158c1.919-.9646,3.1448-.4759,4.2779,1.76l7.93,15.6495,12.6551-6.361-7.9287-15.65c-1.1322-2.236-.74-3.5382,1.12-4.4728l6.599-3.3158c1.8589-.9355,3.144-.4759,4.2779,1.76L1048.92,740.593c1.1321,2.2351.7378,3.5383-1.1211,4.472l-6.5981,3.3167c-1.86.9337-3.1457.475-4.2779-1.76l-8.0318-15.8531-12.655,6.361,8.031,15.8523c1.1321,2.236.8,3.5091-1.12,4.4738l-6.5981,3.3158C1014.6893,761.7059,1013.4025,761.2471,1012.27,759.0111Z"/><path class="ak" d="M1047.9358,712.57c-12.5828-16.1057-12.6971-26.7189-.48-36.2634,12.1637-9.5041,22.4324-6.8249,35.0152,9.28,12.5812,16.1048,12.6963,26.7179.5335,36.2221C1070.7865,731.3543,1060.5178,728.675,1047.9358,712.57Zm23.5336-18.3881c-7.0628-9.0412-10.9413-10.7351-15.5946-7.0989-4.655,3.637-3.9489,7.81,3.114,16.85s10.888,10.7755,15.5954,7.0981S1078.5331,703.2224,1071.4694,694.1821Z"/><path class="ak" d="M1109.1948,693.4115l-36.7891-32.2362c-1.8855-1.6511-2.0109-3.0109-.6451-4.58l10.45-11.9987c9.17-10.53,19.0161-11.5435,28.7839-2.9834,9.8255,8.6091,10.1356,18.431.9209,29.0124l-3.6147,4.1516,9.7111,8.5094c1.828,1.6012,2.0548,2.96.6434,4.58l-4.8491,5.569C1112.44,695.005,1111.08,695.0634,1109.1948,693.4115Zm-6.8713-31.5482c3.0427-3.4936,2.8271-6.7166-.5437-9.67s-6.5835-2.7334-9.6253.76l-3.7908,4.3544,10.1681,8.9088Z"/><path class="ak" d="M1136.2933,628.9261l-5.9667-3.321c-2.1218-1.1811-2.5307-2.4859-1.4964-4.3715l8.5334-15.555c1.0326-1.8856,2.3151-2.1716,4.4369-.9913l5.9667,3.3209c2.0556,1.1451,2.5633,2.4267,1.5282,4.3123l-8.5318,15.555C1139.7294,629.7611,1138.3489,630.07,1136.2933,628.9261Z"/><path class="ak" d="M1177.1275,586.3086,1130.3429,572.47c-2.3975-.7087-3.0821-1.8933-2.5066-3.8991l2.04-7.1161c.5944-2.07,1.78-2.632,4.1774-1.9225l16.7817,4.9634,3.9162-13.65-16.7817-4.9643c-2.3984-.71-3.0821-1.895-2.5066-3.9l2.041-7.1161c.5747-2.0049,1.779-2.632,4.1774-1.9225l46.7846,13.8388c2.3966.7087,3.0821,1.8941,2.5066,3.8991l-2.041,7.1169c-.5756,2.0049-1.78,2.632-4.1766,1.9225l-17-5.0278-3.9162,13.65,17.0007,5.0287c2.3967.7087,3.0994,1.83,2.5058,3.8991l-2.041,7.116C1180.7285,586.3919,1179.525,587.0182,1177.1275,586.3086Z"/><path class="ak" d="M1167.3287,528.2606c-20.2573-1.86-28.08-9.0772-26.7884-24.5979,1.2859-15.4528,10.1827-21.1352,30.44-19.2746,20.259,1.86,28.0812,9.0773,26.7952,24.53C1196.4837,524.4389,1187.5868,530.1213,1167.3287,528.2606Zm2.4885-29.898c-11.3707-1.0446-15.2294.6322-15.7208,6.5448s3.03,8.2672,14.4023,9.3109c11.3707,1.0446,15.2226-.5652,15.7208-6.5448S1181.1889,499.4063,1169.8172,498.3626Z"/><path class="ak" d="M1194.7433,470.0958l-48.3841,4.8543c-2.4791.2492-3.558-.5935-3.7822-2.6741l-1.718-15.9115c-1.5085-13.9642,4.3956-21.886,17.2439-23.1745,12.9221-1.2963,20.3079,5.2236,21.825,19.2548l.5935,5.5046,12.7727-1.2808c2.4036-.2414,3.5495.5257,3.7823,2.6741l.798,7.3849C1198.0986,468.809,1197.2233,469.8467,1194.7433,470.0958Zm-27.6921-16.63c-.5008-4.6327-3.0014-6.6883-7.4339-6.2442s-6.44,2.9533-5.94,7.586l.6228,5.7734,13.374-1.3409Z"/><path class="ak" d="M1182.4061,396.924l-45.5072,16.9029c-2.3322.8659-3.5847.3213-4.3243-1.6407l-2.626-6.9615c-.7628-2.0247-.1563-3.1887,2.1768-4.0545l16.323-6.0621-5.0364-13.3534-16.3239,6.0629c-2.3305.8668-3.5847.3213-4.3234-1.64l-2.6269-6.9607c-.7388-1.9628-.1546-3.19,2.1767-4.0554l45.509-16.902c2.3305-.8667,3.5838-.3212,4.3234,1.64l2.6251,6.9615c.7405,1.962.1555,3.1886-2.1758,4.0545l-16.5352,6.142,5.0364,13.3517,16.5352-6.1411c2.3313-.8659,3.5614-.3849,4.3251,1.6407l2.6252,6.9606C1185.3233,394.8315,1184.7383,396.0581,1182.4061,396.924Z"/><path class="ak" d="M1139.9089,355.9464c-17.2276,10.669-27.7677,9.5531-36.0245-3.7255-8.2208-13.2211-4.5425-23.1419,12.6842-33.8109,17.2284-10.669,27.7685-9.5531,35.9893,3.668C1160.8139,335.3567,1157.1365,345.2774,1139.9089,355.9464Zm-15.9047-25.58c-9.6708,5.989-11.7367,9.657-8.5918,14.7149s7.3557,4.84,17.0265-1.1494,11.772-9.6,8.591-14.7149S1133.6742,324.3776,1124.0042,330.3667Z"/><path class="ak" d="M1127.0108,292.7375l-35.656,32.8917c-1.8263,1.6854-3.1887,1.6527-4.61.1082L1075.883,313.932c-9.5316-10.3615-9.5548-20.2865-.0867-29.02,9.5239-8.7851,19.3-7.95,28.8784,2.4611l3.7573,4.0846,9.4131-8.6829c1.7713-1.6347,3.1431-1.7017,4.6086-.1082l5.0416,5.48C1128.9169,289.6905,1128.8379,291.0521,1127.0108,292.7375Zm-31.9872,3.17c-3.1629-3.4377-6.3816-3.5984-9.6484-.5849s-3.3691,6.239-.2079,9.6759l3.942,4.2848,9.8546-9.0918Z"/><path class="ak" d="M1073.7029,241.145,1047.39,281.9431c-1.3486,2.09-2.6732,2.3966-4.4282,1.2507l-6.2313-4.0649c-1.8125-1.1828-2.0178-2.4868-.6692-4.5776l9.4381-14.6342L1033.549,252.12,1024.11,266.754c-1.35,2.09-2.6724,2.3966-4.4291,1.2507l-6.2305-4.0657c-1.7566-1.1451-2.0178-2.486-.67-4.5769l26.3134-40.7972c1.3478-2.0908,2.6732-2.3975,4.4282-1.2516l6.2313,4.0657c1.7558,1.1451,2.017,2.486.6692,4.5769l-9.56,14.824,11.9506,7.7982,9.56-14.8241c1.35-2.0908,2.6166-2.4336,4.4291-1.2507l6.2313,4.0649C1074.79,237.7132,1075.0515,239.055,1073.7029,241.145Z"/><path class="ak" d="M1015.4126,233.3245c-7.4262,18.9-16.5077,24.2827-30.9881,18.468-14.4169-5.7889-17.3693-16.0043-9.944-34.9052,7.4271-18.9,16.5086-24.2827,30.9255-18.4929C1019.8855,204.2082,1022.8388,214.4236,1015.4126,233.3245ZM987.5187,222.123c-4.168,10.61-3.6414,14.8077,1.8752,17.0231s8.75-.4725,12.9179-11.0822,3.7049-14.7828-1.8752-17.0231C994.8581,208.8005,991.6866,211.5133,987.5187,222.123Z"/><path class="ak" d="M967.5517,189.9039,958.624,237.77c-.4579,2.4525-1.5643,3.2377-3.6165,2.8365l-15.6873-3.065c-13.7683-2.6913-19.6844-10.7033-17.3126-23.4133,2.3837-12.7839,10.687-17.94,24.5214-15.2364l5.4282,1.06,2.3562-12.6353c.4441-2.3786,1.4982-3.25,3.6165-2.8373l7.281,1.4234C967.264,186.3029,968.01,187.4505,967.5517,189.9039Zm-23.6581,21.6454c-4.5674-.8925-7.2338.8977-8.0516,5.283s1.0162,7.0542,5.5836,7.9467l5.6919,1.1125,2.4679-13.23Z"/><path class="ak" d="M898.2326,198.4786l.1649,6.8137c.0576,2.4224-.8607,3.4214-3.0151,3.4558l-17.7713.2792c-2.1536.0343-3.053-.9364-3.1114-3.3588l-.1632-6.8146c-.0567-2.3468.7929-3.4206,2.9464-3.4541l17.7713-.28C897.2078,195.0863,898.1759,196.1309,898.2326,198.4786Z"/><path class="ak" d="M840.7919,184.0565l11.71,47.4306c.6,2.431-.079,3.6079-2.1054,4.0941l-7.1908,1.7266c-2.0909.5025-3.1767-.2509-3.7771-2.681l-4.2-17.0137-13.7907,3.3115,4.2,17.0128c.6,2.43-.0791,3.6079-2.1046,4.0941l-7.19,1.7266c-2.0273.4862-3.1775-.2517-3.7771-2.6827l-11.7109-47.43c-.6-2.431.079-3.6078,2.1054-4.094l7.19-1.7267c2.0255-.4862,3.1775.2509,3.7779,2.6819l4.2539,17.2336,13.7915-3.3107-4.2548-17.2344c-.5995-2.43.0129-3.5924,2.1046-4.0941l7.1891-1.7266C839.04,180.8885,840.1924,181.6264,840.7919,184.0565Z"/><path class="ak" d="M795.47,221.1231c8.6589,18.5023,6.3825,28.8466-7.69,35.3674-14.0114,6.4933-23.4331,1.5685-32.0928-16.9338s-6.3842-28.8466,7.6289-35.3391C777.39,197.6968,786.8105,202.6207,795.47,221.1231Zm-27.11,12.5613c4.86,10.3864,8.2645,12.91,13.6265,10.4259s5.612-6.7012.7508-17.0875-8.2053-12.9368-13.6257-10.425C763.6884,219.11,763.4994,223.2989,768.36,233.6844Z"/><path class="ak" d="M731.3912,225.9018l28.6464,39.6616c1.4672,2.0333,1.2834,3.3828-.4037,4.6l-12.9033,9.3014c-11.3244,8.1641-21.1627,6.9211-28.7693-3.61-7.65-10.5934-5.74-20.2127,5.6386-28.4154l4.4643-3.2179-7.5611-10.47c-1.4242-1.9715-1.3383-3.3433.4029-4.5992l5.9891-4.3174C728.583,223.6185,729.9231,223.8693,731.3912,225.9018Zm-.4029,32.2259c-3.7565,2.7085-4.2728,5.89-1.6485,9.5239s5.81,4.1465,9.5669,1.4389l4.6816-3.3751-7.9175-10.9627Z"/><path class="ak" d="M674.3714,272.3487l37.5046,31.3842c1.9225,1.6089,2.0789,2.9644.7491,4.5656l-4.72,5.68c-1.3718,1.6527-2.6878,1.69-4.61.0824l-13.453-11.2574L680.7891,313.7l13.4531,11.2574c1.9216,1.6072,2.0771,2.9645.7482,4.5648l-4.7212,5.6807c-1.3289,1.6-2.687,1.6906-4.6095.0816L648.156,303.9c-1.9225-1.6081-2.08-2.9653-.7491-4.5657l4.72-5.6807c1.33-1.6,2.6879-1.69,4.6086-.0816l13.6283,11.4035,9.054-10.8958L665.79,282.6767c-1.9217-1.6081-2.121-2.9138-.7482-4.5657l4.72-5.68C671.0908,270.83,672.4489,270.7407,674.3714,272.3487Z"/><path class="ak" d="M660.15,329.3513c17.913,9.7825,22.2459,19.5014,14.8884,33.1726-7.3257,13.6128-17.7739,15.2578-35.6861,5.4736s-22.2459-19.5022-14.92-33.1141C631.7892,321.2121,642.2382,319.5671,660.15,329.3513Zm-14.1729,26.3366c10.0547,5.4916,14.2725,5.4985,17.0755.2894s.4956-8.7654-9.5583-14.257c-10.0556-5.4917-14.2416-5.5579-17.0764-.29S635.9219,350.1962,645.9767,355.6879Z"/><path class="ak" d="M611.8059,371.6217l46.4908,14.8034c2.382.7594,3.0417,1.9577,2.425,3.9507l-4.72,15.2346c-4.1413,13.3706-12.7178,18.267-25.0627,14.3353-12.417-3.9532-16.6382-12.8544-12.4754-26.2885l1.6321-5.2718-12.2728-3.9076c-2.309-.7354-3.0624-1.8933-2.4241-3.95l2.1905-7.0714C608.2057,371.4645,609.4238,370.8624,611.8059,371.6217Zm18.9215,26.2232c-1.3744,4.4351.1143,7.31,4.3741,8.6666s7.1015-.14,8.4759-4.5751l1.7129-5.5286-12.85-4.0915Z"/><path class="ak" d="M594.1785,443.2928l48.6121,2.7953c2.49.1434,3.4266,1.1433,3.3244,3.2316l-.3643,7.409c-.1048,2.1561-1.13,2.9756-3.6207,2.8322l-17.4372-1.0025-.6966,14.2141,17.4371,1.0025c2.4912.1426,3.4258,1.1434,3.3236,3.2308l-.3625,7.41c-.1023,2.0892-1.13,2.9757-3.6208,2.8322l-48.613-2.7952c-2.49-.1435-3.4257-1.1425-3.3235-3.2316l.3634-7.41c.1022-2.0883,1.13-2.9748,3.6207-2.8313l17.6627,1.0153.6966-14.2132-17.6618-1.0163c-2.492-.1434-3.43-1.0754-3.3244-3.2316l.3634-7.409C590.66,444.0367,591.6873,443.1494,594.1785,443.2928Z"/><path class="ak" d="M616.905,497.7707c20.1035-2.86,29.3612,2.3735,31.6745,17.8049,2.3039,15.3652-5.03,22.958-25.1331,25.8185s-29.36-2.3743-31.6637-17.7386C589.4693,508.2232,596.8027,500.63,616.905,497.7707Zm4.4583,29.728c11.284-1.6055,14.6453-4.13,13.764-10.0093s-4.844-7.3617-16.128-5.7571-14.6565,4.064-13.7657,10.0093C606.1261,527.6877,610.0784,529.1042,621.3633,527.4987Z"/><path class="ak" d="M603.6774,560.807l45.8564-15.9442c2.35-.8169,3.5924-.2456,4.2908,1.731l5.3422,15.1126c4.6894,13.2632.7869,22.3533-11.39,26.5865-12.2487,4.2582-20.9265-.3856-25.6382-13.7124l-1.8486-5.2288-12.1053,4.2091c-2.2789.792-3.5692.3093-4.2886-1.7309l-2.48-7.0147C600.7173,562.8386,601.3272,561.624,603.6774,560.807Zm30.7292,9.7954c1.5557,4.399,4.4574,5.825,8.6589,4.3638s5.5707-4.3715,4.015-8.7714l-1.9379-5.4831-12.6757,4.4059Z"/><path class="ak" d="M646.523,616.7092l5.7846-3.5366c2.0565-1.2576,3.3888-.9612,4.5219.8848l9.3512,15.2252c1.1331,1.846.7577,3.1062-1.2988,4.3638l-5.7829,3.5366c-1.9929,1.218-3.3536,1.0188-4.4875-.8273L645.26,621.13C644.1272,619.2845,644.5318,617.9273,646.523,616.7092Z"/><path class="w" d="M812.3706,657.1443c-6.3591,4.36-13.1209,6.7039-20.1287,6.7039-32.8192,0-60.1486-51.3173-65.9815-119.1189-55.7031-38.6668-86.9112-86.7917-71.2624-113.8823,10.6364-18.4088,40.4422-22.9438,77.692-14.9029,21.2877-82.8238,84.9868-142.9426,160.2471-142.9426,75.0069,0,138.5119,59.7011,160.0085,142.0623,37.9659-8.4882,68.4579-4.0875,79.2285,14.5747,15.7682,27.3146-16.0366,75.9465-72.5155,114.7627-5.7135,67.9656-32.7595,119.447-65.28,119.447-6.907,0-13.5752-2.3273-19.8556-6.6533"/><path class="w" d="M974.2489,654.61c-9.9231,14.36-21.6972,22.6644-34.3206,22.6644a30.948,30.948,0,0,1-14.5748-3.7891c-.6116-.3282-1.2232-.6713-1.82-1.0442-.5073.6115-1.0144,1.2084-1.5366,1.79-8.5329,9.5923-18.14,14.9776-28.314,14.9776-10.04,0-19.5274-5.2511-27.9709-14.6046-.6414-.7011-1.2679-1.4171-1.88-2.163-.7609.4625-1.5067.895-2.2824,1.2829a30.6856,30.6856,0,0,1-14.1123,3.55c-12.8144,0-24.7487-8.5628-34.7734-23.3165"/><path class="al" d="M812.3706,657.1443c-6.3591,4.36-13.1209,6.7039-20.1287,6.7039-32.8192,0-60.1486-51.3173-65.9815-119.1189-55.7031-38.6668-86.9112-86.7917-71.2624-113.8823,10.6364-18.4088,40.4422-22.9438,77.692-14.9029,21.2877-82.8238,84.9868-142.9426,160.2471-142.9426,75.0069,0,138.5119,59.7011,160.0085,142.0623,37.9659-8.4882,68.4579-4.0875,79.2285,14.5747,15.7682,27.3146-16.0366,75.9465-72.5155,114.7627-5.7135,67.9656-32.7595,119.447-65.28,119.447-6.907,0-13.5752-2.3273-19.8556-6.6533"/><path class="al" d="M974.2489,654.61c-9.9231,14.36-21.6972,22.6644-34.3206,22.6644a30.948,30.948,0,0,1-14.5748-3.7891c-.6116-.3282-1.2232-.6713-1.82-1.0442-.5073.6115-1.0144,1.2084-1.5366,1.79-8.5329,9.5923-18.14,14.9776-28.314,14.9776-10.04,0-19.5274-5.2511-27.9709-14.6046-.6414-.7011-1.2679-1.4171-1.88-2.163-.7609.4625-1.5067.895-2.2824,1.2829a30.6856,30.6856,0,0,1-14.1123,3.55c-12.8144,0-24.7487-8.5628-34.7734-23.3165"/><path class="w" d="M812.3706,657.1443c-6.3591,4.36-13.1209,6.7039-20.1287,6.7039-32.8192,0-60.1486-51.3173-65.9815-119.1189-55.7031-38.6668-86.9112-86.7917-71.2624-113.8823,10.6364-18.4088,40.4422-22.9438,77.692-14.9029,21.2877-82.8238,84.9868-142.9426,160.2471-142.9426,75.0069,0,138.5119,59.7011,160.0085,142.0623,37.9659-8.4882,68.4579-4.0875,79.2285,14.5747,15.7682,27.3146-16.0366,75.9465-72.5155,114.7627-5.7135,67.9656-32.7595,119.447-65.28,119.447-6.907,0-13.5752-2.3273-19.8556-6.6533"/><path class="w" d="M974.2489,654.61c-9.9231,14.36-21.6972,22.6644-34.3206,22.6644a30.948,30.948,0,0,1-14.5748-3.7891c-.6116-.3282-1.2232-.6713-1.82-1.0442-.5073.6115-1.0144,1.2084-1.5366,1.79-8.5329,9.5923-18.14,14.9776-28.314,14.9776-10.04,0-19.5274-5.2511-27.9709-14.6046-.6414-.7011-1.2679-1.4171-1.88-2.163-.7609.4625-1.5067.895-2.2824,1.2829a30.6856,30.6856,0,0,1-14.1123,3.55c-12.8144,0-24.7487-8.5628-34.7734-23.3165"/><path class="am" d="M1059.6607,544.4033c-5.7176,67.96-32.7574,119.4452-65.2862,119.4452-6.9052,0-13.5728-2.3309-19.8534-6.65h-2.1286c-9.5177,12.7634-20.6186,20.0732-32.4673,20.0732a31.031,31.031,0,0,1-14.5755-3.7824c-.607-.3342-1.2227-.6774-1.8121-1.0468-.51.6069-1.02,1.2052-1.5393,1.7857-8.5325,9.5967-18.138,14.98-28.3154,14.98-10.0365,0-19.5278-5.2516-27.9723-14.602-.6421-.7037-1.2666-1.4161-1.8824-2.1639-.7565.4575-1.5041.8973-2.2782,1.2843a30.7429,30.7429,0,0,1-14.1093,3.5449c-11.8663,0-22.976-7.3362-32.5112-20.126h-2.56c-6.36,4.3629-13.1241,6.7028-20.126,6.7028-32.8191,0-60.1493-51.3178-65.9812-119.12-55.7071-38.6686-86.9165-86.7933-71.2678-113.8859,10.6435-18.4019,40.4455-22.9408,77.6979-14.901,21.2871-82.8173,84.9813-142.94,160.2426-142.94,75.0062,0,138.5156,59.7007,160.0137,142.0606,37.9651-8.4884,68.4531-4.09,79.2285,14.5755C1147.9405,456.95,1116.1331,505.5851,1059.6607,544.4033Z"/><path class="an" d="M812.3706,657.1443c-6.3591,4.36-13.1209,6.7039-20.1287,6.7039-32.8192,0-60.1486-51.3173-65.9815-119.1189-55.7031-38.6668-86.9112-86.7917-71.2624-113.8823,10.6364-18.4088,40.4422-22.9438,77.692-14.9029,21.2877-82.8238,84.9868-142.9426,160.2471-142.9426,75.0069,0,138.5119,59.7011,160.0085,142.0623,37.9659-8.4882,68.4579-4.0875,79.2285,14.5747,15.7682,27.3146-16.0366,75.9465-72.5155,114.7627-5.7135,67.9656-32.7595,119.447-65.28,119.447-6.907,0-13.5752-2.3273-19.8556-6.6533"/><path class="an" d="M974.2489,654.61c-9.9231,14.36-21.6972,22.6644-34.3206,22.6644a30.948,30.948,0,0,1-14.5748-3.7891c-.6116-.3282-1.2232-.6713-1.82-1.0442-.5073.6115-1.0144,1.2084-1.5366,1.79-8.5329,9.5923-18.14,14.9776-28.314,14.9776-10.04,0-19.5274-5.2511-27.9709-14.6046-.6414-.7011-1.2679-1.4171-1.88-2.163-.7609.4625-1.5067.895-2.2824,1.2829a30.6856,30.6856,0,0,1-14.1123,3.55c-12.8144,0-24.7487-8.5628-34.7734-23.3165"/><path class="ao" d="M898.345,486.757c-.97,1.6113-1.9692,3.1628-2.9836,4.6546-.6265-.4178-1.2382-.88-1.8647-1.3576C895.1376,489.01,896.7488,487.9057,898.345,486.757Z"/><path class="ao" d="M898.345,486.757c-.97,1.6113-1.9692,3.1628-2.9836,4.6546-.6265-.4178-1.2382-.88-1.8647-1.3576C895.1376,489.01,896.7488,487.9057,898.345,486.757Z"/><path class="ap" d="M928.3655,458.9056c0,19.5674-14.2355,35.43-31.7958,35.43s-31.7957-15.8624-31.7957-35.43l21.5612,2.8487a74.1458,74.1458,0,0,0,18.9846.0566Z"/><ellipse class="aq" cx="841.4646" cy="402.2179" rx="23.7777" ry="35.4298"/><ellipse class="ar" cx="838.6482" cy="382.4518" rx="10.0408" ry="11.1884"/><ellipse class="aq" cx="942.9058" cy="402.2179" rx="23.7777" ry="35.4298"/><ellipse class="ar" cx="940.0893" cy="382.4518" rx="10.0408" ry="11.1884"/></svg>