<svg xmlns="http://www.w3.org/2000/svg" xmlns:xlink="http://www.w3.org/1999/xlink" viewBox="0 0 1806.2246 992.5703"><defs><style>.a,.ar,.l,.r,.x{fill:#95d9cc;}.a,.aa,.ab,.ac,.ad,.ae,.af,.ag,.ah,.ai,.aj,.ak,.an,.ao,.ap,.aq,.b,.c,.d,.e,.f,.g,.h,.i,.j,.k,.l,.m,.n,.o,.p,.q,.r,.s,.t,.u,.v,.x,.y,.z{stroke:#1d1f21;}.a,.aa,.ab,.ac,.ad,.ah,.ai,.aj,.ak,.al,.an,.ao,.aq,.b,.c,.d,.e,.i,.j,.k,.l,.m,.n,.o,.p,.q,.r,.s,.t,.u,.v,.x,.y,.z{stroke-miterlimit:10;}.a,.b,.c,.d,.e,.f,.g,.h,.i,.j,.k,.v{stroke-width:0.4606px;}.al,.ao,.b,.m,.u,.w,.y{fill:#fffdfa;}.aa,.ag,.c,.h,.q{fill:#0eb495;}.ac,.d,.s{fill:#ffd1a8;}.ad,.ak,.ap,.e{fill:#ffc5bf;}.ad,.ae,.af,.ag,.ap,.e,.f,.g,.h{stroke-linecap:round;}.ae,.ai,.f,.t{fill:#b9d9f6;}.ae,.af,.ag,.ap,.f,.g,.h{stroke-linejoin:round;}.af,.g,.j,.n,.z{fill:#f86151;}.ah,.i,.p{fill:#f8a75d;}.ab,.k,.o{fill:#054b8c;}.l,.m,.n,.o,.p,.q{stroke-width:0.4399px;}.r,.s,.t,.u{stroke-width:0.5028px;}.aj,.an,.v{fill:none;}.aa,.ab,.ac,.ad,.ae,.af,.ag,.ah,.ai,.aj,.x,.y,.z{stroke-width:1.2315px;}.ak{stroke-width:0.8395px;}.al{stroke:#95d9cc;stroke-width:39.5834px;}.am{fill:url(#a);}.an,.ao,.ap,.aq{stroke-width:0.8796px;}.aq{fill:#1d1f21;}</style><radialGradient id="a" cx="842.5827" cy="363.7115" r="406.7084" gradientUnits="userSpaceOnUse"><stop offset="0" stop-color="#fffdfa" stop-opacity="0.5"/><stop offset="0.4637" stop-color="#fafcfe" stop-opacity="0.5338"/><stop offset="0.5022" stop-color="#f3f8fd" stop-opacity="0.5833"/><stop offset="0.6576" stop-color="#daebfa" stop-opacity="0.7626"/><stop offset="0.7978" stop-color="#c8e1f8" stop-opacity="0.8925"/><stop offset="0.9166" stop-color="#bddbf6" stop-opacity="0.9716"/><stop offset="1" stop-color="#b9d9f6"/></radialGradient></defs><title>landing-pc_5</title><rect class="a" x="769.756" y="69.4276" width="89.8242" height="70.7078" rx="8.5432" transform="matrix(0.9556, -0.2946, 0.2946, 0.9556, 5.2924, 244.6896)"/><rect class="b" x="764.4041" y="67.7035" width="89.8242" height="70.7078" rx="8.5432" transform="translate(5.5628 243.0361) rotate(-17.1363)"/><circle class="c" cx="762.2803" cy="82.6125" r="12.3885"/><path class="b" d="M768.3473,88.2193a8.1133,8.1133,0,0,1-3.1864,1.8284,8.0135,8.0135,0,0,1-8.9421-2.8221l-1.6914.5215-.2727-1.9969.9814-.3026a6.1027,6.1027,0,0,1-.2076-.599c-.0709-.23-.1417-.46-.1916-.6956l-1.2737.3928-.2727-1.9969,1.3991-.4314a8.0974,8.0974,0,0,1,5.8678-7.2972,8.6238,8.6238,0,0,1,3.346-.3454l.3923,2.8285a5.8765,5.8765,0,0,0-2.9061.1417,5.178,5.178,0,0,0-3.5885,3.713l6.7029-2.0667.2937,1.99-7.0789,2.1827c.05.2359.1.4722.1707.702a5.7523,5.7523,0,0,0,.2285.5925l6.8279-2.1052.2936,1.99-5.93,1.8284a5.2339,5.2339,0,0,0,5.1593,1.0845,6.2359,6.2359,0,0,0,2.6432-1.6609Z"/><rect class="d" x="819.0536" y="60.4297" width="5.5276" height="42.8393" rx="1.9231" transform="translate(985.7462 891.3001) rotate(-107.1363)"/><rect class="d" x="816.0676" y="50.7456" width="5.5276" height="42.8392" rx="1.9231" transform="translate(991.1346 875.9092) rotate(-107.1363)"/><rect class="d" x="826.8816" y="73.6878" width="5.5276" height="32.7052" rx="1.9231" transform="translate(988.0531 909.3852) rotate(-107.1363)"/><path class="e" d="M856.3647,101.01l-.0043.0013a19.0333,19.0333,0,0,0-15.0691-1.7871l-.0042.0013,5.3716,18.2315,9.6171-16.2253.0572-.1427"/><path class="f" d="M864.6687,110.8861l-18.01,6.5706,9.6171-16.2253.0889-.2217A18.9915,18.9915,0,0,1,864.6687,110.8861Z"/><path class="g" d="M865.3254,122.0012a19.0922,19.0922,0,1,1-24.1819-22.7318l.1436-.0442,5.3716,18.2315Z"/><path class="h" d="M865.0107,111.8907a18.9948,18.9948,0,0,1,.3147,10.1105l-18.6667-4.5445,18.01-6.5706.0055.003,0,.0139C864.7965,111.226,864.9079,111.557,865.0107,111.8907Z"/><circle class="c" cx="780.739" cy="111.1942" r="8.6399"/><circle class="i" cx="786.9981" cy="131.4945" r="8.6399"/><circle class="j" cx="801.4583" cy="104.7603" r="8.6399"/><circle class="k" cx="807.7338" cy="125.1133" r="8.6399"/><path class="b" d="M785.103,110.9578l-3.0043.9264.9846,3.1933-2.1288.6563-.9846-3.1933-2.97.9159-.6246-2.0258,2.97-.9158-.9846-3.1933,2.1288-.6564.9846,3.1933,3.0043-.9263Z"/><path class="b" d="M803.0816,123.7608l7.6573-2.361.5663,1.8368-7.6573,2.361Zm1.09,3.5365,7.6573-2.3609.5664,1.8368-7.6573,2.361Z"/><path class="b" d="M784.6426,129.3725a1.627,1.627,0,1,1,2.0226,1.0119A1.581,1.581,0,0,1,784.6426,129.3725Zm1.6039,5.2021a1.627,1.627,0,1,1,2.0227,1.0119A1.5811,1.5811,0,0,1,786.2465,134.5746Z"/><path class="b" d="M797.2922,104.3082l7.15-2.2047.9227,2.9924-7.1505,2.2047Z"/><rect class="l" x="82.3359" y="177.5171" width="85.7808" height="67.5249" rx="8.5432" transform="translate(-45.5195 34.7391) rotate(-13.3887)"/><rect class="m" x="77.5677" y="174.5824" width="85.7808" height="67.5249" rx="8.5432" transform="translate(-44.9696 33.5552) rotate(-13.3887)"/><path class="n" d="M80.1774,175.2788h68.6944a8.5432,8.5432,0,0,1,8.5432,8.5432v7.7332a0,0,0,0,1,0,0H71.6342a0,0,0,0,1,0,0V183.822A8.5432,8.5432,0,0,1,80.1774,175.2788Z" transform="translate(-39.3586 31.5038) rotate(-13.3887)"/><rect class="m" x="90.7432" y="173.0453" width="5.2788" height="14.0768" rx="1.9162" transform="translate(-39.1614 26.5176) rotate(-13.3887)"/><rect class="m" x="103.5816" y="169.9895" width="5.2788" height="14.0768" rx="1.9162" transform="translate(-38.1049 29.4074) rotate(-13.3887)"/><rect class="m" x="116.42" y="166.9336" width="5.2788" height="14.0768" rx="1.9162" transform="translate(-37.0484 32.2971) rotate(-13.3887)"/><rect class="m" x="129.2583" y="163.8778" width="5.2788" height="14.0768" rx="1.9162" transform="translate(-35.9918 35.1868) rotate(-13.3887)"/><circle class="o" cx="99.2799" cy="208.8668" r="8.251"/><circle class="p" cx="119.4401" cy="204.0681" r="8.251"/><circle class="n" cx="103.9896" cy="228.6537" r="8.251"/><circle class="o" cx="124.1499" cy="223.855" r="8.251"/><circle class="q" cx="139.6004" cy="199.2695" r="8.251"/><circle class="p" cx="144.3101" cy="219.0564" r="8.251"/><path class="r" d="M163.7255,835.2772l-19.0031.9511a13.2365,13.2365,0,0,1-3.9733,2.2625L102.722,852.2147a13.4037,13.4037,0,0,1-17.1585-8.054l-2.7909-7.7331-6.0777,2.1934a13.2354,13.2354,0,0,1-4.5024.7963L56.9618,850.8211l2.92-19.4165c-.1243-.27-.2362-.5508-.34-.8394l-8.8676-24.5709a13.3994,13.3994,0,0,1,8.0557-17.1538l38.0271-13.7239a13.4038,13.4038,0,0,1,17.1585,8.054l2.7909,7.7332,6.0777-2.1935a13.4,13.4,0,0,1,17.1537,8.0557l8.8676,24.571c.1042.2885.1971.5758.2742.8633Z"/><path class="s" d="M109.1069,781.6983l8.8676,24.571a13.4037,13.4037,0,0,1-8.06,17.1555L71.887,837.1487a13.2334,13.2334,0,0,1-4.5024.7963L52.1538,849.3488l2.92-19.4164c-.1244-.2705-.2363-.5509-.34-.8394l-8.8676-24.571a13.4,13.4,0,0,1,8.0557-17.1538l38.0271-13.7239A13.4038,13.4038,0,0,1,109.1069,781.6983Z"/><path class="t" d="M71.8879,818.1174l8.8676,24.571a13.4039,13.4039,0,0,0,17.1586,8.054l38.027-13.7239a13.2353,13.2353,0,0,0,3.9733-2.2625l19.0031-.9511L144.271,820.7281c-.077-.2876-.17-.5748-.2741-.8633l-8.8676-24.571a13.3994,13.3994,0,0,0-17.1538-8.0557L79.9484,800.9619A13.4038,13.4038,0,0,0,71.8879,818.1174Z"/><circle class="u" cx="93.6971" cy="825.0955" r="4.5688"/><circle class="u" cx="125.5137" cy="813.6129" r="4.5688"/><circle class="u" cx="109.4326" cy="819.4166" r="4.5688"/><path class="a" d="M492.2087,448.8167A19.0292,19.0292,0,0,1,472.39,461.1248l-14.5321,39.1827-1.7073,4.6048A13.9838,13.9838,0,0,1,438.175,513.16l-2.533-.937-22.6353,8.0662a12.2762,12.2762,0,0,1-15.6906-7.4379l-15.58-43.7081a12.2742,12.2742,0,0,1,7.4425-15.69l29.48-10.5084a12.1969,12.1969,0,0,1,6.4552-.4932,19.0285,19.0285,0,0,1,19.9524-31.4119,18.8223,18.8223,0,0,1,6.3606,3.9244,16.6827,16.6827,0,0,1,22.178,8.2241,19.0274,19.0274,0,0,1,18.6042,25.629Z"/><line class="v" x1="438.4264" y1="451.9596" x2="428.389" y2="479.024"/><line class="v" x1="459.3399" y1="459.7158" x2="449.3025" y2="486.7802"/><line class="v" x1="449.1292" y1="455.9289" x2="439.0918" y2="482.9934"/><rect class="b" x="376.4135" y="452.3888" width="70.958" height="55.8567" rx="8.5432" transform="translate(97.7738 1029.5798) rotate(-109.6206)"/><path class="j" d="M364.67,480.7028h54.5131a8.2224,8.2224,0,0,1,8.2224,8.2224v5.2414a0,0,0,0,1,0,0h-70.958a0,0,0,0,1,0,0v-5.2414A8.2224,8.2224,0,0,1,364.67,480.7028Z" transform="translate(64.3996 1020.2809) rotate(-109.6206)"/><rect class="b" x="388.901" y="499.2971" width="4.3666" height="11.6444" rx="1.3334" transform="translate(46.6164 1043.1104) rotate(-109.6206)"/><rect class="b" x="385.2353" y="489.0144" width="4.3666" height="11.6444" rx="1.3334" transform="translate(51.4054 1025.9218) rotate(-109.6206)"/><rect class="b" x="381.5696" y="478.7316" width="4.3666" height="11.6444" rx="1.3334" transform="translate(56.1945 1008.7334) rotate(-109.6206)"/><rect class="b" x="377.9039" y="468.4489" width="4.3666" height="11.6444" rx="1.3334" transform="translate(60.9837 991.545) rotate(-109.6206)"/><path class="b" d="M475.6,445.6249l-19.3685,52.2244L411.4525,481.242l19.3685-52.2244c2.1541-5.8084,9.77-8.3387,17.014-5.6523l18.5514,6.88C473.63,432.9318,477.7545,439.8165,475.6,445.6249Z"/><path class="k" d="M456.2318,497.8493l-1.7063,4.601a13.9859,13.9859,0,0,1-17.9776,8.25l-18.5514-6.88a13.9858,13.9858,0,0,1-8.25-17.9776l1.7064-4.6009Z"/><path class="b" d="M432.2126,444.878a19.2205,19.2205,0,0,1-2.0053-.6219A19.0251,19.0251,0,1,1,455.8322,427.31"/><path class="b" d="M457.6761,428.118a19.0167,19.0167,0,1,1,6.2061,28.46"/><path class="b" d="M441.1315,421.8588a16.7021,16.7021,0,1,1,31.32,11.6155"/><rect class="w" x="454.6343" y="424.5575" width="8.3973" height="5.7732" transform="translate(177.2668 -132.8742) rotate(20.3483)"/><line class="b" x1="436.799" y1="449.4996" x2="426.7616" y2="476.5641"/><line class="b" x1="457.7125" y1="457.2558" x2="447.6751" y2="484.3203"/><line class="b" x1="447.5018" y1="453.469" x2="437.4644" y2="480.5334"/><rect class="a" x="1540.7378" y="130.0658" width="89.8242" height="70.7078" rx="8.5432" transform="translate(1855.6439 1736.6462) rotate(-105.706)"/><rect class="b" x="1535.874" y="128.084" width="89.8242" height="70.7078" rx="8.5432" transform="translate(1851.3713 1729.4456) rotate(-105.706)"/><path class="j" d="M1518.5869,162.18h72.7379a8.5432,8.5432,0,0,1,8.5432,8.5432v8.5a0,0,0,0,1,0,0h-89.8242a0,0,0,0,1,0,0v-8.5a8.5432,8.5432,0,0,1,8.5432-8.5432Z" transform="translate(1811.5564 1713.8095) rotate(-105.706)"/><rect class="b" x="1549.5997" y="185.5927" width="5.5276" height="14.7404" rx="1.9231" transform="translate(1786.8319 1739.6018) rotate(-105.706)"/><rect class="b" x="1545.8588" y="172.2896" width="5.5276" height="14.7404" rx="1.9231" transform="translate(1794.8849 1719.0963) rotate(-105.706)"/><rect class="b" x="1542.118" y="158.9864" width="5.5276" height="14.7404" rx="1.9231" transform="translate(1802.9378 1698.5907) rotate(-105.706)"/><rect class="b" x="1538.3771" y="145.6833" width="5.5276" height="14.7404" rx="1.9231" transform="matrix(-0.2707, -0.9627, 0.9627, -0.2707, 1810.9908, 1678.0852)"/><path class="c" d="M1604.8056,175.5411c-2.961-10.3976-10.7664-17.2873-17.4338-15.3886s-9.672,11.867-6.711,22.2646Z"/><circle class="c" cx="1585.3872" cy="152.574" r="9.9037"/><rect class="a" x="1624.8971" y="728.1348" width="89.8242" height="70.7078" rx="8.5432" transform="translate(1511.535 2592.7309) rotate(-109.6262)"/><rect class="b" x="1620.343" y="726.3354" width="89.8242" height="70.7078" rx="8.5432" transform="translate(1507.1461 2586.0376) rotate(-109.6262)"/><path class="j" d="M1626.3367,718.8913h53.3911a8.5432,8.5432,0,0,1,8.5432,8.5432v8.5a0,0,0,0,1,0,0h-70.4775a0,0,0,0,1,0,0v-8.5a8.5432,8.5432,0,0,1,8.5432-8.5432Z" transform="translate(-148.2905 597.4836) rotate(-19.6262)"/><rect class="k" x="1679.2899" y="763.3775" width="5.5276" height="42.8392" rx="1.9231" transform="translate(1507.8217 2632.7296) rotate(-109.6262)"/><rect class="k" x="1674.6483" y="750.3613" width="5.5276" height="42.8392" rx="1.9231" transform="translate(1513.8811 2610.9694) rotate(-109.6262)"/><rect class="k" x="1670.0067" y="737.345" width="5.5276" height="42.8392" rx="1.9231" transform="translate(1519.9406 2589.2093) rotate(-109.6262)"/><rect class="k" x="1665.3651" y="724.3287" width="5.5276" height="42.8392" rx="1.9231" transform="translate(1526.0001 2567.4491) rotate(-109.6262)"/><rect class="c" x="1650.2976" y="792.3862" width="5.5276" height="5.9883" rx="1.7629" transform="translate(1459.1231 2619.5596) rotate(-109.6262)"/><rect class="c" x="1645.656" y="779.3699" width="5.5276" height="5.9883" rx="1.7629" transform="translate(1465.1825 2597.7994) rotate(-109.6262)"/><rect class="c" x="1641.0144" y="766.3536" width="5.5276" height="5.9883" rx="1.7629" transform="translate(1471.242 2576.0393) rotate(-109.6262)"/><rect class="c" x="1636.3728" y="753.3374" width="5.5276" height="5.9883" rx="1.7629" transform="translate(1477.3015 2554.2791) rotate(-109.6262)"/><circle class="c" cx="1682.3052" cy="714.5809" r="12.3885"/><polygon class="b" points="1690.205 708.227 1685.501 718.147 1684.061 721.175 1681.034 719.739 1672.957 715.908 1674.391 712.878 1682.469 716.709 1687.173 706.789 1690.205 708.227"/><rect class="a" x="1277.6535" y="463.3186" width="89.8242" height="70.7078" rx="8.5432" transform="translate(-80.7366 329.5665) rotate(-13.7876)"/><path class="d" d="M1355.4415,463.5222l11,44.8259a12.2751,12.2751,0,0,1-8.9966,14.848l-63.3915,15.5558a12.275,12.275,0,0,1-14.8479-8.9966l-11-44.8259a12.275,12.275,0,0,1,8.9966-14.8479l.9618-.236a14.6176,14.6176,0,0,0,.1833,6.1589,2.3847,2.3847,0,0,0,2.88,1.7453l72.6833-17.836A12.0781,12.0781,0,0,1,1355.4415,463.5222Z"/><path class="a" d="M1278.1639,469.8455l12.5262-3.0739a14.6176,14.6176,0,0,0,.1833,6.1589,2.3848,2.3848,0,0,0,2.88,1.7454l-12.5262,3.0738a2.3847,2.3847,0,0,1-2.88-1.7453,14.6176,14.6176,0,0,1-.1833-6.1589"/><path class="j" d="M1307.1748,471.3824l-13.4209,3.2935a2.3848,2.3848,0,0,1-2.88-1.7454,14.6176,14.6176,0,0,1-.1833-6.1589l13.4209-3.2934a14.6177,14.6177,0,0,0,.1834,6.1589A2.3845,2.3845,0,0,0,1307.1748,471.3824Z"/><path class="c" d="M1320.5957,468.089l-13.4209,3.2934a2.3845,2.3845,0,0,1-2.88-1.7453,14.6177,14.6177,0,0,1-.1834-6.1589l13.421-3.2934a14.616,14.616,0,0,0,.1833,6.1589A2.3846,2.3846,0,0,0,1320.5957,468.089Z"/><path class="i" d="M1334.9114,464.5761l-14.3157,3.5129a2.3846,2.3846,0,0,1-2.88-1.7453,14.616,14.616,0,0,1-.1833-6.1589l14.3156-3.513a14.6193,14.6193,0,0,0,.1833,6.1589A2.3848,2.3848,0,0,0,1334.9114,464.5761Z"/><path class="k" d="M1353.911,459.9137l-19,4.6624a2.3848,2.3848,0,0,1-2.88-1.7454,14.6193,14.6193,0,0,1-.1833-6.1589l8.746-2.1462A12.2753,12.2753,0,0,1,1353.911,459.9137Z"/><rect class="x" x="260.9031" y="755.4751" width="246.5136" height="194.0504" rx="23.4459" transform="translate(-332.5184 1453.0899) rotate(-105.706)"/><rect class="y" x="247.5549" y="750.0362" width="246.5136" height="194.0504" rx="23.4459" transform="translate(-344.2442 1433.3289) rotate(-105.706)"/><path class="z" d="M200.1122,843.6082H399.7339A23.4459,23.4459,0,0,1,423.18,867.0541v23.3284a0,0,0,0,1,0,0H176.6662a0,0,0,0,1,0,0V867.0541a23.4459,23.4459,0,0,1,23.4459-23.4459Z" transform="translate(-453.5121 1390.417) rotate(-105.706)"/><rect class="y" x="285.2236" y="907.8633" width="15.1701" height="40.4535" rx="5.2778" transform="translate(-521.366 1461.2014) rotate(-105.706)"/><rect class="y" x="274.9572" y="871.3541" width="15.1701" height="40.4535" rx="5.2778" transform="translate(-499.2655 1404.926) rotate(-105.706)"/><rect class="y" x="264.6908" y="834.845" width="15.1701" height="40.4535" rx="5.2778" transform="translate(-477.165 1348.6507) rotate(-105.706)"/><rect class="y" x="254.4244" y="798.3358" width="15.1701" height="40.4535" rx="5.2778" transform="translate(-455.0645 1292.3754) rotate(-105.706)"/><path class="aa" d="M436.7307,880.2777c-8.1263-28.5353-29.5474-47.4434-47.8454-42.2325s-26.5438,32.5676-18.4175,61.1029Z"/><circle class="aa" cx="383.439" cy="817.2466" r="27.1797"/><rect class="x" x="283.6216" y="71.8214" width="246.5136" height="194.0504" rx="23.4459" transform="translate(384.5043 608.7995) rotate(-109.6262)"/><rect class="y" x="271.1235" y="66.8832" width="246.5136" height="194.0504" rx="23.4459" transform="matrix(-0.3359, -0.9419, 0.9419, -0.3359, 372.4595, 590.4306)"/><path class="z" d="M287.5726,46.4536H434.0991A23.4459,23.4459,0,0,1,457.545,69.9V93.228a0,0,0,0,1,0,0H264.1267a0,0,0,0,1,0,0V69.9a23.4459,23.4459,0,0,1,23.4459-23.4459Z" transform="matrix(0.9419, -0.3359, 0.3359, 0.9419, -2.4952, 125.2557)"/><rect class="ab" x="432.8972" y="168.5416" width="15.1701" height="117.5678" rx="5.2778" transform="translate(374.3135 718.5719) rotate(-109.6262)"/><rect class="ab" x="420.1588" y="132.8197" width="15.1701" height="117.5678" rx="5.2778" transform="translate(390.9431 658.8534) rotate(-109.6262)"/><rect class="ab" x="407.4204" y="97.0978" width="15.1701" height="117.5678" rx="5.2778" transform="translate(407.5727 599.1349) rotate(-109.6262)"/><rect class="ab" x="394.682" y="61.376" width="15.1701" height="117.5678" rx="5.2778" transform="matrix(-0.3359, -0.9419, 0.9419, -0.3359, 424.2023, 539.4163)"/><rect class="aa" x="353.3308" y="248.1529" width="15.1701" height="16.4343" rx="4.838" transform="translate(240.665 682.4282) rotate(-109.6262)"/><rect class="aa" x="340.5924" y="212.431" width="15.1701" height="16.4343" rx="4.838" transform="translate(257.2946 622.7096) rotate(-109.6262)"/><rect class="aa" x="327.854" y="176.7091" width="15.1701" height="16.4343" rx="4.838" transform="translate(273.9242 562.9911) rotate(-109.6262)"/><rect class="aa" x="315.1156" y="140.9873" width="15.1701" height="16.4343" rx="4.838" transform="translate(290.5538 503.2726) rotate(-109.6262)"/><circle class="aa" cx="441.1723" cy="34.624" r="33.999"/><polygon class="y" points="462.853 17.187 449.942 44.41 445.992 52.721 437.684 48.781 415.516 38.268 419.453 29.95 441.621 40.463 454.532 13.241 462.853 17.187"/><rect class="x" x="1223.8507" y="56.349" width="246.5136" height="194.0504" rx="23.4459" transform="translate(14.6115 403.7274) rotate(-17.1363)"/><rect class="y" x="1209.1628" y="51.6174" width="246.5136" height="194.0504" rx="23.4459" transform="translate(15.3536 399.1896) rotate(-17.1363)"/><circle class="aa" cx="1203.3343" cy="92.5337" r="33.999"/><path class="y" d="M1219.9848,107.9208a22.2657,22.2657,0,0,1-8.745,5.018,21.9918,21.9918,0,0,1-24.5405-7.7451l-4.6419,1.4313-.7485-5.48,2.6933-.83a16.8129,16.8129,0,0,1-.57-1.6439c-.1945-.6307-.3889-1.2613-.5258-1.9089l-3.4954,1.0777-.7485-5.48,3.84-1.1839c.4316-8.9812,6.5326-17.0753,16.1034-20.0263a23.6655,23.6655,0,0,1,9.1828-.9482l1.0767,7.7627a16.1281,16.1281,0,0,0-7.9756.3889,14.21,14.21,0,0,0-9.8482,10.19l18.3955-5.6719.8059,5.4624-19.4272,5.99c.1369.6476.2739,1.2959.4684,1.9266a15.8027,15.8027,0,0,0,.6271,1.6262L1210.65,92.098l.8059,5.4625-16.2747,5.018a14.3645,14.3645,0,0,0,14.1592,2.9763,17.1159,17.1159,0,0,0,7.2541-4.5583Z"/><rect class="ac" x="1359.1431" y="31.6551" width="15.1701" height="117.568" rx="5.2778" transform="translate(1683.0036 1423.1412) rotate(-107.1363)"/><rect class="ac" x="1350.9484" y="5.0782" width="15.1701" height="117.5678" rx="5.2778" transform="translate(1697.7916 1380.9024) rotate(-107.1363)"/><rect class="ac" x="1380.6262" y="68.0409" width="15.1701" height="89.7562" rx="5.2778" transform="translate(1689.3348 1472.7741) rotate(-107.1363)"/><path class="ad" d="M1461.54,143.023l-.0116.0036a52.2355,52.2355,0,0,0-41.3556-4.9047l-.0116.0035,14.7418,50.0347,26.393-44.5288.157-.3914"/><path class="ae" d="M1484.3289,170.1278,1434.9025,188.16l26.393-44.5288.244-.6083A52.1187,52.1187,0,0,1,1484.3289,170.1278Z"/><path class="af" d="M1486.1312,200.632a52.3966,52.3966,0,1,1-66.3647-62.385l.3942-.1216,14.7418,50.0347Z"/><path class="ag" d="M1485.2678,172.8847a52.1305,52.1305,0,0,1,.8634,27.7473L1434.9025,188.16l49.4264-18.0323.0152.0081-.0009.0383C1484.68,171.0605,1484.9854,171.969,1485.2678,172.8847Z"/><circle class="aa" cx="1253.9924" cy="170.9733" r="23.7115"/><circle class="ah" cx="1271.1699" cy="226.6855" r="23.7115"/><circle class="z" cx="1310.8545" cy="153.3161" r="23.7115"/><circle class="ab" cx="1328.077" cy="209.1728" r="23.7115"/><path class="y" d="M1265.9691,170.3246l-8.2452,2.5422,2.7021,8.7637-5.842,1.8013-2.7022-8.7637-8.1519,2.5135-1.7142-5.56,8.152-2.5135-2.7022-8.7637,5.8421-1.8013,2.7021,8.7637,8.2452-2.5423Z"/><path class="y" d="M1315.3094,205.461l21.0146-6.48,1.5543,5.041-21.0146,6.48Zm2.9925,9.7057,21.0147-6.48,1.5543,5.041-21.0146,6.48Z"/><path class="y" d="M1264.7054,220.8618a4.4651,4.4651,0,1,1,5.551,2.7771A4.3387,4.3387,0,0,1,1264.7054,220.8618Zm4.4019,14.2766a4.4651,4.4651,0,1,1,5.5511,2.7771A4.339,4.339,0,0,1,1269.1073,235.1384Z"/><path class="y" d="M1299.4211,152.0753l19.6238-6.0506,2.5321,8.2123-19.6238,6.0507Z"/><rect class="x" x="27.5237" y="427.5304" width="246.5136" height="194.0504" rx="23.4459" transform="translate(-120.669 51.049) rotate(-13.7876)"/><path class="ac" d="M241.0052,428.0891l30.1883,123.02a33.6875,33.6875,0,0,1-24.69,40.7486L72.5316,634.55a33.6876,33.6876,0,0,1-40.7486-24.69L1.5946,486.839A33.6877,33.6877,0,0,1,26.285,446.09l2.64-.6477a40.1158,40.1158,0,0,0,.503,16.9024,6.5444,6.5444,0,0,0,7.9051,4.79l199.472-48.9492A33.1486,33.1486,0,0,1,241.0052,428.0891Z"/><path class="x" d="M28.9246,445.4427l34.3769-8.4359a40.1163,40.1163,0,0,0,.503,16.9025,6.5444,6.5444,0,0,0,7.9051,4.79L37.3327,467.135a6.5444,6.5444,0,0,1-7.9051-4.79,40.1158,40.1158,0,0,1-.503-16.9024"/><path class="z" d="M108.542,449.6607,71.71,458.6991a6.5444,6.5444,0,0,1-7.9051-4.79,40.1163,40.1163,0,0,1-.503-16.9025l36.8323-9.0384a40.1175,40.1175,0,0,0,.5031,16.9024A6.5445,6.5445,0,0,0,108.542,449.6607Z"/><path class="aa" d="M145.3744,440.6223l-36.8324,9.0384a6.5445,6.5445,0,0,1-7.9051-4.79,40.1175,40.1175,0,0,1-.5031-16.9024l36.8324-9.0385a40.1164,40.1164,0,0,0,.5031,16.9025A6.5445,6.5445,0,0,0,145.3744,440.6223Z"/><path class="ah" d="M184.6623,430.9813l-39.2879,9.641a6.5445,6.5445,0,0,1-7.9051-4.79,40.1164,40.1164,0,0,1-.5031-16.9025l39.2879-9.641a40.1164,40.1164,0,0,0,.5031,16.9025A6.5445,6.5445,0,0,0,184.6623,430.9813Z"/><path class="ab" d="M236.8047,418.1858l-52.1424,12.7955a6.5445,6.5445,0,0,1-7.9051-4.79,40.1164,40.1164,0,0,1-.5031-16.9025l24.0024-5.89A33.6882,33.6882,0,0,1,236.8047,418.1858Z"/><path class="x" d="M1606.4116,915.0483l-52.1521,2.61a36.324,36.324,0,0,1-10.9043,6.2093l-104.3615,37.6638a36.7853,36.7853,0,0,1-47.09-22.1035l-7.6592-21.2228-16.68,6.02a36.3235,36.3235,0,0,1-12.3565,2.1854l-41.7992,31.2966,8.0129-53.2865c-.3412-.7424-.6483-1.5119-.9341-2.3037l-24.3362-67.4326a36.7733,36.7733,0,0,1,22.1082-47.0767l104.3614-37.6638a36.7851,36.7851,0,0,1,47.09,22.1034l7.6593,21.2228,16.68-6.02a36.7734,36.7734,0,0,1,47.0768,22.108l24.3363,67.4326c.2857.7918.5409,1.58.7523,2.3693Z"/><path class="ac" d="M1456.5165,768.0065l24.3362,67.4327a36.7852,36.7852,0,0,1-22.1211,47.0815L1354.37,920.1845a36.3231,36.3231,0,0,1-12.3565,2.1854l-41.7992,31.2966,8.013-53.2866c-.3413-.7423-.6484-1.5118-.9341-2.3036l-24.3363-67.4326a36.7735,36.7735,0,0,1,22.1082-47.0768l104.3615-37.6638A36.7854,36.7854,0,0,1,1456.5165,768.0065Z"/><path class="ai" d="M1354.3727,867.9549l24.3363,67.4327a36.7852,36.7852,0,0,0,47.09,22.1034L1530.16,919.8273a36.3234,36.3234,0,0,0,10.9042-6.2093l52.1521-2.61L1553.0208,875.12c-.2115-.7892-.4666-1.5774-.7524-2.3692l-24.3362-67.4326a36.7735,36.7735,0,0,0-47.0768-22.1081l-104.3615,37.6638A36.7853,36.7853,0,0,0,1354.3727,867.9549Z"/><circle class="y" cx="1414.2257" cy="887.1056" r="12.5385"/><circle class="y" cx="1501.5433" cy="855.5929" r="12.5385"/><circle class="y" cx="1457.4104" cy="871.5204" r="12.5385"/><path class="x" d="M1802.3361,438.1718a52.2234,52.2234,0,0,1-54.39,33.7782l-39.8821,107.533-4.6855,12.6373a38.3772,38.3772,0,0,1-49.3321,22.6344l-6.9517-2.5715-62.12,22.1366a33.6907,33.6907,0,0,1-43.0613-20.4125L1499.1555,493.955a33.6854,33.6854,0,0,1,20.4252-43.06l80.9039-28.8392a33.4745,33.4745,0,0,1,17.7156-1.3537,52.2219,52.2219,0,0,1,54.7574-86.2069,51.6555,51.6555,0,0,1,17.4558,10.77,45.7839,45.7839,0,0,1,60.8653,22.57,52.2184,52.2184,0,0,1,51.0574,70.3362Z"/><line class="aj" x1="1654.7361" y1="446.797" x2="1627.1895" y2="521.0726"/><line class="aj" x1="1712.1309" y1="468.083" x2="1684.5843" y2="542.3587"/><line class="aj" x1="1684.1088" y1="457.6904" x2="1656.5621" y2="531.9661"/><rect class="y" x="1484.5478" y="447.9749" width="194.7371" height="153.293" rx="23.4459" transform="translate(1618.949 2190.8494) rotate(-109.6206)"/><path class="z" d="M1452.32,525.68h149.6057a22.5657,22.5657,0,0,1,22.5657,22.5657V562.63a0,0,0,0,1,0,0H1429.754a0,0,0,0,1,0,0V548.2455A22.5657,22.5657,0,0,1,1452.32,525.68Z" transform="translate(1527.3567 2165.3297) rotate(-109.6206)"/><rect class="y" x="1518.8185" y="576.7102" width="11.9838" height="31.9569" rx="3.6593" transform="translate(1478.5526 2227.9827) rotate(-109.6206)"/><rect class="y" x="1508.7584" y="548.4902" width="11.9838" height="31.9569" rx="3.6593" transform="translate(1491.6954 2180.8107) rotate(-109.6206)"/><rect class="y" x="1498.6982" y="520.2702" width="11.9838" height="31.9569" rx="3.6593" transform="translate(1504.8387 2133.6387) rotate(-109.6206)"/><rect class="y" x="1488.6381" y="492.0502" width="11.9838" height="31.9569" rx="3.6593" transform="translate(1517.9822 2086.4666) rotate(-109.6206)"/><path class="y" d="M1756.7561,429.4122l-53.1549,143.3246L1580.7088,527.16l53.1549-143.3247c5.9119-15.94,26.8143-22.8847,46.6932-15.5122l50.9125,18.882C1751.3483,394.5773,1762.668,413.4716,1756.7561,429.4122Z"/><path class="ab" d="M1703.6012,572.7368l-4.6829,12.6269a38.3824,38.3824,0,0,1-49.3376,22.6423l-50.9125-18.8819a38.3824,38.3824,0,0,1-22.6423-49.3376l4.6829-12.6268Z"/><path class="y" d="M1637.6828,427.3625a52.7988,52.7988,0,0,1-5.5032-1.7068,52.2127,52.2127,0,1,1,70.325-46.506"/><path class="y" d="M1707.5648,381.3662a52.1892,52.1892,0,1,1,17.0321,78.1051"/><path class="y" d="M1662.16,364.1883a45.8371,45.8371,0,0,1,85.9533,31.8776"/><rect class="w" x="1699.217" y="371.5948" width="23.0456" height="15.8438" transform="translate(238.7252 -571.1865) rotate(20.3483)"/><line class="y" x1="1650.2699" y1="440.046" x2="1622.7233" y2="514.3216"/><line class="y" x1="1707.6648" y1="461.332" x2="1680.1181" y2="535.6076"/><line class="y" x1="1679.6426" y1="450.9394" x2="1652.0959" y2="525.215"/><path class="ak" d="M654.6937,686.1307l34.9688-33.6313c1.7911-1.7232,3.1526-1.7189,4.6044-.2036l5.1515,5.374c1.499,1.5634,1.4028,2.8777-.39,4.6009l-12.5425,12.0632,9.883,10.3081,12.5425-12.0631c1.791-1.7232,3.1526-1.718,4.6043-.2036l5.1515,5.374c1.4526,1.5144,1.4028,2.8768-.39,4.6L683.31,715.9815c-1.7919,1.7232-3.1534,1.718-4.6043.2045l-5.1524-5.3749c-1.4517-1.5145-1.4019-2.8769.3892-4.6L686.6491,693.99l-9.8821-10.3081-12.7057,12.22c-1.7919,1.7232-3.1062,1.767-4.6043.2036l-5.1524-5.374C652.8529,689.2172,652.9027,687.8539,654.6937,686.1307Z"/><path class="ak" d="M709.7317,707.0306c11.571-16.6521,21.6618-19.7935,34.4517-10.8185,12.7349,8.9364,13.2752,19.5383,1.7043,36.19S724.2259,752.1959,711.491,743.26C698.7011,734.2846,698.1608,723.6834,709.7317,707.0306Zm24.6392,17.29c6.495-9.3478,6.9425-13.5466,2.0693-16.9655s-8.6417-1.5514-15.1367,7.7955-6.9975,13.5081-2.0693,16.9665S727.8759,733.6686,734.3709,724.3208Z"/><path class="ak" d="M746.5234,760.2492l19.6182-44.4618c1.0067-2.2781,2.2643-2.7875,4.1748-1.9285l14.6032,6.5689c12.8166,5.7648,16.76,14.903,11.5512,26.7085-5.2408,11.8759-14.5148,14.9847-27.3923,9.1932l-5.0527-2.273-5.179,11.7367c-.9758,2.2086-2.2034,2.815-4.174,1.9285l-6.7784-3.05C745.9839,763.8132,745.5175,762.5281,746.5234,760.2492ZM774.535,744.634c4.2513,1.9121,7.26.7834,9.0575-3.29s.6167-7.0868-3.6354-8.999l-5.2984-2.3838-5.423,12.2891Z"/><path class="ak" d="M815.693,786.6012l7.9562-48.04c.4081-2.4611,1.499-3.2686,3.5581-2.9095l7.3067,1.2739c2.1261.3711,2.83,1.4913,2.4216,3.9532L834.082,758.11l14.0174,2.4448,2.8528-17.2319c.408-2.4611,1.499-3.2685,3.558-2.9095l7.3068,1.2739c2.0608.36,2.83,1.4913,2.4216,3.9532l-7.9562,48.04c-.4081,2.462-1.4982,3.2686-3.5564,2.9095l-7.3085-1.2739c-2.059-.3591-2.83-1.4913-2.4215-3.9532l2.8914-17.4543-14.0165-2.4457-2.8915,17.4561c-.408,2.4611-1.432,3.2806-3.558,2.91l-7.3077-1.2747C816.0555,790.1953,815.285,789.0631,815.693,786.6012Z"/><path class="ak" d="M872.0367,770.706c-.603-20.3664,5.6094-28.9085,21.1567-29.2409,15.48-.3308,22.19,7.9347,22.794,28.3011s-5.6085,28.9076-21.0889,29.2383C879.3512,799.3369,872.6415,791.0715,872.0367,770.706Zm29.9513-.6409c-.3384-11.4326-2.4679-15.0989-8.3909-14.9726s-7.8316,3.8793-7.4932,15.3119,2.401,15.1007,8.3909,14.9718C900.4847,785.2491,902.3265,781.4969,901.988,770.0651Z"/><path class="ak" d="M932.9564,791.9434l-10.62-47.6788c-.5438-2.443.1615-3.6036,2.1982-4.0425l15.5739-3.3605c13.6687-2.9481,22.2339,2.1106,25.0532,14.77,2.8365,12.7341-2.7437,20.7659-16.4785,23.7286l-5.3886,1.1622,2.8039,12.5863c.5274,2.3683-.0963,3.59-2.1991,4.0434l-7.2278,1.5591C934.6349,795.15,933.5,794.3864,932.9564,791.9434Zm13.17-29.3c4.5347-.9775,6.2734-3.6808,5.3-8.0489s-3.7023-6.1076-8.2354-5.1292L937.54,750.684l2.9352,13.1782Z"/><path class="ak" d="M1003.92,772.1774,981.8155,728.548c-1.1322-2.236-.74-3.5382,1.121-4.4728l6.5981-3.3158c1.919-.9647,3.1448-.4759,4.2779,1.76l7.9295,15.6495,12.6551-6.361-7.9288-15.6495c-1.1321-2.2361-.74-3.5383,1.12-4.4729l6.599-3.3158c1.8589-.9355,3.144-.4759,4.2779,1.76l22.1041,43.6294c1.1322,2.2352.7379,3.5383-1.121,4.472l-6.5981,3.3167c-1.86.9337-3.1457.475-4.2779-1.76l-8.0318-15.8532-12.655,6.361,8.031,15.8523c1.1321,2.236.8,3.5091-1.12,4.4738l-6.5981,3.3158C1006.3386,774.8722,1005.0518,774.4135,1003.92,772.1774Z"/><path class="ak" d="M1039.5851,725.7365c-12.5828-16.1057-12.6971-26.7188-.48-36.2634,12.1637-9.5041,22.4324-6.8248,35.0152,9.28,12.5812,16.1048,12.6963,26.718.5335,36.2221C1062.4358,744.5206,1052.1671,741.8413,1039.5851,725.7365Zm23.5336-18.3881c-7.0628-9.0411-10.9413-10.7351-15.5946-7.0989-4.655,3.6371-3.9489,7.81,3.114,16.85s10.888,10.7755,15.5954,7.0981S1070.1824,716.3887,1063.1187,707.3484Z"/><path class="ak" d="M1100.8441,706.5779l-36.7891-32.2363c-1.8855-1.651-2.0109-3.0109-.6451-4.58l10.45-11.9987c9.17-10.53,19.0161-11.5435,28.7839-2.9834,9.8255,8.6091,10.1356,18.4311.9209,29.0124l-3.6147,4.1516,9.7111,8.5094c1.828,1.6013,2.0548,2.96.6434,4.58l-4.8491,5.569C1104.09,708.1713,1102.73,708.23,1100.8441,706.5779Zm-6.8713-31.5482c3.0427-3.4937,2.827-6.7167-.5437-9.67s-6.5835-2.7334-9.6253.76l-3.7908,4.3544,10.1681,8.9088Z"/><path class="ak" d="M1127.9426,642.0924l-5.9667-3.3209c-2.1218-1.1812-2.5307-2.486-1.4964-4.3716l8.5334-15.555c1.0326-1.8856,2.3151-2.1716,4.4368-.9913l5.9668,3.3209c2.0556,1.1451,2.5633,2.4268,1.5282,4.3123l-8.5318,15.555C1131.3787,642.9274,1129.9982,643.2366,1127.9426,642.0924Z"/><path class="ak" d="M1168.7768,599.4749l-46.7846-13.8387c-2.3975-.7087-3.0821-1.8933-2.5066-3.8991l2.04-7.1161c.5944-2.07,1.78-2.632,4.1773-1.9224l16.7818,4.9634,3.9162-13.65-16.7817-4.9642c-2.3984-.71-3.0821-1.895-2.5066-3.9l2.041-7.1161c.5747-2.0049,1.779-2.632,4.1774-1.9224l46.7846,13.8387c2.3966.7087,3.0821,1.8941,2.5066,3.8991l-2.041,7.1169c-.5756,2.005-1.78,2.632-4.1766,1.9225l-17-5.0278-3.9162,13.65,17.0007,5.0287c2.3967.7087,3.0994,1.83,2.5058,3.8991l-2.041,7.1161C1172.3778,599.5583,1171.1743,600.1845,1168.7768,599.4749Z"/><path class="ak" d="M1158.978,541.427c-20.2573-1.86-28.08-9.0773-26.7884-24.5979,1.2859-15.4529,10.1827-21.1353,30.44-19.2746,20.2591,1.86,28.0813,9.0772,26.7953,24.53C1188.133,537.6052,1179.2361,543.2876,1158.978,541.427Zm2.4885-29.8981c-11.3707-1.0445-15.2294.6323-15.7208,6.5449s3.03,8.2671,14.4023,9.3108c11.3707,1.0446,15.2226-.5652,15.7208-6.5448S1172.8382,512.5726,1161.4665,511.5289Z"/><path class="ak" d="M1186.3926,483.2622l-48.3841,4.8543c-2.4791.2491-3.558-.5936-3.7822-2.6742l-1.718-15.9115c-1.5085-13.9642,4.3956-21.886,17.2438-23.1745,12.9222-1.2963,20.308,5.2236,21.8251,19.2548l.5935,5.5046,12.7727-1.2808c2.4036-.2414,3.5495.5257,3.7823,2.6741l.798,7.385C1189.7479,481.9754,1188.8726,483.013,1186.3926,483.2622Zm-27.6921-16.6306c-.5008-4.6327-3.0014-6.6883-7.4339-6.2442s-6.44,2.9533-5.94,7.586l.6228,5.7734,13.374-1.3409Z"/><path class="ak" d="M1174.0554,410.09l-45.5072,16.9028c-2.3322.8659-3.5847.3213-4.3243-1.6407l-2.626-6.9615c-.7628-2.0247-.1563-3.1886,2.1768-4.0545l16.323-6.0621-5.0364-13.3534-16.3239,6.0629c-2.3305.8668-3.5847.3213-4.3234-1.64l-2.6269-6.9606c-.7388-1.9629-.1546-3.19,2.1767-4.0554l45.509-16.902c2.3305-.8668,3.5838-.3213,4.3234,1.64l2.6251,6.9615c.7405,1.962.1555,3.1887-2.1758,4.0545l-16.5352,6.142,5.0364,13.3517,16.5352-6.1411c2.3313-.8659,3.5614-.3849,4.3251,1.6407l2.6252,6.9606C1176.9726,407.9978,1176.3876,409.2245,1174.0554,410.09Z"/><path class="ak" d="M1131.5582,369.1127c-17.2276,10.669-27.7677,9.5531-36.0245-3.7255-8.2208-13.2211-4.5425-23.1419,12.6842-33.8109,17.2284-10.6689,27.7685-9.5531,35.9893,3.668C1152.4632,348.523,1148.7858,358.4438,1131.5582,369.1127Zm-15.9047-25.58c-9.6708,5.989-11.7367,9.657-8.5918,14.7149s7.3557,4.84,17.0265-1.1494,11.7719-9.5995,8.591-14.7149S1125.3235,337.5439,1115.6535,343.533Z"/><path class="ak" d="M1118.66,305.9038l-35.656,32.8917c-1.8263,1.6854-3.1887,1.6527-4.61.1082l-10.8623-11.8054c-9.5316-10.3615-9.5548-20.2865-.0867-29.02,9.5239-8.7852,19.3-7.95,28.8784,2.461l3.7573,4.0847,9.4131-8.683c1.7713-1.6347,3.1431-1.7017,4.6086-.1082l5.0416,5.48C1120.5662,302.8569,1120.4872,304.2184,1118.66,305.9038Zm-31.9872,3.17c-3.1629-3.4378-6.3816-3.5985-9.6484-.585s-3.3691,6.239-.2079,9.6759l3.942,4.2848,9.8546-9.0918Z"/><path class="ak" d="M1065.3521,254.3113,1039.04,295.1094c-1.3486,2.09-2.6732,2.3967-4.4282,1.2507l-6.2313-4.0648c-1.8125-1.1829-2.0178-2.4869-.6692-4.5777l9.438-14.6342-11.9506-7.7973L1015.76,279.92c-1.35,2.09-2.6724,2.3966-4.4291,1.2507l-6.2305-4.0657c-1.7566-1.1451-2.0178-2.486-.67-4.5768l26.3134-40.7973c1.3478-2.0908,2.6732-2.3975,4.4282-1.2516l6.2313,4.0658c1.7558,1.145,2.017,2.486.6692,4.5768l-9.56,14.824,11.9506,7.7982,9.56-14.8241c1.35-2.0908,2.6166-2.4335,4.4291-1.2507l6.2313,4.0649C1066.4388,250.88,1066.7008,252.2213,1065.3521,254.3113Z"/><path class="ak" d="M1007.0619,246.4908c-7.4262,18.9-16.5077,24.2827-30.9881,18.468-14.4169-5.7889-17.3693-16.0043-9.944-34.9052,7.4271-18.9,16.5086-24.2827,30.9255-18.4929C1011.5348,217.3745,1014.4881,227.59,1007.0619,246.4908ZM979.168,235.2893c-4.168,10.61-3.6414,14.8077,1.8752,17.0231s8.75-.4725,12.9179-11.0822,3.7049-14.7828-1.8752-17.0231C986.5074,221.9668,983.3359,224.68,979.168,235.2893Z"/><path class="ak" d="M959.201,203.07l-8.9277,47.866c-.4579,2.4525-1.5643,3.2377-3.6165,2.8365l-15.6873-3.065c-13.7683-2.6912-19.6844-10.7033-17.3126-23.4133,2.3837-12.7839,10.687-17.94,24.5214-15.2363l5.4281,1.06,2.3563-12.6353c.4441-2.3786,1.4982-3.25,3.6165-2.8373l7.281,1.4234C958.9132,199.4692,959.66,200.6168,959.201,203.07Zm-23.6581,21.6455c-4.5674-.8926-7.2338.8976-8.0516,5.2829s1.0162,7.0542,5.5836,7.9468l5.6919,1.1124,2.4679-13.23Z"/><path class="ak" d="M889.8819,211.6449l.1649,6.8137c.0576,2.4224-.8607,3.4214-3.0151,3.4558l-17.7713.2792c-2.1536.0343-3.053-.9363-3.1114-3.3588l-.1632-6.8145c-.0567-2.3469.7929-3.4206,2.9464-3.4541l17.7713-.28C888.8571,208.2526,889.8252,209.2972,889.8819,211.6449Z"/><path class="ak" d="M832.4412,197.2229l11.71,47.43c.6,2.431-.079,3.6079-2.1054,4.0941l-7.1908,1.7266c-2.0909.5025-3.1767-.2508-3.7771-2.681l-4.2-17.0137-13.7907,3.3115,4.2,17.0129c.6,2.43-.079,3.6078-2.1045,4.094l-7.19,1.7266c-2.0273.4862-3.1775-.2516-3.7771-2.6827l-11.711-47.43c-.5995-2.4311.0791-3.6079,2.1055-4.0941l7.19-1.7266c2.0255-.4862,3.1775.2508,3.7779,2.6818l4.2539,17.2336,13.7914-3.3107-4.2547-17.2344c-.6-2.43.0129-3.5924,2.1046-4.0941l7.1891-1.7266C830.6889,194.0548,831.8416,194.7927,832.4412,197.2229Z"/><path class="ak" d="M787.12,234.2894c8.6589,18.5023,6.3825,28.8466-7.69,35.3674-14.0114,6.4933-23.4331,1.5685-32.0928-16.9338s-6.3843-28.8466,7.6289-35.339C769.039,210.8632,778.46,215.787,787.12,234.2894ZM760.009,246.8508c4.86,10.3863,8.2646,12.91,13.6266,10.4258s5.612-6.7011.7508-17.0875-8.2053-12.9368-13.6257-10.425C755.3377,232.2767,755.1487,236.4653,760.009,246.8508Z"/><path class="ak" d="M723.0405,239.0681,751.6869,278.73c1.4672,2.0333,1.2834,3.3828-.4037,4.6L738.38,292.6311c-11.3244,8.1641-21.1627,6.9211-28.7693-3.61-7.65-10.5934-5.74-20.2126,5.6386-28.4154l4.4643-3.2178-7.5611-10.47c-1.4242-1.9715-1.3383-3.3433.4029-4.5992l5.9891-4.3174C720.2323,236.7848,721.5724,237.0357,723.0405,239.0681Zm-.4029,32.226c-3.7565,2.7084-4.2728,5.89-1.6485,9.5239s5.8095,4.1464,9.5669,1.4388l4.6816-3.3751L727.32,267.919Z"/><path class="ak" d="M666.0207,285.5151l37.5046,31.3841c1.9225,1.6089,2.0789,2.9645.7491,4.5657l-4.72,5.68c-1.3718,1.6527-2.6878,1.69-4.6095.0824L681.4916,315.97l-9.0532,10.8966,13.4531,11.2574c1.9216,1.6073,2.0771,2.9645.7482,4.5649l-4.7212,5.6806c-1.3289,1.6-2.687,1.6906-4.61.0816l-37.5037-31.3841c-1.9225-1.6081-2.08-2.9653-.7491-4.5657l4.72-5.6806c1.33-1.6,2.6879-1.69,4.6086-.0816l13.6283,11.4034,9.054-10.8958L657.4392,295.843c-1.9217-1.6081-2.121-2.9138-.7482-4.5657l4.72-5.68C662.74,283.9963,664.0982,283.907,666.0207,285.5151Z"/><path class="ak" d="M651.7989,342.5176c17.913,9.7825,22.2459,19.5014,14.8884,33.1726-7.3257,13.6128-17.7739,15.2579-35.6861,5.4737s-22.2459-19.5023-14.92-33.1142C623.4385,334.3784,633.8875,332.7334,651.7989,342.5176ZM637.626,368.8542c10.0547,5.4917,14.2725,5.4985,17.0755.29s.4956-8.7654-9.5583-14.2571c-10.0556-5.4917-14.2416-5.5579-17.0764-.29S627.5712,363.3625,637.626,368.8542Z"/><path class="ak" d="M603.4552,384.7881l46.4908,14.8034c2.382.7593,3.0417,1.9577,2.425,3.9506l-4.72,15.2346c-4.1413,13.3706-12.7178,18.267-25.0627,14.3353-12.417-3.9532-16.6382-12.8543-12.4755-26.2885l1.6322-5.2718-12.2728-3.9076c-2.309-.7353-3.0624-1.8933-2.4241-3.95l2.19-7.0714C599.855,384.6309,601.0731,384.0287,603.4552,384.7881Zm18.9215,26.2231c-1.3744,4.4351.1143,7.31,4.3741,8.6666s7.1015-.14,8.4759-4.5751l1.7129-5.5286-12.85-4.0915Z"/><path class="ak" d="M585.8277,456.4592l48.6122,2.7952c2.49.1434,3.4266,1.1433,3.3244,3.2316l-.3643,7.409c-.1048,2.1561-1.13,2.9756-3.6207,2.8322l-17.4372-1.0025-.6966,14.2142,17.4371,1.0024c2.4912.1426,3.4258,1.1434,3.3236,3.2308l-.3625,7.41c-.1023,2.0891-1.13,2.9756-3.6208,2.8321l-48.613-2.7952c-2.49-.1435-3.4257-1.1425-3.3235-3.2316l.3634-7.41c.1022-2.0883,1.13-2.9748,3.6207-2.8313l17.6627,1.0153.6966-14.2132L585.168,469.932c-2.492-.1435-3.43-1.0755-3.3244-3.2317l.3634-7.409C582.3092,457.2031,583.3366,456.3157,585.8277,456.4592Z"/><path class="ak" d="M608.5543,510.9371c20.1035-2.86,29.3611,2.3734,31.6745,17.8048,2.3039,15.3652-5.03,22.958-25.1331,25.8186s-29.36-2.3744-31.6637-17.7387C581.1186,521.39,588.452,513.7967,608.5543,510.9371Zm4.4583,29.7279c11.284-1.6055,14.6453-4.13,13.764-10.0092s-4.844-7.3618-16.128-5.7572-14.6565,4.064-13.7657,10.0093C597.7754,540.854,601.7277,542.2705,613.0126,540.665Z"/><path class="ak" d="M595.3267,573.9733l45.8564-15.9441c2.35-.817,3.5924-.2457,4.2908,1.7309l5.3422,15.1126c4.6894,13.2632.7869,22.3533-11.39,26.5866-12.2487,4.2581-20.9265-.3857-25.6382-13.7125L611.94,582.518l-12.1053,4.2092c-2.2789.792-3.5692.3092-4.2886-1.731l-2.48-7.0147C592.3666,576.0049,592.9765,574.79,595.3267,573.9733Zm30.7292,9.7954c1.5557,4.399,4.4574,5.825,8.6589,4.3638s5.5707-4.3715,4.015-8.7714l-1.9379-5.4831-12.6757,4.4059Z"/><path class="ak" d="M638.1723,629.8755l5.7846-3.5366c2.0565-1.2576,3.3888-.9612,4.5219.8848l9.3512,15.2252c1.133,1.846.7577,3.1062-1.2988,4.3638l-5.7829,3.5366c-1.9929,1.2181-3.3536,1.0188-4.4875-.8273L636.91,634.296C635.7765,632.4508,636.1811,631.0936,638.1723,629.8755Z"/><path class="w" d="M804.02,670.3106c-6.3591,4.36-13.1209,6.7039-20.1287,6.7039-32.8192,0-60.1486-51.3173-65.9815-119.1189-55.7031-38.6668-86.9112-86.7917-71.2624-113.8823,10.6364-18.4087,40.4422-22.9438,77.692-14.9029,21.2877-82.8237,84.9867-142.9426,160.2471-142.9426,75.0069,0,138.5119,59.7011,160.0085,142.0623,37.9659-8.4881,68.4579-4.0875,79.2285,14.5747,15.7682,27.3147-16.0366,75.9465-72.5155,114.7627-5.7135,67.9656-32.76,119.447-65.28,119.447-6.907,0-13.5752-2.3272-19.8556-6.6533"/><path class="w" d="M965.8982,667.7761c-9.9231,14.36-21.6972,22.6645-34.3206,22.6645a30.9481,30.9481,0,0,1-14.5748-3.7892c-.6116-.3282-1.2233-.6713-1.82-1.0442-.5073.6115-1.0144,1.2084-1.5366,1.79-8.5329,9.5922-18.14,14.9775-28.314,14.9775-10.04,0-19.5274-5.2511-27.9709-14.6046-.6414-.7011-1.2679-1.4171-1.88-2.163-.7609.4625-1.5067.895-2.2824,1.2829a30.6858,30.6858,0,0,1-14.1123,3.5505c-12.8144,0-24.7487-8.5629-34.7734-23.3166"/><path class="al" d="M804.02,670.3106c-6.3591,4.36-13.1209,6.7039-20.1287,6.7039-32.8192,0-60.1486-51.3173-65.9815-119.1189-55.7031-38.6668-86.9112-86.7917-71.2624-113.8823,10.6364-18.4087,40.4422-22.9438,77.692-14.9029,21.2877-82.8237,84.9867-142.9426,160.2471-142.9426,75.0069,0,138.5119,59.7011,160.0085,142.0623,37.9659-8.4881,68.4579-4.0875,79.2285,14.5747,15.7682,27.3147-16.0366,75.9465-72.5155,114.7627-5.7135,67.9656-32.76,119.447-65.28,119.447-6.907,0-13.5752-2.3272-19.8556-6.6533"/><path class="al" d="M965.8982,667.7761c-9.9231,14.36-21.6972,22.6645-34.3206,22.6645a30.9481,30.9481,0,0,1-14.5748-3.7892c-.6116-.3282-1.2233-.6713-1.82-1.0442-.5073.6115-1.0144,1.2084-1.5366,1.79-8.5329,9.5922-18.14,14.9775-28.314,14.9775-10.04,0-19.5274-5.2511-27.9709-14.6046-.6414-.7011-1.2679-1.4171-1.88-2.163-.7609.4625-1.5067.895-2.2824,1.2829a30.6858,30.6858,0,0,1-14.1123,3.5505c-12.8144,0-24.7487-8.5629-34.7734-23.3166"/><path class="w" d="M804.02,670.3106c-6.3591,4.36-13.1209,6.7039-20.1287,6.7039-32.8192,0-60.1486-51.3173-65.9815-119.1189-55.7031-38.6668-86.9112-86.7917-71.2624-113.8823,10.6364-18.4087,40.4422-22.9438,77.692-14.9029,21.2877-82.8237,84.9867-142.9426,160.2471-142.9426,75.0069,0,138.5119,59.7011,160.0085,142.0623,37.9659-8.4881,68.4579-4.0875,79.2285,14.5747,15.7682,27.3147-16.0366,75.9465-72.5155,114.7627-5.7135,67.9656-32.76,119.447-65.28,119.447-6.907,0-13.5752-2.3272-19.8556-6.6533"/><path class="w" d="M965.8982,667.7761c-9.9231,14.36-21.6972,22.6645-34.3206,22.6645a30.9481,30.9481,0,0,1-14.5748-3.7892c-.6116-.3282-1.2233-.6713-1.82-1.0442-.5073.6115-1.0144,1.2084-1.5366,1.79-8.5329,9.5922-18.14,14.9775-28.314,14.9775-10.04,0-19.5274-5.2511-27.9709-14.6046-.6414-.7011-1.2679-1.4171-1.88-2.163-.7609.4625-1.5067.895-2.2824,1.2829a30.6858,30.6858,0,0,1-14.1123,3.5505c-12.8144,0-24.7487-8.5629-34.7734-23.3166"/><path class="am" d="M1051.31,557.57c-5.7176,67.96-32.7574,119.4452-65.2862,119.4452-6.9052,0-13.5728-2.3309-19.8534-6.65h-2.1286c-9.5177,12.7634-20.6186,20.0732-32.4673,20.0732a31.031,31.031,0,0,1-14.5755-3.7824c-.607-.3342-1.2227-.6774-1.8121-1.0467-.51.6069-1.02,1.2052-1.5393,1.7856-8.5325,9.5967-18.138,14.98-28.3154,14.98-10.0365,0-19.5278-5.2516-27.9723-14.602-.6421-.7037-1.2666-1.4161-1.8824-2.1638-.7565.4574-1.5041.8972-2.2782,1.2842A30.7432,30.7432,0,0,1,839.09,690.438c-11.8663,0-22.976-7.3362-32.5112-20.1259h-2.56c-6.36,4.3628-13.124,6.7027-20.1259,6.7027-32.8191,0-60.1493-51.3178-65.9812-119.12-55.7071-38.6685-86.9165-86.7933-71.2678-113.8859,10.6435-18.4019,40.4455-22.9407,77.6979-14.901,21.2871-82.8173,84.9813-142.94,160.2426-142.94,75.0062,0,138.5156,59.7007,160.0137,142.0606,37.9651-8.4884,68.4531-4.09,79.2285,14.5755C1139.59,470.1166,1107.7824,518.7514,1051.31,557.57Z"/><path class="an" d="M804.02,670.3106c-6.3591,4.36-13.1209,6.7039-20.1287,6.7039-32.8192,0-60.1486-51.3173-65.9815-119.1189-55.7031-38.6668-86.9112-86.7917-71.2624-113.8823,10.6364-18.4087,40.4422-22.9438,77.692-14.9029,21.2877-82.8237,84.9867-142.9426,160.2471-142.9426,75.0069,0,138.5119,59.7011,160.0085,142.0623,37.9659-8.4881,68.4579-4.0875,79.2285,14.5747,15.7682,27.3147-16.0366,75.9465-72.5155,114.7627-5.7135,67.9656-32.76,119.447-65.28,119.447-6.907,0-13.5752-2.3272-19.8556-6.6533"/><path class="an" d="M965.8982,667.7761c-9.9231,14.36-21.6972,22.6645-34.3206,22.6645a30.9481,30.9481,0,0,1-14.5748-3.7892c-.6116-.3282-1.2233-.6713-1.82-1.0442-.5073.6115-1.0144,1.2084-1.5366,1.79-8.5329,9.5922-18.14,14.9775-28.314,14.9775-10.04,0-19.5274-5.2511-27.9709-14.6046-.6414-.7011-1.2679-1.4171-1.88-2.163-.7609.4625-1.5067.895-2.2824,1.2829a30.6858,30.6858,0,0,1-14.1123,3.5505c-12.8144,0-24.7487-8.5629-34.7734-23.3166"/><path class="ao" d="M889.9943,499.9233c-.97,1.6113-1.9692,3.1628-2.9836,4.6546-.6265-.4178-1.2382-.88-1.8647-1.3576C886.7869,502.176,888.3981,501.072,889.9943,499.9233Z"/><path class="ao" d="M889.9943,499.9233c-.97,1.6113-1.9692,3.1628-2.9836,4.6546-.6265-.4178-1.2382-.88-1.8647-1.3576C886.7869,502.176,888.3981,501.072,889.9943,499.9233Z"/><path class="ap" d="M920.0148,472.0719c0,19.5674-14.2355,35.43-31.7958,35.43s-31.7957-15.8624-31.7957-35.43l21.5612,2.8487a74.1368,74.1368,0,0,0,18.9846.0566Z"/><ellipse class="aq" cx="833.1139" cy="415.3842" rx="23.7777" ry="35.4298"/><ellipse class="ar" cx="830.2975" cy="395.6181" rx="10.0408" ry="11.1884"/><ellipse class="aq" cx="934.5551" cy="415.3842" rx="23.7777" ry="35.4298"/><ellipse class="ar" cx="931.7386" cy="395.6181" rx="10.0408" ry="11.1884"/></svg>