<svg xmlns="http://www.w3.org/2000/svg" xmlns:xlink="http://www.w3.org/1999/xlink" viewBox="0 0 400.9591 516.5032"><defs><style>.a,.ac,.ag,.o{fill:none;}.b{clip-path:url(#a);}.ak,.c,.q{fill:#95d9cc;}.aa,.ab,.ac,.ad,.ag,.ah,.ai,.aj,.c,.d,.e,.f,.g,.h,.i,.j,.k,.l,.m,.n,.o,.q,.r,.s,.t,.u,.v,.w,.x,.y,.z{stroke:#1d1f21;}.ab,.ac,.ad,.ae,.ag,.ah,.aj,.c,.d,.e,.f,.g,.h,.i,.j,.n,.o,.q,.r,.s,.t,.u,.v,.w,.x{stroke-miterlimit:10;}.c,.d,.e,.f,.g,.h,.i,.j,.k,.l,.m,.n,.o{stroke-width:0.1585px;}.ae,.ah,.d,.p,.r{fill:#fffdfa;}.e,.l,.s,.z{fill:#f86151;}.aa,.f,.m,.t{fill:#0eb495;}.g,.u{fill:#054b8c;}.h,.v{fill:#f8a75d;}.i,.w{fill:#ffd1a8;}.ad,.ai,.j,.x{fill:#ffc5bf;}.aa,.ai,.j,.k,.l,.m,.x,.y,.z{stroke-linecap:round;}.ab,.k,.n,.y{fill:#b9d9f6;}.aa,.ai,.k,.l,.m,.y,.z{stroke-linejoin:round;}.aa,.ab,.ac,.q,.r,.s,.t,.u,.v,.w,.x,.y,.z{stroke-width:0.3507px;}.ad{font-size:29.2017px;stroke-width:0.3241px;font-family:PuffinDisplaySoft-ExBd, Puffin Display Soft;}.ae{stroke:#95d9cc;stroke-width:15.2799px;}.af{fill:url(#b);}.ag,.ah,.ai,.aj{stroke-width:0.3396px;}.aj{fill:#1d1f21;}</style><clipPath id="a" transform="translate(0 -0.8086)"><rect class="a" x="15.0794" width="360" height="518"/></clipPath><radialGradient id="b" cx="183.1527" cy="213.5536" r="156.9971" gradientUnits="userSpaceOnUse"><stop offset="0" stop-color="#fffdfa" stop-opacity="0.5"/><stop offset="0.4637" stop-color="#fafcfe" stop-opacity="0.5338"/><stop offset="0.5022" stop-color="#f3f8fd" stop-opacity="0.5833"/><stop offset="0.6576" stop-color="#daebfa" stop-opacity="0.7626"/><stop offset="0.7978" stop-color="#c8e1f8" stop-opacity="0.8925"/><stop offset="0.9166" stop-color="#bddbf6" stop-opacity="0.9716"/><stop offset="1" stop-color="#b9d9f6"/></radialGradient></defs><title>landing-mobile</title><g class="b"><rect class="c" x="337.4903" y="456.8352" width="30.9162" height="24.3366" rx="4.2259" transform="translate(-7.8007 931.2252) rotate(-105.1144)"/><rect class="d" x="335.8234" y="456.1359" width="30.9162" height="24.3366" rx="4.2259" transform="translate(-9.2271 928.7342) rotate(-105.1144)"/><path class="e" d="M331.1335,467.7792H353.598a4.2259,4.2259,0,0,1,4.2259,4.2259v1.64a0,0,0,0,1,0,0H326.9076a0,0,0,0,1,0,0v-1.64a4.2259,4.2259,0,0,1,4.2259-4.2259Z" transform="matrix(-0.2607, -0.9654, 0.9654, -0.2607, -22.7924, 923.1628)"/><rect class="d" x="340.4432" y="475.828" width="1.9025" height="5.0734" rx="0.9513" transform="translate(-31.405 931.8728) rotate(-105.1144)"/><rect class="d" x="339.203" y="471.2362" width="1.9025" height="5.0734" rx="0.9513" transform="translate(-28.5355 924.8865) rotate(-105.1144)"/><rect class="d" x="337.9628" y="466.6444" width="1.9025" height="5.0734" rx="0.9513" transform="translate(-25.6657 917.9004) rotate(-105.1144)"/><rect class="d" x="336.7226" y="462.0526" width="1.9025" height="5.0734" rx="0.9513" transform="translate(-22.7963 910.914) rotate(-105.1144)"/><path class="f" d="M359.5052,472.5551c-.9821-3.5891-3.644-5.988-5.9455-5.3582s-3.3709,4.05-2.3888,7.6389Z" transform="translate(0 -0.8086)"/><circle class="f" cx="352.9037" cy="463.773" r="3.4087"/><rect class="c" x="114.9163" y="396.6909" width="30.9162" height="24.3366" rx="4.2259" transform="translate(-102.0988 47.3298) rotate(-15.1144)"/><rect class="d" x="113.1667" y="395.6854" width="30.9162" height="24.3366" rx="4.2259" transform="translate(-101.8972 46.8388) rotate(-15.1144)"/><path class="e" d="M114.9845,396.0049H137.449a4.2259,4.2259,0,0,1,4.2259,4.2259v1.64a0,0,0,0,1,0,0H110.7586a0,0,0,0,1,0,0v-1.64A4.2259,4.2259,0,0,1,114.9845,396.0049Z" transform="translate(-99.6557 45.9025) rotate(-15.1144)"/><rect class="d" x="117.613" y="395.43" width="1.9025" height="5.0734" rx="0.9513" transform="translate(-99.6674 43.8736) rotate(-15.1144)"/><rect class="d" x="122.2048" y="394.1898" width="1.9025" height="5.0734" rx="0.9513" transform="translate(-99.1848 45.0278) rotate(-15.1144)"/><rect class="d" x="126.7966" y="392.9496" width="1.9025" height="5.0734" rx="0.9513" transform="translate(-98.703 46.1824) rotate(-15.1144)"/><rect class="d" x="131.3884" y="391.7094" width="1.9025" height="5.0734" rx="0.9513" transform="translate(-98.2203 47.3365) rotate(-15.1144)"/><circle class="g" cx="121.0011" cy="407.4631" r="2.9737"/><circle class="h" cx="128.2117" cy="405.5156" r="2.9737"/><circle class="e" cx="122.9125" cy="414.5401" r="2.9737"/><circle class="g" cx="130.1231" cy="412.5926" r="2.9737"/><circle class="f" cx="135.4222" cy="403.5681" r="2.9737"/><circle class="h" cx="137.3337" cy="410.6451" r="2.9737"/><rect class="c" x="30.0003" y="463.6513" width="30.9162" height="24.3366" rx="4.2259" transform="translate(-402.0481 642.9655) rotate(-105.1144)"/><rect class="d" x="28.2921" y="462.7989" width="30.9162" height="24.3366" rx="4.2259" transform="translate(-403.3788 640.2416) rotate(-105.1144)"/><path class="e" d="M32.5815,459.9424H48.3871a4.2259,4.2259,0,0,1,4.2259,4.2259v1.64a0,0,0,0,1,0,0H28.3556a0,0,0,0,1,0,0v-1.64A4.2259,4.2259,0,0,1,32.5815,459.9424Z" transform="translate(-119.2929 25.7598) rotate(-15.1144)"/><rect class="g" x="47.9372" y="475.9784" width="1.9025" height="14.7446" rx="0.9513" transform="matrix(-0.2607, -0.9654, 0.9654, -0.2607, -404.9943, 655.7716)"/><rect class="g" x="46.697" y="471.3866" width="1.9025" height="14.7446" rx="0.9513" transform="translate(-402.1251 648.785) rotate(-105.1144)"/><rect class="g" x="45.4568" y="466.7948" width="1.9025" height="14.7446" rx="0.9513" transform="translate(-399.2556 641.7988) rotate(-105.1144)"/><rect class="g" x="44.2166" y="462.203" width="1.9025" height="14.7446" rx="0.9513" transform="translate(-396.3861 634.8127) rotate(-105.1144)"/><rect class="f" x="37.7028" y="485.1665" width="1.9025" height="2.0611" rx="0.872" transform="matrix(-0.2607, -0.9654, 0.9654, -0.2607, -420.6451, 649.4799)"/><rect class="f" x="36.4626" y="480.5747" width="1.9025" height="2.0611" rx="0.872" transform="translate(-417.7757 642.4935) rotate(-105.1144)"/><rect class="f" x="35.2224" y="475.9829" width="1.9025" height="2.0611" rx="0.872" transform="translate(-414.9063 635.5071) rotate(-105.1144)"/><rect class="f" x="33.9822" y="471.3911" width="1.9025" height="2.0611" rx="0.872" transform="translate(-412.037 628.5207) rotate(-105.1144)"/><circle class="f" cx="50.8758" cy="458.4564" r="4.2639"/><polygon class="d" points="53.758 456.49 51.876 459.766 51.3 460.767 50.3 460.192 47.632 458.659 48.207 457.658 50.874 459.191 52.757 455.915 53.758 456.49"/><rect class="c" x="57.6099" y="29.1447" width="30.9162" height="24.3366" rx="4.2259" transform="translate(-8.2446 19.6728) rotate(-15.1144)"/><rect class="d" x="55.7899" y="28.4867" width="30.9162" height="24.3366" rx="4.2259" transform="translate(-8.136 19.1755) rotate(-15.1144)"/><circle class="f" cx="55.3173" cy="32.2428" r="4.2639"/><path class="d" d="M57.3361,35.0536a2.7931,2.7931,0,0,1-1.1182.59,2.7581,2.7581,0,0,1-3.0416-1.0793l-.5881.1589-.07-.69.3413-.0922a2.1066,2.1066,0,0,1-.0642-.2085c-.0215-.08-.0431-.16-.0574-.2416l-.4429.12-.0695-.69.4865-.1314A2.7869,2.7869,0,0,1,54.8193,30.35a2.966,2.966,0,0,1,1.1551-.0782l.1006.9777a2.0224,2.0224,0,0,0-1.0013.0134,1.7821,1.7821,0,0,0-1.2794,1.2336l2.3307-.6295.0768.6882L53.74,33.22c.0143.0818.0286.1637.05.2436a1.95,1.95,0,0,0,.0714.2066l2.3741-.6413.0769.6882-2.062.557a1.8013,1.8013,0,0,0,1.7614.4356,2.1454,2.1454,0,0,0,.9294-.5392Z" transform="translate(0 -0.8086)"/><rect class="i" x="74.8544" y="26.1395" width="1.9025" height="14.7447" rx="0.9513" transform="translate(63.2193 114.6247) rotate(-105.1144)"/><rect class="i" x="73.9449" y="22.7722" width="1.9025" height="14.7446" rx="0.9513" transform="translate(65.3235 109.5013) rotate(-105.1144)"/><rect class="i" x="77.4475" y="30.7961" width="1.9025" height="11.2567" rx="0.9513" transform="translate(63.6767 120.8001) rotate(-105.1144)"/><path class="j" d="M87.4562,40.522l-.0014,0a6.5511,6.5511,0,0,0-5.1617-.7978l-.0014,0,1.6263,6.3364,3.505-5.4643.0214-.0483" transform="translate(0 -0.8086)"/><path class="k" d="M90.1927,44.02,83.918,46.0614l3.505-5.4643.0332-.0751A6.5365,6.5365,0,0,1,90.1927,44.02Z" transform="translate(0 -0.8086)"/><path class="l" d="M90.2836,47.8512a6.5713,6.5713,0,1,1-8.0419-8.1127l.05-.0135,1.6263,6.3364Z" transform="translate(0 -0.8086)"/><path class="m" d="M90.2981,44.37a6.5382,6.5382,0,0,1-.0145,3.4815l-6.3656-1.79L90.1927,44.02l.0018.0011,0,.0048C90.2325,44.1384,90.2668,44.2537,90.2981,44.37Z" transform="translate(0 -0.8086)"/><circle class="f" cx="61.3195" cy="42.2982" r="2.9737"/><circle class="h" cx="63.226" cy="49.3569" r="2.9737"/><circle class="e" cx="68.5245" cy="40.3367" r="2.9737"/><circle class="g" cx="70.4359" cy="47.4138" r="2.9737"/><path class="d" d="M62.8235,43.0785l-1.0447.2821.3,1.11-.74.2-.3-1.11-1.0328.2789-.19-.7044,1.0329-.2789-.3-1.11.74-.2.3,1.11,1.0446-.2821Z" transform="translate(0 -0.8086)"/><path class="d" d="M68.8521,47.7007l2.6626-.7192.1725.6387-2.6626.7191Zm.3321,1.23,2.6626-.7192.1725.6387-2.6625.7192Z" transform="translate(0 -0.8086)"/><path class="d" d="M62.4415,49.407a.56.56,0,1,1,.6834.3726A.544.544,0,0,1,62.4415,49.407Zm.4885,1.8089a.56.56,0,1,1,.6835.3726A.5443.5443,0,0,1,62.93,51.2159Z" transform="translate(0 -0.8086)"/><path class="d" d="M67.097,40.9392l2.4863-.6715.281,1.0405L67.378,41.98Z" transform="translate(0 -0.8086)"/><rect class="c" x="36.9884" y="233.871" width="30.9162" height="24.3366" rx="4.2259" transform="matrix(0.9654, -0.2607, 0.2607, 0.9654, -62.3397, 21.3779)"/><path class="i" d="M63.4788,233.6823l4.1423,15.3367A4.2248,4.2248,0,0,1,64.6437,254.2l-21.6886,5.8579a4.2249,4.2249,0,0,1-5.1808-2.9773L33.632,241.7436a4.2248,4.2248,0,0,1,2.9774-5.1807l.3291-.0889a5.0314,5.0314,0,0,0,.1121,2.1178.8208.8208,0,0,0,1.0051.5776l24.8677-6.7166A4.16,4.16,0,0,1,63.4788,233.6823Z" transform="translate(0 -0.8086)"/><path class="c" d="M36.9385,236.474l4.2856-1.1575a5.0325,5.0325,0,0,0,.1122,2.1177.8206.8206,0,0,0,1.0051.5776l-4.2857,1.1576a.8208.8208,0,0,1-1.0051-.5776,5.0314,5.0314,0,0,1-.1121-2.1178" transform="translate(0 -0.8086)"/><path class="e" d="M46.9332,236.7716l-4.5918,1.24a.8206.8206,0,0,1-1.0051-.5776,5.0325,5.0325,0,0,1-.1122-2.1177l4.5919-1.24a5.0308,5.0308,0,0,0,.1121,2.1177A.8206.8206,0,0,0,46.9332,236.7716Z" transform="translate(0 -0.8086)"/><path class="f" d="M51.525,235.5314l-4.5918,1.24a.8206.8206,0,0,1-1.0051-.5776,5.0308,5.0308,0,0,1-.1121-2.1177l4.5918-1.24a5.0308,5.0308,0,0,0,.1121,2.1177A.8207.8207,0,0,0,51.525,235.5314Z" transform="translate(0 -0.8086)"/><path class="h" d="M56.4229,234.2086l-4.8979,1.3228a.8207.8207,0,0,1-1.0051-.5776,5.0308,5.0308,0,0,1-.1121-2.1177l4.8979-1.3229a5.0314,5.0314,0,0,0,.1121,2.1178A.8209.8209,0,0,0,56.4229,234.2086Z" transform="translate(0 -0.8086)"/><path class="g" d="M62.9234,232.4528l-6.5005,1.7558a.8209.8209,0,0,1-1.0051-.5776,5.0314,5.0314,0,0,1-.1121-2.1178l2.9923-.8082A4.225,4.225,0,0,1,62.9234,232.4528Z" transform="translate(0 -0.8086)"/><path class="c" d="M380.1865,207.2216l-6.5453-.2131a4.5548,4.5548,0,0,1-1.4271.6633L358.7808,211.3a4.6133,4.6133,0,0,1-5.657-3.25l-.7379-2.7318-2.1469.58a4.5541,4.5541,0,0,1-1.567.1454l-5.5481,3.4794,1.5526-6.5773c-.0349-.0963-.0654-.1957-.0929-.2976l-2.3443-8.68a4.6119,4.6119,0,0,1,3.25-5.6554l13.4333-3.6282a4.6135,4.6135,0,0,1,5.6571,3.25l.7378,2.7318,2.147-.58a4.6119,4.6119,0,0,1,5.6553,3.25l2.3444,8.68c.0275.1019.0512.203.07.3039Z" transform="translate(0 -0.8086)"/><path class="i" d="M362.9723,187.2932l2.3443,8.68a4.6133,4.6133,0,0,1-3.2518,5.6558l-13.4333,3.6282a4.5539,4.5539,0,0,1-1.567.1454l-5.548,3.4794,1.5526-6.5773c-.035-.0963-.0654-.1956-.0929-.2975l-2.3444-8.68a4.6119,4.6119,0,0,1,3.25-5.6553l13.4333-3.6282A4.6134,4.6134,0,0,1,362.9723,187.2932Z" transform="translate(0 -0.8086)"/><path class="n" d="M349.172,198.7291l2.3444,8.68a4.6132,4.6132,0,0,0,5.657,3.25l13.4333-3.6282a4.5548,4.5548,0,0,0,1.4271-.6633l6.5453.2131-4.6528-4.9012c-.0183-.1008-.042-.202-.07-.3039l-2.3444-8.68a4.6118,4.6118,0,0,0-5.6553-3.25l-13.4333,3.6282A4.6133,4.6133,0,0,0,349.172,198.7291Z" transform="translate(0 -0.8086)"/><circle class="d" cx="356.4548" cy="200.933" r="1.5725"/><circle class="d" cx="367.6942" cy="197.8974" r="1.5725"/><circle class="d" cx="362.0135" cy="199.4317" r="1.5725"/><path class="c" d="M292.2028,21.6866a6.5494,6.5494,0,0,1-7.0725,3.802L279.296,38.6361l-.6854,1.5451a4.8132,4.8132,0,0,1-6.3522,2.4467l-.85-.3763L263.46,44.5359a4.2253,4.2253,0,0,1-5.23-2.8923l-4.4124-15.3492a4.2247,4.2247,0,0,1,2.8938-5.23l10.3526-2.9761a4.1978,4.1978,0,0,1,2.228-.0307,6.5493,6.5493,0,0,1,7.5291-10.3615,6.4783,6.4783,0,0,1,2.1006,1.4848,5.7421,5.7421,0,0,1,7.4417,3.3018,6.5491,6.5491,0,0,1,5.84,9.2038Z" transform="translate(0 -0.8086)"/><line class="o" x1="273.6603" y1="20.8016" x2="269.6306" y2="29.8829"/><line class="o" x1="280.6776" y1="23.9155" x2="276.6479" y2="32.9968"/><line class="o" x1="277.2515" y1="22.3952" x2="273.2218" y2="31.4765"/><rect class="d" x="251.592" y="20.9877" width="24.4227" height="19.2251" rx="4.2259" transform="translate(307.2858 291.78) rotate(-106.0401)"/><path class="e" d="M248.6478,30.299H264.936a4.0672,4.0672,0,0,1,4.0672,4.0672v.5668a0,0,0,0,1,0,0H244.5805a0,0,0,0,1,0,0v-.5668A4.0672,4.0672,0,0,1,248.6478,30.299Z" transform="translate(296.3997 287.6143) rotate(-106.0401)"/><rect class="d" x="255.3709" y="36.669" width="1.5029" height="4.0078" rx="0.6596" transform="translate(289.7241 294.7012) rotate(-106.0401)"/><rect class="d" x="254.3327" y="33.0579" width="1.5029" height="4.0078" rx="0.6596" transform="translate(291.8695 289.0946) rotate(-106.0401)"/><rect class="d" x="253.2945" y="29.4468" width="1.5029" height="4.0078" rx="0.6596" transform="translate(294.0149 283.488) rotate(-106.0401)"/><rect class="d" x="252.2563" y="25.8358" width="1.5029" height="4.0078" rx="0.6596" transform="translate(296.1604 277.8813) rotate(-106.0401)"/><path class="d" d="M286.4336,20.0524l-7.7759,17.5235-15.0253-6.6674,7.7759-17.5235c.8648-1.949,3.5355-2.6544,5.966-1.5759l6.2248,2.7622C286.03,15.65,287.2985,18.1034,286.4336,20.0524Z" transform="translate(0 -0.8086)"/><path class="g" d="M278.6577,37.5759l-.685,1.5438a4.8137,4.8137,0,0,1-6.3529,2.4477l-6.2248-2.7622a4.8137,4.8137,0,0,1-2.4477-6.3529l.6851-1.5438Z" transform="translate(0 -0.8086)"/><path class="d" d="M271.5454,18.8632a6.6323,6.6323,0,0,1-.6755-.2567,6.5482,6.5482,0,1,1,9.1668-5.27" transform="translate(0 -0.8086)"/><path class="d" d="M280.6527,13.6532a6.5452,6.5452,0,1,1,1.52,9.91" transform="translate(0 -0.8086)"/><path class="d" d="M275.104,11.1475a5.7486,5.7486,0,1,1,10.509,4.6633" transform="translate(0 -0.8086)"/><rect class="p" x="279.6195" y="12.4531" width="2.8902" height="1.987" transform="translate(29.6116 -113.6534) rotate(23.9289)"/><line class="d" x1="273.0216" y1="19.7408" x2="268.9918" y2="28.8221"/><line class="d" x1="280.0389" y1="22.8547" x2="276.0092" y2="31.9359"/><line class="d" x1="276.6128" y1="21.3344" x2="272.5831" y2="30.4156"/><rect class="q" x="5.2602" y="345.1968" width="68.3907" height="53.8358" rx="9.3482" transform="translate(-309.4988 506.4245) rotate(-105.1144)"/><rect class="r" x="1.5727" y="343.6497" width="68.3907" height="53.8358" rx="9.3482" transform="translate(-312.6541 500.9142) rotate(-105.1144)"/><path class="s" d="M-8.8019,369.4062H40.8924a9.3482,9.3482,0,0,1,9.3482,9.3482v3.6285a0,0,0,0,1,0,0H-18.15a0,0,0,0,1,0,0v-3.6285A9.3482,9.3482,0,0,1-8.8019,369.4062Z" transform="translate(-342.6623 488.5895) rotate(-105.1144)"/><rect class="r" x="11.7922" y="387.2113" width="4.2087" height="11.2231" rx="2.1043" transform="translate(-361.7139 507.8576) rotate(-105.1144)"/><rect class="r" x="9.0488" y="377.0536" width="4.2087" height="11.2231" rx="2.1043" transform="translate(-355.3665 492.4026) rotate(-105.1144)"/><rect class="r" x="6.3053" y="366.896" width="4.2087" height="11.2231" rx="2.1043" transform="translate(-349.0191 476.9479) rotate(-105.1144)"/><rect class="r" x="3.5618" y="356.7383" width="4.2087" height="11.2231" rx="2.1043" transform="translate(-342.6716 461.4931) rotate(-105.1144)"/><path class="t" d="M53.96,379.9712c-2.1726-7.94-8.0611-13.2463-13.1522-11.8531s-7.457,8.9588-5.2843,16.8982Z" transform="translate(0 -0.8086)"/><circle class="t" cx="39.3565" cy="361.524" r="7.5405"/><rect class="q" x="37.6873" y="87.331" width="68.3907" height="53.8358" rx="9.3482" transform="matrix(0.9654, -0.2607, 0.2607, 0.9654, -27.3034, 21.8868)"/><rect class="r" x="33.817" y="85.1068" width="68.3907" height="53.8358" rx="9.3482" transform="translate(-26.8574 20.8007) rotate(-15.1144)"/><path class="s" d="M37.8383,85.8135H87.5326a9.3482,9.3482,0,0,1,9.3482,9.3482V98.79a0,0,0,0,1,0,0H28.49a0,0,0,0,1,0,0V95.1617A9.3482,9.3482,0,0,1,37.8383,85.8135Z" transform="translate(-21.899 18.7294) rotate(-15.1144)"/><rect class="r" x="43.6528" y="84.5416" width="4.2087" height="11.2231" rx="2.1043" transform="translate(-21.9243 14.2411) rotate(-15.1144)"/><rect class="r" x="53.8104" y="81.7981" width="4.2087" height="11.2231" rx="2.1043" transform="translate(-20.8576 16.7948) rotate(-15.1144)"/><rect class="r" x="63.9681" y="79.0546" width="4.2087" height="11.2231" rx="2.1043" transform="translate(-19.7908 19.3485) rotate(-15.1144)"/><rect class="r" x="74.1258" y="76.3112" width="4.2087" height="11.2231" rx="2.1043" transform="translate(-18.7241 21.9021) rotate(-15.1144)"/><circle class="u" cx="51.1477" cy="112.1405" r="6.5783"/><circle class="v" cx="67.0985" cy="107.8324" r="6.5783"/><circle class="s" cx="55.3761" cy="127.7959" r="6.5783"/><circle class="u" cx="71.3268" cy="123.4877" r="6.5783"/><circle class="t" cx="83.0492" cy="103.5242" r="6.5783"/><circle class="v" cx="87.2775" cy="119.1796" r="6.5783"/><rect class="q" x="145.207" y="20.1218" width="68.3907" height="53.8358" rx="9.3482" transform="translate(180.7686 231.6929) rotate(-105.1144)"/><rect class="r" x="141.4281" y="18.2361" width="68.3907" height="53.8358" rx="9.3482" transform="translate(177.8248 225.6673) rotate(-105.1144)"/><path class="s" d="M150.917,11.9171h34.964a9.3482,9.3482,0,0,1,9.3482,9.3482v3.6285a0,0,0,0,1,0,0h-53.66a0,0,0,0,1,0,0V21.2653A9.3482,9.3482,0,0,1,150.917,11.9171Z" transform="translate(1.0262 43.7376) rotate(-15.1144)"/><rect class="u" x="184.8857" y="47.391" width="4.2087" height="32.6171" rx="2.1043" transform="matrix(-0.2607, -0.9654, 0.9654, -0.2607, 174.2511, 260.0218)"/><rect class="u" x="182.1422" y="37.2333" width="4.2087" height="32.6171" rx="2.1043" transform="translate(180.5986 244.567) rotate(-105.1144)"/><rect class="u" x="179.3987" y="27.0756" width="4.2087" height="32.6171" rx="2.1043" transform="translate(186.946 229.1122) rotate(-105.1144)"/><rect class="u" x="176.6552" y="16.9179" width="4.2087" height="32.6171" rx="2.1043" transform="translate(193.2935 213.6573) rotate(-105.1144)"/><rect class="t" x="162.246" y="67.7163" width="4.2087" height="4.5594" rx="1.929" transform="translate(139.6295 246.1036) rotate(-105.1144)"/><rect class="t" x="159.5025" y="57.5586" width="4.2087" height="4.5594" rx="1.929" transform="translate(145.977 230.6487) rotate(-105.1144)"/><rect class="t" x="156.759" y="47.4009" width="4.2087" height="4.5594" rx="1.929" transform="matrix(-0.2607, -0.9654, 0.9654, -0.2607, 152.3244, 215.1939)"/><rect class="t" x="154.0155" y="37.2432" width="4.2087" height="4.5594" rx="1.929" transform="translate(158.6719 199.739) rotate(-105.1144)"/><circle class="t" cx="191.3864" cy="9.6101" r="9.4324"/><polygon class="r" points="197.763 5.261 193.598 12.508 192.324 14.72 190.113 13.449 184.211 10.058 185.481 7.843 191.383 11.235 195.548 3.988 197.763 5.261"/><rect class="q" x="105.7978" y="457.4272" width="68.3907" height="53.8358" rx="9.3482" transform="translate(-121.4488 52.4491) rotate(-15.1144)"/><rect class="r" x="101.7718" y="455.9716" width="68.3907" height="53.8358" rx="9.3482" transform="translate(-121.2085 51.349) rotate(-15.1144)"/><circle class="t" cx="100.7262" cy="465.2607" r="9.4324"/><path class="r" d="M105.1921,470.4985a6.1782,6.1782,0,0,1-2.4737,1.3057,6.1014,6.1014,0,0,1-6.7283-2.3876l-1.301.3514-.1539-1.5268.7549-.2039a4.6822,4.6822,0,0,1-.1419-.4613c-.0477-.1768-.0955-.3535-.1271-.5344l-.98.2646-.1538-1.5268,1.0762-.2907a6.1649,6.1649,0,0,1,4.6608-5.3948,6.5658,6.5658,0,0,1,2.5553-.173l.2225,2.1628a4.4749,4.4749,0,0,0-2.2151.03,3.9422,3.9422,0,0,0-2.83,2.7289l5.1558-1.3925.17,1.5224-5.445,1.4706c.0316.1809.0633.362.111.5388a4.3678,4.3678,0,0,0,.158.457l5.2519-1.4185.17,1.5224-4.5614,1.232a3.9849,3.9849,0,0,0,3.8966.9638,4.7483,4.7483,0,0,0,2.0559-1.1928Z" transform="translate(0 -0.8086)"/><rect class="w" x="143.9448" y="450.7793" width="4.2087" height="32.6171" rx="2.1043" transform="translate(-266.7988 729.0681) rotate(-105.1144)"/><rect class="w" x="141.9329" y="443.3304" width="4.2087" height="32.6171" rx="2.1043" transform="translate(-262.1441 717.7344) rotate(-105.1144)"/><rect class="w" x="149.6812" y="461.0803" width="4.2087" height="24.9012" rx="2.1043" transform="translate(-265.7869 742.7289) rotate(-105.1144)"/><path class="x" d="M171.8218,482.5952l-.0033.0009A14.4918,14.4918,0,0,0,160.4,480.8314l-.0032.0009,3.5976,14.0169,7.7535-12.0877.0474-.107" transform="translate(0 -0.8086)"/><path class="y" d="M177.8751,490.3334l-13.88,4.5158,7.7535-12.0877.0736-.1663A14.4592,14.4592,0,0,1,177.8751,490.3334Z" transform="translate(0 -0.8086)"/><path class="z" d="M178.0762,498.8086a14.5365,14.5365,0,1,1-17.79-17.9464l.1105-.03,3.5976,14.0169Z" transform="translate(0 -0.8086)"/><path class="aa" d="M178.1084,491.1069a14.4628,14.4628,0,0,1-.0322,7.7017l-14.0815-3.9594,13.88-4.5158.0041.0023-.0006.0106C177.9633,490.5954,178.0391,490.85,178.1084,491.1069Z" transform="translate(0 -0.8086)"/><circle class="t" cx="114.0039" cy="487.5047" r="6.5783"/><circle class="v" cx="118.2212" cy="503.1195" r="6.5783"/><circle class="s" cx="129.9423" cy="483.1656" r="6.5783"/><circle class="u" cx="134.1706" cy="498.8209" r="6.5783"/><path class="r" d="M117.3309,488.2506l-2.3109.6241.6634,2.4563-1.6374.4423-.6634-2.4563-2.2849.6171-.4208-1.5582,2.2848-.6171-.6634-2.4563,1.6374-.4422.6634,2.4562,2.3109-.6241Z" transform="translate(0 -0.8086)"/><path class="r" d="M130.667,498.4754l5.89-1.5908.3816,1.4129-5.89,1.5908Zm.7347,2.72,5.89-1.5908.3816,1.4129-5.89,1.5908Z" transform="translate(0 -0.8086)"/><path class="r" d="M116.4859,502.25a1.2387,1.2387,0,1,1,1.5119.8243A1.2036,1.2036,0,0,1,116.4859,502.25Zm1.0807,4.0014a1.2388,1.2388,0,1,1,1.5119.8243A1.2036,1.2036,0,0,1,117.5666,506.2515Z" transform="translate(0 -0.8086)"/><path class="r" d="M126.7844,483.5183l5.5-1.4856.6217,2.3018-5.5,1.4855Z" transform="translate(0 -0.8086)"/><rect class="q" x="280.3328" y="79.7596" width="68.3907" height="53.8358" rx="9.3482" transform="matrix(0.9654, -0.2607, 0.2607, 0.9654, -16.9354, 84.894)"/><path class="w" d="M338.9329,79.3422l9.1633,33.9266a9.3461,9.3461,0,0,1-6.5863,11.4606l-47.9781,12.9584a9.346,9.346,0,0,1-11.46-6.5863L272.908,97.1748a9.3461,9.3461,0,0,1,6.5863-11.4605l.728-.1966a11.1284,11.1284,0,0,0,.2481,4.6848,1.8155,1.8155,0,0,0,2.2233,1.2777l55.0106-14.8578A9.1933,9.1933,0,0,1,338.9329,79.3422Z" transform="translate(0 -0.8086)"/><path class="q" d="M280.2223,85.5177l9.4805-2.5606a11.1284,11.1284,0,0,0,.2481,4.6848,1.8155,1.8155,0,0,0,2.2233,1.2777L282.6937,91.48a1.8155,1.8155,0,0,1-2.2233-1.2777,11.1284,11.1284,0,0,1-.2481-4.6848" transform="translate(0 -0.8086)"/><path class="s" d="M302.3319,86.1761,292.1742,88.92a1.8155,1.8155,0,0,1-2.2233-1.2777,11.1284,11.1284,0,0,1-.2481-4.6848l10.1577-2.7435a11.1284,11.1284,0,0,0,.2481,4.6848A1.8155,1.8155,0,0,0,302.3319,86.1761Z" transform="translate(0 -0.8086)"/><path class="t" d="M312.49,83.4327l-10.1576,2.7434a1.8155,1.8155,0,0,1-2.2233-1.2777,11.1284,11.1284,0,0,1-.2481-4.6848L310.0181,77.47a11.1316,11.1316,0,0,0,.2481,4.6848A1.8157,1.8157,0,0,0,312.49,83.4327Z" transform="translate(0 -0.8086)"/><path class="v" d="M323.3244,80.5063,312.49,83.4327a1.8157,1.8157,0,0,1-2.2233-1.2778,11.1316,11.1316,0,0,1-.2481-4.6848l10.8349-2.9264a11.1284,11.1284,0,0,0,.2481,4.6848A1.8157,1.8157,0,0,0,323.3244,80.5063Z" transform="translate(0 -0.8086)"/><path class="u" d="M337.7043,76.6224l-14.38,3.8839a1.8157,1.8157,0,0,1-2.2233-1.2778,11.1284,11.1284,0,0,1-.2481-4.6848l6.6194-1.7878A9.3461,9.3461,0,0,1,337.7043,76.6224Z" transform="translate(0 -0.8086)"/><path class="q" d="M301.7408,477.5065l-14.4791-.4714a10.0789,10.0789,0,0,1-3.1569,1.4674l-29.7163,8.026a10.2053,10.2053,0,0,1-12.514-7.1886l-1.6322-6.043-4.7494,1.2828a10.0777,10.0777,0,0,1-3.4664.3215l-12.2729,7.6969,3.4345-14.55c-.0774-.2131-.1447-.4329-.2056-.6583l-5.186-19.201a10.2022,10.2022,0,0,1,7.19-12.51l29.7163-8.026a10.2053,10.2053,0,0,1,12.514,7.1886l1.6322,6.043,4.7494-1.2828a10.2022,10.2022,0,0,1,12.51,7.19l5.186,19.201c.0609.2255.1134.4492.1538.6723Z" transform="translate(0 -0.8086)"/><path class="w" d="M263.6606,433.4222l5.186,19.201a10.2054,10.2054,0,0,1-7.1933,12.5114l-29.7162,8.0261a10.0777,10.0777,0,0,1-3.4664.3215l-12.2729,7.6969,3.4345-14.55c-.0774-.213-.1447-.4328-.2056-.6582l-5.186-19.201a10.2022,10.2022,0,0,1,7.19-12.51l29.7163-8.026A10.2053,10.2053,0,0,1,263.6606,433.4222Z" transform="translate(0 -0.8086)"/><path class="ab" d="M233.1327,458.72l5.186,19.201a10.2054,10.2054,0,0,0,12.5141,7.1886l29.7162-8.0261a10.0764,10.0764,0,0,0,3.1569-1.4673l14.4791.4714-10.2926-10.8421c-.04-.2231-.0929-.4469-.1538-.6723l-5.186-19.201a10.2022,10.2022,0,0,0-12.51-7.19l-29.7162,8.0261A10.2053,10.2053,0,0,0,233.1327,458.72Z" transform="translate(0 -0.8086)"/><circle class="r" cx="249.2432" cy="464.5755" r="3.4786"/><circle class="r" cx="274.1063" cy="457.8602" r="3.4786"/><circle class="r" cx="261.5397" cy="461.2543" r="3.4786"/><path class="q" d="M399.5349,359.7166a14.4884,14.4884,0,0,1-15.6454,8.41l-12.9061,29.0838-1.5163,3.418a10.6471,10.6471,0,0,1-14.0518,5.4125l-1.88-.8325-17.584,5.0532a9.3469,9.3469,0,0,1-11.57-6.3982L314.6206,369.91a9.3454,9.3454,0,0,1,6.4016-11.5691l22.9012-6.5835a9.2871,9.2871,0,0,1,4.9287-.0679,14.488,14.488,0,0,1,16.6554-22.9211,14.3311,14.3311,0,0,1,4.6468,3.2846,12.7018,12.7018,0,0,1,16.4619,7.3041,14.487,14.487,0,0,1,12.9187,20.36Z" transform="translate(0 -0.8086)"/><line class="ac" x1="358.5164" y1="358.7389" x2="349.6021" y2="378.8279"/><line class="ac" x1="374.0397" y1="365.6273" x2="365.1254" y2="385.7162"/><line class="ac" x1="366.4607" y1="362.2641" x2="357.5464" y2="382.3531"/><rect class="r" x="309.6985" y="358.1705" width="54.0263" height="42.5284" rx="9.3482" transform="translate(65.0855 807.0705) rotate(-106.0401)"/><path class="s" d="M303.1855,378.7683h36.0318a8.9973,8.9973,0,0,1,8.9973,8.9973v1.2539a0,0,0,0,1,0,0H294.1882a0,0,0,0,1,0,0v-1.2539A8.9973,8.9973,0,0,1,303.1855,378.7683Z" transform="translate(41.0039 797.8554) rotate(-106.0401)"/><rect class="r" x="318.0579" y="392.8594" width="3.3247" height="8.8658" rx="1.459" transform="translate(26.2367 813.5326) rotate(-106.0401)"/><rect class="r" x="315.7613" y="384.8713" width="3.3247" height="8.8658" rx="1.459" transform="translate(30.9826 801.13) rotate(-106.0401)"/><rect class="r" x="313.4647" y="376.8831" width="3.3247" height="8.8658" rx="1.459" transform="translate(35.7286 788.7274) rotate(-106.0401)"/><rect class="r" x="311.1681" y="368.895" width="3.3247" height="8.8658" rx="1.459" transform="translate(40.4747 776.3249) rotate(-106.0401)"/><path class="r" d="M386.7727,356.1014l-17.2013,38.7643-33.2381-14.7492,17.2014-38.7642c1.9131-4.3114,7.8211-5.872,13.1976-3.4862l13.77,6.11C385.8789,346.3623,388.6858,351.79,386.7727,356.1014Z" transform="translate(0 -0.8086)"/><path class="u" d="M369.5714,394.8657l-1.5155,3.4151a10.6485,10.6485,0,0,1-14.0534,5.4146l-13.77-6.11a10.6485,10.6485,0,0,1-5.4146-14.0534l1.5154-3.4151Z" transform="translate(0 -0.8086)"/><path class="r" d="M353.838,353.4708a14.6422,14.6422,0,0,1-1.4942-.5679,14.4855,14.4855,0,1,1,20.2781-11.6586" transform="translate(0 -0.8086)"/><path class="r" d="M373.9846,341.9457a14.4789,14.4789,0,1,1,3.3627,21.9216" transform="translate(0 -0.8086)"/><path class="r" d="M361.71,336.4026a12.7167,12.7167,0,1,1,23.2474,10.3158" transform="translate(0 -0.8086)"/><rect class="p" x="371.6989" y="339.2908" width="6.3936" height="4.3956" transform="translate(170.7311 -123.5162) rotate(23.9289)"/><line class="r" x1="357.1035" y1="356.3922" x2="348.1892" y2="376.4812"/><line class="r" x1="372.6267" y1="363.2806" x2="363.7124" y2="383.3695"/><line class="r" x1="365.0477" y1="359.9174" x2="356.1334" y2="380.0064"/><text class="ad" transform="matrix(0.6192, 0.6459, -0.7176, 0.6904, 108.4219, 336.8732)">H</text><text class="ad" transform="matrix(0.732, 0.5135, -0.5684, 0.8184, 124.7354, 353.3766)">O</text><text class="ad" transform="matrix(0.8147, 0.3661, -0.4024, 0.9128, 143.9267, 366.3464)">P</text><text class="ad" transform="matrix(0.8524, 0.2637, -0.2874, 0.9563, 162.7708, 374.2577)"> </text><text class="ad" transform="matrix(0.8782, 0.1529, -0.163, 0.9862, 170.8269, 377.034)">H</text><text class="ad" transform="matrix(0.8897, -0.0194, 0.0301, 1.0008, 193.6255, 380.6531)">O</text><text class="ad" transform="matrix(0.8685, -0.188, 0.2188, 0.9785, 216.6805, 379.7415)">P</text><text class="ad" transform="matrix(0.8381, -0.2932, 0.3363, 0.9454, 236.4098, 374.9505)"> </text><text class="ad" transform="matrix(0.7926, -0.3991, 0.4545, 0.8952, 244.5324, 372.398)">H</text><text class="ad" transform="matrix(0.6986, -0.5468, 0.619, 0.7908, 264.9311, 361.7254)">O</text><text class="ad" transform="matrix(0.582, -0.67, 0.7559, 0.6608, 282.781, 347.2385)">P</text><text class="ad" transform="matrix(0.495, -0.7371, 0.8302, 0.5636, 295.7043, 331.5846)"> </text><text class="ad" transform="matrix(0.4262, -0.7794, 0.877, 0.4867, 300.0732, 325.1658)">-</text><text class="ad" transform="matrix(0.3538, -0.8154, 0.9167, 0.4056, 306.2448, 313.4597)"> </text><text class="ad" transform="matrix(0.2442, -0.8556, 0.9607, 0.2826, 309.911, 305.6978)">H</text><text class="ad" transform="matrix(0.0726, -0.8883, 0.9957, 0.09, 315.8928, 283.4159)">O</text><text class="ad" transform="matrix(-0.0974, -0.8873, 0.993, -0.1012, 317.3704, 260.3439)">P</text><text class="ad" transform="matrix(-0.2059, -0.8694, 0.9719, -0.2234, 314.6355, 240.107)"> </text><text class="ad" transform="matrix(-0.3171, -0.836, 0.9334, -0.3488, 312.9102, 231.6443)">H</text><text class="ad" transform="matrix(-0.4738, -0.759, 0.8457, -0.5257, 304.3491, 210.089)">O</text><text class="ad" transform="matrix(-0.6072, -0.6572, 0.7305, -0.6767, 291.7428, 190.6556)">P</text><text class="ad" transform="matrix(-0.6818, -0.5791, 0.6422, -0.7614, 277.5085, 175.985)"> </text><text class="ad" transform="matrix(-0.7497, -0.487, 0.5384, -0.8386, 271.1468, 170.2244)">H</text><text class="ad" transform="matrix(-0.8293, -0.3308, 0.3628, -0.9296, 251.466, 157.8741)">O</text><text class="ad" transform="matrix(-0.8753, -0.1691, 0.1812, -0.9829, 229.8887, 149.7018)">P</text><text class="ad" transform="matrix(-0.8884, -0.0629, 0.0621, -0.9985, 209.8258, 146.3298)"> </text><text class="ad" transform="matrix(-0.8898, 0.0162, -0.0265, -1.0008, 202.0768, 145.732)">-</text><text class="ad" transform="matrix(-0.8841, 0.0958, -0.1156, -0.9952, 188.8482, 146.1701)"> </text><text class="ad" transform="matrix(-0.8634, 0.2097, -0.243, -0.9729, 180.3038, 146.8214)">H</text><text class="ad" transform="matrix(-0.8043, 0.3753, -0.4279, -0.9081, 157.993, 152.6142)">O</text><text class="ad" transform="matrix(-0.7181, 0.521, -0.5902, -0.8125, 137.3409, 162.6998)">P</text><text class="ad" transform="matrix(-0.6488, 0.6051, -0.6839, -0.7354, 121.2293, 175.0113)"> </text><text class="ad" transform="matrix(-0.5651, 0.6844, -0.7718, -0.6419, 114.8265, 180.6061)">H</text><text class="ad" transform="matrix(-0.4184, 0.7837, -0.8817, -0.4779, 100.415, 198.6357)">O</text><text class="ad" transform="matrix(-0.2604, 0.8507, -0.9553, -0.3008, 89.9285, 219.163)">P</text><text class="ad" transform="matrix(-0.1539, 0.8771, -0.9839, -0.1813, 84.4596, 238.7735)"> </text><text class="ad" transform="matrix(-0.0408, 0.8906, -0.9979, -0.0542, 82.7229, 247.0892)">H</text><text class="ad" transform="matrix(0.1354, 0.8826, -0.9874, 0.144, 82.0241, 270.262)">O</text><text class="ad" transform="matrix(0.3012, 0.8418, -0.9401, 0.3309, 85.9495, 293.1128)">P</text><text class="ad" transform="matrix(0.4018, 0.7992, -0.8914, 0.4444, 93.3206, 312.2019)"> </text><text class="ad" transform="matrix(0.4712, 0.7606, -0.8475, 0.5229, 96.7943, 319.2173)">-</text><text class="ad" transform="matrix(0.5364, 0.7162, -0.7972, 0.5965, 103.9447, 330.3911)"> </text><path class="p" d="M168.2667,331.9066a13.6451,13.6451,0,0,1-7.77,2.5878c-12.6689,0-23.2185-19.8094-25.47-45.9821-21.5025-14.9261-33.5494-33.5032-27.5087-43.9607,4.1059-7.1061,15.6115-8.8568,29.9906-5.7528,8.2174-31.9715,32.8065-55.1785,61.8584-55.1785,28.954,0,53.4682,23.0457,61.7663,54.8387,14.6555-3.2766,26.426-1.5779,30.5837,5.6261,6.0868,10.5439-6.19,29.3167-27.9924,44.3005-2.2055,26.236-12.6458,46.1088-25.1994,46.1088a13.4212,13.4212,0,0,1-7.6647-2.5683" transform="translate(0 -0.8086)"/><path class="p" d="M230.7547,330.9282c-3.8305,5.5431-8.3754,8.7489-13.2483,8.7489a11.946,11.946,0,0,1-5.6262-1.4627c-.2361-.1267-.4722-.2591-.7025-.4031-.1958.2361-.3916.4665-.5931.691-3.2939,3.7028-7.0024,5.7817-10.93,5.7817-3.8755,0-7.5379-2.0271-10.7973-5.6377-.2476-.2706-.4894-.547-.7255-.835-.2937.1786-.5817.3455-.8811.4953a11.8452,11.8452,0,0,1-5.4476,1.37c-4.9466,0-9.5534-3.3054-13.4232-9.0006" transform="translate(0 -0.8086)"/><path class="ae" d="M168.2667,331.9066a13.6451,13.6451,0,0,1-7.77,2.5878c-12.6689,0-23.2185-19.8094-25.47-45.9821-21.5025-14.9261-33.5494-33.5032-27.5087-43.9607,4.1059-7.1061,15.6115-8.8568,29.9906-5.7528,8.2174-31.9715,32.8065-55.1785,61.8584-55.1785,28.954,0,53.4682,23.0457,61.7663,54.8387,14.6555-3.2766,26.426-1.5779,30.5837,5.6261,6.0868,10.5439-6.19,29.3167-27.9924,44.3005-2.2055,26.236-12.6458,46.1088-25.1994,46.1088a13.4212,13.4212,0,0,1-7.6647-2.5683" transform="translate(0 -0.8086)"/><path class="ae" d="M230.7547,330.9282c-3.8305,5.5431-8.3754,8.7489-13.2483,8.7489a11.946,11.946,0,0,1-5.6262-1.4627c-.2361-.1267-.4722-.2591-.7025-.4031-.1958.2361-.3916.4665-.5931.691-3.2939,3.7028-7.0024,5.7817-10.93,5.7817-3.8755,0-7.5379-2.0271-10.7973-5.6377-.2476-.2706-.4894-.547-.7255-.835-.2937.1786-.5817.3455-.8811.4953a11.8452,11.8452,0,0,1-5.4476,1.37c-4.9466,0-9.5534-3.3054-13.4232-9.0006" transform="translate(0 -0.8086)"/><path class="p" d="M168.2667,331.9066a13.6451,13.6451,0,0,1-7.77,2.5878c-12.6689,0-23.2185-19.8094-25.47-45.9821-21.5025-14.9261-33.5494-33.5032-27.5087-43.9607,4.1059-7.1061,15.6115-8.8568,29.9906-5.7528,8.2174-31.9715,32.8065-55.1785,61.8584-55.1785,28.954,0,53.4682,23.0457,61.7663,54.8387,14.6555-3.2766,26.426-1.5779,30.5837,5.6261,6.0868,10.5439-6.19,29.3167-27.9924,44.3005-2.2055,26.236-12.6458,46.1088-25.1994,46.1088a13.4212,13.4212,0,0,1-7.6647-2.5683" transform="translate(0 -0.8086)"/><path class="p" d="M230.7547,330.9282c-3.8305,5.5431-8.3754,8.7489-13.2483,8.7489a11.946,11.946,0,0,1-5.6262-1.4627c-.2361-.1267-.4722-.2591-.7025-.4031-.1958.2361-.3916.4665-.5931.691-3.2939,3.7028-7.0024,5.7817-10.93,5.7817-3.8755,0-7.5379-2.0271-10.7973-5.6377-.2476-.2706-.4894-.547-.7255-.835-.2937.1786-.5817.3455-.8811.4953a11.8452,11.8452,0,0,1-5.4476,1.37c-4.9466,0-9.5534-3.3054-13.4232-9.0006" transform="translate(0 -0.8086)"/><path class="af" d="M263.7253,288.3864c-2.2071,26.234-12.645,46.1081-25.2017,46.1081a13.438,13.438,0,0,1-7.6637-2.567h-.8217c-3.674,4.9269-7.9592,7.7486-12.533,7.7486a11.9779,11.9779,0,0,1-5.6264-1.46c-.2343-.129-.472-.2614-.7-.404-.197.2343-.3939.4652-.5942.6893-3.2937,3.7045-7.0017,5.7826-10.93,5.7826-3.8743,0-7.5381-2.0272-10.7978-5.6366-.2479-.2717-.489-.5467-.7267-.8353-.292.1766-.5806.3463-.8794.4957a11.8668,11.8668,0,0,1-5.4465,1.3684c-4.5806,0-8.8691-2.8319-12.55-7.769h-.9881a13.6389,13.6389,0,0,1-7.769,2.5874c-12.6688,0-23.2188-19.81-25.47-45.9824-21.504-14.9268-33.5514-33.5039-27.5107-43.9621,4.1086-7.1035,15.6127-8.8556,29.9929-5.7521,8.2172-31.969,32.8043-55.1776,61.8566-55.1776,28.9538,0,53.47,23.0456,61.7683,54.838,14.6552-3.2766,26.4241-1.5789,30.5837,5.6265C297.803,254.628,285.5247,273.4019,263.7253,288.3864Z" transform="translate(0 -0.8086)"/><path class="ag" d="M168.2667,331.9066a13.6451,13.6451,0,0,1-7.77,2.5878c-12.6689,0-23.2185-19.8094-25.47-45.9821-21.5025-14.9261-33.5494-33.5032-27.5087-43.9607,4.1059-7.1061,15.6115-8.8568,29.9906-5.7528,8.2174-31.9715,32.8065-55.1785,61.8584-55.1785,28.954,0,53.4682,23.0457,61.7663,54.8387,14.6555-3.2766,26.426-1.5779,30.5837,5.6261,6.0868,10.5439-6.19,29.3167-27.9924,44.3005-2.2055,26.236-12.6458,46.1088-25.1994,46.1088a13.4212,13.4212,0,0,1-7.6647-2.5683" transform="translate(0 -0.8086)"/><path class="ag" d="M230.7547,330.9282c-3.8305,5.5431-8.3754,8.7489-13.2483,8.7489a11.946,11.946,0,0,1-5.6262-1.4627c-.2361-.1267-.4722-.2591-.7025-.4031-.1958.2361-.3916.4665-.5931.691-3.2939,3.7028-7.0024,5.7817-10.93,5.7817-3.8755,0-7.5379-2.0271-10.7973-5.6377-.2476-.2706-.4894-.547-.7255-.835-.2937.1786-.5817.3455-.8811.4953a11.8452,11.8452,0,0,1-5.4476,1.37c-4.9466,0-9.5534-3.3054-13.4232-9.0006" transform="translate(0 -0.8086)"/><path class="ah" d="M201.4544,266.1339c-.3743.622-.76,1.2209-1.1517,1.7967-.2418-.1612-.478-.34-.72-.524C200.2163,267.0034,200.8383,266.5773,201.4544,266.1339Z" transform="translate(0 -0.8086)"/><path class="ah" d="M201.4544,266.1339c-.3743.622-.76,1.2209-1.1517,1.7967-.2418-.1612-.478-.34-.72-.524C200.2163,267.0034,200.8383,266.5773,201.4544,266.1339Z" transform="translate(0 -0.8086)"/><path class="ai" d="M213.0429,255.3827c0,7.5534-5.4951,13.6766-12.2737,13.6766s-12.2738-6.1232-12.2738-13.6766l8.323,1.1a28.6194,28.6194,0,0,0,7.3284.0218Z" transform="translate(0 -0.8086)"/><ellipse class="aj" cx="179.4976" cy="232.6916" rx="9.1786" ry="13.6766"/><ellipse class="ak" cx="178.4104" cy="225.0615" rx="3.8759" ry="4.3189"/><ellipse class="aj" cx="218.6557" cy="232.6916" rx="9.1786" ry="13.6766"/><ellipse class="ak" cx="217.5685" cy="225.0615" rx="3.8759" ry="4.3189"/></g></svg>