<svg xmlns="http://www.w3.org/2000/svg" xmlns:xlink="http://www.w3.org/1999/xlink" viewBox="0 0 1625.9353 1148.6162"><defs><style>.a,.ar,.l,.r,.x{fill:#95d9cc;}.a,.aa,.ab,.ac,.ad,.ae,.af,.ag,.ah,.ai,.aj,.ak,.an,.ao,.ap,.aq,.b,.c,.d,.e,.f,.g,.h,.i,.j,.k,.l,.m,.n,.o,.p,.q,.r,.s,.t,.u,.v,.x,.y,.z{stroke:#1d1f21;}.a,.aa,.ab,.ac,.ad,.ah,.ai,.aj,.ak,.al,.an,.ao,.aq,.b,.c,.d,.e,.i,.j,.k,.l,.m,.n,.o,.p,.q,.r,.s,.t,.u,.v,.x,.y,.z{stroke-miterlimit:10;}.a,.b,.c,.d,.e,.f,.g,.h,.i,.j,.k,.v{stroke-width:0.5237px;}.al,.ao,.b,.m,.u,.w,.y{fill:#fffdfa;}.aa,.ag,.c,.h,.q{fill:#0eb495;}.ac,.d,.s{fill:#ffd1a8;}.ad,.ak,.ap,.e{fill:#ffc5bf;}.ad,.ae,.af,.ag,.ap,.e,.f,.g,.h{stroke-linecap:round;}.ae,.ai,.f,.t{fill:#b9d9f6;}.ae,.af,.ag,.ap,.f,.g,.h{stroke-linejoin:round;}.af,.g,.j,.n,.z{fill:#f86151;}.ah,.i,.p{fill:#f8a75d;}.ab,.k,.o{fill:#054b8c;}.l,.m,.n,.o,.p,.q{stroke-width:0.5001px;}.r,.s,.t,.u{stroke-width:0.5716px;}.aj,.an,.v{fill:none;}.aa,.ab,.ac,.ad,.ae,.af,.ag,.ah,.ai,.aj,.x,.y,.z{stroke-width:1.4px;}.ak{stroke-width:0.9544px;}.al{stroke:#95d9cc;stroke-width:45px;}.am{fill:url(#a);}.aq{fill:#1d1f21;}</style><radialGradient id="a" cx="776.3854" cy="430.3449" r="462.362" gradientUnits="userSpaceOnUse"><stop offset="0" stop-color="#fffdfa" stop-opacity="0.5"/><stop offset="0.4637" stop-color="#fafcfe" stop-opacity="0.5338"/><stop offset="0.5022" stop-color="#f3f8fd" stop-opacity="0.5833"/><stop offset="0.6576" stop-color="#daebfa" stop-opacity="0.7626"/><stop offset="0.7978" stop-color="#c8e1f8" stop-opacity="0.8925"/><stop offset="0.9166" stop-color="#bddbf6" stop-opacity="0.9716"/><stop offset="1" stop-color="#b9d9f6"/></radialGradient></defs><title>landing-pc_2</title><rect class="a" x="695.4681" y="63.96" width="102.1157" height="80.3834" rx="9.7122" transform="translate(2.4529 224.5839) rotate(-17.1363)"/><rect class="b" x="689.3838" y="62" width="102.1157" height="80.3834" rx="9.7122" transform="translate(2.7603 222.7041) rotate(-17.1363)"/><circle class="c" cx="686.9694" cy="78.9491" r="14.0837"/><path class="b" d="M693.8667,85.3231a9.2245,9.2245,0,0,1-3.6225,2.0787,9.11,9.11,0,0,1-10.1656-3.2084l-1.9229.5929-.31-2.27,1.1157-.344a6.9565,6.9565,0,0,1-.236-.681c-.08-.2612-.1611-.5224-.2178-.7907l-1.4479.4464-.31-2.27,1.5906-.49a9.2053,9.2053,0,0,1,6.6707-8.2957,9.8029,9.8029,0,0,1,3.8038-.3927l.4461,3.2156a6.68,6.68,0,0,0-3.3038.1611,5.886,5.886,0,0,0-4.08,4.221l7.62-2.3495.3338,2.2628L681.7838,79.69c.0567.2683.1135.5368.194.7981a6.5631,6.5631,0,0,0,.26.6736L690,78.7687l.3338,2.2628L683.592,83.11a5.95,5.95,0,0,0,5.8653,1.2329,7.09,7.09,0,0,0,3.005-1.8882Z"/><rect class="d" x="751.5116" y="53.7308" width="6.284" height="48.7013" rx="2.1863" transform="translate(902.3934 822.2399) rotate(-107.1363)"/><rect class="d" x="748.117" y="42.7216" width="6.284" height="48.7012" rx="2.1863" transform="translate(908.5192 804.7429) rotate(-107.1363)"/><rect class="d" x="760.4108" y="68.8032" width="6.284" height="37.1806" rx="2.1863" transform="translate(905.0161 842.7998) rotate(-107.1363)"/><path class="e" d="M793.9283,99.8638l-.0048.0015a21.6381,21.6381,0,0,0-17.1312-2.0317l-.0048.0015,6.1067,20.7263,10.933-18.4456.065-.1622"/><path class="f" d="M803.3686,111.0917l-20.4744,7.47,10.933-18.4456.1011-.252A21.59,21.59,0,0,1,803.3686,111.0917Z"/><path class="g" d="M804.1152,123.7277a21.7048,21.7048,0,1,1-27.491-25.8423l.1633-.05,6.1067,20.7263Z"/><path class="h" d="M803.7575,112.2337a21.5951,21.5951,0,0,1,.3577,11.494l-21.221-5.1663,20.4744-7.47.0063.0033,0,.0159C803.5139,111.4781,803.6405,111.8544,803.7575,112.2337Z"/><circle class="c" cx="707.954" cy="111.442" r="9.8222"/><circle class="i" cx="715.0697" cy="134.5201" r="9.8222"/><circle class="j" cx="731.5086" cy="104.1276" r="9.8222"/><circle class="k" cx="738.6428" cy="127.2657" r="9.8222"/><path class="b" d="M712.9153,111.1732,709.5,112.2263l1.1193,3.63-2.42.7461-1.1193-3.63-3.3769,1.0412-.71-2.303L706.37,110.67l-1.1194-3.63,2.42-.7461,1.1193,3.63,3.4155-1.0531Z"/><path class="b" d="M733.3539,125.7281l8.7052-2.684.6438,2.0881-8.7051,2.6841Zm1.24,4.0205,8.7051-2.6841.6439,2.0882-8.7051,2.6841Z"/><path class="b" d="M712.3918,132.1077a1.85,1.85,0,1,1,2.2994,1.15A1.7972,1.7972,0,0,1,712.3918,132.1077Zm1.8234,5.914a1.85,1.85,0,1,1,2.2995,1.15A1.7974,1.7974,0,0,1,714.2152,138.0217Z"/><path class="b" d="M726.7724,103.6137l8.1289-2.5065,1.049,3.4019-8.129,2.5064Z"/><rect class="l" x="73.1396" y="214.1245" width="97.5189" height="76.7649" rx="9.7122" transform="translate(-55.1564 35.0891) rotate(-13.3887)"/><rect class="m" x="67.7189" y="210.7882" width="97.5189" height="76.7649" rx="9.7122" transform="translate(-54.5312 33.7433) rotate(-13.3887)"/><path class="n" d="M70.6857,211.58H148.78a9.7122,9.7122,0,0,1,9.7122,9.7122v8.7914a0,0,0,0,1,0,0H60.9735a0,0,0,0,1,0,0v-8.7914A9.7122,9.7122,0,0,1,70.6857,211.58Z" transform="translate(-48.1525 31.4111) rotate(-13.3887)"/><rect class="m" x="82.6973" y="209.0408" width="6.0012" height="16.0031" rx="2.1784" transform="translate(-47.9282 25.7427) rotate(-13.3887)"/><rect class="m" x="97.2925" y="205.5668" width="6.0012" height="16.0031" rx="2.1784" transform="translate(-46.7271 29.0278) rotate(-13.3887)"/><rect class="m" x="111.8877" y="202.0928" width="6.0012" height="16.0031" rx="2.1784" transform="translate(-45.5261 32.313) rotate(-13.3887)"/><rect class="m" x="126.4828" y="198.6188" width="6.0012" height="16.0031" rx="2.1784" transform="translate(-44.3249 35.5982) rotate(-13.3887)"/><circle class="o" cx="92.4021" cy="249.764" r="9.3801"/><circle class="p" cx="115.3211" cy="244.3088" r="9.3801"/><circle class="n" cx="97.7564" cy="272.2586" r="9.3801"/><circle class="o" cx="120.6753" cy="266.8033" r="9.3801"/><circle class="q" cx="138.24" cy="238.8535" r="9.3801"/><circle class="p" cx="143.5943" cy="261.348" r="9.3801"/><path class="r" d="M175.898,1084.6706l-21.6035,1.0812a15.0445,15.0445,0,0,1-4.517,2.5721l-43.2307,15.6019A15.2379,15.2379,0,0,1,87.04,1094.77l-3.1728-8.7913-6.9093,2.4936a15.0462,15.0462,0,0,1-5.1186.9053l-17.3149,12.9643,3.3193-22.0734c-.1414-.3075-.2686-.6263-.3869-.9543l-10.0811-27.9332a15.2331,15.2331,0,0,1,9.1581-19.5011l43.2307-15.6018a15.2377,15.2377,0,0,1,19.5064,9.1561l3.1728,8.7913,6.9094-2.4936a15.2331,15.2331,0,0,1,19.5011,9.1581l10.081,27.9332c.1184.328.224.6545.3117.9815Z"/><path class="s" d="M113.8055,1023.76l10.081,27.9333a15.2378,15.2378,0,0,1-9.1635,19.503l-43.2306,15.6019a15.0481,15.0481,0,0,1-5.1186.9052l-17.3149,12.9643,3.3193-22.0734c-.1413-.3075-.2685-.6262-.3869-.9542L41.91,1049.7068a15.2329,15.2329,0,0,1,9.158-19.501l43.2307-15.6019A15.2381,15.2381,0,0,1,113.8055,1023.76Z"/><path class="t" d="M71.4935,1065.1626l10.081,27.9333a15.2379,15.2379,0,0,0,19.5065,9.1561l43.2306-15.6018a15.0476,15.0476,0,0,0,4.517-2.5721l21.6035-1.0813-16.6507-14.8663c-.0876-.3269-.1933-.6534-.3117-.9814l-10.081-27.9333a15.233,15.233,0,0,0-19.5011-9.158L80.6569,1045.66A15.2379,15.2379,0,0,0,71.4935,1065.1626Z"/><circle class="u" cx="96.287" cy="1073.0956" r="5.1939"/><circle class="u" cx="132.4574" cy="1060.0418" r="5.1939"/><circle class="u" cx="114.1757" cy="1066.6396" r="5.1939"/><path class="a" d="M162.8052,769.2426a21.633,21.633,0,0,1-22.5306,13.9923l-16.5207,44.5445-1.9409,5.2348a15.8974,15.8974,0,0,1-20.4353,9.3761l-2.88-1.0652-25.7326,9.17a13.9563,13.9563,0,0,1-17.8378-8.4557L37.2158,792.35a13.9537,13.9537,0,0,1,8.4609-17.8372L79.19,762.5667a13.8665,13.8665,0,0,1,7.3385-.5608,21.6324,21.6324,0,0,1,22.6827-35.71,21.3977,21.3977,0,0,1,7.2309,4.4615,18.9654,18.9654,0,0,1,25.2128,9.3495,21.6309,21.6309,0,0,1,21.15,29.136Z"/><line class="v" x1="101.6635" y1="772.8156" x2="90.2525" y2="803.5835"/><line class="v" x1="125.4387" y1="781.6331" x2="114.0278" y2="812.401"/><line class="v" x1="113.8308" y1="777.3281" x2="102.4199" y2="808.096"/><rect class="b" x="31.1647" y="773.3035" width="80.6678" height="63.5001" rx="9.7122" transform="translate(-662.8022 1142.7302) rotate(-109.6206)"/><path class="j" d="M17.8145,805.4919H79.7872a9.3476,9.3476,0,0,1,9.3476,9.3476v5.9586a0,0,0,0,1,0,0H8.4669a0,0,0,0,1,0,0V814.84a9.3476,9.3476,0,0,1,9.3476-9.3476Z" transform="translate(-700.7434 1132.1589) rotate(-109.6206)"/><rect class="b" x="45.361" y="826.6308" width="4.9642" height="13.2378" rx="1.5158" transform="translate(-720.96 1158.1123) rotate(-109.6206)"/><rect class="b" x="41.1937" y="814.9409" width="4.9642" height="13.2378" rx="1.5158" transform="translate(-715.5156 1138.5717) rotate(-109.6206)"/><rect class="b" x="37.0264" y="803.2511" width="4.9642" height="13.2378" rx="1.5158" transform="translate(-710.0712 1119.0311) rotate(-109.6206)"/><rect class="b" x="32.8591" y="791.5612" width="4.9642" height="13.2378" rx="1.5158" transform="translate(-704.6267 1099.4908) rotate(-109.6206)"/><path class="b" d="M143.9242,765.6141l-22.0189,59.3707-50.9069-18.88,22.0189-59.3708c2.4489-6.6032,11.1075-9.48,19.3421-6.4258l21.09,7.8217C141.6841,751.1841,146.3731,759.0109,143.9242,765.6141Z"/><path class="k" d="M121.9053,824.9848l-1.94,5.2306a15.9,15.9,0,0,1-20.4376,9.3793l-21.09-7.8216a15.9,15.9,0,0,1-9.3793-20.4376l1.94-5.2305Z"/><path class="b" d="M94.5993,764.765a21.8626,21.8626,0,0,1-2.28-.707,21.6286,21.6286,0,1,1,29.1315-19.2646"/><path class="b" d="M123.5472,745.7115a21.619,21.619,0,1,1,7.0553,32.3542"/><path class="b" d="M104.7387,738.5958a18.9875,18.9875,0,1,1,35.6053,13.2049"/><rect class="w" x="120.0892" y="741.6638" width="9.5464" height="6.5632" transform="translate(266.8293 3.0696) rotate(20.3483)"/><line class="b" x1="99.8134" y1="770.019" x2="88.4025" y2="800.7869"/><line class="b" x1="123.5886" y1="778.8365" x2="112.1777" y2="809.6045"/><line class="b" x1="111.9807" y1="774.5315" x2="100.5698" y2="805.2994"/><rect class="a" x="1474.1823" y="132.8959" width="102.1157" height="80.3834" rx="9.7122" transform="translate(1771.4995 1688.2354) rotate(-105.706)"/><rect class="b" x="1468.6529" y="130.6429" width="102.1157" height="80.3834" rx="9.7122" transform="translate(1766.6422 1680.0496) rotate(-105.706)"/><path class="j" d="M1449,169.4041h82.6912a9.7122,9.7122,0,0,1,9.7122,9.7122V188.78a0,0,0,0,1,0,0H1439.288a0,0,0,0,1,0,0v-9.6636A9.7122,9.7122,0,0,1,1449,169.4041Z" transform="translate(1721.3791 1662.2738) rotate(-105.706)"/><rect class="b" x="1484.2568" y="196.0211" width="6.284" height="16.7574" rx="2.1863" transform="matrix(-0.2707, -0.9627, 0.9627, -0.2707, 1693.2713, 1691.5955)"/><rect class="b" x="1480.004" y="180.8976" width="6.284" height="16.7574" rx="2.1863" transform="matrix(-0.2707, -0.9627, 0.9627, -0.2707, 1702.4262, 1668.284)"/><rect class="b" x="1475.7513" y="165.774" width="6.284" height="16.7574" rx="2.1863" transform="translate(1711.5811 1644.9726) rotate(-105.706)"/><rect class="b" x="1471.4985" y="150.6505" width="6.284" height="16.7574" rx="2.1863" transform="translate(1720.736 1621.6611) rotate(-105.706)"/><path class="c" d="M1547.017,184.5941c-3.3662-11.8205-12.24-19.653-19.8194-17.4944s-10.9955,13.4908-7.6293,25.3112Z"/><circle class="c" cx="1524.9415" cy="158.4841" r="11.2589"/><rect class="a" x="1410.7003" y="1049.2666" width="102.1157" height="80.3834" rx="9.7122" transform="translate(926.5712 2832.2238) rotate(-109.6262)"/><rect class="b" x="1405.5231" y="1047.221" width="102.1157" height="80.3834" rx="9.7122" transform="translate(921.5818 2824.6147) rotate(-109.6262)"/><path class="j" d="M1412.337,1038.7583h60.6971a9.7122,9.7122,0,0,1,9.7122,9.7122v9.6636a0,0,0,0,1,0,0h-80.1216a0,0,0,0,1,0,0v-9.6636A9.7122,9.7122,0,0,1,1412.337,1038.7583Z" transform="translate(-268.3401 545.4826) rotate(-19.6262)"/><rect class="k" x="1472.5362" y="1089.332" width="6.284" height="48.7012" rx="2.1863" transform="translate(922.3498 2877.6959) rotate(-109.6262)"/><rect class="k" x="1467.2594" y="1074.5346" width="6.284" height="48.7012" rx="2.1863" transform="translate(929.2384 2852.9581) rotate(-109.6262)"/><rect class="k" x="1461.9827" y="1059.7372" width="6.284" height="48.7012" rx="2.1863" transform="translate(936.1271 2828.2203) rotate(-109.6262)"/><rect class="k" x="1456.7059" y="1044.9397" width="6.284" height="48.7012" rx="2.1863" transform="translate(943.0157 2803.4825) rotate(-109.6262)"/><rect class="c" x="1439.5766" y="1122.3102" width="6.284" height="6.8077" rx="2.0041" transform="translate(866.9873 2862.7237) rotate(-109.6262)"/><rect class="c" x="1434.2999" y="1107.5127" width="6.284" height="6.8077" rx="2.0041" transform="translate(873.8759 2837.9859) rotate(-109.6262)"/><rect class="c" x="1429.0231" y="1092.7153" width="6.284" height="6.8077" rx="2.0041" transform="translate(880.7646 2813.2481) rotate(-109.6262)"/><rect class="c" x="1423.7464" y="1077.9179" width="6.284" height="6.8077" rx="2.0041" transform="matrix(-0.3359, -0.9419, 0.9419, -0.3359, 887.6532, 2788.5103)"/><circle class="c" cx="1475.9641" cy="1033.858" r="14.0837"/><polygon class="b" points="1484.945 1026.635 1479.597 1037.912 1477.961 1041.355 1474.519 1039.722 1465.336 1035.367 1466.967 1031.922 1476.15 1036.277 1481.498 1025 1484.945 1026.635"/><rect class="a" x="1485.4548" y="718.6555" width="102.1157" height="80.3834" rx="9.7122" transform="translate(-136.5776 388.0516) rotate(-13.7876)"/><path class="d" d="M1573.8873,718.8869l12.5052,50.96a13.9548,13.9548,0,0,1-10.2277,16.88l-72.066,17.6845a13.9548,13.9548,0,0,1-16.88-10.2277l-12.5052-50.96a13.9547,13.9547,0,0,1,10.2277-16.88l1.0935-.2683a16.6184,16.6184,0,0,0,.2083,7.0016,2.711,2.711,0,0,0,3.2746,1.9842l82.6292-20.2767A13.731,13.731,0,0,1,1573.8873,718.8869Z"/><path class="a" d="M1486.0351,726.0755l14.24-3.4945a16.6189,16.6189,0,0,0,.2084,7.0017,2.711,2.711,0,0,0,3.2746,1.9841l-14.24,3.4945a2.711,2.711,0,0,1-3.2746-1.9842,16.6184,16.6184,0,0,1-.2083-7.0016"/><path class="j" d="M1519.0158,727.8227l-15.2575,3.7441a2.711,2.711,0,0,1-3.2746-1.9841,16.6189,16.6189,0,0,1-.2084-7.0017l15.2575-3.7441a16.6173,16.6173,0,0,0,.2084,7.0017A2.7109,2.7109,0,0,0,1519.0158,727.8227Z"/><path class="c" d="M1534.2732,724.0787l-15.2574,3.744a2.7109,2.7109,0,0,1-3.2746-1.9841,16.6173,16.6173,0,0,1-.2084-7.0017l15.2574-3.7441a16.6173,16.6173,0,0,0,.2084,7.0017A2.711,2.711,0,0,0,1534.2732,724.0787Z"/><path class="i" d="M1550.5478,720.085l-16.2746,3.9937a2.711,2.711,0,0,1-3.2746-1.9842,16.6173,16.6173,0,0,1-.2084-7.0017l16.2746-3.9937a16.6173,16.6173,0,0,0,.2084,7.0017A2.7109,2.7109,0,0,0,1550.5478,720.085Z"/><path class="k" d="M1572.1472,714.7846l-21.5994,5.3a2.7109,2.7109,0,0,1-3.2746-1.9842,16.6173,16.6173,0,0,1-.2084-7.0017l9.9428-2.44A13.9548,13.9548,0,0,1,1572.1472,714.7846Z"/><rect class="x" x="228.3945" y="818.8752" width="280.2463" height="220.6041" rx="26.6543" transform="translate(-426.2091 1535.4652) rotate(-105.706)"/><rect class="y" x="213.2197" y="812.6921" width="280.2463" height="220.6041" rx="26.6543" transform="translate(-439.5394 1513.0001) rotate(-105.706)"/><path class="z" d="M159.285,919.0683H386.2228a26.6543,26.6543,0,0,1,26.6543,26.6543v26.5207a0,0,0,0,1,0,0H132.6307a0,0,0,0,1,0,0V945.7226a26.6543,26.6543,0,0,1,26.6543-26.6543Z" transform="translate(-563.7595 1464.2162) rotate(-105.706)"/><rect class="y" x="256.043" y="992.1161" width="17.2459" height="45.9891" rx="6" transform="translate(-640.8985 1544.6866) rotate(-105.706)"/><rect class="y" x="244.3718" y="950.611" width="17.2459" height="45.9891" rx="6" transform="translate(-615.7737 1480.7106) rotate(-105.706)"/><rect class="y" x="232.7005" y="909.1059" width="17.2459" height="45.9891" rx="6" transform="matrix(-0.2707, -0.9627, 0.9627, -0.2707, -590.649, 1416.7346)"/><rect class="y" x="221.0293" y="867.6009" width="17.2459" height="45.9891" rx="6" transform="translate(-565.5243 1352.7586) rotate(-105.706)"/><path class="aa" d="M428.2822,960.7557c-9.2383-32.44-33.5906-53.9355-54.3925-48.0116s-30.176,37.0242-20.9378,69.4642Z"/><circle class="aa" cx="367.6981" cy="889.0994" r="30.8989"/><rect class="x" x="265.4935" y="81.6493" width="280.2463" height="220.6041" rx="26.6543" transform="translate(361.0561 638.4763) rotate(-109.6262)"/><rect class="y" x="251.2851" y="76.0354" width="280.2463" height="220.6041" rx="26.6543" transform="matrix(-0.3359, -0.9419, 0.9419, -0.3359, 347.3632, 617.5939)"/><path class="z" d="M269.9851,52.81h166.577a26.6543,26.6543,0,0,1,26.6543,26.6543v26.5207a0,0,0,0,1,0,0H243.3309a0,0,0,0,1,0,0V79.4645A26.6543,26.6543,0,0,1,269.9851,52.81Z" transform="matrix(0.9419, -0.3359, 0.3359, 0.9419, -6.1445, 123.271)"/><rect class="ab" x="435.1957" y="191.6046" width="17.2459" height="133.6557" rx="6" transform="translate(349.4708 763.2699) rotate(-109.6262)"/><rect class="ab" x="420.7143" y="150.9946" width="17.2459" height="133.6557" rx="6" transform="translate(368.376 695.3796) rotate(-109.6262)"/><rect class="ab" x="406.2328" y="110.3846" width="17.2459" height="133.6557" rx="6" transform="translate(387.2812 627.4892) rotate(-109.6262)"/><rect class="ab" x="391.7513" y="69.7746" width="17.2459" height="133.6557" rx="6" transform="translate(406.1864 559.5988) rotate(-109.6262)"/><rect class="aa" x="344.7416" y="282.1099" width="17.2459" height="18.6831" rx="5.5" transform="translate(197.5341 722.1803) rotate(-109.6262)"/><rect class="aa" x="330.2601" y="241.4999" width="17.2459" height="18.6831" rx="5.5" transform="translate(216.4392 654.2899) rotate(-109.6262)"/><rect class="aa" x="315.7786" y="200.8899" width="17.2459" height="18.6831" rx="5.5" transform="translate(235.3444 586.3995) rotate(-109.6262)"/><rect class="aa" x="301.2971" y="160.2798" width="17.2459" height="18.6831" rx="5.5" transform="translate(254.2496 518.5092) rotate(-109.6262)"/><circle class="aa" cx="444.6033" cy="39.3619" r="38.6514"/><polygon class="y" points="469.25 19.539 454.573 50.487 450.082 59.936 440.638 55.456 415.437 43.504 419.912 34.048 445.113 46 459.791 15.053 469.25 19.539"/><rect class="x" x="1099.1537" y="61.597" width="280.2463" height="220.6041" rx="26.6543" transform="translate(4.3663 372.778) rotate(-17.1363)"/><rect class="y" x="1082.4559" y="56.218" width="280.2463" height="220.6041" rx="26.6543" transform="matrix(0.9556, -0.2946, 0.2946, 0.9556, 5.2099, 367.6193)"/><circle class="aa" cx="1075.8298" cy="102.7331" r="38.6514"/><path class="y" d="M1094.7588,120.2259a25.3143,25.3143,0,0,1-9.9416,5.7046c-10.8789,3.3543-21.8339-.4731-27.8987-8.8049l-5.2771,1.6271-.8509-6.23,3.0618-.944a19.1412,19.1412,0,0,1-.6477-1.8689c-.221-.717-.4421-1.4339-.5976-2.17l-3.9738,1.2252-.8509-6.23,4.3653-1.3459c.4906-10.21,7.4265-19.4119,18.3069-22.7667a26.9022,26.9022,0,0,1,10.4393-1.0779l1.2241,8.8249a18.334,18.334,0,0,0-9.0669.4421,16.1542,16.1542,0,0,0-11.1958,11.5844l20.9127-6.4481.9162,6.21-22.0856,6.81c.1555.7362.3113,1.4733.5324,2.19a18.0048,18.0048,0,0,0,.7129,1.8488l21.3026-6.5683.9162,6.21-18.5017,5.7046a16.33,16.33,0,0,0,16.0967,3.3836,19.4578,19.4578,0,0,0,8.2467-5.1821Z"/><rect class="ac" x="1252.9593" y="33.524" width="17.2459" height="133.6559" rx="6" transform="translate(1537.4043 1335.4968) rotate(-107.1363)"/><rect class="ac" x="1243.6433" y="3.3103" width="17.2459" height="133.6557" rx="6" transform="translate(1554.2159 1287.478) rotate(-107.1363)"/><rect class="ac" x="1277.3823" y="74.8888" width="17.2459" height="102.0384" rx="6" transform="matrix(-0.2946, -0.9556, 0.9556, -0.2946, 1544.6019, 1391.9214)"/><path class="ad" d="M1369.3676,160.1314l-.0132.004A59.3835,59.3835,0,0,0,1322.34,154.56l-.0132.0041,16.7592,56.8813,30.0045-50.6221.1785-.445"/><path class="ae" d="M1395.2755,190.9452l-56.19,20.5,30.0045-50.6221.2774-.6915A59.25,59.25,0,0,1,1395.2755,190.9452Z"/><path class="af" d="M1397.3245,225.6235a59.5666,59.5666,0,1,1-75.4461-70.9217l.4481-.1381,16.7592,56.8813Z"/><path class="ag" d="M1396.3428,194.0794a59.2634,59.2634,0,0,1,.9817,31.5441l-58.2388-14.1785,56.19-20.5.0173.0092-.001.0435C1395.6745,192.0055,1396.0218,193.0383,1396.3428,194.0794Z"/><circle class="aa" cx="1133.4199" cy="191.9064" r="26.9561"/><circle class="ah" cx="1152.9481" cy="255.2422" r="26.9561"/><circle class="z" cx="1198.0631" cy="171.833" r="26.9561"/><circle class="ab" cx="1217.6422" cy="235.3331" r="26.9561"/><path class="y" d="M1147.0355,191.1689l-9.3734,2.89,3.0719,9.9629-6.6415,2.0478-3.0719-9.9629-9.2675,2.8575-1.9488-6.32,9.2675-2.8575L1126,179.8236l6.6415-2.0478,3.0719,9.9629,9.3735-2.89Z"/><path class="y" d="M1203.1275,231.1134l23.89-7.3662,1.767,5.7308-23.89,7.3662Zm3.4021,11.0338,23.89-7.3662,1.767,5.7309-23.89,7.3661Z"/><path class="y" d="M1145.5989,248.6215a5.0761,5.0761,0,1,1,6.3106,3.1572A4.9323,4.9323,0,0,1,1145.5989,248.6215Zm5.0043,16.23a5.0761,5.0761,0,1,1,6.3106,3.1572A4.9326,4.9326,0,0,1,1150.6032,264.8517Z"/><path class="y" d="M1185.0651,170.4224l22.309-6.8786,2.8787,9.3361-22.3091,6.8787Z"/><rect class="x" x="31.29" y="421.0443" width="280.2463" height="220.6041" rx="26.6543" transform="translate(-121.6929 56.1619) rotate(-13.7876)"/><path class="ac" d="M273.9841,421.68l34.3193,139.8541a38.2975,38.2975,0,0,1-28.0689,46.3247L82.4568,656.3918a38.2974,38.2974,0,0,1-46.3246-28.069L1.8128,488.4687a38.2975,38.2975,0,0,1,28.069-46.3246l3.0008-.7364a45.6045,45.6045,0,0,0,.5719,19.2154,7.44,7.44,0,0,0,8.9868,5.4453l226.7675-55.6473A37.6812,37.6812,0,0,1,273.9841,421.68Z"/><path class="x" d="M32.8826,441.4077l39.081-9.59a45.6046,45.6046,0,0,0,.5719,19.2154,7.44,7.44,0,0,0,8.9868,5.4453l-39.081,9.59a7.44,7.44,0,0,1-8.9868-5.4453,45.6045,45.6045,0,0,1-.5719-19.2154"/><path class="z" d="M123.3948,446.203,81.5223,456.4782a7.44,7.44,0,0,1-8.9868-5.4453,45.6046,45.6046,0,0,1-.5719-19.2154l41.8725-10.2752a45.6041,45.6041,0,0,0,.5719,19.2153A7.44,7.44,0,0,0,123.3948,446.203Z"/><path class="aa" d="M165.2673,435.9277,123.3948,446.203a7.44,7.44,0,0,1-8.9868-5.4454,45.6041,45.6041,0,0,1-.5719-19.2153l41.8725-10.2753a45.6046,45.6046,0,0,0,.5719,19.2154A7.44,7.44,0,0,0,165.2673,435.9277Z"/><path class="ah" d="M209.9313,424.9674l-44.664,10.96a7.44,7.44,0,0,1-8.9868-5.4453,45.6046,45.6046,0,0,1-.5719-19.2154l44.664-10.96a45.6057,45.6057,0,0,0,.5719,19.2153A7.44,7.44,0,0,0,209.9313,424.9674Z"/><path class="ab" d="M269.2088,410.4211l-59.2775,14.5463a7.44,7.44,0,0,1-8.9868-5.4453,45.6057,45.6057,0,0,1-.5719-19.2153l27.2869-6.6961A38.2979,38.2979,0,0,1,269.2088,410.4211Z"/><path class="x" d="M1514.7376,958.2212l-59.2885,2.9674a41.2934,41.2934,0,0,1-12.3964,7.0589L1324.41,1011.0652a41.8189,41.8189,0,0,1-53.5335-25.1281L1262.17,961.81l-18.9621,6.8433a41.2914,41.2914,0,0,1-14.0473,2.4845l-47.519,35.5792,9.1094-60.5782c-.3879-.844-.737-1.7188-1.0619-2.6189l-27.6664-76.66a41.8055,41.8055,0,0,1,25.1335-53.5187l118.6422-42.8177a41.8189,41.8189,0,0,1,53.5335,25.128l8.7074,24.1269,18.962-6.8433a41.8055,41.8055,0,0,1,53.5188,25.1333l27.6664,76.66c.3248.9.6149,1.7963.8553,2.6935Z"/><path class="ac" d="M1344.331,791.0584l27.6664,76.66a41.8189,41.8189,0,0,1-25.1482,53.5241L1228.207,964.06a41.2966,41.2966,0,0,1-14.0473,2.4845l-47.519,35.5792,9.1094-60.5783c-.388-.8439-.7371-1.7187-1.0619-2.6188l-27.6664-76.66a41.8055,41.8055,0,0,1,25.1334-53.5187L1290.7974,765.93A41.819,41.819,0,0,1,1344.331,791.0584Z"/><path class="ai" d="M1228.21,904.6836l27.6664,76.66a41.8189,41.8189,0,0,0,53.5335,25.1281l118.6422-42.8177a41.2921,41.2921,0,0,0,12.3964-7.059l59.2886-2.9673-45.6963-40.7991c-.24-.8972-.53-1.7933-.8553-2.6934l-27.6664-76.66A41.8055,41.8055,0,0,0,1372,808.3419L1253.3582,851.16A41.8188,41.8188,0,0,0,1228.21,904.6836Z"/><circle class="y" cx="1296.2532" cy="926.4549" r="14.2543"/><circle class="y" cx="1395.5193" cy="890.63" r="14.2543"/><circle class="y" cx="1345.3472" cy="908.737" r="14.2543"/><path class="x" d="M1621.5146,441.1a59.3693,59.3693,0,0,1-61.8329,38.4l-45.34,122.2478-5.3266,14.3666a43.6288,43.6288,0,0,1-56.0827,25.7316l-7.9029-2.9233-70.6207,25.1658a38.301,38.301,0,0,1-48.9538-23.2059l-48.6084-136.3664a38.2947,38.2947,0,0,1,23.22-48.9524l91.9747-32.7856a38.0529,38.0529,0,0,1,20.14-1.5389,59.3679,59.3679,0,0,1,62.25-98.0034,58.7235,58.7235,0,0,1,19.8445,12.2441,52.049,52.049,0,0,1,69.194,25.6587,59.3641,59.3641,0,0,1,58.044,79.961Z"/><line class="aj" x1="1453.7172" y1="450.9053" x2="1422.4011" y2="535.3447"/><line class="aj" x1="1518.9659" y1="475.1041" x2="1487.6498" y2="559.5435"/><line class="aj" x1="1487.1092" y1="463.2894" x2="1455.7931" y2="547.7288"/><rect class="y" x="1260.2405" y="452.2444" width="221.3847" height="174.2695" rx="26.6543" transform="translate(1323.2184 2011.8295) rotate(-109.6206)"/><path class="z" d="M1223.6023,540.5823H1393.68a25.6535,25.6535,0,0,1,25.6535,25.6535v16.3528a0,0,0,0,1,0,0H1197.9487a0,0,0,0,1,0,0V566.2359A25.6535,25.6535,0,0,1,1223.6023,540.5823Z" transform="translate(1219.0927 1982.8177) rotate(-109.6206)"/><rect class="y" x="1299.2008" y="598.5957" width="13.6237" height="36.3298" rx="4.16" transform="translate(1163.6102 2054.0441) rotate(-109.6206)"/><rect class="y" x="1287.764" y="566.5141" width="13.6237" height="36.3298" rx="4.16" transform="translate(1178.5516 2000.4171) rotate(-109.6206)"/><rect class="y" x="1276.3272" y="534.4325" width="13.6237" height="36.3298" rx="4.16" transform="translate(1193.4934 1946.7901) rotate(-109.6206)"/><rect class="y" x="1264.8905" y="502.3509" width="13.6237" height="36.3298" rx="4.16" transform="translate(1208.4354 1893.1631) rotate(-109.6206)"/><path class="y" d="M1569.6975,431.1415,1509.269,594.0786,1369.56,542.2647l60.4285-162.9371c6.7209-18.1218,30.4836-26.0162,53.0827-17.6348l57.8793,21.4657C1563.55,391.54,1576.4184,413.02,1569.6975,431.1415Z"/><path class="ab" d="M1509.269,594.0786l-5.3237,14.3547a43.6347,43.6347,0,0,1-56.0889,25.7407l-57.8793-21.4658a43.6343,43.6343,0,0,1-25.7407-56.0888l5.3237-14.3547Z"/><path class="y" d="M1434.33,428.8113a59.9881,59.9881,0,0,1-6.2563-1.94,59.3574,59.3574,0,1,1,79.9482-52.87"/><path class="y" d="M1513.7749,376.5209a59.3306,59.3306,0,1,1,19.3627,88.793"/><path class="y" d="M1462.157,356.9925a52.1094,52.1094,0,1,1,97.7151,36.24"/><rect class="w" x="1504.2848" y="365.4125" width="26.1991" height="18.0119" transform="translate(224.8862 -504.2698) rotate(20.3483)"/><line class="y" x1="1448.6399" y1="443.2304" x2="1417.3238" y2="527.6699"/><line class="y" x1="1513.8886" y1="467.4292" x2="1482.5725" y2="551.8687"/><line class="y" x1="1482.0319" y1="455.6145" x2="1450.7158" y2="540.054"/><path class="ak" d="M562.7859,796.8837,602.54,758.65c2.0361-1.9589,3.584-1.9541,5.2344-.2314l5.8564,6.1094c1.7041,1.7773,1.5947,3.2715-.4434,5.23l-14.2587,13.7139,11.2353,11.7188,14.2588-13.7139c2.0361-1.959,3.584-1.9531,5.2344-.2315l5.8564,6.1094c1.6514,1.7217,1.5947,3.27-.4433,5.2295l-39.752,38.2344c-2.0371,1.959-3.585,1.9531-5.2344.2324l-5.8574-6.11c-1.65-1.7217-1.5937-3.2706.4424-5.23l14.4453-13.8936L587.88,794.1l-14.4443,13.8925c-2.0371,1.959-3.5313,2.0088-5.2344.2315l-5.8574-6.1094C560.6931,800.3925,560.75,798.8427,562.7859,796.8837Z"/><path class="ak" d="M625.3552,820.6435c13.1543-18.9307,24.626-22.5019,39.166-12.2988,14.4776,10.1592,15.0918,22.2119,1.9375,41.1426s-24.6259,22.5019-39.1035,12.3427C612.8152,851.6269,612.2009,839.5751,625.3552,820.6435ZM653.366,840.3c7.3837-10.627,7.8925-15.4,2.3525-19.2872s-9.8242-1.7636-17.208,8.8623-7.9551,15.3565-2.3525,19.2881S645.9822,850.9267,653.366,840.3Z"/><path class="ak" d="M667.1814,881.1445l22.3027-50.5459c1.1446-2.59,2.5742-3.169,4.7461-2.1924l16.6016,7.4678c14.57,6.5537,19.0537,16.9424,13.1318,30.3633-5.958,13.5009-16.501,17.0351-31.1406,10.4511l-5.7441-2.584-5.8877,13.3428c-1.1094,2.5108-2.5049,3.2-4.7452,2.1924l-7.706-3.4668C666.5681,885.1962,666.0378,883.7353,667.1814,881.1445Zm31.8447-17.752c4.833,2.1739,8.2529.8907,10.2969-3.74s.7012-8.0566-4.1328-10.2305l-6.0235-2.71-6.165,13.9707Z"/><path class="ak" d="M745.8162,911.1025l9.0449-54.6133c.4638-2.7978,1.7041-3.7158,4.0449-3.3076l8.3066,1.4482c2.417.4219,3.2168,1.6953,2.753,4.4942l-3.2442,19.5888,15.9356,2.7793,3.2431-19.59c.4639-2.7979,1.7041-3.7158,4.045-3.3076l8.3066,1.4482c2.3428.4092,3.2168,1.6953,2.7529,4.4942L791.96,919.15c-.4639,2.7989-1.7031,3.7159-4.043,3.3077l-8.3086-1.4483c-2.3408-.4082-3.2167-1.6953-2.7529-4.4941l3.2871-19.8428-15.9345-2.78-3.2872,19.8448c-.4638,2.7978-1.6279,3.7294-4.0449,3.3085l-8.3076-1.4492C746.2283,915.1884,745.3523,913.9013,745.8162,911.1025Z"/><path class="ak" d="M809.87,893.0322c-.6856-23.1533,6.3769-32.8643,24.0517-33.2422,17.5977-.376,25.2266,9.0205,25.9131,32.1738s-6.376,32.8633-23.9746,33.2393C818.1853,925.581,810.5574,916.1845,809.87,893.0322Zm34.05-.7285c-.3848-12.9971-2.8057-17.1651-9.5391-17.0215s-8.9033,4.41-8.5185,17.4072,2.7294,17.167,9.539,17.02C842.2107,909.5654,844.3044,905.3,843.92,892.3037Z"/><path class="ak" d="M879.1257,917.1757l-12.0732-54.2031c-.6182-2.7773.1836-4.0967,2.499-4.5957l17.7051-3.82c15.539-3.3516,25.2764,2.3994,28.4814,16.791,3.2246,14.4766-3.1191,23.6074-18.7334,26.9756l-6.1259,1.3213,3.1875,14.3086c.6,2.6924-.1094,4.081-2.5,4.5967l-8.2168,1.7724C881.0339,920.8212,879.7439,919.9531,879.1257,917.1757Zm14.9727-33.3095c5.1553-1.1114,7.1318-4.1846,6.0254-9.15s-4.209-6.9434-9.3623-5.8311l-6.4248,1.3858,3.3369,14.9814Z"/><path class="ak" d="M959.8,894.705l-25.129-49.6c-1.2871-2.542-.8408-4.0224,1.2745-5.0849l7.5009-3.77c2.1817-1.0967,3.5752-.541,4.8633,2.001l9.0147,17.791,14.3867-7.2314-9.0137-17.791c-1.2871-2.542-.8408-4.0225,1.2735-5.085l7.5019-3.7695c2.1133-1.0635,3.5742-.5411,4.8633,2.0009l25.1289,49.6c1.2871,2.541.8389,4.0224-1.2744,5.0839l-7.501,3.77c-2.1143,1.0616-3.5762.54-4.8633-2.0009l-9.1308-18.0225-14.3868,7.2315,9.13,18.0214c1.2871,2.542.9092,3.9893-1.2734,5.086l-7.501,3.7695C962.55,897.7685,961.0867,897.247,959.8,894.705Z"/><path class="ak" d="M1000.3455,841.9091c-14.3047-18.3095-14.4346-30.375-.5459-41.2256,13.8281-10.8046,25.5019-7.7587,39.8066,10.55,14.3027,18.3086,14.4336,30.3741.6064,41.1788C1026.323,863.2636,1014.6492,860.2177,1000.3455,841.9091Zm26.7539-20.9043c-8.0293-10.2783-12.4385-12.2041-17.7286-8.07-5.2919,4.1348-4.4892,8.8789,3.54,19.1563s12.3779,12.25,17.73,8.0693S1035.13,831.2822,1027.0994,821.0048Z"/><path class="ak" d="M1069.9871,820.1289l-41.8233-36.6475c-2.1435-1.877-2.2861-3.4229-.7334-5.207l11.88-13.6407c10.4248-11.9707,21.6182-13.123,32.7227-3.3916,11.17,9.7871,11.5224,20.9532,1.0468,32.9825l-4.1093,4.72,11.04,9.6738c2.0781,1.82,2.3359,3.3652.7314,5.207l-5.5127,6.3311C1073.6765,821.94,1072.1306,822.0068,1069.9871,820.1289Zm-7.8116-35.8653c3.459-3.9717,3.2139-7.6357-.6181-10.9931s-7.4844-3.1075-10.9424.8642l-4.31,4.95,11.56,10.1279Z"/><path class="ak" d="M1100.7937,746.8193l-6.7832-3.7754c-2.4121-1.3428-2.877-2.8262-1.7012-4.97l9.7012-17.6836c1.1738-2.1436,2.6318-2.4688,5.0439-1.127l6.7832,3.7754c2.337,1.3018,2.9141,2.7588,1.7373,4.9024l-9.6992,17.6835C1104.7,747.7685,1103.1306,748.12,1100.7937,746.8193Z"/><path class="ak" d="M1147.2156,698.37l-53.1866-15.7325c-2.7255-.8056-3.5039-2.1523-2.85-4.4326l2.3194-8.09c.6758-2.3535,2.0234-2.9922,4.749-2.1856l19.0781,5.6426,4.4522-15.5176L1102.7,652.4111c-2.7265-.8067-3.5039-2.1543-2.85-4.4336l2.32-8.09c.6534-2.2793,2.0225-2.9921,4.7491-2.1855l53.1865,15.7324c2.7246.8057,3.5039,2.1533,2.85,4.4326l-2.32,8.0909c-.6543,2.2793-2.0234,2.9921-4.7481,2.1855l-19.3261-5.7158-4.4522,15.5176,19.3272,5.7168c2.7246.8056,3.5234,2.08,2.8486,4.4326l-2.32,8.09C1151.3093,698.4648,1149.9412,699.1767,1147.2156,698.37Z"/><path class="ak" d="M1136.0759,632.3789c-23.0293-2.1143-31.9219-10.3194-30.4541-27.9639,1.4619-17.5674,11.5762-24.0274,34.6055-21.9121,23.0312,2.1142,31.9238,10.3193,30.4619,27.8867C1169.2205,628.0341,1159.1062,634.4941,1136.0759,632.3789Zm2.8291-33.9893c-12.9267-1.1875-17.3135.7187-17.872,7.44s3.4443,9.3985,16.373,10.585c12.9268,1.1875,17.3057-.6426,17.8721-7.44S1151.8328,599.5761,1138.905,598.39Z"/><path class="ak" d="M1167.2419,566.2548l-55.0048,5.5186c-2.8184.2832-4.045-.6748-4.3-3.04l-1.9531-18.0888c-1.7148-15.875,4.9971-24.8809,19.6035-26.3457,14.69-1.4737,23.087,5.9385,24.8116,21.89l.6748,6.2578,14.52-1.456c2.7324-.2744,4.0351.5976,4.3,3.04l.9072,8.3955C1171.0564,564.7919,1170.0613,565.9716,1167.2419,566.2548Zm-31.4814-18.9062c-.5693-5.2666-3.4121-7.6035-8.4512-7.0987s-7.3213,3.3575-6.7529,8.6241l.708,6.5634,15.2041-1.5244Z"/><path class="ak" d="M1153.2165,483.07l-51.7343,19.2158c-2.6514.9844-4.0752.3652-4.916-1.8653l-2.9854-7.914c-.8672-2.3018-.1777-3.625,2.4746-4.6094l18.5567-6.8916-5.7256-15.1807-18.5576,6.8926c-2.6495.9854-4.0752.3653-4.9151-1.8642l-2.9863-7.9131c-.84-2.2315-.1758-3.626,2.4746-4.61l51.7363-19.2148c2.6494-.9854,4.0742-.3653,4.9151,1.8642l2.9843,7.9141c.8418,2.2305.1768,3.625-2.4736,4.6094l-18.7978,6.9824,5.7255,15.1787,18.7979-6.9814c2.65-.9844,4.0488-.4375,4.917,1.8652l2.9844,7.9131C1156.533,480.6914,1155.8679,482.0859,1153.2165,483.07Z"/><path class="ak" d="M1104.904,436.4853c-19.5849,12.1289-31.5673,10.86-40.9541-4.2354-9.3457-15.03-5.164-26.3085,14.42-38.4375,19.5859-12.1289,31.5683-10.86,40.914,4.17C1128.67,413.0781,1124.489,424.3564,1104.904,436.4853Zm-18.081-29.08c-10.9941,6.8086-13.3428,10.9785-9.7676,16.7285s8.3623,5.502,19.3565-1.3066,13.3828-10.9131,9.7666-16.7285S1097.8162,400.5966,1086.823,407.4052Z"/><path class="ak" d="M1090.241,364.6269,1049.7058,402.02c-2.0762,1.916-3.625,1.8789-5.24.123l-12.3487-13.4209c-10.8359-11.7793-10.8623-23.0625-.0986-32.9912,10.8272-9.9873,21.94-9.0381,32.83,2.7979l4.2715,4.6435,10.7011-9.8711c2.0137-1.8584,3.5733-1.9345,5.2393-.123l5.7314,6.2295C1092.408,361.163,1092.3181,362.7109,1090.241,364.6269Zm-36.3643,3.6035c-3.5957-3.9082-7.2549-4.0908-10.9687-.665s-3.83,7.0928-.2364,11l4.4815,4.8711,11.2031-10.336Z"/><path class="ak" d="M1029.6384,305.9746l-29.9131,46.3808c-1.5332,2.376-3.039,2.7246-5.0341,1.4219l-7.084-4.6211c-2.0606-1.3447-2.294-2.8271-.7608-5.2041l10.73-16.6367L983.99,318.4511,973.26,335.0878c-1.5342,2.376-3.0381,2.7246-5.0351,1.4219l-7.083-4.6221c-1.9971-1.3017-2.294-2.8261-.7618-5.2031l29.9141-46.38c1.5322-2.3769,3.0391-2.7255,5.0342-1.4228l7.084,4.6221c1.9961,1.3017,2.2929,2.8261.7607,5.2031L992.3044,305.56l13.586,8.8653,10.8681-16.8526c1.5352-2.3769,2.9746-2.7666,5.0352-1.4219l7.084,4.6211C1030.8738,302.0732,1031.1716,303.5986,1029.6384,305.9746Z"/><path class="ak" d="M963.3718,297.0839c-8.4424,21.4864-18.7666,27.6055-35.2285,20.9952-16.39-6.5811-19.7461-18.1944-11.3047-39.6817,8.4434-21.4863,18.7676-27.6055,35.1572-21.0234C968.4568,263.9833,971.8142,275.5966,963.3718,297.0839ZM931.6609,284.35c-4.7383,12.0615-4.14,16.8339,2.1318,19.3525s9.9473-.5371,14.6856-12.5986,4.2119-16.8057-2.1319-19.3526C940.0046,269.2041,936.3992,272.288,931.6609,284.35Z"/><path class="ak" d="M908.9617,247.7216l-10.1495,54.416c-.52,2.7881-1.7783,3.6807-4.1113,3.2247l-17.834-3.4844c-15.6523-3.06-22.3779-12.168-19.6816-26.6172,2.71-14.5332,12.1494-20.3945,27.8769-17.3213l6.1709,1.2051,2.6788-14.3643c.5048-2.7041,1.7031-3.6953,4.1113-3.2256l8.2773,1.6182C908.6345,243.6279,909.4831,244.9326,908.9617,247.7216Zm-26.8955,24.6075c-5.1924-1.0147-8.2237,1.0205-9.1534,6.0058s1.1553,8.0195,6.3477,9.0342l6.4707,1.2646,2.8057-15.04Z"/><path class="ak" d="M830.157,257.47l.1875,7.7461c.0654,2.7539-.9785,3.89-3.4278,3.9287l-20.2031.3174c-2.4482.039-3.4707-1.0645-3.5371-3.8184l-.1855-7.7471c-.0645-2.6679.9013-3.8886,3.35-3.9267l20.2031-.3184C828.9919,253.6132,830.0925,254.8007,830.157,257.47Z"/><path class="ak" d="M764.8562,241.0742l13.3125,53.9209c.6816,2.7636-.09,4.1015-2.3936,4.6543L767.6,301.6123c-2.3769.5712-3.6113-.2852-4.2939-3.0479l-4.7744-19.3418-15.6778,3.7647,4.7745,19.3408c.6816,2.7627-.09,4.1015-2.3926,4.6543l-8.1739,1.9629c-2.3046.5527-3.6123-.2862-4.2939-3.05l-13.3135-53.92c-.6816-2.7636.09-4.1015,2.3936-4.6543l8.1738-1.9629c2.3027-.5527,3.6123.2852,4.2949,3.0489l4.836,19.5918,15.6787-3.7637-4.8369-19.5928c-.6817-2.7627.0146-4.084,2.3925-4.6543l8.1729-1.9629C762.864,237.4726,764.1746,238.3115,764.8562,241.0742Z"/><path class="ak" d="M713.3328,283.2128c9.8437,21.0342,7.2558,32.794-8.7422,40.2071-15.9287,7.3818-26.64,1.7832-36.4844-19.251s-7.2578-32.794,8.6728-40.1748C692.7781,256.581,703.488,262.1787,713.3328,283.2128Zm-30.82,14.28c5.5254,11.8076,9.3956,14.6768,15.4913,11.8526s6.38-7.6182.8535-19.4258-9.3282-14.7071-15.49-11.8516C677.2019,280.9248,676.9871,285.6865,682.5124,297.4931Z"/><path class="ak" d="M640.4851,288.6455l32.5664,45.0888c1.668,2.3115,1.459,3.8457-.459,5.2295L657.9236,349.538c-12.874,9.2813-24.0586,7.8682-32.7061-4.1045-8.6972-12.0429-6.5254-22.9785,6.41-32.3037l5.0752-3.6582-8.5957-11.9023c-1.6192-2.2412-1.5215-3.8008.458-5.2285l6.8086-4.9082C637.2927,286.05,638.8162,286.3349,640.4851,288.6455Zm-.458,36.6357c-4.27,3.0791-4.8574,6.6963-1.874,10.8271s6.6045,4.7139,10.8759,1.6358l5.3223-3.8369-9.001-12.4629Z"/><path class="ak" d="M575.6628,341.4482,618.3,377.1269c2.1855,1.8291,2.3632,3.37.8515,5.19l-5.3662,6.4571c-1.56,1.8789-3.0557,1.9218-5.24.0937L593.2507,376.07l-10.292,12.3877,15.294,12.7978c2.1845,1.8272,2.3613,3.37.8506,5.1895l-5.3672,6.458c-1.5108,1.8193-3.0547,1.9218-5.24.0927L545.86,377.3173c-2.1855-1.8281-2.3643-3.3711-.8516-5.19l5.3662-6.458c1.5118-1.8193,3.0557-1.9209,5.2393-.0928L571.1072,378.54,581.4,366.1533,565.907,353.1894c-2.1846-1.8281-2.4112-3.3125-.8506-5.19l5.3662-6.4571C571.9333,339.7216,573.4773,339.62,575.6628,341.4482Z"/><path class="ak" d="M559.4949,406.2509c20.3642,11.1211,25.29,22.17,16.9257,37.7119-8.3281,15.4756-20.206,17.3457-40.5693,6.2227s-25.29-22.1709-16.9619-37.6455C527.2537,396.998,539.1326,395.1279,559.4949,406.2509Zm-16.1123,29.94c11.4306,6.2431,16.2255,6.2509,19.4121.3291s.5634-9.9649-10.8662-16.2081c-11.4317-6.2431-16.19-6.3183-19.4131-.33S531.9519,429.9482,543.3826,436.1914Z"/><path class="ak" d="M504.5359,454.3056l52.8525,16.8291c2.708.8633,3.458,2.2256,2.7569,4.4912l-5.3663,17.3194c-4.708,15.2-14.458,20.7666-28.4921,16.2968-14.1163-4.4941-18.9151-14.6132-14.1827-29.8857l1.8555-5.9932-13.9521-4.4424c-2.625-.8359-3.4815-2.1523-2.7559-4.49l2.49-8.039C500.4431,454.1269,501.8279,453.4423,504.5359,454.3056Zm21.5107,29.8115c-1.5625,5.042.13,8.3106,4.9727,9.8526s8.0732-.1592,9.6357-5.2012l1.9473-6.2852-14.6084-4.6513Z"/><path class="ak" d="M484.4963,535.7841l55.2642,3.1778c2.831.163,3.8955,1.3,3.7793,3.6738l-.4141,8.4228c-.1191,2.4512-1.2842,3.3829-4.1162,3.22l-19.8232-1.14-.792,16.1592,19.8232,1.14c2.8321.1622,3.8946,1.3,3.7783,3.6729l-.4121,8.4238c-.1162,2.375-1.2841,3.3828-4.1162,3.22l-55.2651-3.1778c-2.8311-.1631-3.8945-1.2988-3.7783-3.6738l.4131-8.4238c.1162-2.3741,1.2851-3.3819,4.1162-3.2188l20.08,1.1543.7919-16.1582-20.0786-1.1553c-2.833-.1631-3.8994-1.2226-3.7793-3.6738l.4131-8.4228C480.4963,536.63,481.6643,535.621,484.4963,535.7841Z"/><path class="ak" d="M510.3328,597.7167c22.8544-3.2509,33.3789,2.6983,36.0087,20.2413,2.6192,17.4677-5.7177,26.1-28.5722,29.3515s-33.3775-2.6992-35.9966-20.166C479.1428,609.6,487.48,600.9677,510.3328,597.7167Zm5.0683,33.7959c12.8281-1.8252,16.6494-4.6953,15.6475-11.3789s-5.5069-8.3691-18.335-6.5449-16.6621,4.62-15.6494,11.3789C498.0789,631.7275,502.572,633.3378,515.4011,631.5126Z"/><path class="ak" d="M495.2952,669.3789l52.1313-18.126c2.6719-.9287,4.084-.2793,4.8779,1.9678l6.0733,17.1806c5.331,15.0781.8945,25.4121-12.9483,30.2246-13.9248,4.8408-23.79-.4385-29.1464-15.5888l-2.1016-5.9444L500.42,683.8779c-2.5908.9-4.0576.3515-4.8755-1.9678l-2.8194-7.9746C491.93,671.6884,492.6233,670.3076,495.2952,669.3789Zm34.934,11.1357c1.7686,5.001,5.0674,6.6221,9.8438,4.9609s6.333-4.97,4.5644-9.9716l-2.2031-6.2334-14.41,5.0087Z"/><path class="ak" d="M544.0037,732.9306l6.5761-4.02c2.3379-1.43,3.8526-1.0928,5.1407,1.0059l10.6308,17.3086c1.2881,2.0986.8613,3.5312-1.4766,4.9609l-6.5742,4.02c-2.2656,1.3848-3.8125,1.1582-5.1015-.94l-10.6309-17.31C541.28,735.8583,541.74,734.3154,544.0037,732.9306Z"/><path class="w" d="M732.5457,778.8989c-7.2293,4.9566-14.9164,7.6212-22.8831,7.6212-37.31,0-68.3793-58.3395-75.01-135.419-63.3255-43.958-98.8041-98.6683-81.0139-129.4659,12.0919-20.9278,45.9762-26.0834,88.3233-16.9422C666.1623,410.5357,738.5779,342.19,824.1369,342.19c85.2707,0,157.4657,67.8705,181.9039,161.5019,43.1611-9.65,77.8256-4.6467,90.07,16.5692,17.9259,31.0523-18.2311,86.3389-82.4384,130.4666C1007.177,727.994,976.43,786.52,939.4591,786.52c-7.8521,0-15.4327-2.6457-22.5726-7.5637"/><path class="w" d="M916.5752,776.0175c-11.2809,16.3247-24.6661,25.7658-39.017,25.7658a35.1826,35.1826,0,0,1-16.5691-4.3077c-.6953-.373-1.3907-.763-2.069-1.187-.5766.6952-1.1532,1.3738-1.7468,2.035-9.7006,10.9048-20.6223,17.0271-32.1884,17.0271-11.4135,0-22.2-5.97-31.7985-16.6031-.7292-.7971-1.4415-1.6111-2.1368-2.459-.865.5258-1.7129,1.0175-2.5947,1.4584a34.8841,34.8841,0,0,1-16.0434,4.0363c-14.568,0-28.1353-9.7345-39.5318-26.5071"/><path class="al" d="M732.5457,778.8989c-7.2293,4.9566-14.9164,7.6212-22.8831,7.6212-37.31,0-68.3793-58.3395-75.01-135.419-63.3255-43.958-98.8041-98.6683-81.0139-129.4659,12.0919-20.9278,45.9762-26.0834,88.3233-16.9422C666.1623,410.5357,738.5779,342.19,824.1369,342.19c85.2707,0,157.4657,67.8705,181.9039,161.5019,43.1611-9.65,77.8256-4.6467,90.07,16.5692,17.9259,31.0523-18.2311,86.3389-82.4384,130.4666C1007.177,727.994,976.43,786.52,939.4591,786.52c-7.8521,0-15.4327-2.6457-22.5726-7.5637"/><path class="al" d="M916.5752,776.0175c-11.2809,16.3247-24.6661,25.7658-39.017,25.7658a35.1826,35.1826,0,0,1-16.5691-4.3077c-.6953-.373-1.3907-.763-2.069-1.187-.5766.6952-1.1532,1.3738-1.7468,2.035-9.7006,10.9048-20.6223,17.0271-32.1884,17.0271-11.4135,0-22.2-5.97-31.7985-16.6031-.7292-.7971-1.4415-1.6111-2.1368-2.459-.865.5258-1.7129,1.0175-2.5947,1.4584a34.8841,34.8841,0,0,1-16.0434,4.0363c-14.568,0-28.1353-9.7345-39.5318-26.5071"/><path class="w" d="M732.5457,778.8989c-7.2293,4.9566-14.9164,7.6212-22.8831,7.6212-37.31,0-68.3793-58.3395-75.01-135.419-63.3255-43.958-98.8041-98.6683-81.0139-129.4659,12.0919-20.9278,45.9762-26.0834,88.3233-16.9422C666.1623,410.5357,738.5779,342.19,824.1369,342.19c85.2707,0,157.4657,67.8705,181.9039,161.5019,43.1611-9.65,77.8256-4.6467,90.07,16.5692,17.9259,31.0523-18.2311,86.3389-82.4384,130.4666C1007.177,727.994,976.43,786.52,939.4591,786.52c-7.8521,0-15.4327-2.6457-22.5726-7.5637"/><path class="w" d="M916.5752,776.0175c-11.2809,16.3247-24.6661,25.7658-39.017,25.7658a35.1826,35.1826,0,0,1-16.5691-4.3077c-.6953-.373-1.3907-.763-2.069-1.187-.5766.6952-1.1532,1.3738-1.7468,2.035-9.7006,10.9048-20.6223,17.0271-32.1884,17.0271-11.4135,0-22.2-5.97-31.7985-16.6031-.7292-.7971-1.4415-1.6111-2.1368-2.459-.865.5258-1.7129,1.0175-2.5947,1.4584a34.8841,34.8841,0,0,1-16.0434,4.0363c-14.568,0-28.1353-9.7345-39.5318-26.5071"/><path class="am" d="M1013.6748,650.73c-6.5,77.26-37.24,135.79-74.22,135.79-7.85,0-15.43-2.65-22.57-7.56h-2.42c-10.82,14.51-23.44,22.82-36.91,22.82a35.2771,35.2771,0,0,1-16.57-4.3c-.69-.38-1.39-.77-2.06-1.19-.58.69-1.16,1.37-1.75,2.03-9.7,10.91-20.62,17.03-32.19,17.03-11.41,0-22.2-5.97-31.8-16.6-.73-.8-1.44-1.61-2.14-2.46-.86.52-1.71,1.02-2.59,1.46a34.9492,34.9492,0,0,1-16.04,4.03c-13.49,0-26.12-8.34-36.96-22.88h-2.91c-7.23,4.96-14.92,7.62-22.88,7.62-37.31,0-68.38-58.34-75.01-135.42-63.33-43.96-98.81-98.67-81.02-129.47,12.1-20.92,45.98-26.08,88.33-16.94,24.2-94.15,96.61-162.5,182.17-162.5,85.27,0,157.47,67.87,181.91,161.5,43.16-9.65,77.82-4.65,90.07,16.57C1114.0347,551.3105,1077.8747,606.6,1013.6748,650.73Z"/><path class="an" d="M732.5457,778.8989c-7.2293,4.9566-14.9164,7.6212-22.8831,7.6212-37.31,0-68.3793-58.3395-75.01-135.419-63.3255-43.958-98.8041-98.6683-81.0139-129.4659,12.0919-20.9278,45.9762-26.0834,88.3233-16.9422C666.1623,410.5357,738.5779,342.19,824.1369,342.19c85.2707,0,157.4657,67.8705,181.9039,161.5019,43.1611-9.65,77.8256-4.6467,90.07,16.5692,17.9259,31.0523-18.2311,86.3389-82.4384,130.4666C1007.177,727.994,976.43,786.52,939.4591,786.52c-7.8521,0-15.4327-2.6457-22.5726-7.5637"/><path class="an" d="M916.5752,776.0175c-11.2809,16.3247-24.6661,25.7658-39.017,25.7658a35.1826,35.1826,0,0,1-16.5691-4.3077c-.6953-.373-1.3907-.763-2.069-1.187-.5766.6952-1.1532,1.3738-1.7468,2.035-9.7006,10.9048-20.6223,17.0271-32.1884,17.0271-11.4135,0-22.2-5.97-31.7985-16.6031-.7292-.7971-1.4415-1.6111-2.1368-2.459-.865.5258-1.7129,1.0175-2.5947,1.4584a34.8841,34.8841,0,0,1-16.0434,4.0363c-14.568,0-28.1353-9.7345-39.5318-26.5071"/><path class="ao" d="M830.2847,585.1959c-1.1024,1.8317-2.2386,3.5956-3.3918,5.2915-.7123-.4749-1.4076-1.0008-2.12-1.5434C826.6385,587.7568,828.47,586.5018,830.2847,585.1959Z"/><path class="ao" d="M830.2847,585.1959c-1.1024,1.8317-2.2386,3.5956-3.3918,5.2915-.7123-.4749-1.4076-1.0008-2.12-1.5434C826.6385,587.7568,828.47,586.5018,830.2847,585.1959Z"/><path class="ap" d="M864.4133,553.5333c0,22.245-16.1835,40.278-36.1467,40.278s-36.1467-18.033-36.1467-40.278l24.5117,3.2386a84.2887,84.2887,0,0,0,21.5824.0643Z"/><ellipse class="aq" cx="765.6209" cy="489.0885" rx="27.0314" ry="40.278"/><ellipse class="ar" cx="762.4191" cy="466.6176" rx="11.4147" ry="12.7194"/><ellipse class="aq" cx="880.9432" cy="489.0885" rx="27.0314" ry="40.278"/><ellipse class="ar" cx="877.7414" cy="466.6176" rx="11.4147" ry="12.7194"/></svg>