<svg xmlns="http://www.w3.org/2000/svg" xmlns:xlink="http://www.w3.org/1999/xlink" viewBox="0 0 518.7513 516.5032"><defs><style>.a,.ac,.ag,.o{fill:none;}.b{clip-path:url(#a);}.ak,.c,.q{fill:#95d9cc;}.aa,.ab,.ac,.ad,.ag,.ah,.ai,.aj,.c,.d,.e,.f,.g,.h,.i,.j,.k,.l,.m,.n,.o,.q,.r,.s,.t,.u,.v,.w,.x,.y,.z{stroke:#1d1f21;}.ab,.ac,.ad,.ae,.ag,.ah,.aj,.c,.d,.e,.f,.g,.h,.i,.j,.n,.o,.q,.r,.s,.t,.u,.v,.w,.x{stroke-miterlimit:10;}.c,.d,.e,.f,.g,.h,.i,.j,.k,.l,.m,.n,.o{stroke-width:0.1585px;}.ae,.ah,.d,.p,.r{fill:#fffdfa;}.e,.l,.s,.z{fill:#f86151;}.aa,.f,.m,.t{fill:#0eb495;}.g,.u{fill:#054b8c;}.h,.v{fill:#f8a75d;}.i,.w{fill:#ffd1a8;}.ad,.ai,.j,.x{fill:#ffc5bf;}.aa,.ai,.j,.k,.l,.m,.x,.y,.z{stroke-linecap:round;}.ab,.k,.n,.y{fill:#b9d9f6;}.aa,.ai,.k,.l,.m,.y,.z{stroke-linejoin:round;}.aa,.ab,.ac,.q,.r,.s,.t,.u,.v,.w,.x,.y,.z{stroke-width:0.3507px;}.ad{stroke-width:0.3241px;}.ae{stroke:#95d9cc;stroke-width:15.2799px;}.af{fill:url(#b);}.ag,.ah,.ai,.aj{stroke-width:0.3396px;}.aj{fill:#1d1f21;}.al{font-size:12px;font-family:MyriadPro-Regular, Myriad Pro;}.am{letter-spacing:-0.014em;}.an{letter-spacing:-0.01em;}</style><clipPath id="a" transform="translate(0 -0.8086)"><rect class="a" x="15.0794" width="360" height="518"/></clipPath><radialGradient id="b" cx="183.1527" cy="213.5536" r="156.9971" gradientUnits="userSpaceOnUse"><stop offset="0" stop-color="#fffdfa" stop-opacity="0.5"/><stop offset="0.4637" stop-color="#fafcfe" stop-opacity="0.5338"/><stop offset="0.5022" stop-color="#f3f8fd" stop-opacity="0.5833"/><stop offset="0.6576" stop-color="#daebfa" stop-opacity="0.7626"/><stop offset="0.7978" stop-color="#c8e1f8" stop-opacity="0.8925"/><stop offset="0.9166" stop-color="#bddbf6" stop-opacity="0.9716"/><stop offset="1" stop-color="#b9d9f6"/></radialGradient></defs><title>landing-mobile_1</title><g class="b"><rect class="c" x="337.4903" y="456.8352" width="30.9162" height="24.3366" rx="4.2259" transform="translate(-7.8007 931.2252) rotate(-105.1144)"/><rect class="d" x="335.8234" y="456.1359" width="30.9162" height="24.3366" rx="4.2259" transform="translate(-9.2271 928.7342) rotate(-105.1144)"/><path class="e" d="M331.1335,467.7792H353.598a4.2259,4.2259,0,0,1,4.2259,4.2259v1.64a0,0,0,0,1,0,0H326.9076a0,0,0,0,1,0,0v-1.64A4.2259,4.2259,0,0,1,331.1335,467.7792Z" transform="translate(-22.7924 923.1628) rotate(-105.1144)"/><rect class="d" x="340.4432" y="475.828" width="1.9025" height="5.0734" rx="0.9513" transform="translate(-31.4044 931.8733) rotate(-105.1144)"/><rect class="d" x="339.203" y="471.2362" width="1.9025" height="5.0734" rx="0.9513" transform="matrix(-0.2607, -0.9654, 0.9654, -0.2607, -28.5354, 924.8865)"/><rect class="d" x="337.9628" y="466.6444" width="1.9025" height="5.0734" rx="0.9513" transform="translate(-25.6655 917.9005) rotate(-105.1144)"/><rect class="d" x="336.7226" y="462.0526" width="1.9025" height="5.0734" rx="0.9513" transform="translate(-22.7965 910.9138) rotate(-105.1144)"/><path class="f" d="M359.5052,472.5551c-.9821-3.5891-3.644-5.988-5.9455-5.3582s-3.3709,4.05-2.3888,7.6389Z" transform="translate(0 -0.8086)"/><circle class="f" cx="352.9037" cy="463.773" r="3.4087"/><rect class="c" x="114.9163" y="396.6909" width="30.9162" height="24.3366" rx="4.2259" transform="translate(-102.0988 47.3298) rotate(-15.1144)"/><rect class="d" x="113.1667" y="395.6854" width="30.9162" height="24.3366" rx="4.2259" transform="matrix(0.9654, -0.2607, 0.2607, 0.9654, -101.8972, 46.8388)"/><path class="e" d="M114.9845,396.0049H137.449a4.2259,4.2259,0,0,1,4.2259,4.2259v1.64a0,0,0,0,1,0,0H110.7586a0,0,0,0,1,0,0v-1.64A4.2259,4.2259,0,0,1,114.9845,396.0049Z" transform="translate(-99.6557 45.9025) rotate(-15.1144)"/><rect class="d" x="117.613" y="395.43" width="1.9025" height="5.0734" rx="0.9513" transform="translate(-99.6664 43.873) rotate(-15.1143)"/><rect class="d" x="122.2048" y="394.1898" width="1.9025" height="5.0734" rx="0.9513" transform="translate(-99.1849 45.0279) rotate(-15.1144)"/><rect class="d" x="126.7966" y="392.9496" width="1.9025" height="5.0734" rx="0.9513" transform="translate(-98.7019 46.1817) rotate(-15.1143)"/><rect class="d" x="131.3884" y="391.7094" width="1.9025" height="5.0734" rx="0.9513" transform="translate(-98.22 47.3364) rotate(-15.1143)"/><circle class="g" cx="121.0011" cy="407.4631" r="2.9737"/><circle class="h" cx="128.2117" cy="405.5156" r="2.9737"/><circle class="e" cx="122.9125" cy="414.5401" r="2.9737"/><circle class="g" cx="130.1231" cy="412.5926" r="2.9737"/><circle class="f" cx="135.4222" cy="403.5681" r="2.9737"/><circle class="h" cx="137.3337" cy="410.6451" r="2.9737"/><rect class="c" x="30.0003" y="463.6513" width="30.9162" height="24.3366" rx="4.2259" transform="translate(-402.0481 642.9655) rotate(-105.1144)"/><rect class="d" x="28.2921" y="462.7989" width="30.9162" height="24.3366" rx="4.2259" transform="matrix(-0.2607, -0.9654, 0.9654, -0.2607, -403.3788, 640.2416)"/><path class="e" d="M32.5815,459.9424H48.3871a4.2259,4.2259,0,0,1,4.2259,4.2259v1.64a0,0,0,0,1,0,0H28.3556a0,0,0,0,1,0,0v-1.64a4.2259,4.2259,0,0,1,4.2259-4.2259Z" transform="translate(-119.2929 25.7598) rotate(-15.1144)"/><rect class="g" x="47.9372" y="475.9784" width="1.9025" height="14.7446" rx="0.9513" transform="translate(-404.9944 655.7714) rotate(-105.1144)"/><rect class="g" x="46.697" y="471.3866" width="1.9025" height="14.7446" rx="0.9513" transform="translate(-402.1257 648.7833) rotate(-105.1141)"/><rect class="g" x="45.4568" y="466.7948" width="1.9025" height="14.7446" rx="0.9513" transform="matrix(-0.2607, -0.9654, 0.9654, -0.2607, -399.2559, 641.798)"/><rect class="g" x="44.2166" y="462.203" width="1.9025" height="14.7446" rx="0.9513" transform="matrix(-0.2607, -0.9654, 0.9654, -0.2607, -396.3864, 634.8119)"/><rect class="f" x="37.7028" y="485.1665" width="1.9025" height="2.0611" rx="0.872" transform="translate(-420.6451 649.4799) rotate(-105.1144)"/><rect class="f" x="36.4626" y="480.5747" width="1.9025" height="2.0611" rx="0.872" transform="translate(-417.7757 642.4935) rotate(-105.1144)"/><rect class="f" x="35.2224" y="475.9829" width="1.9025" height="2.0611" rx="0.872" transform="translate(-414.9063 635.5071) rotate(-105.1144)"/><rect class="f" x="33.9822" y="471.3911" width="1.9025" height="2.0611" rx="0.872" transform="translate(-412.037 628.5207) rotate(-105.1144)"/><circle class="f" cx="50.8758" cy="458.4564" r="4.2639"/><polygon class="d" points="53.758 456.49 51.876 459.766 51.3 460.767 50.3 460.192 47.632 458.659 48.207 457.658 50.874 459.191 52.757 455.915 53.758 456.49"/><rect class="c" x="57.6099" y="29.1447" width="30.9162" height="24.3366" rx="4.2259" transform="translate(-8.2446 19.6728) rotate(-15.1144)"/><rect class="d" x="55.7899" y="28.4867" width="30.9162" height="24.3366" rx="4.2259" transform="translate(-8.136 19.1755) rotate(-15.1144)"/><circle class="f" cx="55.3173" cy="32.2428" r="4.2639"/><path class="d" d="M57.3361,35.0536a2.7931,2.7931,0,0,1-1.1182.59,2.7581,2.7581,0,0,1-3.0416-1.0793l-.5881.1589-.07-.69.3413-.0922a2.1066,2.1066,0,0,1-.0642-.2085c-.0215-.08-.0431-.16-.0574-.2416l-.4429.12-.0695-.69.4865-.1314A2.7869,2.7869,0,0,1,54.8193,30.35a2.966,2.966,0,0,1,1.1551-.0782l.1006.9777a2.0224,2.0224,0,0,0-1.0013.0134,1.7821,1.7821,0,0,0-1.2794,1.2336l2.3307-.6295.0768.6882L53.74,33.22c.0143.0818.0286.1637.05.2436a1.95,1.95,0,0,0,.0714.2066l2.3741-.6413.0769.6882-2.062.557a1.8013,1.8013,0,0,0,1.7614.4356,2.1454,2.1454,0,0,0,.9294-.5392Z" transform="translate(0 -0.8086)"/><rect class="i" x="74.8544" y="26.1395" width="1.9025" height="14.7447" rx="0.9513" transform="translate(63.2192 114.6246) rotate(-105.1144)"/><rect class="i" x="73.9449" y="22.7722" width="1.9025" height="14.7446" rx="0.9513" transform="translate(65.3235 109.5013) rotate(-105.1144)"/><rect class="i" x="77.4475" y="30.7961" width="1.9025" height="11.2567" rx="0.9513" transform="translate(63.6762 120.8) rotate(-105.1141)"/><path class="j" d="M87.4562,40.522l-.0014,0a6.5511,6.5511,0,0,0-5.1617-.7978l-.0014,0,1.6263,6.3364,3.505-5.4643.0214-.0483" transform="translate(0 -0.8086)"/><path class="k" d="M90.1927,44.02,83.918,46.0614l3.505-5.4643.0332-.0751A6.5365,6.5365,0,0,1,90.1927,44.02Z" transform="translate(0 -0.8086)"/><path class="l" d="M90.2836,47.8512a6.5713,6.5713,0,1,1-8.0419-8.1127l.05-.0135,1.6263,6.3364Z" transform="translate(0 -0.8086)"/><path class="m" d="M90.2981,44.37a6.5382,6.5382,0,0,1-.0145,3.4815l-6.3656-1.79L90.1927,44.02l.0018.0011,0,.0048C90.2325,44.1384,90.2668,44.2537,90.2981,44.37Z" transform="translate(0 -0.8086)"/><circle class="f" cx="61.3195" cy="42.2982" r="2.9737"/><circle class="h" cx="63.226" cy="49.3569" r="2.9737"/><circle class="e" cx="68.5245" cy="40.3367" r="2.9737"/><circle class="g" cx="70.4359" cy="47.4138" r="2.9737"/><path class="d" d="M62.8235,43.0785l-1.0447.2821.3,1.11-.74.2-.3-1.11-1.0328.2789-.19-.7044,1.0329-.2789-.3-1.11.74-.2.3,1.11,1.0446-.2821Z" transform="translate(0 -0.8086)"/><path class="d" d="M68.8521,47.7007l2.6626-.7192.1725.6387-2.6626.7191Zm.3321,1.23,2.6626-.7192.1725.6387-2.6625.7192Z" transform="translate(0 -0.8086)"/><path class="d" d="M62.4415,49.407a.56.56,0,1,1,.6834.3726A.544.544,0,0,1,62.4415,49.407Zm.4885,1.8089a.56.56,0,1,1,.6835.3726A.5443.5443,0,0,1,62.93,51.2159Z" transform="translate(0 -0.8086)"/><path class="d" d="M67.097,40.9392l2.4863-.6715.281,1.0405L67.378,41.98Z" transform="translate(0 -0.8086)"/><rect class="c" x="36.9884" y="233.871" width="30.9162" height="24.3366" rx="4.2259" transform="translate(-62.3397 21.3779) rotate(-15.1144)"/><path class="i" d="M63.4788,233.6823l4.1423,15.3367A4.2248,4.2248,0,0,1,64.6437,254.2l-21.6886,5.8579a4.2249,4.2249,0,0,1-5.1808-2.9773L33.632,241.7436a4.2248,4.2248,0,0,1,2.9774-5.1807l.3291-.0889a5.0314,5.0314,0,0,0,.1121,2.1178.8208.8208,0,0,0,1.0051.5776l24.8677-6.7166A4.16,4.16,0,0,1,63.4788,233.6823Z" transform="translate(0 -0.8086)"/><path class="c" d="M36.9385,236.474l4.2856-1.1575a5.0325,5.0325,0,0,0,.1122,2.1177.8206.8206,0,0,0,1.0051.5776l-4.2857,1.1576a.8208.8208,0,0,1-1.0051-.5776,5.0314,5.0314,0,0,1-.1121-2.1178" transform="translate(0 -0.8086)"/><path class="e" d="M46.9332,236.7716l-4.5918,1.24a.8206.8206,0,0,1-1.0051-.5776,5.0325,5.0325,0,0,1-.1122-2.1177l4.5919-1.24a5.0308,5.0308,0,0,0,.1121,2.1177A.8206.8206,0,0,0,46.9332,236.7716Z" transform="translate(0 -0.8086)"/><path class="f" d="M51.525,235.5314l-4.5918,1.24a.8206.8206,0,0,1-1.0051-.5776,5.0308,5.0308,0,0,1-.1121-2.1177l4.5918-1.24a5.0308,5.0308,0,0,0,.1121,2.1177A.8207.8207,0,0,0,51.525,235.5314Z" transform="translate(0 -0.8086)"/><path class="h" d="M56.4229,234.2086l-4.8979,1.3228a.8207.8207,0,0,1-1.0051-.5776,5.0308,5.0308,0,0,1-.1121-2.1177l4.8979-1.3229a5.0314,5.0314,0,0,0,.1121,2.1178A.8209.8209,0,0,0,56.4229,234.2086Z" transform="translate(0 -0.8086)"/><path class="g" d="M62.9234,232.4528l-6.5005,1.7558a.8209.8209,0,0,1-1.0051-.5776,5.0314,5.0314,0,0,1-.1121-2.1178l2.9923-.8082A4.225,4.225,0,0,1,62.9234,232.4528Z" transform="translate(0 -0.8086)"/><path class="c" d="M380.1865,207.2216l-6.5453-.2131a4.5548,4.5548,0,0,1-1.4271.6633L358.7808,211.3a4.6133,4.6133,0,0,1-5.657-3.25l-.7379-2.7318-2.1469.58a4.5541,4.5541,0,0,1-1.567.1454l-5.5481,3.4794,1.5526-6.5773c-.0349-.0963-.0654-.1957-.0929-.2976l-2.3443-8.68a4.6119,4.6119,0,0,1,3.25-5.6554l13.4333-3.6282a4.6135,4.6135,0,0,1,5.6571,3.25l.7378,2.7318,2.147-.58a4.6119,4.6119,0,0,1,5.6553,3.25l2.3444,8.68c.0275.1019.0512.203.07.3039Z" transform="translate(0 -0.8086)"/><path class="i" d="M362.9723,187.2932l2.3443,8.68a4.6133,4.6133,0,0,1-3.2518,5.6558l-13.4333,3.6282a4.5539,4.5539,0,0,1-1.567.1454l-5.548,3.4794,1.5526-6.5773c-.035-.0963-.0654-.1956-.0929-.2975l-2.3444-8.68a4.6119,4.6119,0,0,1,3.25-5.6553l13.4333-3.6282A4.6134,4.6134,0,0,1,362.9723,187.2932Z" transform="translate(0 -0.8086)"/><path class="n" d="M349.172,198.7291l2.3444,8.68a4.6132,4.6132,0,0,0,5.657,3.25l13.4333-3.6282a4.5548,4.5548,0,0,0,1.4271-.6633l6.5453.2131-4.6528-4.9012c-.0183-.1008-.042-.202-.07-.3039l-2.3444-8.68a4.6118,4.6118,0,0,0-5.6553-3.25l-13.4333,3.6282A4.6133,4.6133,0,0,0,349.172,198.7291Z" transform="translate(0 -0.8086)"/><circle class="d" cx="356.4548" cy="200.933" r="1.5725"/><circle class="d" cx="367.6942" cy="197.8974" r="1.5725"/><circle class="d" cx="362.0135" cy="199.4317" r="1.5725"/><path class="c" d="M292.2028,21.6866a6.5494,6.5494,0,0,1-7.0725,3.802L279.296,38.6361l-.6854,1.5451a4.8132,4.8132,0,0,1-6.3522,2.4467l-.85-.3763L263.46,44.5359a4.2253,4.2253,0,0,1-5.23-2.8923l-4.4124-15.3492a4.2247,4.2247,0,0,1,2.8938-5.23l10.3526-2.9761a4.1978,4.1978,0,0,1,2.228-.0307,6.5493,6.5493,0,0,1,7.5291-10.3615,6.4783,6.4783,0,0,1,2.1006,1.4848,5.7421,5.7421,0,0,1,7.4417,3.3018,6.5491,6.5491,0,0,1,5.84,9.2038Z" transform="translate(0 -0.8086)"/><line class="o" x1="273.6603" y1="20.8016" x2="269.6306" y2="29.8829"/><line class="o" x1="280.6776" y1="23.9155" x2="276.6479" y2="32.9968"/><line class="o" x1="277.2515" y1="22.3952" x2="273.2218" y2="31.4765"/><rect class="d" x="251.592" y="20.9877" width="24.4227" height="19.2251" rx="4.2259" transform="translate(307.2858 291.78) rotate(-106.0401)"/><path class="e" d="M248.6478,30.299H264.936a4.0672,4.0672,0,0,1,4.0672,4.0672v.5668a0,0,0,0,1,0,0H244.5805a0,0,0,0,1,0,0v-.5668A4.0672,4.0672,0,0,1,248.6478,30.299Z" transform="translate(296.3997 287.6143) rotate(-106.0401)"/><rect class="d" x="255.3709" y="36.669" width="1.5029" height="4.0078" rx="0.6596" transform="translate(289.7241 294.7012) rotate(-106.0401)"/><rect class="d" x="254.3327" y="33.0579" width="1.5029" height="4.0078" rx="0.6596" transform="translate(291.8695 289.0946) rotate(-106.0401)"/><rect class="d" x="253.2945" y="29.4468" width="1.5029" height="4.0078" rx="0.6596" transform="translate(294.0149 283.488) rotate(-106.0401)"/><rect class="d" x="252.2563" y="25.8358" width="1.5029" height="4.0078" rx="0.6596" transform="translate(296.1604 277.8813) rotate(-106.0401)"/><path class="d" d="M286.4336,20.0524l-7.7759,17.5235-15.0253-6.6674,7.7759-17.5235c.8648-1.949,3.5355-2.6544,5.966-1.5759l6.2248,2.7622C286.03,15.65,287.2985,18.1034,286.4336,20.0524Z" transform="translate(0 -0.8086)"/><path class="g" d="M278.6577,37.5759l-.685,1.5438a4.8137,4.8137,0,0,1-6.3529,2.4477l-6.2248-2.7622a4.8137,4.8137,0,0,1-2.4477-6.3529l.6851-1.5438Z" transform="translate(0 -0.8086)"/><path class="d" d="M271.5454,18.8632a6.6323,6.6323,0,0,1-.6755-.2567,6.5482,6.5482,0,1,1,9.1668-5.27" transform="translate(0 -0.8086)"/><path class="d" d="M280.6527,13.6532a6.5452,6.5452,0,1,1,1.52,9.91" transform="translate(0 -0.8086)"/><path class="d" d="M275.104,11.1475a5.7486,5.7486,0,1,1,10.509,4.6633" transform="translate(0 -0.8086)"/><rect class="p" x="279.6195" y="12.4531" width="2.8902" height="1.987" transform="translate(29.6116 -113.6534) rotate(23.9289)"/><line class="d" x1="273.0216" y1="19.7408" x2="268.9918" y2="28.8221"/><line class="d" x1="280.0389" y1="22.8547" x2="276.0092" y2="31.9359"/><line class="d" x1="276.6128" y1="21.3344" x2="272.5831" y2="30.4156"/><rect class="q" x="5.2602" y="345.1968" width="68.3907" height="53.8358" rx="9.3482" transform="translate(-309.4988 506.4245) rotate(-105.1144)"/><rect class="r" x="1.5727" y="343.6497" width="68.3907" height="53.8358" rx="9.3482" transform="translate(-312.6541 500.9142) rotate(-105.1144)"/><path class="s" d="M-8.8019,369.4062H40.8924a9.3482,9.3482,0,0,1,9.3482,9.3482v3.6285a0,0,0,0,1,0,0H-18.15a0,0,0,0,1,0,0v-3.6285A9.3482,9.3482,0,0,1-8.8019,369.4062Z" transform="translate(-342.6623 488.5895) rotate(-105.1144)"/><rect class="r" x="11.7922" y="387.2113" width="4.2087" height="11.2231" rx="2.1043" transform="translate(-361.7141 507.857) rotate(-105.1143)"/><rect class="r" x="9.0488" y="377.0536" width="4.2087" height="11.2231" rx="2.1043" transform="translate(-355.3666 492.4022) rotate(-105.1143)"/><rect class="r" x="6.3053" y="366.896" width="4.2087" height="11.2231" rx="2.1043" transform="translate(-349.0192 476.9473) rotate(-105.1143)"/><rect class="r" x="3.5618" y="356.7383" width="4.2087" height="11.2231" rx="2.1043" transform="translate(-342.6715 461.4934) rotate(-105.1145)"/><path class="t" d="M53.96,379.9712c-2.1726-7.94-8.0611-13.2463-13.1522-11.8531s-7.457,8.9588-5.2843,16.8982Z" transform="translate(0 -0.8086)"/><circle class="t" cx="39.3565" cy="361.524" r="7.5405"/><rect class="q" x="37.6873" y="87.331" width="68.3907" height="53.8358" rx="9.3482" transform="translate(-27.3034 21.8868) rotate(-15.1144)"/><rect class="r" x="33.817" y="85.1068" width="68.3907" height="53.8358" rx="9.3482" transform="translate(-26.8574 20.8007) rotate(-15.1144)"/><path class="s" d="M37.8383,85.8135H87.5326a9.3482,9.3482,0,0,1,9.3482,9.3482V98.79a0,0,0,0,1,0,0H28.49a0,0,0,0,1,0,0V95.1617A9.3482,9.3482,0,0,1,37.8383,85.8135Z" transform="translate(-21.899 18.7294) rotate(-15.1144)"/><rect class="r" x="43.6528" y="84.5416" width="4.2087" height="11.2231" rx="2.1043" transform="matrix(0.9654, -0.2607, 0.2607, 0.9654, -21.9244, 14.2412)"/><rect class="r" x="53.8104" y="81.7981" width="4.2087" height="11.2231" rx="2.1043" transform="translate(-20.8575 16.7947) rotate(-15.1143)"/><rect class="r" x="63.9681" y="79.0546" width="4.2087" height="11.2231" rx="2.1043" transform="translate(-19.7908 19.3484) rotate(-15.1143)"/><rect class="r" x="74.1258" y="76.3112" width="4.2087" height="11.2231" rx="2.1043" transform="translate(-18.724 21.902) rotate(-15.1143)"/><circle class="u" cx="51.1477" cy="112.1405" r="6.5783"/><circle class="v" cx="67.0985" cy="107.8324" r="6.5783"/><circle class="s" cx="55.3761" cy="127.7959" r="6.5783"/><circle class="u" cx="71.3268" cy="123.4877" r="6.5783"/><circle class="t" cx="83.0492" cy="103.5242" r="6.5783"/><circle class="v" cx="87.2775" cy="119.1796" r="6.5783"/><rect class="q" x="145.207" y="20.1218" width="68.3907" height="53.8358" rx="9.3482" transform="translate(180.7686 231.6929) rotate(-105.1144)"/><rect class="r" x="141.4281" y="18.2361" width="68.3907" height="53.8358" rx="9.3482" transform="translate(177.8248 225.6673) rotate(-105.1144)"/><path class="s" d="M150.917,11.9171h34.964a9.3482,9.3482,0,0,1,9.3482,9.3482v3.6285a0,0,0,0,1,0,0h-53.66a0,0,0,0,1,0,0V21.2653a9.3482,9.3482,0,0,1,9.3482-9.3482Z" transform="translate(1.0262 43.7376) rotate(-15.1144)"/><rect class="u" x="184.8857" y="47.391" width="4.2087" height="32.6171" rx="2.1043" transform="translate(174.2509 260.0218) rotate(-105.1143)"/><rect class="u" x="182.1422" y="37.2333" width="4.2087" height="32.6171" rx="2.1043" transform="translate(180.5983 244.567) rotate(-105.1143)"/><rect class="u" x="179.3987" y="27.0756" width="4.2087" height="32.6171" rx="2.1043" transform="translate(186.9461 229.1122) rotate(-105.1144)"/><rect class="u" x="176.6552" y="16.9179" width="4.2087" height="32.6171" rx="2.1043" transform="translate(193.2934 213.6573) rotate(-105.1144)"/><rect class="t" x="162.246" y="67.7163" width="4.2087" height="4.5594" rx="1.929" transform="translate(139.6295 246.1036) rotate(-105.1144)"/><rect class="t" x="159.5025" y="57.5586" width="4.2087" height="4.5594" rx="1.929" transform="translate(145.977 230.6487) rotate(-105.1144)"/><rect class="t" x="156.759" y="47.4009" width="4.2087" height="4.5594" rx="1.929" transform="matrix(-0.2607, -0.9654, 0.9654, -0.2607, 152.3244, 215.1939)"/><rect class="t" x="154.0155" y="37.2432" width="4.2087" height="4.5594" rx="1.929" transform="translate(158.6719 199.739) rotate(-105.1144)"/><circle class="t" cx="191.3864" cy="9.6101" r="9.4324"/><polygon class="r" points="197.763 5.261 193.598 12.508 192.324 14.72 190.113 13.449 184.211 10.058 185.481 7.843 191.383 11.235 195.548 3.988 197.763 5.261"/><rect class="q" x="105.7978" y="457.4272" width="68.3907" height="53.8358" rx="9.3482" transform="translate(-121.4488 52.4491) rotate(-15.1144)"/><rect class="r" x="101.7718" y="455.9716" width="68.3907" height="53.8358" rx="9.3482" transform="translate(-121.2085 51.349) rotate(-15.1144)"/><circle class="t" cx="100.7262" cy="465.2607" r="9.4324"/><path class="r" d="M105.1921,470.4985a6.1782,6.1782,0,0,1-2.4737,1.3057,6.1014,6.1014,0,0,1-6.7283-2.3876l-1.301.3514-.1539-1.5268.7549-.2039a4.6822,4.6822,0,0,1-.1419-.4613c-.0477-.1768-.0955-.3535-.1271-.5344l-.98.2646-.1538-1.5268,1.0762-.2907a6.1649,6.1649,0,0,1,4.6608-5.3948,6.5658,6.5658,0,0,1,2.5553-.173l.2225,2.1628a4.4749,4.4749,0,0,0-2.2151.03,3.9422,3.9422,0,0,0-2.83,2.7289l5.1558-1.3925.17,1.5224-5.445,1.4706c.0316.1809.0633.362.111.5388a4.3678,4.3678,0,0,0,.158.457l5.2519-1.4185.17,1.5224-4.5614,1.232a3.9849,3.9849,0,0,0,3.8966.9638,4.7483,4.7483,0,0,0,2.0559-1.1928Z" transform="translate(0 -0.8086)"/><rect class="w" x="143.9448" y="450.7793" width="4.2087" height="32.6171" rx="2.1043" transform="translate(-266.7992 729.0676) rotate(-105.1143)"/><rect class="w" x="141.9329" y="443.3304" width="4.2087" height="32.6171" rx="2.1043" transform="translate(-262.1442 717.7343) rotate(-105.1144)"/><rect class="w" x="149.6812" y="461.0803" width="4.2087" height="24.9012" rx="2.1043" transform="translate(-265.7869 742.7289) rotate(-105.1144)"/><path class="x" d="M171.8218,482.5952l-.0033.0009A14.4918,14.4918,0,0,0,160.4,480.8314l-.0032.0009,3.5976,14.0169,7.7535-12.0877.0474-.107" transform="translate(0 -0.8086)"/><path class="y" d="M177.8751,490.3334l-13.88,4.5158,7.7535-12.0877.0736-.1663A14.4592,14.4592,0,0,1,177.8751,490.3334Z" transform="translate(0 -0.8086)"/><path class="z" d="M178.0762,498.8086a14.5365,14.5365,0,1,1-17.79-17.9464l.1105-.03,3.5976,14.0169Z" transform="translate(0 -0.8086)"/><path class="aa" d="M178.1084,491.1069a14.4628,14.4628,0,0,1-.0322,7.7017l-14.0815-3.9594,13.88-4.5158.0041.0023-.0006.0106C177.9633,490.5954,178.0391,490.85,178.1084,491.1069Z" transform="translate(0 -0.8086)"/><circle class="t" cx="114.0039" cy="487.5047" r="6.5783"/><circle class="v" cx="118.2212" cy="503.1195" r="6.5783"/><circle class="s" cx="129.9423" cy="483.1656" r="6.5783"/><circle class="u" cx="134.1706" cy="498.8209" r="6.5783"/><path class="r" d="M117.3309,488.2506l-2.3109.6241.6634,2.4563-1.6374.4423-.6634-2.4563-2.2849.6171-.4208-1.5582,2.2848-.6171-.6634-2.4563,1.6374-.4422.6634,2.4562,2.3109-.6241Z" transform="translate(0 -0.8086)"/><path class="r" d="M130.667,498.4754l5.89-1.5908.3816,1.4129-5.89,1.5908Zm.7347,2.72,5.89-1.5908.3816,1.4129-5.89,1.5908Z" transform="translate(0 -0.8086)"/><path class="r" d="M116.4859,502.25a1.2387,1.2387,0,1,1,1.5119.8243A1.2036,1.2036,0,0,1,116.4859,502.25Zm1.0807,4.0014a1.2388,1.2388,0,1,1,1.5119.8243A1.2036,1.2036,0,0,1,117.5666,506.2515Z" transform="translate(0 -0.8086)"/><path class="r" d="M126.7844,483.5183l5.5-1.4856.6217,2.3018-5.5,1.4855Z" transform="translate(0 -0.8086)"/><rect class="q" x="280.3328" y="79.7596" width="68.3907" height="53.8358" rx="9.3482" transform="translate(-16.9354 84.894) rotate(-15.1144)"/><path class="w" d="M338.9329,79.3422l9.1633,33.9266a9.3461,9.3461,0,0,1-6.5863,11.4606l-47.9781,12.9584a9.346,9.346,0,0,1-11.46-6.5863L272.908,97.1748a9.3461,9.3461,0,0,1,6.5863-11.4605l.728-.1966a11.1284,11.1284,0,0,0,.2481,4.6848,1.8155,1.8155,0,0,0,2.2233,1.2777l55.0106-14.8578A9.1933,9.1933,0,0,1,338.9329,79.3422Z" transform="translate(0 -0.8086)"/><path class="q" d="M280.2223,85.5177l9.4805-2.5606a11.1284,11.1284,0,0,0,.2481,4.6848,1.8155,1.8155,0,0,0,2.2233,1.2777L282.6937,91.48a1.8155,1.8155,0,0,1-2.2233-1.2777,11.1284,11.1284,0,0,1-.2481-4.6848" transform="translate(0 -0.8086)"/><path class="s" d="M302.3319,86.1761,292.1742,88.92a1.8155,1.8155,0,0,1-2.2233-1.2777,11.1284,11.1284,0,0,1-.2481-4.6848l10.1577-2.7435a11.1284,11.1284,0,0,0,.2481,4.6848A1.8155,1.8155,0,0,0,302.3319,86.1761Z" transform="translate(0 -0.8086)"/><path class="t" d="M312.49,83.4327l-10.1576,2.7434a1.8155,1.8155,0,0,1-2.2233-1.2777,11.1284,11.1284,0,0,1-.2481-4.6848L310.0181,77.47a11.1316,11.1316,0,0,0,.2481,4.6848A1.8157,1.8157,0,0,0,312.49,83.4327Z" transform="translate(0 -0.8086)"/><path class="v" d="M323.3244,80.5063,312.49,83.4327a1.8157,1.8157,0,0,1-2.2233-1.2778,11.1316,11.1316,0,0,1-.2481-4.6848l10.8349-2.9264a11.1284,11.1284,0,0,0,.2481,4.6848A1.8157,1.8157,0,0,0,323.3244,80.5063Z" transform="translate(0 -0.8086)"/><path class="u" d="M337.7043,76.6224l-14.38,3.8839a1.8157,1.8157,0,0,1-2.2233-1.2778,11.1284,11.1284,0,0,1-.2481-4.6848l6.6194-1.7878A9.3461,9.3461,0,0,1,337.7043,76.6224Z" transform="translate(0 -0.8086)"/><path class="q" d="M301.7408,477.5065l-14.4791-.4714a10.0789,10.0789,0,0,1-3.1569,1.4674l-29.7163,8.026a10.2053,10.2053,0,0,1-12.514-7.1886l-1.6322-6.043-4.7494,1.2828a10.0777,10.0777,0,0,1-3.4664.3215l-12.2729,7.6969,3.4345-14.55c-.0774-.2131-.1447-.4329-.2056-.6583l-5.186-19.201a10.2022,10.2022,0,0,1,7.19-12.51l29.7163-8.026a10.2053,10.2053,0,0,1,12.514,7.1886l1.6322,6.043,4.7494-1.2828a10.2022,10.2022,0,0,1,12.51,7.19l5.186,19.201c.0609.2255.1134.4492.1538.6723Z" transform="translate(0 -0.8086)"/><path class="w" d="M263.6606,433.4222l5.186,19.201a10.2054,10.2054,0,0,1-7.1933,12.5114l-29.7162,8.0261a10.0777,10.0777,0,0,1-3.4664.3215l-12.2729,7.6969,3.4345-14.55c-.0774-.213-.1447-.4328-.2056-.6582l-5.186-19.201a10.2022,10.2022,0,0,1,7.19-12.51l29.7163-8.026A10.2053,10.2053,0,0,1,263.6606,433.4222Z" transform="translate(0 -0.8086)"/><path class="ab" d="M233.1327,458.72l5.186,19.201a10.2054,10.2054,0,0,0,12.5141,7.1886l29.7162-8.0261a10.0764,10.0764,0,0,0,3.1569-1.4673l14.4791.4714-10.2926-10.8421c-.04-.2231-.0929-.4469-.1538-.6723l-5.186-19.201a10.2022,10.2022,0,0,0-12.51-7.19l-29.7162,8.0261A10.2053,10.2053,0,0,0,233.1327,458.72Z" transform="translate(0 -0.8086)"/><circle class="r" cx="249.2432" cy="464.5755" r="3.4786"/><circle class="r" cx="274.1063" cy="457.8602" r="3.4786"/><circle class="r" cx="261.5397" cy="461.2543" r="3.4786"/><path class="q" d="M399.5349,359.7166a14.4884,14.4884,0,0,1-15.6454,8.41l-12.9061,29.0838-1.5163,3.418a10.6471,10.6471,0,0,1-14.0518,5.4125l-1.88-.8325-17.584,5.0532a9.3469,9.3469,0,0,1-11.57-6.3982L314.6206,369.91a9.3454,9.3454,0,0,1,6.4016-11.5691l22.9012-6.5835a9.2871,9.2871,0,0,1,4.9287-.0679,14.488,14.488,0,0,1,16.6554-22.9211,14.3311,14.3311,0,0,1,4.6468,3.2846,12.7018,12.7018,0,0,1,16.4619,7.3041,14.487,14.487,0,0,1,12.9187,20.36Z" transform="translate(0 -0.8086)"/><line class="ac" x1="358.5164" y1="358.7389" x2="349.6021" y2="378.8279"/><line class="ac" x1="374.0397" y1="365.6273" x2="365.1254" y2="385.7162"/><line class="ac" x1="366.4607" y1="362.2641" x2="357.5464" y2="382.3531"/><rect class="r" x="309.6985" y="358.1705" width="54.0263" height="42.5284" rx="9.3482" transform="translate(65.0855 807.0705) rotate(-106.0401)"/><path class="s" d="M303.1855,378.7683h36.0318a8.9973,8.9973,0,0,1,8.9973,8.9973v1.2539a0,0,0,0,1,0,0H294.1882a0,0,0,0,1,0,0v-1.2539a8.9973,8.9973,0,0,1,8.9973-8.9973Z" transform="translate(41.0039 797.8554) rotate(-106.0401)"/><rect class="r" x="318.0579" y="392.8594" width="3.3247" height="8.8658" rx="1.459" transform="translate(26.2367 813.5326) rotate(-106.0401)"/><rect class="r" x="315.7613" y="384.8713" width="3.3247" height="8.8658" rx="1.459" transform="translate(30.9826 801.13) rotate(-106.0401)"/><rect class="r" x="313.4647" y="376.8831" width="3.3247" height="8.8658" rx="1.459" transform="translate(35.7286 788.7274) rotate(-106.0401)"/><rect class="r" x="311.1681" y="368.895" width="3.3247" height="8.8658" rx="1.459" transform="translate(40.4747 776.3249) rotate(-106.0401)"/><path class="r" d="M386.7727,356.1014l-17.2013,38.7643-33.2381-14.7492,17.2014-38.7642c1.9131-4.3114,7.8211-5.872,13.1976-3.4862l13.77,6.11C385.8789,346.3623,388.6858,351.79,386.7727,356.1014Z" transform="translate(0 -0.8086)"/><path class="u" d="M369.5714,394.8657l-1.5155,3.4151a10.6485,10.6485,0,0,1-14.0534,5.4146l-13.77-6.11a10.6485,10.6485,0,0,1-5.4146-14.0534l1.5154-3.4151Z" transform="translate(0 -0.8086)"/><path class="r" d="M353.838,353.4708a14.6422,14.6422,0,0,1-1.4942-.5679,14.4855,14.4855,0,1,1,20.2781-11.6586" transform="translate(0 -0.8086)"/><path class="r" d="M373.9846,341.9457a14.4789,14.4789,0,1,1,3.3627,21.9216" transform="translate(0 -0.8086)"/><path class="r" d="M361.71,336.4026a12.7167,12.7167,0,1,1,23.2474,10.3158" transform="translate(0 -0.8086)"/><rect class="p" x="371.6989" y="339.2908" width="6.3936" height="4.3956" transform="translate(170.7311 -123.5162) rotate(23.9289)"/><line class="r" x1="357.1035" y1="356.3922" x2="348.1892" y2="376.4812"/><line class="r" x1="372.6267" y1="363.2806" x2="363.7124" y2="383.3695"/><line class="r" x1="365.0477" y1="359.9174" x2="356.1334" y2="380.0064"/><path class="ad" d="M110.6536,338.0342,124.1458,325.05c.69-.666,1.2168-.6631,1.7773-.0791l1.9883,2.0742c.5782.6035.541,1.1114-.15,1.7754l-4.84,4.6582,3.8144,3.9785,4.84-4.6572c.6914-.665,1.2168-.6631,1.7773-.0791l1.9873,2.0752c.5606.584.542,1.1094-.1494,1.7754l-13.4931,12.9844c-.6914.666-1.2168.664-1.7774.0791l-1.9892-2.0743c-.56-.5839-.54-1.11.1513-1.7763l4.9024-4.7178-3.8135-3.9785-4.9033,4.7187c-.6905.6641-1.1983.6817-1.7764.0782l-1.9893-2.0743C109.9427,339.2256,109.9612,338.7,110.6536,338.0342Z" transform="translate(0 -0.8086)"/><path class="ad" d="M131.9065,346.1064c4.4639-6.4306,8.3575-7.6445,13.2959-4.1806,4.919,3.4482,5.128,7.541.6651,13.9707s-8.3584,7.6445-13.2744,4.1973C127.6526,356.6289,127.4427,352.5371,131.9065,346.1064Zm9.5137,6.6719c2.5059-3.6094,2.6777-5.23.7959-6.55s-3.3359-.5976-5.8408,3.0117c-2.5068,3.6094-2.6992,5.2159-.7969,6.55S138.9153,356.3877,141.42,352.7783Z" transform="translate(0 -0.8086)"/><path class="ad" d="M146.1224,366.6543l7.5673-17.1689c.3877-.88.8741-1.0772,1.6114-.7452l5.6367,2.5352c4.9463,2.2246,6.4687,5.7519,4.4609,10.31-2.0224,4.586-5.6006,5.7871-10.5713,3.5528l-1.95-.878-1.998,4.5323c-.375.8535-.85,1.0879-1.6113.7451l-2.6153-1.1768C145.9153,368.03,145.7347,367.5342,146.1224,366.6543Zm10.81-6.0322c1.6407.7383,2.8028.3017,3.4961-1.2715s.2364-2.7354-1.4052-3.4736l-2.045-.92-2.0918,4.7451Z" transform="translate(0 -0.8086)"/><path class="ad" d="M172.8274,376.8193l3.0684-18.5507c.1582-.95.5781-1.2627,1.373-1.1241l2.82.4922c.8212.1426,1.0927.5752.9355,1.5254l-1.1006,6.6543,5.41.9434,1.1006-6.6543c.1562-.9512.5781-1.2627,1.373-1.1241l2.82.4913c.7949.1386,1.0918.5761.9346,1.5263l-3.0674,18.5518c-.1572.95-.5791,1.2617-1.374,1.123l-2.82-.4912c-.7949-.1387-1.0918-.5752-.9346-1.5263l1.1152-6.74-5.41-.9433-1.1162,6.7412c-.1563.95-.5518,1.2666-1.3721,1.124l-2.82-.4922C172.9681,378.207,172.6712,377.7705,172.8274,376.8193Z" transform="translate(0 -0.8086)"/><path class="ad" d="M194.5853,370.6758c-.2383-7.8643,2.1572-11.1631,8.1591-11.293,5.9737-.1289,8.5664,3.0615,8.8037,10.9248s-2.1562,11.1621-8.1308,11.292C197.4153,381.73,194.8226,378.5391,194.5853,370.6758Zm11.5605-.251c-.1338-4.4141-.957-5.8291-3.2422-5.78s-3.0224,1.4991-2.8887,5.9131.9307,5.83,3.2422,5.78S206.28,374.8389,206.1458,370.4248Z" transform="translate(0 -0.8086)"/><path class="ad" d="M218.15,378.86,214.04,360.4561c-.2119-.9434.0606-1.3916.8477-1.5616l6.0107-1.3c5.2764-1.1406,8.583.8116,9.6748,5.6983,1.0977,4.916-1.0547,8.0175-6.3554,9.1631l-2.08.4492,1.0849,4.8584c.2042.915-.0351,1.3867-.8476,1.5625l-2.79.6025C218.7991,380.0986,218.3606,379.8047,218.15,378.86Zm5.0791-11.3135c1.75-.378,2.42-1.4219,2.044-3.1074a2.3519,2.3519,0,0,0-3.1807-1.98l-2.1817.4716,1.1358,5.087Z" transform="translate(0 -0.8086)"/><path class="ad" d="M245.5345,371.21,236.99,354.3721c-.4375-.8633-.2862-1.3662.4306-1.7276l2.5459-1.28c.7412-.3731,1.2139-.1846,1.6524.6777l3.0644,6.04,4.8838-2.458-3.0654-6.04c-.4375-.8623-.2862-1.3652.4316-1.7266l2.5449-1.2812c.7188-.3614,1.2159-.1846,1.6534.6787l8.5449,16.8379c.4385.8623.2871,1.3662-.4307,1.7265l-2.5469,1.2823c-.7168.36-1.2129.1836-1.6513-.6787l-3.1055-6.1182-4.8838,2.457,3.1055,6.1192c.4385.8623.31,1.3535-.4307,1.7265l-2.5469,1.2813C246.469,372.25,245.9729,372.0723,245.5345,371.21Z" transform="translate(0 -0.8086)"/><path class="ad" d="M259.2972,353.2646c-4.8633-6.2148-4.9112-10.3115-.1973-14.0009,4.6943-3.6739,8.6592-2.6436,13.5215,3.5713s4.9111,10.3115.2168,13.9843C268.1243,360.51,264.16,359.4785,259.2972,353.2646Zm9.0791-7.1074c-2.7276-3.4892-4.2266-4.1406-6.0215-2.7353-1.7969,1.4052-1.5225,3.0166,1.207,6.5039s4.207,4.1572,6.0235,2.7363S271.1067,349.6455,268.3763,346.1572Z" transform="translate(0 -0.8086)"/><path class="ad" d="M282.96,345.8281l-14.21-12.4248c-.7285-.6367-.7774-1.1611-.25-1.7676l4.0283-4.6367c3.5342-4.0693,7.334-4.4648,11.1074-1.166,3.795,3.3174,3.918,7.1084.3662,11.1973l-1.3935,1.6045,3.751,3.2793c.706.6172.7939,1.1425.2509,1.7685l-1.871,2.1524C284.2142,346.4414,283.6888,346.4639,282.96,345.8281Zm-2.6631-12.1738a2.3418,2.3418,0,0,0-.2129-3.7324c-1.3028-1.1387-2.542-1.0528-3.7158.2978l-1.461,1.6826,3.9287,3.4336Z" transform="translate(0 -0.8086)"/><path class="ad" d="M293.4007,320.9121l-2.3047-1.2793c-.8193-.4541-.9766-.958-.5791-1.6865l3.2871-6.0078c.3994-.7285.8936-.84,1.7129-.3848l2.3047,1.2793c.793.44.9892.9356.5918,1.6641l-3.2871,6.0078C294.7278,321.2324,294.1946,321.3525,293.4007,320.9121Z" transform="translate(0 -0.8086)"/><path class="ad" d="M309.1438,304.4248l-18.07-5.3193c-.9257-.2725-1.19-.7305-.9687-1.5039l.7842-2.75c.2285-.7989.6865-1.0166,1.6113-.7442l6.4824,1.9082,1.5049-5.2724-6.4814-1.9092c-.9258-.2715-1.19-.73-.9708-1.5039l.7862-2.749c.2207-.7745.6846-1.0176,1.6113-.7452l18.0693,5.32c.9258.2724,1.1915.7294.97,1.5048l-.7842,2.7491c-.2207.7744-.6865,1.0166-1.6113.7441l-6.5664-1.9336-1.5049,5.2734,6.5664,1.9327c.9248.2724,1.1972.705.97,1.5048l-.7861,2.7481C310.5345,304.4551,310.0706,304.6973,309.1438,304.4248Z" transform="translate(0 -0.8086)"/><path class="ad" d="M305.3313,282.0127c-7.8222-.7051-10.8476-3.4863-10.3593-9.4775.4863-5.9659,3.916-8.1651,11.7392-7.46s10.8467,3.4863,10.3623,9.4521C316.5843,280.52,313.1536,282.7178,305.3313,282.0127Zm.94-11.542c-4.3906-.3965-5.8779.2539-6.0654,2.5361-.1846,2.2823,1.1767,3.1885,5.5674,3.585s5.8769-.2285,6.0664-2.5371C312.0267,271.7461,310.6634,270.8662,306.2708,270.4707Z" transform="translate(0 -0.8086)"/><path class="ad" d="M315.8812,259.5254l-18.6788,1.9023c-.956.0977-1.373-.2275-1.4609-1.03l-.6728-6.14c-.5889-5.3887,1.6865-8.45,6.6455-8.956,4.9882-.5079,7.8447,2.0048,8.4365,7.4189l.2324,2.125,4.9316-.5019c.9288-.0948,1.3711.2,1.462,1.0292l.3115,2.85C317.1771,259.0264,316.8392,259.4277,315.8812,259.5254Zm-10.7-6.4033c-.1963-1.7871-1.1631-2.5791-2.8741-2.4053s-2.4853,1.1445-2.289,2.9316l.2431,2.2286,5.1631-.5264Z" transform="translate(0 -0.8086)"/><path class="ad" d="M311.0647,231.2588l-17.5556,6.5586c-.8994.3349-1.3828.126-1.6709-.6309L290.82,234.5c-.2968-.7812-.0625-1.2305.8379-1.5664l6.2969-2.3525L296,225.43l-6.2979,2.3516c-.8984.3359-1.3828.1269-1.67-.63l-1.0185-2.6866c-.2871-.7568-.0625-1.23.8369-1.5664l17.5556-6.5586c.9-.3349,1.3838-.1259,1.6709.6309l1.0186,2.6865c.2881.7559.0625,1.2305-.8379,1.5664l-6.3779,2.3828,1.9541,5.1524,6.3789-2.3828c.9-.336,1.374-.1514,1.6709.63l1.0176,2.6865C312.19,230.4492,311.9651,230.9238,311.0647,231.2588Z" transform="translate(0 -0.8086)"/><path class="ad" d="M294.636,215.48c-6.6425,4.1279-10.7129,3.7041-13.91-1.4141-3.1817-5.0966-1.77-8.9267,4.873-13.0547s10.7129-3.705,13.8965,1.3916C302.6917,207.5205,301.2786,211.3516,294.636,215.48Zm-6.1582-9.86c-3.7285,2.3174-4.5244,3.7344-3.3056,5.6836s2.8418,1.8633,6.5713-.4541,4.5371-3.7119,3.3066-5.6845C293.8187,203.1934,292.2063,203.3027,288.4778,205.6191Z" transform="translate(0 -0.8086)"/><path class="ad" d="M289.594,191.0664l-13.74,12.7266c-.7041.6523-1.2295.64-1.78.0449l-4.2011-4.5508c-3.6875-3.9922-3.7032-7.8242-.0547-11.2041,3.6679-3.3994,7.4433-3.083,11.1484.9287l1.4541,1.5742,3.627-3.3593c.6826-.6328,1.2119-.6592,1.7793-.045l1.95,2.1114C290.3265,189.8887,290.2972,190.4141,289.594,191.0664Zm-12.3466,1.2481c-1.2237-1.3252-2.4659-1.3848-3.7246-.2188s-1.2959,2.4111-.0733,3.7363l1.5254,1.65,3.7969-3.5176Z" transform="translate(0 -0.8086)"/><path class="ad" d="M268.9729,171.19l-10.1259,15.77c-.5186.8086-1.03.9278-1.709.4873l-2.4092-1.5654c-.7012-.456-.7812-.959-.2617-1.7676l3.6318-5.6562-4.6211-3.002-3.6308,5.6563c-.52.8086-1.03.9277-1.709.4863l-2.4092-1.5644c-.6787-.4414-.78-.959-.2627-1.7676l10.127-15.77c.5175-.8076,1.0293-.9268,1.708-.4864l2.4092,1.5655c.6787.44.7812.958.2617,1.7666l-3.6787,5.73,4.6211,3.0029,3.6787-5.7305c.5185-.8086,1.0078-.9424,1.708-.4863l2.4092,1.5654C269.39,169.8652,269.4915,170.3818,268.9729,171.19Z" transform="translate(0 -0.8086)"/><path class="ad" d="M246.4446,168.2051c-2.8506,7.3017-6.3506,9.3877-11.9433,7.1572-5.5684-2.2217-6.7168-6.1611-3.8662-13.4619,2.8486-7.3018,6.35-9.3877,11.917-7.166C248.1458,156.9648,249.2933,160.9053,246.4446,168.2051Zm-10.7734-4.2969c-1.6006,4.0986-1.3936,5.7188.7383,6.5684,2.13.85,3.375-.1914,4.9736-4.2891,1.6006-4.0986,1.417-5.708-.7363-6.5684C238.4915,158.76,237.27,159.8105,235.6712,163.9082Z" transform="translate(0 -0.8086)"/><path class="ad" d="M227.9466,151.4932l-3.4063,18.48c-.1748.9462-.6015,1.2509-1.3935,1.0976L217.09,169.9c-5.3173-1.0264-7.6054-4.1133-6.7011-9.0195.91-4.9356,4.11-6.9327,9.4511-5.9014l2.0948.4043.9-4.8779c.1679-.918.5751-1.2559,1.3925-1.0977l2.8125.543C227.8313,150.1035,228.1214,150.5459,227.9466,151.4932Zm-9.1133,8.374c-1.7637-.3418-2.791.3516-3.1025,2.0449s.3974,2.7217,2.16,3.0625l2.1992.4238.9414-5.1074Z" transform="translate(0 -0.8086)"/><path class="ad" d="M201.1673,154.8623l.0693,2.6318c.0244.9356-.3291,1.3223-1.16,1.337l-6.8594.124c-.832.0146-1.18-.3584-1.2041-1.2949l-.07-2.63c-.0244-.9073.3027-1.3223,1.1347-1.3369l6.8584-.1241C200.7679,153.5537,201.1429,153.9561,201.1673,154.8623Z" transform="translate(0 -0.8086)"/><path class="ad" d="M178.9544,149.3506l4.5684,18.2939c.2343.9375-.0264,1.3926-.8077,1.5821l-2.7734.6728c-.8057.1963-1.2266-.0937-1.4609-1.0312l-1.6377-6.5616-5.3194,1.2911,1.6387,6.5615c.2334.9375-.0264,1.3926-.8086,1.582l-2.7725.6729c-.7812.1894-1.2265-.0938-1.4609-1.0313l-4.5683-18.2939c-.2344-.9375.0263-1.3926.8085-1.5821l2.7735-.6728c.7812-.19,1.2256.0937,1.459,1.0312l1.66,6.6475,5.3194-1.291-1.6592-6.6475c-.2344-.9365.001-1.3857.8066-1.582l2.7735-.6719C178.2747,148.13,178.72,148.4141,178.9544,149.3506Z" transform="translate(0 -0.8086)"/><path class="ad" d="M161.5,163.7031c3.3594,7.1309,2.4922,11.126-2.9316,13.6582-5.4014,2.52-9.042.63-12.4-6.5009-3.36-7.1309-2.4922-11.126,2.9072-13.6475C154.5,154.6816,158.14,156.5723,161.5,163.7031Zm-10.4482,4.877c1.8857,4.0039,3.2011,4.9736,5.2685,4.01s2.1582-2.5937.2725-6.5957c-1.8868-4.0039-3.18-4.9843-5.2686-4.0087S149.1653,164.5781,151.0521,168.58Z" transform="translate(0 -0.8086)"/><path class="ad" d="M136.7454,165.6328l11.1,15.2842c.5694.7832.5,1.3047-.1513,1.7764l-4.9717,3.6045c-4.3633,3.163-8.1621,2.6943-11.1094-1.3643-2.9648-4.082-2.2373-7.7988,2.1475-10.9775l1.72-1.2471-2.9287-4.0342c-.5528-.76-.52-1.29.1494-1.7764l2.3086-1.6728C135.6585,164.7539,136.1771,164.85,136.7454,165.6328Zm-.1221,12.4434a2.6113,2.6113,0,1,0,3.0684,4.2246l1.8037-1.3086-3.0683-4.2246Z" transform="translate(0 -0.8086)"/><path class="ad" d="M114.78,183.6348,129.2972,195.71c.7431.6191.8066,1.1425.2939,1.7617l-1.8154,2.1972c-.5283.64-1.0361.6563-1.78.0372l-5.208-4.3311L117.306,199.59l5.206,4.3321c.7442.6181.8067,1.1416.294,1.7607l-1.8145,2.1983c-.5117.6191-1.0361.6552-1.78.0371l-14.5185-12.0772c-.7422-.6181-.8047-1.1416-.293-1.7617l1.8154-2.1973c.5118-.62,1.0362-.6552,1.7793-.0361l5.2754,4.3877,3.4834-4.2158-5.2754-4.3877c-.7441-.6182-.8232-1.1231-.2939-1.7617L113,183.67C113.511,183.0518,114.0354,183.0156,114.78,183.6348Z" transform="translate(0 -0.8086)"/><path class="ad" d="M109.3392,205.6758c6.9238,3.7529,8.6093,7.499,5.7861,12.7842-2.8106,5.2617-6.8408,5.91-13.7656,2.1562s-8.6075-7.499-5.7969-12.7607C98.3851,202.5693,102.4153,201.9219,109.3392,205.6758Zm-5.4366,10.1816c3.8858,2.1074,5.5137,2.1035,6.5889.0908s.1807-3.3837-3.7061-5.49-5.5029-2.1269-6.59-.0908S100.0149,213.751,103.9026,215.8574Z" transform="translate(0 -0.8086)"/><path class="ad" d="M90.7327,222.0625l17.9619,5.6533c.92.2891,1.1768.751.9405,1.5215l-1.8018,5.8857c-1.583,5.167-4.8877,7.0684-9.6572,5.5674-4.7979-1.51-6.4375-4.9394-4.8477-10.1308l.624-2.0371L89.2112,227.03c-.8925-.28-1.1845-.7266-.94-1.5215l.8359-2.7315C89.3421,222.0059,89.8118,221.7734,90.7327,222.0625Zm7.335,10.0967c-.5244,1.7138.0527,2.8213,1.6982,3.3408,1.6465.5176,2.7422-.0645,3.2666-1.7783l.6543-2.1358-4.9658-1.5625Z" transform="translate(0 -0.8086)"/><path class="ad" d="M84.02,249.7363l18.7666,1.02c.961.0528,1.3233.4366,1.2862,1.2432l-.1319,2.86c-.0381.832-.4336,1.1494-1.3945,1.0976l-6.7315-.3662-.2529,5.4873,6.7315.3662c.9609.0518,1.3222.4365,1.2861,1.2422l-.1328,2.8613c-.0362.8067-.4317,1.1494-1.3945,1.0967L83.2864,265.627c-.96-.0528-1.3232-.4375-1.2861-1.2442l.1318-2.86c.0371-.8057.4336-1.1495,1.3946-1.0967l6.8193.37.2529-5.4873-6.8193-.37c-.9609-.0518-1.3242-.4112-1.2861-1.2432l.1318-2.86C82.6624,250.0283,83.0579,249.6846,84.02,249.7363Z" transform="translate(0 -0.8086)"/><path class="ad" d="M92.8606,270.7578c7.7549-1.1308,11.334.876,12.2481,6.8291.91,5.9268-1.91,8.8682-9.6631,9.999-7.7549,1.1319-11.334-.875-12.2461-6.8027C82.2864,274.83,85.1058,271.8887,92.8606,270.7578Zm1.7618,11.4688c4.3535-.6358,5.6455-1.6153,5.2978-3.8828s-1.88-2.835-6.2324-2.1993-5.6514,1.5879-5.2979,3.8819C88.7415,282.3193,90.2688,282.8613,94.6224,282.2266Z" transform="translate(0 -0.8086)"/><path class="ad" d="M87.8479,295.1465l17.6758-6.2266c.9063-.3193,1.3858-.1006,1.6582.6612l2.085,5.8242c1.831,5.1113.3379,8.626-4.3555,10.2793-4.7217,1.6631-8.0781-.1162-9.916-5.253l-.7217-2.0146-4.666,1.6435c-.8779.31-1.3769.125-1.6592-.6611l-.9677-2.7031C86.7083,295.9346,86.9437,295.4648,87.8479,295.1465Zm11.876,3.7314c.6065,1.6953,1.73,2.2412,3.3487,1.6709s2.1435-1.6963,1.5371-3.3916l-.7569-2.1142-4.8857,1.7216Z" transform="translate(0 -0.8086)"/><path class="ad" d="M104.4622,316.6514l2.23-1.3731c.791-.4892,1.3066-.376,1.7461.335l3.6318,5.8623c.4405.7109.2969,1.1982-.4951,1.6865l-2.2285,1.3731c-.7666.4736-1.293.3984-1.7334-.3116l-3.6318-5.8642C103.5413,317.6494,103.6946,317.124,104.4622,316.6514Z" transform="translate(0 -0.8086)"/><path class="p" d="M168.2667,331.9066a13.6451,13.6451,0,0,1-7.77,2.5878c-12.6689,0-23.2185-19.8094-25.47-45.9821-21.5025-14.9261-33.5494-33.5032-27.5087-43.9607,4.1059-7.1061,15.6115-8.8568,29.9906-5.7528,8.2174-31.9715,32.8065-55.1785,61.8584-55.1785,28.954,0,53.4682,23.0457,61.7663,54.8387,14.6555-3.2766,26.426-1.5779,30.5837,5.6261,6.0868,10.5439-6.19,29.3167-27.9924,44.3005-2.2055,26.236-12.6458,46.1088-25.1994,46.1088a13.4212,13.4212,0,0,1-7.6647-2.5683" transform="translate(0 -0.8086)"/><path class="p" d="M230.7547,330.9282c-3.8305,5.5431-8.3754,8.7489-13.2483,8.7489a11.946,11.946,0,0,1-5.6262-1.4627c-.2361-.1267-.4722-.2591-.7025-.4031-.1958.2361-.3916.4665-.5931.691-3.2939,3.7028-7.0024,5.7817-10.93,5.7817-3.8755,0-7.5379-2.0271-10.7973-5.6377-.2476-.2706-.4894-.547-.7255-.835-.2937.1786-.5817.3455-.8811.4953a11.8452,11.8452,0,0,1-5.4476,1.37c-4.9466,0-9.5534-3.3054-13.4232-9.0006" transform="translate(0 -0.8086)"/><path class="ae" d="M168.2667,331.9066a13.6451,13.6451,0,0,1-7.77,2.5878c-12.6689,0-23.2185-19.8094-25.47-45.9821-21.5025-14.9261-33.5494-33.5032-27.5087-43.9607,4.1059-7.1061,15.6115-8.8568,29.9906-5.7528,8.2174-31.9715,32.8065-55.1785,61.8584-55.1785,28.954,0,53.4682,23.0457,61.7663,54.8387,14.6555-3.2766,26.426-1.5779,30.5837,5.6261,6.0868,10.5439-6.19,29.3167-27.9924,44.3005-2.2055,26.236-12.6458,46.1088-25.1994,46.1088a13.4212,13.4212,0,0,1-7.6647-2.5683" transform="translate(0 -0.8086)"/><path class="ae" d="M230.7547,330.9282c-3.8305,5.5431-8.3754,8.7489-13.2483,8.7489a11.946,11.946,0,0,1-5.6262-1.4627c-.2361-.1267-.4722-.2591-.7025-.4031-.1958.2361-.3916.4665-.5931.691-3.2939,3.7028-7.0024,5.7817-10.93,5.7817-3.8755,0-7.5379-2.0271-10.7973-5.6377-.2476-.2706-.4894-.547-.7255-.835-.2937.1786-.5817.3455-.8811.4953a11.8452,11.8452,0,0,1-5.4476,1.37c-4.9466,0-9.5534-3.3054-13.4232-9.0006" transform="translate(0 -0.8086)"/><path class="p" d="M168.2667,331.9066a13.6451,13.6451,0,0,1-7.77,2.5878c-12.6689,0-23.2185-19.8094-25.47-45.9821-21.5025-14.9261-33.5494-33.5032-27.5087-43.9607,4.1059-7.1061,15.6115-8.8568,29.9906-5.7528,8.2174-31.9715,32.8065-55.1785,61.8584-55.1785,28.954,0,53.4682,23.0457,61.7663,54.8387,14.6555-3.2766,26.426-1.5779,30.5837,5.6261,6.0868,10.5439-6.19,29.3167-27.9924,44.3005-2.2055,26.236-12.6458,46.1088-25.1994,46.1088a13.4212,13.4212,0,0,1-7.6647-2.5683" transform="translate(0 -0.8086)"/><path class="p" d="M230.7547,330.9282c-3.8305,5.5431-8.3754,8.7489-13.2483,8.7489a11.946,11.946,0,0,1-5.6262-1.4627c-.2361-.1267-.4722-.2591-.7025-.4031-.1958.2361-.3916.4665-.5931.691-3.2939,3.7028-7.0024,5.7817-10.93,5.7817-3.8755,0-7.5379-2.0271-10.7973-5.6377-.2476-.2706-.4894-.547-.7255-.835-.2937.1786-.5817.3455-.8811.4953a11.8452,11.8452,0,0,1-5.4476,1.37c-4.9466,0-9.5534-3.3054-13.4232-9.0006" transform="translate(0 -0.8086)"/><path class="af" d="M263.7253,288.3864c-2.2071,26.234-12.645,46.1081-25.2017,46.1081a13.438,13.438,0,0,1-7.6637-2.567h-.8217c-3.674,4.9269-7.9592,7.7486-12.533,7.7486a11.9779,11.9779,0,0,1-5.6264-1.46c-.2343-.129-.472-.2614-.7-.404-.197.2343-.3939.4652-.5942.6893-3.2937,3.7045-7.0017,5.7826-10.93,5.7826-3.8743,0-7.5381-2.0272-10.7978-5.6366-.2479-.2717-.489-.5467-.7267-.8353-.292.1766-.5806.3463-.8794.4957a11.8668,11.8668,0,0,1-5.4465,1.3684c-4.5806,0-8.8691-2.8319-12.55-7.769h-.9881a13.6389,13.6389,0,0,1-7.769,2.5874c-12.6688,0-23.2188-19.81-25.47-45.9824-21.504-14.9268-33.5514-33.5039-27.5107-43.9621,4.1086-7.1035,15.6127-8.8556,29.9929-5.7521,8.2172-31.969,32.8043-55.1776,61.8566-55.1776,28.9538,0,53.47,23.0456,61.7683,54.838,14.6552-3.2766,26.4241-1.5789,30.5837,5.6265C297.803,254.628,285.5247,273.4019,263.7253,288.3864Z" transform="translate(0 -0.8086)"/><path class="ag" d="M168.2667,331.9066a13.6451,13.6451,0,0,1-7.77,2.5878c-12.6689,0-23.2185-19.8094-25.47-45.9821-21.5025-14.9261-33.5494-33.5032-27.5087-43.9607,4.1059-7.1061,15.6115-8.8568,29.9906-5.7528,8.2174-31.9715,32.8065-55.1785,61.8584-55.1785,28.954,0,53.4682,23.0457,61.7663,54.8387,14.6555-3.2766,26.426-1.5779,30.5837,5.6261,6.0868,10.5439-6.19,29.3167-27.9924,44.3005-2.2055,26.236-12.6458,46.1088-25.1994,46.1088a13.4212,13.4212,0,0,1-7.6647-2.5683" transform="translate(0 -0.8086)"/><path class="ag" d="M230.7547,330.9282c-3.8305,5.5431-8.3754,8.7489-13.2483,8.7489a11.946,11.946,0,0,1-5.6262-1.4627c-.2361-.1267-.4722-.2591-.7025-.4031-.1958.2361-.3916.4665-.5931.691-3.2939,3.7028-7.0024,5.7817-10.93,5.7817-3.8755,0-7.5379-2.0271-10.7973-5.6377-.2476-.2706-.4894-.547-.7255-.835-.2937.1786-.5817.3455-.8811.4953a11.8452,11.8452,0,0,1-5.4476,1.37c-4.9466,0-9.5534-3.3054-13.4232-9.0006" transform="translate(0 -0.8086)"/><path class="ah" d="M201.4544,266.1339c-.3743.622-.76,1.2209-1.1517,1.7967-.2418-.1612-.478-.34-.72-.524C200.2163,267.0034,200.8383,266.5773,201.4544,266.1339Z" transform="translate(0 -0.8086)"/><path class="ah" d="M201.4544,266.1339c-.3743.622-.76,1.2209-1.1517,1.7967-.2418-.1612-.478-.34-.72-.524C200.2163,267.0034,200.8383,266.5773,201.4544,266.1339Z" transform="translate(0 -0.8086)"/><path class="ai" d="M213.0429,255.3827c0,7.5534-5.4951,13.6766-12.2737,13.6766s-12.2738-6.1232-12.2738-13.6766l8.323,1.1a28.6194,28.6194,0,0,0,7.3284.0218Z" transform="translate(0 -0.8086)"/><ellipse class="aj" cx="179.4976" cy="232.6916" rx="9.1786" ry="13.6766"/><ellipse class="ak" cx="178.4104" cy="225.0615" rx="3.8759" ry="4.3189"/><ellipse class="aj" cx="218.6557" cy="232.6916" rx="9.1786" ry="13.6766"/><ellipse class="ak" cx="217.5685" cy="225.0615" rx="3.8759" ry="4.3189"/><text class="al" transform="translate(453.2923 141.8936)"><tspan class="am">L</tspan><tspan x="5.4961" y="0">o</tspan><tspan class="an" x="12.084" y="0">r</tspan><tspan x="15.8877" y="0">em ipsum</tspan></text></g></svg>