<svg xmlns="http://www.w3.org/2000/svg" viewBox="0 0 208.6775 228.7172"><defs><style>.a{fill:#95d9cc;}.a,.b,.c,.d{stroke:#1d1f21;stroke-miterlimit:10;}.b{fill:#fffdfa;}.c{fill:#f86151;}.d{fill:#054b8c;}</style></defs><title>logout</title><path class="a" d="M172.9579,127.4616l10.9494,34.8968a33.0825,33.0825,0,0,1-21.663,41.4764L89.4342,226.69a33.0935,33.0935,0,0,1-41.4765-21.6631L13.57,95.4574A33.1034,33.1034,0,0,1,35.233,53.981l57.6647-18.1a62.97,62.97,0,1,1,80.06,91.5807Z"/><rect class="b" x="-1.682" y="53.9669" width="181.0118" height="142.4887" rx="26.6543" transform="translate(-4.048 247.4502) rotate(-107.4224)"/><path class="c" d="M-26.6186,124.2281H101.0847a26.6543,26.6543,0,0,1,26.6543,26.6543v7.6916a0,0,0,0,1,0,0H-53.2728a0,0,0,0,1,0,0v-7.6916a26.6543,26.6543,0,0,1,26.6543-26.6543Z" transform="translate(-86.5328 219.2633) rotate(-107.4224)"/><circle class="d" cx="141.4876" cy="63.4701" r="62.9701"/><path class="b" d="M141.83,19.5156a45.5326,45.5326,0,0,0-7.4711.6153v20.251a7.25,7.25,0,0,0,7.2484,7.2485h.0059a7.25,7.25,0,0,0,7.2484-7.2485V20.0606A45.5985,45.5985,0,0,0,141.83,19.5156Zm12.0124,1.6173c-.65-.1817-1.3067-.3457-1.9689-.4981v14.368c.668.2285,1.3243.4746,1.9689.75a31.245,31.245,0,1,1-24.0247.0058q.7558-.3252,1.5293-.5977V20.74c-.5156.123-1.0254.2519-1.5293.3926a45.1957,45.1957,0,1,0,24.0247,0Z"/><path class="b" d="M148.8618,34.1531v6.2288a7.25,7.25,0,0,1-7.2484,7.2485h-.0059a7.25,7.25,0,0,1-7.2484-7.2485V34.2586a31.3989,31.3989,0,0,1,14.5027-.1055Z"/><rect class="b" x="134.3591" y="7.9486" width="14.5027" height="39.6817" rx="7.2484"/><rect class="b" x="134.3591" y="7.9486" width="14.5027" height="39.6817" rx="7.2484"/></svg>