<svg xmlns="http://www.w3.org/2000/svg" viewBox="0 0 208.6057 228.802"><defs><style>.a{fill:#95d9cc;}.a,.b,.c,.d,.e{stroke:#1d1f21;stroke-miterlimit:10;}.a,.b,.c{stroke-width:0.9283px;}.b,.e{fill:#fffdfa;}.c{fill:#f86151;}.d{fill:#054b8c;}.d,.e{stroke-width:1.2414px;}</style></defs><title>logout</title><path class="a" d="M172.9221,127.5823l10.9494,34.8969a33.0826,33.0826,0,0,1-21.663,41.4763L89.3984,226.81a33.0936,33.0936,0,0,1-41.4766-21.6631L13.5341,95.5781a33.1034,33.1034,0,0,1,21.663-41.4764l57.6648-18.1a62.97,62.97,0,1,1,80.06,91.5807Z"/><rect class="b" x="-1.7178" y="54.0876" width="181.0118" height="142.4887" rx="26.6543" transform="translate(-4.2098 247.5728) rotate(-107.4224)"/><path class="c" d="M-26.6544,124.3488H101.0488a26.6543,26.6543,0,0,1,26.6543,26.6543v7.6916a0,0,0,0,1,0,0H-53.3087a0,0,0,0,1,0,0v-7.6916a26.6543,26.6543,0,0,1,26.6543-26.6543Z" transform="translate(-86.6946 219.386) rotate(-107.4224)"/><circle class="d" cx="141.4517" cy="63.5908" r="62.9701"/><path class="e" d="M141.7943,19.6363a45.5326,45.5326,0,0,0-7.4711.6153V40.5027a7.25,7.25,0,0,0,7.2485,7.2484h.0058a7.25,7.25,0,0,0,7.2485-7.2484V20.1813A45.6123,45.6123,0,0,0,141.7943,19.6363Zm12.0124,1.6173c-.65-.1817-1.3067-.3457-1.9689-.4981v14.368c.6681.2285,1.3243.4746,1.9689.75a31.2451,31.2451,0,1,1-24.0247.0059q.7558-.3252,1.5294-.5977V20.861c-.5157.1231-1.0255.252-1.5294.3926a45.1958,45.1958,0,1,0,24.0247,0Z"/><path class="e" d="M148.826,34.2738v6.2289a7.25,7.25,0,0,1-7.2485,7.2484h-.0058a7.25,7.25,0,0,1-7.2485-7.2484V34.3793a31.3993,31.3993,0,0,1,14.5028-.1055Z"/><rect class="e" x="134.3232" y="8.0693" width="14.5027" height="39.6817" rx="7.2484"/><rect class="e" x="134.3232" y="8.0693" width="14.5027" height="39.6817" rx="7.2484"/></svg>