<svg xmlns="http://www.w3.org/2000/svg" viewBox="0 0 252.9839 253.3956"><defs><style>.a{fill:#95d9cc;}.a,.b,.c,.d,.e{stroke:#1d1f21;stroke-miterlimit:10;}.b{fill:none;}.c,.f{fill:#fffdfa;}.d{fill:#f86151;}.e{fill:#054b8c;}</style></defs><title>recipe</title><path class="a" d="M251.0334,80.3983a41.31,41.31,0,0,1-40.44,30.49l-23.75,87.56-2.79,10.29a30.3577,30.3577,0,0,1-37.25,21.35l-5.66-1.53-47.36,21.87a26.6505,26.6505,0,0,1-35.38-13.01l-42.24-91.45a26.6461,26.6461,0,0,1,13.02-35.38l61.68-28.49a26.4782,26.4782,0,0,1,13.86-2.33,41.3092,41.3092,0,0,1,36.99-71.82,40.861,40.861,0,0,1,14.52,7.24,36.2165,36.2165,0,0,1,49.56,13.44,41.3065,41.3065,0,0,1,45.24,51.77Z"/><line class="b" x1="135.368" y1="97.7204" x2="118.9639" y2="158.2001"/><line class="b" x1="182.1023" y1="110.3962" x2="165.6983" y2="170.876"/><line class="b" x1="159.285" y1="104.2074" x2="142.8809" y2="164.6872"/><rect class="c" x="5.5289" y="102.5951" width="154.0432" height="121.2596" rx="26.6543" transform="translate(-31.0114 306.6147) rotate(-114.7936)"/><path class="d" d="M-10.5915,167.9072H92.1445a25.6535,25.6535,0,0,1,25.6535,25.6535v3.5752a0,0,0,0,1,0,0H-36.2451a0,0,0,0,1,0,0v-3.5752a25.6535,25.6535,0,0,1,25.6535-25.6535Z" transform="translate(-107.8213 296.08) rotate(-114.7936)"/><rect class="c" x="37.6767" y="208.2823" width="9.4796" height="25.2789" rx="4.16" transform="translate(-140.3542 352.0723) rotate(-114.7936)"/><rect class="c" x="27.7385" y="186.7678" width="9.4796" height="25.2789" rx="4.16" transform="translate(-134.9286 312.5135) rotate(-114.7936)"/><rect class="c" x="17.8004" y="165.2534" width="9.4796" height="25.2789" rx="4.16" transform="translate(-129.503 272.9548) rotate(-114.7936)"/><rect class="c" x="7.8622" y="143.7389" width="9.4796" height="25.2789" rx="4.16" transform="translate(-124.0774 233.3961) rotate(-114.7936)"/><path class="c" d="M213.5,75.7482,181.8466,192.4519,81.78,165.3106,113.4339,48.607c3.5205-12.98,19.4924-19.9412,35.679-15.5509L190.5689,44.3C206.7556,48.6906,217.0209,62.7685,213.5,75.7482Z"/><path class="e" d="M181.8466,192.4519l-2.7887,10.2815A30.3617,30.3617,0,0,1,141.8042,224.09l-41.456-11.2442a30.3616,30.3616,0,0,1-21.3567-37.2537L81.78,165.3106Z"/><path class="c" d="M119.5471,82.626a41.78,41.78,0,0,1-4.4572-.9521A41.3019,41.3019,0,1,1,167.1757,40.02"/><path class="c" d="M171.32,41.4055a41.2837,41.2837,0,1,1,18.9887,60.3172"/><path class="c" d="M134.3248,31.111a36.2586,36.2586,0,0,1,69.9884,18.9831"/><rect class="f" x="164.5747" y="33.4556" width="18.2298" height="12.533" transform="translate(16.4549 -44.0823) rotate(15.1753)"/><line class="c" x1="130.368" y1="91.7204" x2="113.9639" y2="152.2001"/><line class="c" x1="177.1023" y1="104.3962" x2="160.6983" y2="164.876"/><line class="c" x1="154.285" y1="98.2074" x2="137.8809" y2="158.6872"/></svg>