<svg xmlns="http://www.w3.org/2000/svg" viewBox="0 0 173.8579 217.2886"><defs><style>.a{fill:#95d9cc;}.a,.b,.c,.d,.e{stroke:#1d1f21;stroke-miterlimit:10;}.b{fill:#fffdfa;}.c{fill:#f86151;}.d{fill:#054b8c;}.e{fill:#0eb495;}</style></defs><title>todolist</title><rect class="a" x="-11.25" y="42.5386" width="195" height="153.5" rx="26.6543" transform="translate(-33.0386 205.5386) rotate(-90)"/><rect class="b" x="-20.25" y="34.5386" width="195" height="153.5" rx="26.6543" transform="translate(-34.0386 188.5386) rotate(-90)"/><path class="c" d="M27.4043,13.7886h99.6915A26.6543,26.6543,0,0,1,153.75,40.4428V50.7886a0,0,0,0,1,0,0H.75a0,0,0,0,1,0,0V40.4428A26.6543,26.6543,0,0,1,27.4043,13.7886Z"/><rect class="d" x="88.7499" y="124.2882" width="12" height="92.9998" rx="6" transform="translate(-76.0382 265.538) rotate(-90)"/><rect class="d" x="88.7499" y="94.2882" width="12" height="92.9998" rx="6" transform="translate(-46.0382 235.538) rotate(-90)"/><rect class="d" x="88.7499" y="64.2882" width="12" height="92.9998" rx="6" transform="translate(-16.0382 205.538) rotate(-90)"/><rect class="d" x="88.7499" y="34.2882" width="12" height="92.9998" rx="6" transform="translate(13.9618 175.538) rotate(-90)"/><rect class="e" x="21.75" y="164.7882" width="12" height="13" rx="5.5" transform="translate(-143.5382 199.0383) rotate(-90)"/><rect class="e" x="21.75" y="134.7882" width="12" height="13" rx="5.5" transform="translate(-113.5382 169.0383) rotate(-90)"/><rect class="e" x="21.75" y="104.7882" width="12" height="13" rx="5.5" transform="translate(-83.5382 139.0383) rotate(-90)"/><rect class="e" x="21.75" y="74.7882" width="12" height="13" rx="5.5" transform="translate(-53.5382 109.0383) rotate(-90)"/><circle class="e" cx="146.4636" cy="27.3943" r="26.8943"/><polygon class="b" points="167.25 20.163 150.397 37.015 145.246 42.159 140.103 37.015 126.38 23.292 131.523 18.141 145.246 31.864 162.099 15.012 167.25 20.163"/></svg>